<svg width="24" height="36" viewBox="0 0 24 36" fill="none" xmlns="http://www.w3.org/2000/svg">
<path d="M5.47517 4.66111C5.49809 4.66106 5.52101 4.661 5.54463 4.66095C5.6219 4.66079 5.69917 4.6608 5.77643 4.66081C5.83221 4.66073 5.88799 4.66064 5.94376 4.66055C6.08128 4.66034 6.21879 4.66024 6.35631 4.66018C6.52102 4.66011 6.68572 4.65991 6.85043 4.65971C7.24859 4.65922 7.64676 4.65897 8.04493 4.65877C8.23336 4.65867 8.42178 4.65854 8.61021 4.65842C9.25541 4.658 9.90061 4.65765 10.5458 4.65748C10.5863 4.65747 10.6268 4.65745 10.6673 4.65744C10.6874 4.65744 10.7075 4.65743 10.7282 4.65743C10.83 4.6574 10.9318 4.65737 11.0335 4.65734C11.0537 4.65733 11.0739 4.65733 11.0947 4.65732C11.7492 4.65714 12.4036 4.65659 13.0581 4.65583C13.7502 4.65502 14.4424 4.65456 15.1345 4.65448C15.2106 4.65447 15.2866 4.65446 15.3627 4.65445C15.3814 4.65445 15.4001 4.65445 15.4194 4.65444C15.7203 4.65439 16.0211 4.65402 16.3219 4.65354C16.6246 4.65307 16.9273 4.65294 17.23 4.65316C17.4096 4.65328 17.5892 4.65315 17.7689 4.65263C17.9033 4.65228 18.0378 4.65242 18.1722 4.65274C18.2264 4.6528 18.2805 4.6527 18.3347 4.65242C18.7581 4.65037 19.1365 4.68996 19.5234 4.8752C19.5532 4.88852 19.5532 4.88852 19.5836 4.90211C19.8087 5.0071 20.0321 5.16263 20.2031 5.34395C20.2031 5.35941 20.2031 5.37488 20.2031 5.39082C20.2186 5.39082 20.2341 5.39082 20.25 5.39082C20.287 5.43601 20.3215 5.48111 20.3555 5.52852C20.4266 5.62783 20.4266 5.62783 20.5078 5.71895C20.5353 5.7699 20.5615 5.8208 20.5869 5.87275C20.5942 5.88746 20.6015 5.90217 20.6089 5.91732C20.743 6.19022 20.743 6.19022 20.7891 6.32832C20.7813 6.34379 20.7736 6.35926 20.7656 6.3752C20.7811 6.38293 20.7966 6.39066 20.8125 6.39863C20.822 6.45188 20.822 6.45188 20.8271 6.5231C20.8291 6.54949 20.831 6.57587 20.833 6.60306C20.8348 6.63182 20.8367 6.66058 20.8385 6.69021C20.8405 6.71991 20.8425 6.7496 20.8445 6.78019C20.8628 7.07462 20.8657 7.36816 20.8649 7.66306C20.8649 7.72119 20.8649 7.77933 20.8649 7.83747C20.865 7.96257 20.8649 8.08766 20.8646 8.21276C20.8643 8.39897 20.8642 8.58517 20.8642 8.77137C20.8642 9.08575 20.864 9.40014 20.8636 9.71452C20.8633 10.0278 20.863 10.341 20.8629 10.6543C20.8629 10.6739 20.8629 10.6936 20.8629 10.7139C20.8629 10.8138 20.8628 10.9137 20.8628 11.0137C20.8626 11.7218 20.8622 12.43 20.8616 13.1381C20.8616 13.1809 20.8616 13.2236 20.8615 13.2664C20.8615 13.3306 20.8614 13.3947 20.8614 13.4589C20.8613 13.5231 20.8613 13.5873 20.8612 13.6515C20.8612 13.6832 20.8612 13.6832 20.8612 13.7156C20.8608 14.2014 20.8605 14.6872 20.8602 15.1729C20.8602 15.1936 20.8602 15.2143 20.8601 15.2356C20.8598 15.7129 20.8596 16.1902 20.8594 16.6676C20.8594 16.6982 20.8594 16.6982 20.8594 16.7294C20.8593 16.9138 20.8592 17.0981 20.8591 17.2824C20.859 17.7144 20.8587 18.1464 20.8583 18.5783C20.8579 19.02 20.8576 19.4617 20.8575 19.9034C20.8575 19.9302 20.8574 19.9302 20.8574 19.9574C20.857 21.3507 20.8643 22.7438 20.8745 24.137C20.8756 24.2846 20.8766 24.4323 20.8777 24.5799C20.8778 24.5977 20.878 24.6154 20.8781 24.6336C20.8814 25.1023 20.8839 25.5709 20.8839 26.0396C20.8839 26.074 20.8839 26.074 20.8839 26.1091C20.8838 26.4691 20.8798 26.829 20.8728 27.1889C20.8697 27.3474 20.867 27.5059 20.8644 27.6643C20.864 27.6885 20.864 27.6885 20.8636 27.7131C20.8598 27.9587 20.8587 28.2042 20.8595 28.4498C20.8595 28.4659 20.8595 28.4819 20.8596 28.4984C20.86 28.6661 20.8609 28.8338 20.8623 29.0015C20.8673 29.7822 20.8673 29.7822 20.7495 30.1013C20.7434 30.1186 20.7373 30.1359 20.731 30.1537C20.6357 30.4141 20.5004 30.6331 20.3203 30.8439C20.3054 30.8633 20.2906 30.8827 20.2753 30.9027C20.0792 31.1379 19.7947 31.2967 19.5234 31.4299C19.508 31.4454 19.4925 31.4608 19.4766 31.4768C19.416 31.4948 19.3563 31.5106 19.2949 31.5251C19.2784 31.5292 19.2619 31.5332 19.2449 31.5374C19.0592 31.5825 18.8808 31.6005 18.6899 31.6071C18.6618 31.6081 18.6337 31.6091 18.6047 31.6101C18.2768 31.6203 17.9487 31.62 17.6206 31.6203C17.5923 31.6204 17.564 31.6204 17.5348 31.6205C17.4537 31.6206 17.3726 31.6206 17.2915 31.6205C17.2667 31.6205 17.2419 31.6206 17.2164 31.6206C17.1937 31.6206 17.171 31.6205 17.1476 31.6204C17.1277 31.6204 17.1078 31.6204 17.0873 31.6204C17.0391 31.6174 17.0391 31.6174 16.9922 31.5939C16.9845 31.6172 16.9767 31.6404 16.9688 31.6643C16.961 31.6488 16.9533 31.6333 16.9453 31.6174C16.9217 31.6175 16.898 31.6176 16.8736 31.6178C16.7858 31.6182 16.6979 31.6185 16.61 31.6187C16.572 31.6188 16.534 31.6189 16.496 31.6192C16.4413 31.6194 16.3866 31.6196 16.3319 31.6197C16.315 31.6198 16.298 31.6199 16.2806 31.62C16.2019 31.62 16.1299 31.6185 16.0547 31.5939C16.0547 31.6094 16.0547 31.6249 16.0547 31.6408C16.0083 31.6486 15.9619 31.6563 15.9141 31.6643C15.9141 31.6488 15.9141 31.6333 15.9141 31.6174C15.8857 31.6174 15.8574 31.6174 15.8282 31.6174C15.0756 31.6174 14.323 31.6174 13.5703 31.6174C13.5461 31.6175 13.522 31.6176 13.4971 31.6178C13.0364 31.6201 12.5774 31.6159 12.1172 31.5939C12.1172 31.6094 12.1172 31.6249 12.1172 31.6408C12.1017 31.6331 12.0863 31.6254 12.0703 31.6174C12.012 31.6157 11.9543 31.6152 11.896 31.6159C11.88 31.616 11.8641 31.6161 11.8476 31.6162C11.8047 31.6165 11.7617 31.617 11.7188 31.6174C11.6955 31.6174 11.6723 31.6174 11.6484 31.6174C11.6193 31.6177 11.5902 31.6179 11.5602 31.6182C11.5251 31.6184 11.4901 31.6186 11.4551 31.6189C11.4378 31.619 11.4205 31.6192 11.4026 31.6194C11.2945 31.6199 11.1926 31.6119 11.0859 31.5939C11.0782 31.6094 11.0705 31.6249 11.0625 31.6408C11.0625 31.6254 11.0625 31.6099 11.0625 31.5939C11.021 31.5973 10.9795 31.6007 10.938 31.6042C10.9149 31.6061 10.8918 31.608 10.868 31.61C10.8025 31.6155 10.8025 31.6155 10.7344 31.6408C10.7344 31.6254 10.7344 31.6099 10.7344 31.5939C10.6272 31.5962 10.5201 31.5986 10.4129 31.6014C10.3765 31.6023 10.3402 31.6031 10.3038 31.6038C10.2512 31.6049 10.1987 31.6063 10.1461 31.6077C10.1301 31.608 10.114 31.6082 10.0974 31.6085C9.99052 31.6117 9.89911 31.6345 9.79688 31.6643C9.75728 31.65 9.71821 31.6343 9.67969 31.6174C9.61658 31.6131 9.55554 31.6152 9.49219 31.6174C9.49219 31.6329 9.49219 31.6483 9.49219 31.6643C9.46898 31.6565 9.44578 31.6488 9.42188 31.6408C9.42188 31.6254 9.42188 31.6099 9.42188 31.5939C9.4025 31.595 9.4025 31.595 9.38272 31.5961C9.10625 31.6109 8.83094 31.6201 8.55404 31.6165C8.53362 31.6163 8.5132 31.6161 8.49216 31.6159C8.47421 31.6156 8.45625 31.6154 8.43776 31.6151C8.38575 31.6155 8.38575 31.6155 8.32031 31.6408C8.31258 31.6331 8.30484 31.6254 8.29688 31.6174C8.26223 31.6162 8.22753 31.6165 8.19287 31.6174C8.00056 31.6194 7.80904 31.6058 7.61719 31.5939C7.60945 31.6172 7.60172 31.6404 7.59375 31.6643C7.59375 31.6411 7.59375 31.6179 7.59375 31.5939C7.5813 31.5978 7.56885 31.6016 7.55603 31.6055C7.48736 31.6201 7.42376 31.6204 7.35352 31.6204C7.30905 31.6205 7.30905 31.6205 7.26369 31.6206C7.2314 31.6206 7.19912 31.6206 7.16684 31.6205C7.13362 31.6205 7.10041 31.6205 7.06719 31.6206C6.99763 31.6206 6.92806 31.6206 6.8585 31.6204C6.76949 31.6203 6.6805 31.6204 6.59149 31.6205C6.52291 31.6206 6.45433 31.6206 6.38574 31.6205C6.35293 31.6205 6.32013 31.6205 6.28732 31.6206C6.24138 31.6206 6.19545 31.6205 6.14951 31.6204C6.12341 31.6204 6.0973 31.6204 6.07041 31.6204C6.00519 31.6176 5.94625 31.6088 5.88281 31.5939C5.87508 31.6094 5.86734 31.6249 5.85938 31.6408C5.85938 31.6254 5.85938 31.6099 5.85938 31.5939C5.83869 31.5966 5.83869 31.5966 5.81758 31.5992C5.66241 31.617 5.51142 31.6194 5.35547 31.613C5.33118 31.612 5.30688 31.611 5.28185 31.61C5.06341 31.5984 4.84918 31.5678 4.64062 31.5002C4.63289 31.4847 4.62516 31.4693 4.61719 31.4533C4.58963 31.4446 4.58963 31.4446 4.56152 31.4357C4.14626 31.2925 3.79554 30.9753 3.5625 30.6096C3.54848 30.5881 3.53446 30.5667 3.52002 30.5446C3.24942 30.1095 3.19709 29.6337 3.21094 29.133C3.19547 29.1253 3.18 29.1175 3.16406 29.1096C3.1718 29.1018 3.17953 29.0941 3.1875 29.0861C3.18958 29.041 3.19 28.9958 3.18979 28.9506C3.18971 28.9216 3.18963 28.8925 3.18955 28.8626C3.18946 28.8469 3.18936 28.8313 3.18926 28.8152C3.18896 28.7661 3.18881 28.7169 3.1887 28.6678C3.18838 28.5456 3.18782 28.4233 3.18726 28.301C3.18679 28.1982 3.18642 28.0953 3.18619 27.9924C3.18604 27.9445 3.18575 27.8966 3.18545 27.8488C3.18495 27.6585 3.19316 27.4709 3.21094 27.2814C3.19547 27.2737 3.18 27.266 3.16406 27.258C3.1718 27.2425 3.17953 27.2271 3.1875 27.2111C3.18925 27.1492 3.18964 27.088 3.18896 27.0261C3.18888 27.0077 3.18879 26.9893 3.1887 26.9704C3.18831 26.8916 3.18766 26.8129 3.18702 26.7341C3.18659 26.6767 3.18631 26.6192 3.18604 26.5618C3.18584 26.544 3.18565 26.5263 3.18545 26.5081C3.18503 26.419 3.18926 26.3368 3.21094 26.2502C3.19547 26.2425 3.18 26.2347 3.16406 26.2268C3.16787 26.208 3.17167 26.1891 3.17559 26.1698C3.18979 26.07 3.19078 25.9736 3.19053 25.873C3.19057 25.852 3.19061 25.831 3.19066 25.8094C3.19076 25.7404 3.19069 25.6714 3.19061 25.6024C3.19063 25.5543 3.19065 25.5063 3.19068 25.4583C3.19072 25.3578 3.19067 25.2573 3.19056 25.1569C3.19042 25.0279 3.1905 24.8989 3.19064 24.7699C3.19072 24.6708 3.1907 24.5717 3.19064 24.4726C3.19062 24.425 3.19064 24.3775 3.19069 24.3299C3.19075 24.2635 3.19066 24.1972 3.19053 24.1309C3.19058 24.1111 3.19063 24.0914 3.19068 24.071C3.19286 23.9739 3.19286 23.9739 3.16406 23.883C3.17953 23.883 3.195 23.883 3.21094 23.883C3.2032 23.8675 3.19547 23.8521 3.1875 23.8361C3.1853 23.7918 3.18464 23.7474 3.18468 23.7029C3.18463 23.6602 3.18463 23.6602 3.18458 23.6165C3.18467 23.5846 3.18475 23.5527 3.18484 23.5208C3.18485 23.4871 3.18484 23.4534 3.18483 23.4197C3.18482 23.3267 3.18496 23.2338 3.18512 23.1409C3.18527 23.0408 3.18529 22.9407 3.18531 22.8406C3.18538 22.667 3.18553 22.4935 3.18574 22.3199C3.18603 22.0688 3.18617 21.8178 3.18628 21.5667C3.18644 21.1592 3.18669 20.7518 3.18702 20.3443C3.18704 20.3199 3.18706 20.2955 3.18708 20.2703C3.18724 20.0723 3.1874 19.8743 3.18756 19.6764C3.1877 19.5034 3.18784 19.3304 3.18798 19.1575C3.18801 19.1209 3.18801 19.1209 3.18804 19.0837C3.18836 18.6778 3.18859 18.272 3.18875 17.8662C3.18886 17.6157 3.18905 17.3652 3.18934 17.1147C3.18954 16.9431 3.18965 16.7715 3.1897 16.5999C3.18973 16.5008 3.18981 16.4018 3.18998 16.3027C3.19014 16.212 3.19019 16.1214 3.19015 16.0307C3.19016 15.9979 3.1902 15.965 3.19029 15.9322C3.19041 15.8876 3.19037 15.8431 3.19032 15.7985C3.19035 15.7613 3.19035 15.7613 3.19038 15.7234C3.18936 15.6567 3.18936 15.6567 3.17423 15.5938C3.16027 15.5189 3.18339 15.4683 3.21094 15.3986C3.19547 15.3909 3.18 15.3832 3.16406 15.3752C3.16787 15.3615 3.17168 15.3478 3.1756 15.3337C3.19408 15.2525 3.19071 15.1709 3.19048 15.0881C3.19051 15.0684 3.19055 15.0487 3.19059 15.0285C3.19068 14.9625 3.19061 14.8965 3.19053 14.8305C3.19056 14.7832 3.19061 14.7359 3.19066 14.6887C3.19076 14.5602 3.19072 14.4317 3.19065 14.3033C3.19059 14.169 3.19064 14.0347 3.19068 13.9005C3.19072 13.675 3.19067 13.4496 3.19056 13.2242C3.19043 12.9632 3.19047 12.7023 3.1906 12.4413C3.1907 12.2175 3.19072 11.9938 3.19066 11.77C3.19062 11.6362 3.19062 11.5024 3.19069 11.3687C3.19076 11.243 3.19072 11.1173 3.19058 10.9916C3.19055 10.9453 3.19056 10.8991 3.19061 10.8528C3.19067 10.79 3.19059 10.7271 3.19048 10.6642C3.19053 10.6457 3.19058 10.6272 3.19063 10.6081C3.1922 10.516 3.1922 10.516 3.16406 10.4299C3.16632 10.3785 3.17006 10.3273 3.17432 10.2761C3.18991 10.0589 3.19027 9.84178 3.19043 9.62422C3.19049 9.60672 3.19054 9.58923 3.1906 9.5712C3.19074 9.52082 3.19071 9.47044 3.19061 9.42006C3.19059 9.39056 3.19056 9.36106 3.19053 9.33067C3.19082 9.25716 3.19082 9.25716 3.16406 9.1877C3.17152 9.14076 3.1794 9.0939 3.1875 9.04707C3.18964 8.98608 3.19079 8.92576 3.19061 8.86479C3.19064 8.84769 3.19066 8.83059 3.19068 8.81297C3.1907 8.77699 3.19065 8.741 3.19056 8.70501C3.19043 8.65034 3.19055 8.59568 3.1907 8.54101C3.19069 8.50587 3.19066 8.47073 3.19061 8.43559C3.19066 8.41945 3.19071 8.4033 3.19076 8.38667C3.19027 8.28445 3.17856 8.18715 3.16406 8.08613C3.16793 8.061 3.1718 8.03586 3.17578 8.00996C3.1888 7.91232 3.1803 7.82811 3.16772 7.73091C3.16406 7.66426 3.16406 7.66426 3.17514 7.5868C3.1891 7.48901 3.18805 7.39652 3.18604 7.29805C3.18313 6.90401 3.22166 6.53723 3.35156 6.16426C3.35851 6.14275 3.36546 6.12124 3.37262 6.09907C3.56513 5.55509 4.05742 5.12279 4.55566 4.86787C4.5837 4.85482 4.61174 4.84177 4.64062 4.82832C4.66479 4.81624 4.68896 4.80415 4.71387 4.7917C4.84637 4.73557 4.99231 4.71526 5.13281 4.6877C5.1491 4.68358 5.16539 4.67946 5.18217 4.67522C5.27993 4.65942 5.3763 4.66095 5.47517 4.66111ZM5.08594 6.39863C5.08594 6.4141 5.08594 6.42957 5.08594 6.44551C5.07047 6.44551 5.055 6.44551 5.03906 6.44551C4.89453 6.61871 4.838 6.794 4.84296 7.01808C4.86162 7.19957 4.91711 7.37266 4.96875 7.54707C4.97642 7.57316 4.98408 7.59924 4.99198 7.62612C5.04894 7.81935 5.10717 8.01219 5.1659 8.20489C5.1797 8.25024 5.19345 8.2956 5.20719 8.34097C5.23309 8.42646 5.2591 8.51192 5.28516 8.59736C5.29308 8.6235 5.30101 8.64964 5.30917 8.67656C5.31647 8.70037 5.32378 8.72417 5.3313 8.7487C5.33769 8.76963 5.34408 8.79056 5.35066 8.81213C5.36308 8.85887 5.36308 8.85887 5.39062 8.88301C5.39727 8.90407 5.40392 8.92512 5.41077 8.94682C5.47604 9.13436 5.60591 9.30289 5.74219 9.44551C5.75766 9.44551 5.77312 9.44551 5.78906 9.44551C5.79456 9.45916 5.80006 9.47282 5.80573 9.48689C5.90007 9.65043 6.12289 9.7466 6.28711 9.8293C6.3026 9.83711 6.31808 9.84493 6.33404 9.85299C6.46918 9.91881 6.59778 9.96561 6.75 9.96113C6.75773 9.96887 6.76547 9.9766 6.77344 9.98457C6.81342 9.98683 6.8535 9.98743 6.89355 9.98739C6.91958 9.98742 6.94561 9.98745 6.97243 9.98749C7.00123 9.9874 7.03004 9.98732 7.05972 9.98723C7.08986 9.98724 7.12 9.98724 7.15106 9.98724C7.23396 9.98725 7.31686 9.98711 7.39976 9.98695C7.48633 9.9868 7.57291 9.98679 7.65948 9.98676C7.82355 9.98669 7.98763 9.98649 8.1517 9.98626C8.33835 9.986 8.525 9.98587 8.71165 9.98575C9.07979 9.98552 9.44792 9.98513 9.81605 9.98464C9.86708 9.98457 9.91795 9.98486 9.96899 9.98539C10.0015 9.98561 10.0339 9.98583 10.0664 9.98604C10.0829 9.98623 10.0993 9.98643 10.1163 9.98663C10.1583 9.98683 10.2002 9.9858 10.2422 9.98457C10.2499 9.97684 10.2577 9.9691 10.2656 9.96113C10.2656 9.96887 10.2656 9.9766 10.2656 9.98457C10.3511 9.98525 10.4365 9.98567 10.522 9.98604C10.5464 9.98623 10.5708 9.98643 10.5959 9.98663C10.6191 9.98671 10.6423 9.98678 10.6662 9.98686C10.6876 9.98698 10.7091 9.98711 10.7313 9.98723C10.7809 9.99018 10.7809 9.99018 10.8047 9.96113C10.8047 9.96887 10.8047 9.9766 10.8047 9.98457C11.6296 9.98618 12.4544 9.98742 13.2793 9.98816C13.3768 9.98825 13.4742 9.98834 13.5717 9.98843C13.5911 9.98845 13.6105 9.98847 13.6305 9.98849C13.9444 9.9888 14.2582 9.98935 14.572 9.99C14.8942 9.99065 15.2165 9.99104 15.5387 9.99119C15.7374 9.99128 15.9361 9.99159 16.1348 9.99216C16.2712 9.99253 16.4076 9.99264 16.5441 9.99255C16.6227 9.99251 16.7012 9.99261 16.7798 9.99295C16.8653 9.9933 16.9508 9.99322 17.0363 9.99303C17.073 9.99333 17.073 9.99333 17.1104 9.99365C17.3579 9.99216 17.5973 9.94409 17.8169 9.82783C17.8326 9.81971 17.8484 9.81158 17.8646 9.80321C18.0012 9.7305 18.1201 9.64374 18.2344 9.53926C18.2486 9.52687 18.2629 9.51448 18.2776 9.50172C18.6451 9.16262 18.7797 8.69059 18.9141 8.22676C18.928 8.17924 18.942 8.13172 18.956 8.08421C18.9904 7.96726 19.0243 7.85018 19.0581 7.73306C19.0781 7.6645 19.0984 7.59607 19.1189 7.52766C19.1317 7.48433 19.1444 7.44099 19.1572 7.39766C19.1631 7.37832 19.169 7.35898 19.175 7.33905C19.2421 7.10975 19.2773 6.87354 19.1701 6.65104C19.0794 6.49841 18.9538 6.36688 18.7969 6.28145C18.7314 6.26771 18.6759 6.25801 18.6094 6.25801C18.5901 6.25635 18.5707 6.2547 18.5508 6.25299C18.3698 6.23765 18.1908 6.2312 18.0092 6.23154C17.9814 6.2315 17.9536 6.23146 17.925 6.23141C17.8342 6.23131 17.7434 6.23138 17.6526 6.23146C17.5889 6.23145 17.5253 6.23142 17.4616 6.23139C17.3287 6.23135 17.1958 6.2314 17.0629 6.23152C16.9098 6.23164 16.7567 6.2316 16.6036 6.23147C16.4715 6.23137 16.3393 6.23135 16.2071 6.23141C16.1285 6.23145 16.0499 6.23145 15.9712 6.23138C15.8836 6.23132 15.7959 6.23141 15.7083 6.23154C15.6826 6.23149 15.657 6.23144 15.6306 6.23139C15.4815 6.2318 15.3355 6.23997 15.1875 6.25801C15.1875 6.27348 15.1875 6.28895 15.1875 6.30488C15.172 6.28941 15.1566 6.27395 15.1406 6.25801C15.078 6.25313 15.078 6.25313 15.0015 6.25654C14.8623 6.25891 14.7242 6.25608 14.5852 6.24995C14.2002 6.23304 13.8155 6.23118 13.4303 6.23151C13.336 6.23156 13.2418 6.23148 13.1475 6.23141C12.9639 6.23131 12.7803 6.23133 12.5968 6.2314C12.4476 6.23145 12.2985 6.23146 12.1494 6.23143C12.1174 6.23143 12.1174 6.23143 12.0847 6.23142C12.0413 6.23142 11.9979 6.23141 11.9545 6.2314C11.5498 6.23133 11.145 6.23141 10.7402 6.23154C10.3931 6.23164 10.0459 6.23162 9.69867 6.23152C9.29437 6.23139 8.89006 6.23134 8.48576 6.23141C8.44271 6.23142 8.39965 6.23143 8.3566 6.23143C8.33542 6.23144 8.31424 6.23144 8.29242 6.23145C8.14322 6.23147 7.99402 6.23143 7.84482 6.23138C7.6634 6.23131 7.48199 6.23133 7.30057 6.23145C7.20804 6.23152 7.11551 6.23154 7.02298 6.23146C6.93836 6.23139 6.85374 6.23143 6.76912 6.23155C6.7239 6.23159 6.67868 6.23152 6.63346 6.23144C6.59335 6.23153 6.59335 6.23153 6.55243 6.23162C6.52932 6.23163 6.5062 6.23163 6.48238 6.23163C6.42724 6.23431 6.38119 6.24399 6.32812 6.25801C6.29684 6.25033 6.2656 6.24249 6.23438 6.23457C6.17161 6.23235 6.10961 6.2313 6.04688 6.23164C6.0302 6.23155 6.01352 6.23146 5.99634 6.23137C5.91532 6.23152 5.84362 6.23691 5.76562 6.25801C5.71081 6.25116 5.65611 6.24334 5.60156 6.23457C5.41839 6.23457 5.22693 6.27722 5.08594 6.39863ZM4.85156 10.4533C4.82988 10.6107 4.82896 10.7579 4.83838 10.9162C4.8477 11.0989 4.85424 11.2811 4.85449 11.4641C4.8546 11.4829 4.8547 11.5017 4.85481 11.5211C4.85457 11.6234 4.84921 11.7238 4.83947 11.8257C4.82259 12.0414 4.8278 12.2565 4.83096 12.4726C4.83154 12.5193 4.8321 12.566 4.83265 12.6127C4.83383 12.7122 4.83508 12.8118 4.83638 12.9113C4.83981 13.1748 4.84264 13.4383 4.84543 13.7019C4.84571 13.7286 4.846 13.7554 4.84629 13.7829C4.85197 14.3221 4.85437 14.8611 4.85446 15.4003C4.85449 15.4641 4.85457 15.528 4.85466 15.5919C4.8548 15.6922 4.85481 15.7924 4.85471 15.8927C4.85469 15.9289 4.8547 15.9651 4.85475 16.0014C4.855 16.2062 4.84863 16.4089 4.83085 16.613C4.82517 16.6845 4.82517 16.6845 4.83949 16.7405C4.85421 16.819 4.8545 16.893 4.85451 16.973C4.85455 16.9897 4.85458 17.0065 4.85461 17.0237C4.8547 17.08 4.85462 17.1363 4.85454 17.1926C4.85457 17.2333 4.8546 17.274 4.85465 17.3147C4.85475 17.4266 4.8547 17.5386 4.85463 17.6505C4.85457 17.7713 4.85466 17.892 4.85472 18.0127C4.85482 18.2492 4.8548 18.4858 4.85473 18.7223C4.85468 18.9147 4.85467 19.107 4.8547 19.2993C4.8547 19.3266 4.85471 19.354 4.85471 19.3822C4.85472 19.4377 4.85472 19.4933 4.85473 19.5489C4.8548 20.0703 4.85472 20.5918 4.8546 21.1132C4.85449 21.5605 4.85451 22.0077 4.85462 22.455C4.85474 22.9743 4.85479 23.4936 4.85472 24.0129C4.85471 24.0683 4.85471 24.1237 4.8547 24.1791C4.8547 24.2064 4.85469 24.2337 4.85469 24.2618C4.85467 24.4537 4.8547 24.6457 4.85476 24.8377C4.85482 25.0718 4.8548 25.3059 4.85468 25.54C4.85462 25.6594 4.85459 25.7789 4.85467 25.8983C4.85474 26.0077 4.8547 26.1171 4.85458 26.2266C4.85455 26.266 4.85457 26.3055 4.85462 26.345C4.85488 26.5394 4.85228 26.7315 4.83086 26.925C4.8238 26.9778 4.8238 26.9778 4.85156 27.0236C4.8532 27.0636 4.85354 27.1037 4.85303 27.1438C4.85282 27.1651 4.8526 27.1864 4.85239 27.2084C4.85211 27.2248 4.85184 27.2411 4.85156 27.258C4.91354 27.1865 4.96269 27.1126 5.00977 27.031C5.07578 26.9181 5.15306 26.8195 5.23737 26.7197C5.27816 26.6758 5.27816 26.6758 5.27344 26.6252C5.28688 26.6191 5.30033 26.6129 5.31418 26.6066C5.37076 26.5764 5.41581 26.5414 5.46533 26.5007C5.56814 26.4196 5.67294 26.3569 5.78906 26.2971C5.81163 26.2847 5.8342 26.2722 5.85745 26.2594C5.98157 26.1932 6.08686 26.1412 6.22897 26.1378C6.28559 26.1345 6.28559 26.1345 6.35391 26.1097C6.45235 26.0811 6.5455 26.0794 6.64745 26.0796C6.66721 26.0795 6.68697 26.0793 6.70733 26.0792C6.77322 26.0788 6.8391 26.0787 6.90499 26.0787C6.95235 26.0784 6.99971 26.0782 7.04707 26.0779C7.17543 26.0773 7.30379 26.077 7.43215 26.0766C7.56638 26.0763 7.7006 26.0757 7.83482 26.0751C8.0889 26.074 8.34298 26.0731 8.59705 26.0723C8.88635 26.0714 9.17565 26.0703 9.46494 26.0691C10.06 26.0667 10.655 26.0646 11.25 26.0627C11.2692 25.9445 11.2672 25.8527 11.25 25.7346C11.2603 25.654 11.2603 25.654 11.2734 25.5939C11.258 25.5939 11.2425 25.5939 11.2266 25.5939C11.2304 25.5642 11.2343 25.5344 11.2383 25.5037C11.2518 25.382 11.2517 25.2622 11.25 25.1398C11.2484 24.9446 11.2537 24.7511 11.2672 24.5563C11.2701 24.5116 11.2719 24.4668 11.2734 24.4221C11.2657 24.4143 11.258 24.4066 11.25 24.3986C11.2502 24.3662 11.252 24.3338 11.2545 24.3014C11.2558 24.2817 11.2572 24.262 11.2586 24.2417C11.2616 24.2 11.2648 24.1583 11.2681 24.1167C11.2694 24.0969 11.2707 24.0771 11.2721 24.0568C11.2734 24.0386 11.2748 24.0205 11.2762 24.0018C11.2771 23.946 11.2771 23.946 11.2266 23.883C11.242 23.8753 11.2575 23.8675 11.2734 23.8596C11.2657 23.8518 11.258 23.8441 11.25 23.8361C11.2528 23.772 11.2569 23.7083 11.2617 23.6442C11.2728 23.4795 11.2695 23.3221 11.2544 23.1574C11.2495 23.0785 11.257 23.0075 11.2687 22.9297C11.2738 22.8708 11.2694 22.8184 11.2626 22.7597C11.2475 22.6071 11.2466 22.4557 11.2471 22.3024C11.247 22.2758 11.2469 22.2491 11.2468 22.2216C11.2468 22.1819 11.2468 22.1819 11.2469 22.1414C11.2469 22.118 11.2469 22.0946 11.247 22.0705C11.2495 21.9983 11.255 21.9276 11.2617 21.8557C11.2737 21.7134 11.2768 21.5724 11.2765 21.4297C11.2765 21.4038 11.2766 21.3779 11.2766 21.3512C11.2767 21.2658 11.2766 21.1804 11.2766 21.095C11.2766 21.0341 11.2766 20.9733 11.2766 20.9125C11.2767 20.7668 11.2766 20.6212 11.2765 20.4755C11.2764 20.3583 11.2763 20.2411 11.2763 20.1239C11.2762 19.2454 11.273 18.367 11.2573 17.4886C11.256 17.4185 11.2548 17.3483 11.2537 17.2781C11.2529 17.2321 11.2519 17.1861 11.2509 17.14C11.2482 16.9797 11.2533 16.8225 11.2679 16.6627C11.2771 16.5485 11.2768 16.4345 11.2764 16.32C11.2765 16.2972 11.2765 16.2744 11.2766 16.2509C11.2766 16.2291 11.2766 16.2074 11.2766 16.185C11.2765 16.1656 11.2765 16.1461 11.2765 16.1261C11.2765 16.0767 11.2765 16.0767 11.25 16.0314C11.2576 15.9767 11.2654 15.922 11.2734 15.8674C11.2738 15.8167 11.2728 15.7661 11.2707 15.7155C11.269 15.6695 11.269 15.6695 11.2673 15.6226C11.2667 15.6059 11.266 15.5893 11.2654 15.5721C11.241 14.9227 11.2464 14.2726 11.247 13.6228C11.2471 13.4855 11.247 13.3483 11.2469 13.211C11.2468 13.0764 11.2468 12.9419 11.2468 12.8073C11.2469 12.7278 11.2469 12.6484 11.2468 12.5689C11.2464 11.9705 11.2464 11.9705 11.2707 11.7C11.2737 11.6177 11.2625 11.5424 11.25 11.4611C11.2617 11.4055 11.2617 11.4055 11.2734 11.3674C11.232 11.326 11.1726 11.341 11.1165 11.3409C11.0737 11.3408 11.0737 11.3408 11.03 11.3407C10.9986 11.3407 10.9672 11.3408 10.9358 11.3408C10.9038 11.3408 10.8719 11.3408 10.8399 11.3408C10.7728 11.3407 10.7058 11.3408 10.6387 11.3409C10.5525 11.341 10.4664 11.3409 10.3802 11.3408C10.3142 11.3407 10.2482 11.3407 10.1822 11.3408C10.1504 11.3408 10.1186 11.3408 10.0868 11.3408C10.0425 11.3407 9.99818 11.3408 9.95384 11.3409C9.92857 11.3409 9.90329 11.341 9.87725 11.341C9.82152 11.3375 9.82152 11.3375 9.79688 11.3674C9.79688 11.3596 9.79688 11.3519 9.79688 11.3439C9.76609 11.344 9.7353 11.3441 9.70357 11.3441C9.41027 11.3446 9.11696 11.3449 8.82365 11.3452C8.67294 11.3453 8.52223 11.3454 8.37152 11.3457C6.40912 11.3491 6.40912 11.3491 6.11719 11.2268C6.06836 11.2087 6.01953 11.1906 5.9707 11.1726C5.58061 11.0208 5.27144 10.7998 4.95813 10.5272C4.90342 10.4769 4.90342 10.4769 4.85156 10.4533ZM19.1719 10.4768C19.148 10.4993 19.148 10.4993 19.1237 10.5223C18.5809 11.0267 17.9335 11.3122 17.1914 11.3337C17.1752 11.3342 17.159 11.3347 17.1423 11.3352C16.533 11.3532 15.9228 11.346 15.3133 11.3441C15.2791 11.344 15.245 11.3439 15.2109 11.3439C14.9688 11.3439 14.7266 11.3439 14.4844 11.3439C14.4844 11.3594 14.4844 11.3749 14.4844 11.3908C14.4612 11.3908 14.438 11.3908 14.4141 11.3908C14.4141 11.3754 14.4141 11.3599 14.4141 11.3439C14.2067 11.3434 13.9993 11.343 13.7919 11.3427C13.6956 11.3426 13.5993 11.3424 13.503 11.3422C13.4102 11.3419 13.3173 11.3418 13.2245 11.3417C13.1889 11.3417 13.1534 11.3416 13.1179 11.3415C13.0684 11.3413 13.0188 11.3413 12.9693 11.3413C12.941 11.3412 12.9128 11.3412 12.8836 11.3411C12.8223 11.3367 12.8223 11.3367 12.7969 11.3674C12.7946 11.3997 12.794 11.4321 12.794 11.4645C12.7939 11.4856 12.7939 11.5068 12.7938 11.5285C12.7939 11.552 12.7939 11.5755 12.794 11.5998C12.794 11.6246 12.7939 11.6494 12.7939 11.675C12.7938 11.7594 12.794 11.8437 12.7941 11.9281C12.794 11.9887 12.794 12.0494 12.794 12.11C12.7939 12.2424 12.794 12.3748 12.7941 12.5072C12.7942 12.7041 12.7942 12.901 12.7942 13.0979C12.7942 13.4291 12.7943 13.7602 12.7944 14.0914C12.7945 14.4194 12.7946 14.7475 12.7947 15.0755C12.7947 15.0959 12.7947 15.1162 12.7947 15.1372C12.7947 15.2407 12.7947 15.3441 12.7947 15.4476C12.7947 16.1809 12.7949 16.9143 12.7951 17.6477C12.7953 18.3603 12.7955 19.0729 12.7956 19.7855C12.7956 19.8074 12.7956 19.8294 12.7956 19.852C12.7956 20.0724 12.7957 20.2929 12.7957 20.5133C12.7957 20.9625 12.7958 21.4116 12.7959 21.8607C12.7959 21.8813 12.7959 21.902 12.7959 21.9232C12.7961 23.3031 12.7965 24.6829 12.7969 26.0627C12.8204 26.0628 12.844 26.0629 12.8682 26.0629C13.4426 26.0648 14.017 26.067 14.5914 26.0694C14.8692 26.0706 15.147 26.0717 15.4248 26.0726C15.667 26.0734 15.9093 26.0743 16.1515 26.0754C16.2797 26.076 16.4078 26.0765 16.5359 26.0768C16.6569 26.0771 16.7778 26.0777 16.8987 26.0783C16.9428 26.0785 16.9868 26.0787 17.0309 26.0787C17.6635 26.0796 18.2876 26.1605 18.7563 26.6265C18.8764 26.7524 18.9832 26.8923 19.0692 27.0436C19.0799 27.0602 19.0906 27.0768 19.1016 27.0939C19.117 27.0939 19.1325 27.0939 19.1484 27.0939C19.1562 27.1249 19.1639 27.1558 19.1719 27.1877C19.1951 27.1877 19.2183 27.1877 19.2422 27.1877C19.2433 27.0484 19.2442 26.909 19.2448 26.7697C19.245 26.7223 19.2453 26.6749 19.2457 26.6274C19.2463 26.5594 19.2466 26.4913 19.2468 26.4232C19.247 26.4019 19.2472 26.3807 19.2475 26.3587C19.2475 26.339 19.2475 26.3193 19.2475 26.299C19.2476 26.2816 19.2477 26.2642 19.2478 26.2463C19.2459 26.1975 19.2459 26.1975 19.1953 26.1564C19.2108 26.1564 19.2262 26.1564 19.2422 26.1564C19.2422 26.1299 19.2422 26.1033 19.2422 26.0759C19.2422 25.1809 19.2422 24.2858 19.2422 23.3908C19.2346 23.3595 19.2268 23.3283 19.2188 23.2971C19.2265 23.2971 19.2342 23.2971 19.2422 23.2971C19.2422 23.2429 19.2422 23.1888 19.2422 23.133C19.2267 23.133 19.2113 23.133 19.1953 23.133C19.2108 23.1175 19.2262 23.1021 19.2422 23.0861C19.2479 23.0206 19.2479 23.0206 19.2451 22.947C19.2447 22.9221 19.2443 22.8972 19.2438 22.8716C19.2433 22.8496 19.2427 22.8276 19.2422 22.8049C19.2422 22.7817 19.2422 22.7585 19.2422 22.7346C19.2345 22.7268 19.2267 22.7191 19.2188 22.7111C19.2265 22.7111 19.2342 22.7111 19.2422 22.7111C19.2422 22.6909 19.2422 22.6707 19.2422 22.6499C19.2422 17.8339 19.2422 17.8339 19.2423 17.732C19.2428 17.4181 19.2432 17.1042 19.2434 16.7903C19.2435 16.629 19.2437 16.4676 19.244 16.3063C19.2442 16.1506 19.2444 15.995 19.2444 15.8394C19.2445 15.7799 19.2445 15.7203 19.2447 15.6608C19.2448 15.5778 19.2449 15.4948 19.2448 15.4118C19.2449 15.387 19.245 15.3621 19.2451 15.3365C19.2451 15.3028 19.2451 15.3028 19.245 15.2684C19.245 15.2487 19.245 15.2291 19.2451 15.2088C19.2471 15.164 19.2471 15.164 19.2188 15.1408C19.2265 15.1408 19.2342 15.1408 19.2422 15.1408C19.2422 15.1246 19.2422 15.1084 19.2422 15.0917C19.2422 12.8439 19.2422 12.8439 19.2437 12.7854C19.249 12.7281 19.249 12.7281 19.2188 12.7033C19.2265 12.7033 19.2342 12.7033 19.2422 12.7033C19.2422 12.6874 19.2422 12.6714 19.2422 12.655C19.2422 12.0919 19.2422 12.0919 19.243 11.9708C19.2432 11.9215 19.2434 11.8722 19.2437 11.8229C19.2438 11.7979 19.244 11.7729 19.2442 11.7472C19.2443 11.7233 19.2444 11.6995 19.2445 11.6749C19.2446 11.653 19.2447 11.6311 19.2448 11.6086C19.2458 11.5542 19.2458 11.5542 19.2188 11.508C19.2265 11.508 19.2342 11.508 19.2422 11.508C19.2422 11.4925 19.2422 11.477 19.2422 11.461C19.2422 11.1408 19.2422 10.8205 19.2422 10.5002C19.219 10.4925 19.1958 10.4847 19.1719 10.4768ZM19.2188 27.2346C19.2422 27.3049 19.2422 27.3049 19.2422 27.3049L19.2188 27.2346ZM6.24513 27.5657C6.11396 27.7341 6.0185 27.9347 5.91504 28.1208C5.81204 28.3055 5.70837 28.4897 5.60303 28.673C5.47789 28.891 5.35581 29.1106 5.23402 29.3305C5.13146 29.5155 5.02783 29.6999 4.92188 29.883C4.97569 29.9099 5.00552 29.9094 5.06534 29.9094C5.09594 29.9094 5.09594 29.9094 5.12715 29.9095C5.14974 29.9095 5.17233 29.9094 5.1956 29.9093C5.23153 29.9094 5.23153 29.9094 5.26819 29.9094C5.3494 29.9095 5.43061 29.9094 5.51181 29.9093C5.57025 29.9093 5.62868 29.9093 5.68711 29.9093C5.81463 29.9094 5.94216 29.9093 6.06968 29.9092C6.25931 29.9091 6.44894 29.9091 6.63856 29.9091C6.9575 29.9091 7.27644 29.9091 7.59539 29.9089C7.91131 29.9088 8.22723 29.9087 8.54315 29.9087C8.57258 29.9087 8.57258 29.9087 8.60261 29.9087C8.70226 29.9087 8.8019 29.9086 8.90155 29.9086C9.60786 29.9086 10.3142 29.9084 11.0205 29.9082C11.7068 29.908 12.3931 29.9078 13.0794 29.9077C13.1111 29.9077 13.1111 29.9077 13.1434 29.9077C13.3558 29.9077 13.5681 29.9077 13.7804 29.9076C14.213 29.9076 14.6456 29.9075 15.0781 29.9074C15.098 29.9074 15.1179 29.9074 15.1384 29.9074C16.4673 29.9072 17.7961 29.9068 19.125 29.9064C19.0955 29.815 19.065 29.7372 19.0137 29.656C18.9644 29.5765 18.9174 29.4964 18.8729 29.4142C18.8607 29.3917 18.8485 29.3693 18.836 29.3461C18.7527 29.1917 18.6697 29.0373 18.5868 28.8827C18.5177 28.7543 18.4483 28.6263 18.375 28.5002C18.3595 28.5002 18.3441 28.5002 18.3281 28.5002C18.3255 28.4772 18.3255 28.4772 18.3229 28.4538C18.2977 28.3558 18.2506 28.2757 18.2007 28.1882C18.1851 28.1606 18.1851 28.1606 18.1692 28.1325C18.0966 28.0049 18.0223 27.8784 17.9458 27.7531C17.9365 27.7377 17.9273 27.7222 17.9177 27.7063C17.8618 27.6166 17.8066 27.5543 17.7188 27.4924C17.711 27.5001 17.7033 27.5079 17.6953 27.5158C17.6813 27.4989 17.6813 27.4989 17.6671 27.4817C17.524 27.3588 17.1835 27.4188 17.0046 27.4191C16.9684 27.4191 16.9321 27.419 16.8959 27.419C16.7969 27.4189 16.6979 27.4189 16.5989 27.419C16.4919 27.4191 16.3849 27.419 16.2779 27.4189C16.0686 27.4188 15.8593 27.4188 15.65 27.4189C15.48 27.419 15.3099 27.419 15.1399 27.4189C15.1157 27.4189 15.0915 27.4189 15.0666 27.4189C15.0174 27.4189 14.9682 27.4189 14.919 27.4189C14.4582 27.4188 13.9973 27.4189 13.5365 27.419C13.1408 27.4191 12.7451 27.4191 12.3494 27.419C11.8899 27.4189 11.4304 27.4188 10.9709 27.4189C10.9219 27.4189 10.873 27.4189 10.824 27.4189C10.7999 27.4189 10.7759 27.4189 10.7511 27.4189C10.5811 27.419 10.4111 27.4189 10.2411 27.4189C10.0342 27.4188 9.82731 27.4188 9.62041 27.419C9.51479 27.419 9.40917 27.419 9.30355 27.419C9.207 27.4189 9.11046 27.4189 9.01391 27.4191C8.97885 27.4191 8.9438 27.4191 8.90874 27.419C8.86136 27.4189 8.81397 27.419 8.76658 27.4191C8.74018 27.4191 8.71378 27.4191 8.68658 27.4191C8.62547 27.4179 8.62547 27.4179 8.57812 27.4455C8.52338 27.4381 8.4687 27.4302 8.41406 27.4221C8.35643 27.4199 8.29874 27.4188 8.24106 27.4187C8.21639 27.4185 8.21639 27.4185 8.19121 27.4184C8.13726 27.4182 8.08331 27.4182 8.02936 27.4181C7.99144 27.4181 7.95352 27.418 7.9156 27.4179C7.8362 27.4178 7.75681 27.4177 7.67742 27.4177C7.57648 27.4177 7.47555 27.4174 7.37461 27.417C7.29627 27.4167 7.21793 27.4167 7.13959 27.4167C7.10242 27.4167 7.06525 27.4166 7.02809 27.4164C6.60569 27.3942 6.60569 27.3942 6.24513 27.5657Z" fill="#81718A"/>
<path d="M20.7656 6.25781C20.7734 6.28102 20.7811 6.30422 20.7891 6.32812C20.7813 6.34359 20.7736 6.35906 20.7656 6.375C20.7811 6.38273 20.7966 6.39047 20.8125 6.39844C20.822 6.45169 20.822 6.45169 20.8271 6.5229C20.8291 6.54929 20.831 6.57568 20.833 6.60287C20.8348 6.63163 20.8367 6.66039 20.8385 6.69002C20.8405 6.71971 20.8425 6.7494 20.8445 6.77999C20.8628 7.07443 20.8657 7.36796 20.8649 7.66286C20.8649 7.721 20.8649 7.77914 20.8649 7.83728C20.865 7.96237 20.8649 8.08747 20.8646 8.21256C20.8643 8.39877 20.8642 8.58497 20.8642 8.77118C20.8642 9.08556 20.864 9.39994 20.8636 9.71432C20.8633 10.0276 20.863 10.3408 20.8629 10.6541C20.8629 10.6738 20.8629 10.6934 20.8629 10.7137C20.8629 10.8136 20.8628 10.9135 20.8628 11.0135C20.8626 11.7216 20.8622 12.4298 20.8616 13.1379C20.8616 13.1807 20.8616 13.2234 20.8615 13.2662C20.8615 13.3304 20.8614 13.3945 20.8614 13.4587C20.8613 13.5229 20.8613 13.5871 20.8612 13.6513C20.8612 13.6724 20.8612 13.6936 20.8612 13.7155C20.8608 14.2012 20.8605 14.687 20.8602 15.1727C20.8602 15.1934 20.8602 15.2141 20.8601 15.2354C20.8598 15.7127 20.8596 16.19 20.8594 16.6674C20.8594 16.6878 20.8594 16.7082 20.8594 16.7292C20.8593 16.9136 20.8592 17.0979 20.8591 17.2822C20.859 17.7142 20.8587 18.1462 20.8583 18.5781C20.8579 19.0198 20.8576 19.4615 20.8575 19.9032C20.8575 19.9211 20.8574 19.9389 20.8574 19.9572C20.857 21.3505 20.8643 22.7436 20.8745 24.1368C20.8756 24.2844 20.8766 24.4321 20.8777 24.5798C20.8778 24.5975 20.878 24.6152 20.8781 24.6334C20.8814 25.1021 20.8839 25.5707 20.8839 26.0394C20.8839 26.0623 20.8839 26.0853 20.8839 26.1089C20.8838 26.4689 20.8798 26.8288 20.8728 27.1888C20.8697 27.347 20.867 27.5052 20.8645 27.6635C20.8641 27.6876 20.8641 27.6876 20.8637 27.7122C20.8599 27.9599 20.8584 28.2076 20.8586 28.4554C20.8587 28.4716 20.8587 28.4879 20.8587 28.5046C20.8588 28.6749 20.8594 28.8453 20.8602 29.0157C20.8603 29.0438 20.8604 29.0719 20.8605 29.1008C20.8607 29.1526 20.861 29.2044 20.8614 29.2562C20.8625 29.578 20.8625 29.578 20.8359 29.7188C20.8205 29.7342 20.805 29.7497 20.7891 29.7656C20.789 29.7456 20.789 29.7255 20.789 29.7048C20.7877 27.6505 20.7863 25.5962 20.7843 23.1489C20.7843 23.1159 20.7843 23.083 20.7843 23.05C20.7837 22.358 20.7831 21.6661 20.7825 20.9741C20.7822 20.6265 20.782 20.2789 20.7817 19.9314C20.7816 19.8789 20.7816 19.8265 20.7815 19.7741C20.7809 18.9667 20.7802 18.1594 20.7797 17.3521C20.7797 17.3347 20.7797 17.3174 20.7797 17.2995C20.7795 17.0197 20.7793 16.7398 20.7791 16.46C20.7786 15.6539 20.7781 14.8479 20.7774 14.0418C20.7774 14.0252 20.7774 14.0087 20.7774 13.9916C20.7771 13.6276 20.7767 13.2637 20.7764 12.8997C20.7763 12.7532 20.7761 12.6068 20.776 12.4603C20.776 12.4443 20.776 12.4283 20.7759 12.4118C20.7755 11.8955 20.7751 11.3792 20.7749 10.8629C20.7746 10.3283 20.7742 9.79369 20.7736 9.25907C20.7733 8.95081 20.773 8.64255 20.773 8.33429C20.773 8.12842 20.7728 7.92255 20.7724 7.71669C20.7723 7.59935 20.7721 7.48202 20.7722 7.36469C20.7723 7.25787 20.7722 7.15105 20.7719 7.04423C20.7718 7.0059 20.7718 6.96757 20.7719 6.92925C20.7724 6.70938 20.7601 6.49803 20.7188 6.28125C20.7342 6.27352 20.7497 6.26578 20.7656 6.25781Z" fill="#73637B"/>
<path d="M19.2891 10.3828C19.2891 15.9902 19.2891 21.5977 19.2891 27.375C19.1974 27.3292 19.1835 27.3219 19.1372 27.2403C19.1269 27.2228 19.1167 27.2052 19.1061 27.1871C19.0954 27.1684 19.0847 27.1497 19.0737 27.1304C18.8364 26.7303 18.5644 26.4683 18.1406 26.2734C18.1093 26.258 18.078 26.2424 18.0469 26.2266C18.1332 26.1978 18.1644 26.2187 18.2436 26.257C18.2599 26.2653 18.2762 26.2736 18.293 26.2822C18.3098 26.2908 18.3265 26.2993 18.3438 26.3081C18.6563 26.4725 18.9307 26.7359 19.1016 27.0469C19.1016 27.0623 19.1016 27.0778 19.1016 27.0938C19.117 27.0938 19.1325 27.0938 19.1484 27.0938C19.1639 27.117 19.1794 27.1402 19.1953 27.1641C19.203 27.1641 19.2108 27.1641 19.2188 27.1641C19.2193 27.0356 19.2198 26.9071 19.22 26.7787C19.2202 26.735 19.2203 26.6913 19.2205 26.6476C19.2208 26.5848 19.2209 26.5219 19.221 26.4591C19.2212 26.4396 19.2213 26.4201 19.2214 26.4C19.2214 26.3817 19.2214 26.3634 19.2214 26.3446C19.2215 26.3285 19.2215 26.3125 19.2216 26.296C19.2186 26.247 19.2086 26.2034 19.1953 26.1562C19.2108 26.1562 19.2263 26.1562 19.2422 26.1562C19.2299 26.0915 19.2162 26.0314 19.1953 25.9688C19.2108 25.9688 19.2263 25.9688 19.2422 25.9688C19.2415 25.9487 19.2408 25.9286 19.24 25.908C19.2255 25.4773 19.2177 25.0468 19.218 24.6158C19.218 24.5889 19.218 24.5889 19.2181 24.5614C19.2182 24.3791 19.2186 24.1968 19.2194 24.0145C19.2197 23.9453 19.2199 23.8762 19.22 23.807C19.2202 23.7586 19.2205 23.7102 19.2208 23.6618C19.2209 23.6329 19.221 23.604 19.221 23.5742C19.2212 23.5489 19.2213 23.5235 19.2214 23.4973C19.2228 23.4377 19.2228 23.4377 19.1953 23.3906C19.2108 23.3906 19.2263 23.3906 19.2422 23.3906C19.2267 23.3752 19.2112 23.3597 19.1953 23.3438C19.201 23.293 19.201 23.293 19.2158 23.2354C19.2206 23.2162 19.2254 23.197 19.2303 23.1773C19.2342 23.1626 19.2381 23.1479 19.2422 23.1328C19.2267 23.1328 19.2112 23.1328 19.1953 23.1328C19.203 23.1096 19.2108 23.0864 19.2188 23.0625C19.2209 23.0279 19.2218 22.9932 19.2217 22.9585C19.2217 22.9406 19.2218 22.9228 19.2219 22.9044C19.2188 22.8526 19.2091 22.8077 19.1953 22.7578C19.1953 22.6719 19.1953 22.5859 19.1953 22.5C19.203 22.5 19.2108 22.5 19.2188 22.5C19.2194 22.4238 19.2198 22.3477 19.2202 22.2715C19.2204 22.2499 19.2206 22.2283 19.2208 22.2061C19.2209 22.1853 19.221 22.1644 19.221 22.1429C19.2212 22.1238 19.2213 22.1047 19.2214 22.0849C19.2188 22.0327 19.2099 21.9876 19.1953 21.9375C19.203 21.9375 19.2108 21.9375 19.2188 21.9375C19.2193 21.7982 19.2198 21.6588 19.22 21.5195C19.2202 21.4721 19.2203 21.4247 19.2205 21.3772C19.2208 21.3092 19.2209 21.2411 19.221 21.173C19.2212 21.1517 19.2213 21.1305 19.2214 21.1085C19.2214 21.0888 19.2214 21.0691 19.2214 21.0488C19.2215 21.0314 19.2215 21.014 19.2216 20.9961C19.2214 20.9508 19.2214 20.9508 19.1953 20.9062C19.2108 20.9062 19.2263 20.9062 19.2422 20.9062C19.2422 20.0941 19.2422 19.282 19.2422 18.4453C19.2267 18.4376 19.2112 18.4298 19.1953 18.4219C19.2108 18.4219 19.2263 18.4219 19.2422 18.4219C19.2345 18.244 19.2267 18.0661 19.2188 17.8828C19.211 17.8828 19.2033 17.8828 19.1953 17.8828C19.1953 17.8209 19.1953 17.7591 19.1953 17.6953C19.203 17.6953 19.2108 17.6953 19.2188 17.6953C19.2187 17.6733 19.2186 17.6512 19.2186 17.6285C19.2181 17.4177 19.2178 17.2068 19.2175 16.9959C19.2174 16.8876 19.2173 16.7792 19.217 16.6709C19.2158 16.168 19.2183 15.6665 19.2422 15.1641C19.2267 15.1641 19.2112 15.1641 19.1953 15.1641C19.203 15.1409 19.2108 15.1177 19.2188 15.0938C19.2206 15.0581 19.2213 15.0225 19.221 14.9868C19.221 14.9662 19.2209 14.9456 19.2208 14.9244C19.2206 14.9029 19.2204 14.8815 19.2202 14.8594C19.2201 14.8379 19.22 14.8165 19.2199 14.7944C19.2197 14.7545 19.2194 14.7147 19.2191 14.6749C19.2184 14.5726 19.2209 14.4706 19.2239 14.3684C19.2244 14.3503 19.2249 14.3322 19.2255 14.3135C19.2271 14.2557 19.2288 14.1979 19.2305 14.1401C19.2316 14.1009 19.2327 14.0617 19.2339 14.0225C19.2366 13.9265 19.2394 13.8304 19.2422 13.7344C19.2267 13.7266 19.2112 13.7189 19.1953 13.7109C19.2108 13.7109 19.2263 13.7109 19.2422 13.7109C19.2345 13.4634 19.2267 13.2159 19.2188 12.9609C19.211 12.9609 19.2033 12.9609 19.1953 12.9609C19.1953 12.9223 19.1953 12.8836 19.1953 12.8438C19.2108 12.8438 19.2263 12.8438 19.2422 12.8438C19.2422 12.8051 19.2422 12.7664 19.2422 12.7266C19.2267 12.7266 19.2112 12.7266 19.1953 12.7266C19.2069 12.6918 19.2069 12.6918 19.2188 12.6562C19.2209 12.6207 19.2218 12.585 19.2219 12.5493C19.2219 12.5287 19.2219 12.5081 19.222 12.4869C19.2218 12.4547 19.2218 12.4547 19.2217 12.4219C19.2218 12.4004 19.2219 12.379 19.222 12.3569C19.2219 12.3363 19.2219 12.3157 19.2219 12.2944C19.2218 12.2662 19.2218 12.2662 19.2218 12.2374C19.2206 12.1831 19.2206 12.1831 19.1953 12.1172C19.203 12.1095 19.2108 12.1017 19.2188 12.0938C19.2205 12.0267 19.2209 11.9601 19.2202 11.8931C19.2201 11.8742 19.22 11.8553 19.2199 11.8358C19.2196 11.789 19.2192 11.7421 19.2188 11.6953C19.211 11.6953 19.2033 11.6953 19.1953 11.6953C19.1613 11.484 19.1613 11.484 19.2056 11.3877C19.2237 11.3659 19.2237 11.3659 19.2422 11.3438C19.219 11.3321 19.219 11.3321 19.1953 11.3203C19.2108 11.3203 19.2263 11.3203 19.2422 11.3203C19.2345 11.2352 19.2267 11.1502 19.2188 11.0625C19.211 11.0625 19.2033 11.0625 19.1953 11.0625C19.1953 11.0238 19.1953 10.9852 19.1953 10.9453C19.203 10.9453 19.2108 10.9453 19.2188 10.9453C19.2188 10.7984 19.2188 10.6514 19.2188 10.5C19.1723 10.5155 19.1259 10.5309 19.0781 10.5469C19.0998 10.5193 19.1219 10.492 19.144 10.4648C19.1563 10.4496 19.1685 10.4344 19.1811 10.4187C19.2188 10.3828 19.2188 10.3828 19.2891 10.3828ZM19.2188 27.2344C19.2422 27.3047 19.2422 27.3047 19.2422 27.3047L19.2188 27.2344Z" fill="#66586F"/>
<path d="M5.47622 4.66137C5.49925 4.66133 5.52229 4.66129 5.54602 4.66125C5.62367 4.66114 5.70131 4.6612 5.77896 4.66126C5.835 4.66121 5.89104 4.66116 5.94709 4.66109C6.06917 4.66098 6.19126 4.66094 6.31335 4.66096C6.49489 4.661 6.67643 4.6609 6.85797 4.66078C7.20101 4.66055 7.54405 4.66049 7.88709 4.66047C8.15189 4.66046 8.41668 4.66042 8.68148 4.66034C8.75765 4.66032 8.83381 4.6603 8.90998 4.66028C8.93838 4.66027 8.93838 4.66027 8.96736 4.66026C9.49999 4.66012 10.0326 4.66003 10.5652 4.66004C10.5853 4.66004 10.6054 4.66004 10.6261 4.66004C10.7279 4.66004 10.8297 4.66004 10.9315 4.66004C10.9518 4.66004 10.972 4.66004 10.9928 4.66004C11.0337 4.66005 11.0746 4.66005 11.1155 4.66005C11.7521 4.66006 12.3887 4.65989 13.0254 4.65957C13.7402 4.65921 14.455 4.659 15.1698 4.65903C15.246 4.65903 15.3221 4.65903 15.3982 4.65903C15.417 4.65903 15.4357 4.65903 15.4551 4.65903C15.7574 4.65903 16.0597 4.65888 16.362 4.65868C16.6655 4.65848 16.969 4.65846 17.2726 4.65861C17.4531 4.6587 17.6336 4.65865 17.8142 4.65843C17.9486 4.65827 18.0831 4.65836 18.2175 4.65854C18.2722 4.65858 18.3268 4.65853 18.3815 4.6584C18.4553 4.65824 18.5291 4.65836 18.6029 4.65856C18.6246 4.65844 18.6462 4.65832 18.6684 4.6582C18.815 4.65904 18.815 4.65904 18.8672 4.71126C18.8384 4.71128 18.8096 4.71129 18.78 4.71131C17.5117 4.71193 16.2433 4.71267 14.975 4.714C14.9558 4.71402 14.9366 4.71404 14.9168 4.71406C14.4992 4.7145 14.0817 4.71495 13.6642 4.71543C13.4594 4.71567 13.2546 4.7159 13.0499 4.71613C13.0295 4.71615 13.0091 4.71617 12.9881 4.7162C12.328 4.71693 11.6679 4.71737 11.0078 4.71764C10.3293 4.71793 9.65076 4.71852 8.97224 4.71949C8.87634 4.71963 8.78044 4.71976 8.68453 4.7199C8.66566 4.71992 8.64679 4.71995 8.62734 4.71998C8.32388 4.72039 8.02042 4.72048 7.71697 4.72044C7.41167 4.72042 7.10637 4.72073 6.80107 4.72139C6.61983 4.72177 6.43859 4.7219 6.25735 4.72165C6.12177 4.72149 5.98619 4.72182 5.85061 4.72233C5.79593 4.72247 5.74126 4.72244 5.68659 4.72225C5.34122 4.72109 5.04007 4.74429 4.71533 4.87093C4.64062 4.89876 4.64062 4.89876 4.57031 4.87533C4.75102 4.76998 4.92805 4.72483 5.13281 4.68783C5.14903 4.68374 5.16525 4.67966 5.18195 4.67545C5.28013 4.65949 5.37691 4.66115 5.47622 4.66137Z" fill="#675970"/>
<path d="M11.2734 11.3672C11.2812 11.3672 11.2889 11.3672 11.2969 11.3672C11.315 13.3971 11.3228 15.4271 11.3232 17.6945C11.3232 17.9141 11.3233 18.1338 11.3234 18.3535C11.3236 18.6543 11.3236 18.9552 11.3235 19.256C11.3234 19.3673 11.3234 19.4786 11.3235 19.5898C11.3238 20.2634 11.3167 20.9361 11.2969 21.6094C11.2891 21.6094 11.2814 21.6094 11.2734 21.6094C11.2525 21.4667 11.2469 21.3288 11.2477 21.1847C11.2477 21.1616 11.2478 21.1384 11.2478 21.1146C11.2479 21.0642 11.248 21.0139 11.2482 20.9636C11.2485 20.8825 11.2487 20.8014 11.2488 20.7203C11.249 20.604 11.2493 20.4876 11.2496 20.3713C11.2503 20.0676 11.2507 19.7638 11.2508 19.4601C11.2508 19.4298 11.2509 19.3994 11.2509 19.3682C11.2511 18.7466 11.2448 18.1252 11.2338 17.5037C11.2326 17.4321 11.2314 17.3606 11.2303 17.289C11.2294 17.2417 11.2285 17.1943 11.2275 17.147C11.2248 16.9841 11.2296 16.8244 11.2445 16.6622C11.2537 16.5481 11.2534 16.4342 11.2529 16.3198C11.253 16.297 11.2531 16.2742 11.2532 16.2507C11.2532 16.2289 11.2531 16.2072 11.2531 16.1848C11.2531 16.1654 11.2531 16.1459 11.253 16.1259C11.253 16.0766 11.253 16.0766 11.2266 16.0312C11.2341 15.9765 11.242 15.9218 11.25 15.8672C11.2504 15.8165 11.2494 15.7659 11.2473 15.7153C11.2461 15.6846 11.245 15.654 11.2439 15.6224C11.2432 15.6057 11.2426 15.5891 11.2419 15.5719C11.2175 14.9225 11.223 14.2724 11.2236 13.6226C11.2237 13.4853 11.2236 13.3481 11.2235 13.2108C11.2234 13.0762 11.2233 12.9417 11.2234 12.8071C11.2234 12.7277 11.2234 12.6482 11.2234 12.5687C11.223 11.9703 11.223 11.9703 11.2473 11.6998C11.2503 11.6176 11.2383 11.5422 11.2266 11.4609C11.2485 11.4038 11.2485 11.4038 11.2734 11.3672Z" fill="#786880"/>
<path d="M4.80469 12.6562C4.81242 12.6562 4.82016 12.6562 4.82812 12.6562C4.82822 12.6769 4.82832 12.6976 4.82843 12.7189C4.83085 13.2216 4.83339 13.7243 4.83608 14.227C4.83737 14.4701 4.83863 14.7132 4.83978 14.9563C4.84079 15.1682 4.84187 15.3801 4.84305 15.5919C4.84367 15.7041 4.84426 15.8163 4.84474 15.9285C4.8452 16.0341 4.84577 16.1397 4.84642 16.2453C4.84664 16.2841 4.84682 16.3228 4.84696 16.3616C4.84715 16.4145 4.84748 16.4674 4.84785 16.5204C4.84801 16.55 4.84816 16.5796 4.84831 16.6101C4.84915 16.6839 4.84915 16.6839 4.8633 16.7405C4.87754 16.8186 4.87797 16.8924 4.87801 16.9719C4.87806 16.9885 4.8781 17.0052 4.87814 17.0223C4.87825 17.0783 4.87819 17.1342 4.87813 17.1902C4.87818 17.2306 4.87823 17.2711 4.87829 17.3116C4.87844 17.4229 4.87844 17.5342 4.87841 17.6455C4.8784 17.7656 4.87853 17.8856 4.87864 18.0057C4.87884 18.241 4.8789 18.4764 4.87892 18.7117C4.87893 18.9033 4.87897 19.0948 4.87905 19.2863C4.87926 19.8299 4.87936 20.3734 4.87935 20.9169C4.87934 20.9463 4.87934 20.9756 4.87934 21.0058C4.87934 21.0351 4.87934 21.0645 4.87934 21.0947C4.87933 21.5693 4.87955 22.0439 4.87989 22.5184C4.88022 23.0062 4.88038 23.494 4.88036 23.9818C4.88036 24.2555 4.88042 24.5291 4.88067 24.8028C4.88089 25.036 4.88094 25.2693 4.88078 25.5026C4.8807 25.6214 4.8807 25.7402 4.8809 25.859C4.88169 26.3431 4.87832 26.8226 4.82812 27.3047C4.82039 27.3047 4.81266 27.3047 4.80469 27.3047C4.80469 22.4707 4.80469 17.6367 4.80469 12.6562Z" fill="#685971"/>
<path d="M5.41406 6.21094C9.56742 6.21094 13.7208 6.21094 18 6.21094C18 6.21867 18 6.22641 18 6.23438C17.9207 6.25221 17.8476 6.26072 17.7664 6.26063C17.7321 6.26068 17.7321 6.26068 17.6972 6.26073C17.6724 6.26064 17.6476 6.26056 17.6221 6.26047C17.5958 6.26048 17.5695 6.26048 17.5424 6.26048C17.4555 6.26047 17.3686 6.26028 17.2818 6.2601C17.2215 6.26006 17.1612 6.26002 17.101 6.26C16.9586 6.25992 16.8163 6.25974 16.6739 6.2595C16.5118 6.25924 16.3497 6.25911 16.1876 6.25899C15.8542 6.25875 15.5209 6.25834 15.1875 6.25781C15.1875 6.27328 15.1875 6.28875 15.1875 6.30469C15.1643 6.29695 15.1411 6.28922 15.1172 6.28125C15.065 6.27599 15.0128 6.27169 14.9604 6.26807C14.9328 6.2661 14.9052 6.26414 14.8767 6.26212C14.8555 6.2607 14.8343 6.25928 14.8125 6.25781C14.8048 6.27328 14.797 6.28875 14.7891 6.30469C14.7891 6.28922 14.7891 6.27375 14.7891 6.25781C13.7247 6.25728 12.6604 6.25686 11.5961 6.25662C11.4705 6.25659 11.3449 6.25656 11.2194 6.25653C11.1944 6.25652 11.1694 6.25651 11.1436 6.25651C10.7385 6.2564 10.3334 6.25622 9.92822 6.256C9.51273 6.25579 9.09724 6.25565 8.68174 6.25561C8.42523 6.25558 8.16871 6.25547 7.91219 6.25528C7.73644 6.25516 7.5607 6.25512 7.38495 6.25515C7.28346 6.25517 7.18196 6.25514 7.08047 6.25502C6.98762 6.2549 6.89478 6.2549 6.80193 6.25498C6.76827 6.25499 6.73461 6.25496 6.70095 6.25489C6.65533 6.25479 6.60971 6.25486 6.56408 6.25493C6.5387 6.25492 6.51332 6.25491 6.48717 6.2549C6.4299 6.25745 6.38306 6.26647 6.32812 6.28125C6.29684 6.27357 6.2656 6.26573 6.23438 6.25781C6.17161 6.25559 6.10961 6.25454 6.04688 6.25488C6.0302 6.25479 6.01352 6.2547 5.99634 6.25461C5.91538 6.25476 5.84352 6.25981 5.76562 6.28125C5.71075 6.27492 5.65605 6.26689 5.60156 6.25781C5.56691 6.25326 5.53225 6.24887 5.49756 6.24463C5.47 6.24125 5.44245 6.23786 5.41406 6.23438C5.41406 6.22664 5.41406 6.21891 5.41406 6.21094Z" fill="#67586F"/>
<path d="M11.2969 21.6562C11.3046 21.6562 11.3123 21.6562 11.3203 21.6562C11.3203 23.1258 11.3203 24.5953 11.3203 26.1094C9.75023 26.1094 8.18016 26.1094 6.5625 26.1094C6.5625 26.1016 6.5625 26.0939 6.5625 26.0859C6.66425 26.0609 6.76316 26.0593 6.86729 26.0597C6.88605 26.0597 6.90481 26.0596 6.92414 26.0596C6.98694 26.0596 7.04974 26.0597 7.11253 26.0598C7.15758 26.0598 7.20262 26.0598 7.24766 26.0598C7.36993 26.0598 7.49219 26.06 7.61445 26.0601C7.74223 26.0603 7.87001 26.0603 7.99779 26.0603C8.23975 26.0604 8.48171 26.0606 8.72366 26.0608C8.99913 26.0611 9.2746 26.0612 9.55006 26.0613C10.1167 26.0616 10.6834 26.062 11.25 26.0625C11.248 26.0402 11.2461 26.0178 11.244 25.9948C11.2417 25.9654 11.2393 25.936 11.2368 25.9058C11.2344 25.8767 11.2319 25.8476 11.2294 25.8176C11.2269 25.7444 11.2337 25.6878 11.25 25.6172C11.2431 25.5857 11.2352 25.5545 11.2266 25.5234C11.2244 25.4775 11.2235 25.4315 11.2234 25.3856C11.2234 25.3584 11.2234 25.3312 11.2233 25.3032C11.2235 25.2599 11.2235 25.2599 11.2236 25.2158C11.2237 25.1865 11.2237 25.1571 11.2237 25.1269C11.2245 24.9395 11.2294 24.753 11.2437 24.5662C11.2522 24.4796 11.2522 24.4796 11.2266 24.3984C11.2264 24.3541 11.2264 24.3541 11.2302 24.3006C11.2315 24.2812 11.2327 24.2617 11.234 24.2417C11.2368 24.201 11.2397 24.1602 11.2426 24.1194C11.249 24.0186 11.247 23.9351 11.2266 23.8359C11.2292 23.7697 11.2331 23.7042 11.2383 23.6382C11.2496 23.4753 11.2477 23.3215 11.2302 23.1589C11.2266 23.0859 11.2266 23.0859 11.2376 23.0132C11.2518 22.9084 11.2549 22.806 11.2566 22.7004C11.2572 22.669 11.2572 22.669 11.2579 22.6369C11.2593 22.5703 11.2605 22.5037 11.2617 22.437C11.2717 21.8906 11.2717 21.8906 11.2969 21.6562Z" fill="#72637B"/>
<path d="M3.25781 6.51562C3.26555 6.51562 3.27328 6.51562 3.28125 6.51562C3.2796 6.5329 3.27795 6.55018 3.27625 6.56797C3.25711 6.78793 3.25423 7.00656 3.2541 7.2271C3.254 7.26758 3.25388 7.30806 3.25375 7.34854C3.25344 7.45902 3.25326 7.56949 3.25311 7.67997C3.25292 7.79939 3.2526 7.91881 3.2523 8.03823C3.25179 8.24488 3.25136 8.45153 3.25099 8.65819C3.25046 8.95697 3.2498 9.25575 3.24911 9.55453C3.248 10.0393 3.24698 10.5241 3.24603 11.0089C3.24511 11.4798 3.24414 11.9506 3.2431 12.4214C3.24304 12.4504 3.24297 12.4795 3.24291 12.5094C3.24259 12.6551 3.24227 12.8008 3.24194 12.9465C3.23927 14.1545 3.23677 15.3624 3.23438 16.5703C3.17569 16.4823 3.18194 16.4144 3.18375 16.3127C3.18387 16.2943 3.18399 16.276 3.18412 16.2571C3.18453 16.1984 3.18526 16.1397 3.18604 16.0811C3.18668 16.0225 3.18726 15.964 3.1877 15.9055C3.18799 15.8691 3.1884 15.8328 3.18895 15.7964C3.18978 15.7068 3.18162 15.6265 3.16406 15.5391C3.18604 15.4614 3.18604 15.4614 3.21094 15.3984C3.19547 15.3907 3.18 15.383 3.16406 15.375C3.16787 15.3613 3.17168 15.3476 3.1756 15.3335C3.19408 15.2523 3.19071 15.1707 3.19048 15.0879C3.19051 15.0682 3.19055 15.0486 3.19059 15.0283C3.19068 14.9623 3.19061 14.8963 3.19053 14.8303C3.19056 14.783 3.19061 14.7357 3.19066 14.6885C3.19076 14.56 3.19072 14.4315 3.19065 14.3031C3.19059 14.1688 3.19064 14.0346 3.19068 13.9003C3.19072 13.6748 3.19067 13.4494 3.19056 13.224C3.19043 12.963 3.19047 12.7021 3.1906 12.4411C3.1907 12.2174 3.19072 11.9936 3.19066 11.7698C3.19062 11.636 3.19062 11.5022 3.19069 11.3685C3.19076 11.2428 3.19072 11.1171 3.19058 10.9914C3.19055 10.9451 3.19056 10.8989 3.19061 10.8527C3.19067 10.7898 3.19059 10.7269 3.19048 10.664C3.19053 10.6455 3.19058 10.627 3.19063 10.6079C3.1922 10.5158 3.1922 10.5158 3.16406 10.4297C3.16632 10.3784 3.17006 10.3271 3.17432 10.2759C3.18991 10.0587 3.19027 9.84159 3.19043 9.62402C3.19049 9.60653 3.19054 9.58903 3.1906 9.571C3.19074 9.52062 3.19071 9.47024 3.19061 9.41986C3.19059 9.39036 3.19056 9.36086 3.19053 9.33047C3.19082 9.25697 3.19082 9.25697 3.16406 9.1875C3.17152 9.14057 3.1794 9.0937 3.1875 9.04688C3.18964 8.98589 3.19079 8.92556 3.19061 8.86459C3.19064 8.84749 3.19066 8.83039 3.19068 8.81278C3.1907 8.77679 3.19065 8.7408 3.19056 8.70482C3.19043 8.65015 3.19055 8.59549 3.1907 8.54082C3.19069 8.50568 3.19066 8.47054 3.19061 8.43539C3.19068 8.41118 3.19068 8.41118 3.19076 8.38648C3.19027 8.28426 3.17856 8.18696 3.16406 8.08594C3.16793 8.0608 3.1718 8.03566 3.17578 8.00977C3.1888 7.91212 3.1803 7.82791 3.16772 7.73071C3.16406 7.66406 3.16406 7.66406 3.17514 7.58661C3.1891 7.48882 3.1881 7.39631 3.18604 7.29785C3.18413 7.12525 3.19288 6.95549 3.20947 6.78369C3.21151 6.76236 3.21355 6.74102 3.21565 6.71904C3.23113 6.569 3.23113 6.569 3.25781 6.51562Z" fill="#65576D"/>
<path d="M20.8125 20.4375C20.8202 20.4375 20.828 20.4375 20.8359 20.4375C20.8588 21.4046 20.8661 22.3716 20.8715 23.3388C20.8723 23.4829 20.8732 23.6269 20.8741 23.771C20.89 26.3 20.89 26.3 20.8741 27.233C20.8728 27.3105 20.8716 27.3881 20.8705 27.4656C20.8654 27.8108 20.8566 28.1553 20.8359 28.5C20.8282 28.5 20.8205 28.5 20.8125 28.5C20.8125 25.8394 20.8125 23.1788 20.8125 20.4375Z" fill="#6C5D74"/>
<path d="M6.49219 27.3984C10.1505 27.3984 13.8089 27.3984 17.5781 27.3984C17.5781 27.4062 17.5781 27.4139 17.5781 27.4219C17.3887 27.4482 17.2012 27.4485 17.0102 27.448C16.974 27.448 16.9378 27.448 16.9016 27.448C16.8025 27.448 16.7034 27.4479 16.6043 27.4477C16.4973 27.4475 16.3903 27.4475 16.2832 27.4475C16.0979 27.4474 15.9126 27.4473 15.7273 27.4471C15.4593 27.4468 15.1913 27.4466 14.9234 27.4465C14.4885 27.4464 14.0536 27.4461 13.6188 27.4458C13.5928 27.4458 13.5668 27.4458 13.54 27.4457C13.3553 27.4456 13.1705 27.4455 12.9858 27.4453C12.7746 27.4452 12.5633 27.445 12.352 27.4448C12.326 27.4448 12.3 27.4448 12.2731 27.4448C11.8397 27.4445 11.4062 27.4442 10.9728 27.4441C10.7053 27.444 10.4379 27.4438 10.1704 27.4435C9.98738 27.4433 9.80435 27.4432 9.62133 27.4431C9.51561 27.4431 9.4099 27.443 9.30418 27.4428C9.20754 27.4427 9.11091 27.4426 9.01427 27.4427C8.97919 27.4427 8.9441 27.4426 8.90901 27.4425C8.86158 27.4424 8.81414 27.4424 8.76671 27.4425C8.74028 27.4425 8.71386 27.4425 8.68663 27.4424C8.62547 27.4411 8.62547 27.4411 8.57812 27.4688C8.52339 27.4613 8.46871 27.4534 8.41406 27.4453C8.35748 27.4435 8.30086 27.4428 8.24425 27.443C8.22814 27.4431 8.21204 27.4431 8.19544 27.4431C8.16075 27.4432 8.12605 27.4434 8.09136 27.4436C8.03625 27.4439 7.98114 27.444 7.92603 27.4441C7.78913 27.4444 7.65224 27.445 7.51535 27.4456C7.39956 27.446 7.28376 27.4464 7.16797 27.4466C7.11404 27.4468 7.06012 27.4471 7.00619 27.4474C6.83354 27.448 6.66352 27.4449 6.49219 27.4219C6.49219 27.4141 6.49219 27.4064 6.49219 27.3984Z" fill="#584A62"/>
<path d="M11.2971 16.2422C11.3048 16.2422 11.3126 16.2422 11.3205 16.2422C11.3211 16.7966 11.3215 17.3511 11.3217 17.9055C11.3219 18.1631 11.322 18.4206 11.3223 18.6782C11.3225 18.9032 11.3227 19.1282 11.3227 19.3533C11.3228 19.4719 11.3228 19.5906 11.323 19.7092C11.3239 20.343 11.3153 20.9759 11.2971 21.6094C11.2894 21.6094 11.2816 21.6094 11.2737 21.6094C11.2527 21.4667 11.2471 21.3288 11.2479 21.1847C11.248 21.1616 11.248 21.1384 11.248 21.1146C11.2481 21.0642 11.2483 21.0139 11.2485 20.9636C11.2488 20.8825 11.2489 20.8014 11.249 20.7203C11.2492 20.604 11.2495 20.4876 11.2498 20.3713C11.2505 20.0676 11.2509 19.7639 11.251 19.4602C11.2511 19.4299 11.2511 19.3995 11.2511 19.3683C11.2513 18.746 11.245 18.1239 11.234 17.5018C11.2328 17.4301 11.2316 17.3584 11.2305 17.2868C11.2297 17.2393 11.2287 17.1918 11.2277 17.1444C11.2248 16.9671 11.2316 16.7936 11.2502 16.6172C11.258 16.6172 11.2657 16.6172 11.2737 16.6172C11.2814 16.4934 11.2891 16.3697 11.2971 16.2422Z" fill="#76667E"/>
<path d="M5.41406 6.21069C6.07123 6.21014 6.72841 6.20973 7.38558 6.20947C7.69089 6.20936 7.9962 6.20919 8.30151 6.20892C10.9327 6.20663 10.9327 6.20663 12.0469 6.23413C12.0469 6.24186 12.0469 6.2496 12.0469 6.25756C12.018 6.25754 11.9891 6.25752 11.9593 6.2575C11.2735 6.25699 10.5877 6.2566 9.90189 6.25637C9.81751 6.25634 9.73314 6.25631 9.64877 6.25628C9.62357 6.25627 9.62357 6.25627 9.59786 6.25626C9.32573 6.25616 9.05359 6.25597 8.78145 6.25576C8.5023 6.25554 8.22316 6.25541 7.94401 6.25536C7.78718 6.25533 7.63034 6.25526 7.47351 6.25509C7.32601 6.25493 7.1785 6.25488 7.03099 6.25491C6.97675 6.25491 6.92252 6.25486 6.86829 6.25477C6.79442 6.25465 6.72056 6.25468 6.6467 6.25475C6.62508 6.25468 6.60347 6.25461 6.5812 6.25454C6.56142 6.25459 6.54164 6.25463 6.52126 6.25468C6.50421 6.25467 6.48715 6.25466 6.46959 6.25465C6.41996 6.25768 6.37619 6.26887 6.32812 6.281C6.29684 6.27332 6.2656 6.26548 6.23438 6.25756C6.17161 6.25534 6.10961 6.25429 6.04688 6.25463C6.0302 6.25454 6.01352 6.25445 5.99634 6.25436C5.91538 6.25451 5.84352 6.25956 5.76562 6.281C5.71075 6.27467 5.65605 6.26665 5.60156 6.25756C5.56691 6.25301 5.53225 6.24862 5.49756 6.24438C5.47 6.241 5.44245 6.23761 5.41406 6.23413C5.41406 6.22639 5.41406 6.21866 5.41406 6.21069Z" fill="#73637B"/>
<path d="M11.2734 25.9453C11.2812 25.9453 11.2889 25.9453 11.2969 25.9453C11.2969 25.9995 11.2969 26.0536 11.2969 26.1094C9.73453 26.1094 8.17219 26.1094 6.5625 26.1094C6.5625 26.1016 6.5625 26.0939 6.5625 26.0859C6.66425 26.0609 6.76316 26.0593 6.86729 26.0597C6.88605 26.0597 6.90481 26.0596 6.92414 26.0596C6.98694 26.0596 7.04974 26.0597 7.11253 26.0598C7.15758 26.0598 7.20262 26.0598 7.24766 26.0598C7.36993 26.0598 7.49219 26.06 7.61445 26.0601C7.74223 26.0603 7.87001 26.0603 7.99779 26.0603C8.23975 26.0604 8.48171 26.0606 8.72366 26.0608C8.99913 26.0611 9.2746 26.0612 9.55006 26.0613C10.1167 26.0616 10.6834 26.062 11.25 26.0625C11.2577 26.0238 11.2655 25.9852 11.2734 25.9453Z" fill="#6A5C72"/>
<path d="M5.20312 31.5703C7.32234 31.5703 9.44156 31.5703 11.625 31.5703C11.625 31.578 11.625 31.5858 11.625 31.5938C11.5659 31.5984 11.5069 31.6027 11.4478 31.6069C11.4312 31.6082 11.4147 31.6096 11.3977 31.6109C11.2895 31.6184 11.1928 31.6127 11.0859 31.5938C11.0782 31.6092 11.0705 31.6247 11.0625 31.6406C11.0625 31.6252 11.0625 31.6097 11.0625 31.5938C11.021 31.5971 10.9795 31.6005 10.938 31.604C10.9149 31.6059 10.8918 31.6078 10.868 31.6098C10.8025 31.6153 10.8025 31.6153 10.7344 31.6406C10.7344 31.6252 10.7344 31.6097 10.7344 31.5938C10.6272 31.596 10.5201 31.5984 10.4129 31.6012C10.3765 31.6021 10.3402 31.6029 10.3038 31.6036C10.2512 31.6047 10.1987 31.6061 10.1461 31.6075C10.1301 31.6078 10.114 31.608 10.0974 31.6083C9.99052 31.6115 9.89911 31.6343 9.79688 31.6641C9.75728 31.6498 9.71821 31.6341 9.67969 31.6172C9.61658 31.6129 9.55554 31.615 9.49219 31.6172C9.49219 31.6327 9.49219 31.6481 9.49219 31.6641C9.46898 31.6563 9.44578 31.6486 9.42188 31.6406C9.42188 31.6252 9.42188 31.6097 9.42188 31.5938C9.4025 31.5948 9.4025 31.5948 9.38272 31.5959C9.10625 31.6107 8.83094 31.6199 8.55404 31.6163C8.53362 31.6161 8.5132 31.6159 8.49216 31.6157C8.46523 31.6153 8.46523 31.6153 8.43776 31.6149C8.38575 31.6153 8.38575 31.6153 8.32031 31.6406C8.31258 31.6329 8.30484 31.6252 8.29688 31.6172C8.26223 31.616 8.22753 31.6163 8.19287 31.6172C8.00056 31.6192 7.80904 31.6056 7.61719 31.5938C7.60945 31.617 7.60172 31.6402 7.59375 31.6641C7.59375 31.6409 7.59375 31.6177 7.59375 31.5938C7.5813 31.5976 7.56885 31.6014 7.55603 31.6053C7.48736 31.6199 7.42376 31.6202 7.35352 31.6202C7.30905 31.6203 7.30905 31.6203 7.26369 31.6204C7.2314 31.6204 7.19912 31.6204 7.16684 31.6203C7.13362 31.6203 7.10041 31.6203 7.06719 31.6204C6.99763 31.6204 6.92806 31.6204 6.8585 31.6202C6.76949 31.6201 6.6805 31.6202 6.59149 31.6203C6.52291 31.6204 6.45433 31.6204 6.38574 31.6203C6.35293 31.6203 6.32013 31.6203 6.28732 31.6204C6.24138 31.6204 6.19545 31.6203 6.14951 31.6202C6.12341 31.6202 6.0973 31.6202 6.07041 31.6202C6.00519 31.6174 5.94625 31.6086 5.88281 31.5938C5.87508 31.6092 5.86734 31.6247 5.85938 31.6406C5.85938 31.6252 5.85938 31.6097 5.85938 31.5938C5.8449 31.5954 5.83043 31.5971 5.81552 31.5989C5.60648 31.6218 5.4117 31.6202 5.20312 31.5938C5.20312 31.586 5.20312 31.5783 5.20312 31.5703Z" fill="#584A60"/>
<path d="M19.2422 23.4141C19.2499 23.4141 19.2577 23.4141 19.2656 23.4141C19.2734 24.7212 19.2811 26.0283 19.2891 27.375C19.1974 27.3292 19.1835 27.3219 19.1372 27.2403C19.1269 27.2228 19.1167 27.2052 19.1061 27.1871C19.0901 27.159 19.0901 27.159 19.0737 27.1304C18.8364 26.7303 18.5644 26.4683 18.1406 26.2734C18.1093 26.258 18.078 26.2424 18.0469 26.2266C18.1332 26.1978 18.1644 26.2187 18.2436 26.257C18.2599 26.2653 18.2762 26.2736 18.293 26.2822C18.3181 26.295 18.3181 26.295 18.3438 26.3081C18.6563 26.4725 18.9307 26.7359 19.1016 27.0469C19.1016 27.0623 19.1016 27.0778 19.1016 27.0938C19.117 27.0938 19.1325 27.0938 19.1484 27.0938C19.1639 27.117 19.1794 27.1402 19.1953 27.1641C19.203 27.1641 19.2108 27.1641 19.2188 27.1641C19.2193 27.0356 19.2198 26.9071 19.22 26.7787C19.2202 26.735 19.2203 26.6913 19.2205 26.6476C19.2208 26.5848 19.2209 26.5219 19.221 26.4591C19.2212 26.4396 19.2213 26.4201 19.2214 26.4C19.2214 26.3817 19.2214 26.3634 19.2214 26.3446C19.2215 26.3285 19.2215 26.3125 19.2216 26.296C19.2186 26.247 19.2086 26.2034 19.1953 26.1562C19.2108 26.1562 19.2263 26.1562 19.2422 26.1562C19.2299 26.0915 19.2162 26.0314 19.1953 25.9688C19.2108 25.9688 19.2263 25.9688 19.2422 25.9688C19.2415 25.9433 19.2408 25.9178 19.24 25.8916C19.2172 25.0644 19.2219 24.2413 19.2422 23.4141ZM19.2188 27.2344C19.2422 27.3047 19.2422 27.3047 19.2422 27.3047L19.2188 27.2344Z" fill="#7A6A81"/>
<path d="M5.13281 8.15625C5.17969 8.17969 5.17969 8.17969 5.20111 8.2368C5.20827 8.26161 5.21543 8.28642 5.22281 8.31198C5.2308 8.33898 5.23879 8.36597 5.24702 8.39378C5.26358 8.45097 5.28012 8.50816 5.29665 8.56535C5.30868 8.60598 5.30868 8.60598 5.32095 8.64743C5.32814 8.67232 5.33533 8.69721 5.34274 8.72285C5.36652 8.78725 5.39335 8.83078 5.4375 8.88281C5.42203 8.88281 5.40656 8.88281 5.39062 8.88281C5.52893 9.15855 5.68334 9.39378 5.92969 9.58594C5.94724 9.59965 5.96479 9.61337 5.98288 9.6275C6.19963 9.78788 6.47294 9.94565 6.75 9.9375C6.75773 9.94523 6.76547 9.95297 6.77344 9.96094C6.80894 9.96637 6.84463 9.9706 6.88037 9.97412C6.89974 9.97608 6.9191 9.97805 6.93906 9.98007C6.95401 9.98149 6.96897 9.98291 6.98438 9.98438C6.85973 10.056 6.74317 10.0231 6.60974 9.99097C6.24301 9.88721 5.92804 9.70501 5.67188 9.42188C5.67188 9.40641 5.67188 9.39094 5.67188 9.375C5.65641 9.375 5.64094 9.375 5.625 9.375C5.47154 9.18107 5.3591 8.98013 5.28782 8.74253C5.27113 8.68775 5.25323 8.63342 5.23526 8.57904C5.22208 8.53871 5.20893 8.49836 5.1958 8.45801C5.18954 8.43883 5.18328 8.41965 5.17683 8.39989C5.16823 8.37274 5.16823 8.37274 5.15945 8.34503C5.15431 8.32895 5.14916 8.31288 5.14386 8.29631C5.13281 8.25 5.13281 8.25 5.13281 8.15625Z" fill="#685870"/>
<path d="M11.2735 11.3672C11.2813 11.3672 11.289 11.3672 11.297 11.3672C11.297 12.8212 11.297 14.2753 11.297 15.7734C11.2892 15.7734 11.2815 15.7734 11.2735 15.7734C11.2734 15.7522 11.2733 15.731 11.2732 15.7091C11.2708 15.1925 11.2683 14.6759 11.2656 14.1593C11.2643 13.9094 11.263 13.6596 11.2619 13.4098C11.2609 13.192 11.2598 12.9743 11.2586 12.7565C11.258 12.6412 11.2574 12.5259 11.2569 12.4106C11.2565 12.3021 11.2559 12.1935 11.2553 12.085C11.255 12.0452 11.2549 12.0053 11.2547 11.9655C11.2545 11.9111 11.2542 11.8567 11.2538 11.8022C11.2537 11.7718 11.2535 11.7413 11.2534 11.71C11.2516 11.6239 11.2516 11.6239 11.2368 11.5355C11.2263 11.458 11.2304 11.4306 11.2735 11.3672Z" fill="#564960"/>
<path d="M5.41406 6.21094C6.29578 6.21094 7.1775 6.21094 8.08594 6.21094C8.08594 6.21867 8.08594 6.22641 8.08594 6.23438C7.70914 6.25458 7.33382 6.26026 6.95654 6.25781C6.85709 6.25719 6.75763 6.25672 6.65817 6.25635C6.63574 6.25615 6.61331 6.25596 6.59019 6.25576C6.56942 6.25568 6.54864 6.2556 6.52724 6.25552C6.50908 6.2554 6.49093 6.25528 6.47223 6.25515C6.42138 6.25784 6.3773 6.26869 6.32812 6.28125C6.29684 6.27357 6.2656 6.26573 6.23438 6.25781C6.17161 6.25559 6.10961 6.25454 6.04688 6.25488C6.0302 6.25479 6.01352 6.2547 5.99634 6.25461C5.91538 6.25476 5.84352 6.25981 5.76562 6.28125C5.71075 6.27492 5.65605 6.26689 5.60156 6.25781C5.56691 6.25326 5.53225 6.24887 5.49756 6.24463C5.47 6.24125 5.44245 6.23786 5.41406 6.23438C5.41406 6.22664 5.41406 6.21891 5.41406 6.21094Z" fill="#65566E"/>
<path d="M4.80469 10.3828C4.82789 10.3828 4.85109 10.3828 4.875 10.3828C4.87113 10.4041 4.86727 10.4254 4.86328 10.4473C4.83753 10.6315 4.85013 10.8176 4.86328 11.0024C4.88487 11.3115 4.88524 11.6221 4.85669 11.9306C4.84945 12.0286 4.85133 12.126 4.85229 12.2242C4.85098 12.3686 4.83927 12.5123 4.82812 12.6562C4.82039 12.6562 4.81266 12.6562 4.80469 12.6562C4.80469 11.906 4.80469 11.1558 4.80469 10.3828Z" fill="#6A5B72"/>
<path d="M18.8438 8.41406C18.8989 8.56404 18.8143 8.74195 18.7535 8.88179C18.6595 9.08066 18.5465 9.25846 18.3984 9.42188C18.3812 9.44133 18.3639 9.46079 18.3461 9.48083C18.0926 9.75087 17.7787 9.93255 17.4141 10.0078C17.3594 10.0087 17.3047 10.0089 17.25 10.0078C17.3244 9.95819 17.3668 9.95003 17.4536 9.93457C17.8728 9.84147 18.2551 9.57329 18.4957 9.218C18.655 8.96572 18.7524 8.69674 18.8438 8.41406Z" fill="#685971"/>
<path d="M3.2578 6.51562C3.26554 6.51562 3.27327 6.51562 3.28124 6.51562C3.27963 6.53174 3.27803 6.54786 3.27637 6.56447C3.25379 6.81845 3.25254 7.07206 3.25039 7.32687C3.2499 7.37531 3.24941 7.42374 3.24891 7.47217C3.24763 7.59867 3.24646 7.72516 3.24533 7.85165C3.24414 7.98113 3.24284 8.1106 3.24155 8.24007C3.23904 8.49338 3.23666 8.74669 3.23436 9C3.22663 9 3.21889 9 3.21093 9C3.20696 8.90576 3.20308 8.81152 3.19921 8.71729C3.19809 8.69071 3.19697 8.66414 3.19582 8.63676C3.18677 8.41508 3.18677 8.41508 3.18758 8.31821C3.18927 8.24738 3.18927 8.24738 3.1743 8.16797C3.16405 8.08594 3.16405 8.08594 3.17577 8.00977C3.18879 7.91212 3.18029 7.82791 3.16771 7.73071C3.16405 7.66406 3.16405 7.66406 3.17513 7.58661C3.18908 7.48882 3.18809 7.39631 3.18602 7.29785C3.18411 7.12525 3.19287 6.95549 3.20946 6.78369C3.2115 6.76236 3.21354 6.74102 3.21564 6.71904C3.23112 6.569 3.23112 6.569 3.2578 6.51562Z" fill="#605369"/>
<path d="M6.21094 27.5625C6.22254 27.5857 6.22254 27.5857 6.23438 27.6094C6.21136 27.6555 6.21136 27.6555 6.17523 27.7122C6.09197 27.8461 6.01506 27.9828 5.93848 28.1206C5.83548 28.3053 5.73182 28.4895 5.62646 28.6729C5.5006 28.892 5.37784 29.1128 5.25587 29.3341C5.171 29.4877 5.08372 29.6394 4.99219 29.7891C4.98445 29.7736 4.97672 29.7581 4.96875 29.7422C4.98922 29.6938 4.98922 29.6938 5.0224 29.6335C5.04078 29.5998 5.04078 29.5998 5.05952 29.5655C5.07307 29.5411 5.08663 29.5168 5.10059 29.4917C5.11444 29.4665 5.12829 29.4413 5.14256 29.4153C5.27305 29.1785 5.40603 28.9431 5.53973 28.7081C5.60495 28.5935 5.66991 28.4786 5.73486 28.3638C5.74746 28.3415 5.76006 28.3193 5.77304 28.2964C5.83288 28.1906 5.89231 28.0846 5.95074 27.9781C5.96133 27.9588 5.97191 27.9395 5.98282 27.9197C6.00235 27.884 6.0218 27.8483 6.04112 27.8125C6.09081 27.7219 6.14324 27.6414 6.21094 27.5625Z" fill="#66566E"/>
<path d="M3.375 30.1875C3.43173 30.2573 3.47349 30.3309 3.51574 30.4097C3.78284 30.9059 4.19895 31.2788 4.73868 31.4584C4.86871 31.4941 5.00045 31.5214 5.13281 31.5469C5.13281 31.5546 5.13281 31.5623 5.13281 31.5703C4.96318 31.5803 4.80254 31.5518 4.64062 31.5C4.63289 31.4845 4.62516 31.4691 4.61719 31.4531C4.59882 31.4473 4.58045 31.4415 4.56152 31.4355C4.04356 31.2569 3.70347 30.8475 3.43085 30.3951C3.39685 30.3249 3.38391 30.2647 3.375 30.1875Z" fill="#65566D"/>
<path d="M4.52344 4.94564C4.51005 4.95307 4.49667 4.9605 4.48288 4.96816C3.89269 5.30782 3.49547 5.79484 3.3143 6.45443C3.31113 6.46699 3.30796 6.47956 3.30469 6.49251C3.29695 6.49251 3.28922 6.49251 3.28125 6.49251C3.33476 5.94408 3.68398 5.51109 4.08536 5.15932C4.40653 4.90667 4.40653 4.90667 4.52344 4.94564Z" fill="#67586F"/>
<path d="M19.5234 4.89844C19.7441 4.94161 19.9073 5.09495 20.0771 5.23389C20.0896 5.24402 20.1021 5.25416 20.115 5.2646C20.1453 5.2899 20.1744 5.31671 20.2031 5.34375C20.2031 5.35922 20.2031 5.37469 20.2031 5.39062C20.2186 5.39062 20.2341 5.39062 20.25 5.39062C20.287 5.43581 20.3215 5.48091 20.3555 5.52832C20.4266 5.62764 20.4266 5.62764 20.5078 5.71875C20.5362 5.77165 20.5634 5.82453 20.5898 5.87842C20.5971 5.89287 20.6043 5.90733 20.6117 5.92223C20.7261 6.15309 20.7261 6.15309 20.6953 6.25781C20.6845 6.23117 20.6737 6.20452 20.6625 6.17706C20.4317 5.62407 20.0878 5.25289 19.5717 4.952C19.5558 4.94206 19.5398 4.93212 19.5234 4.92188C19.5234 4.91414 19.5234 4.90641 19.5234 4.89844Z" fill="#64556C"/>
<path d="M18.1406 6.2105C18.2256 6.20774 18.3105 6.2061 18.3955 6.20464C18.4193 6.20385 18.443 6.20307 18.4675 6.20226C18.6879 6.19943 18.8767 6.2503 19.0407 6.4034C19.2316 6.61484 19.2738 6.79819 19.2656 7.07769C19.2579 7.07769 19.2502 7.07769 19.2422 7.07769C19.2385 7.05279 19.2348 7.0279 19.2309 7.00225C19.1855 6.70736 19.1855 6.70736 19.0078 6.47564C18.9923 6.46548 18.9769 6.45533 18.9609 6.44487C18.9421 6.42505 18.9232 6.40524 18.9038 6.38482C18.8431 6.32707 18.8073 6.30051 18.7266 6.28081C18.6509 6.28786 18.6509 6.28786 18.5859 6.30425C18.5859 6.29651 18.5859 6.28878 18.5859 6.28081C18.439 6.26534 18.292 6.24987 18.1406 6.23394C18.1406 6.2262 18.1406 6.21847 18.1406 6.2105Z" fill="#695971"/>
<path d="M18.0469 26.2031C18.3956 26.2431 18.6936 26.5103 18.9079 26.7718C18.9878 26.8737 19.058 26.9707 19.1016 27.0938C19.117 27.0938 19.1325 27.0938 19.1484 27.0938C19.2211 27.2217 19.2211 27.2217 19.2091 27.286C19.2046 27.2999 19.2 27.3138 19.1953 27.3281C19.1886 27.3167 19.1819 27.3053 19.175 27.2935C18.9034 26.8332 18.6351 26.5008 18.1406 26.2734C18.1093 26.258 18.078 26.2424 18.0469 26.2266C18.0469 26.2188 18.0469 26.2111 18.0469 26.2031Z" fill="#695A72"/>
<path d="M6.04688 26.1328C6.13969 26.1328 6.2325 26.1328 6.32812 26.1328C6.25387 26.1699 6.18863 26.1939 6.10947 26.2159C5.67314 26.3395 5.35671 26.5885 5.08594 26.9531C5.08594 26.8204 5.18932 26.7213 5.27344 26.625C5.45482 26.4558 5.78762 26.1797 6.04688 26.1797C6.04688 26.1642 6.04688 26.1487 6.04688 26.1328Z" fill="#6A5A72"/>
<path d="M11.2737 21.9375C11.2814 21.9375 11.2891 21.9375 11.2971 21.9375C11.2971 22.417 11.2971 22.8966 11.2971 23.3906C11.2816 23.3906 11.2662 23.3906 11.2502 23.3906C11.2456 23.3433 11.2412 23.2959 11.237 23.2485C11.2346 23.2222 11.2321 23.1958 11.2296 23.1686C11.2268 23.0859 11.2268 23.0859 11.2379 23.0132C11.2525 22.9052 11.2556 22.7993 11.2576 22.6905C11.2581 22.6689 11.2586 22.6473 11.2591 22.625C11.2606 22.5565 11.262 22.488 11.2634 22.4194C11.2644 22.3728 11.2654 22.3261 11.2665 22.2794C11.269 22.1654 11.2713 22.0515 11.2737 21.9375Z" fill="#63556C"/>
<path d="M19.5234 4.89844C19.7441 4.94161 19.9073 5.09495 20.0771 5.23389C20.0896 5.24402 20.1021 5.25416 20.115 5.2646C20.1453 5.2899 20.1744 5.31671 20.2031 5.34375C20.2031 5.35922 20.2031 5.37469 20.2031 5.39062C20.2186 5.39836 20.2341 5.40609 20.25 5.41406C20.1797 5.41406 20.1797 5.41406 20.1442 5.38129C20.1308 5.366 20.1173 5.35071 20.1035 5.33496C19.9519 5.1766 19.7597 5.06185 19.5713 4.95163C19.5555 4.94181 19.5397 4.93199 19.5234 4.92188C19.5234 4.91414 19.5234 4.90641 19.5234 4.89844Z" fill="#6A5B72"/>
<path d="M9.23438 31.5703C9.48961 31.5703 9.74484 31.5703 10.0078 31.5703C10.0001 31.5858 9.99234 31.6013 9.98438 31.6172C9.85774 31.6594 9.80217 31.6723 9.67969 31.6172C9.61659 31.6129 9.55554 31.615 9.49219 31.6172C9.49219 31.6327 9.49219 31.6481 9.49219 31.6641C9.46898 31.6563 9.44578 31.6486 9.42188 31.6406C9.42188 31.6252 9.42188 31.6097 9.42188 31.5938C9.36 31.5938 9.29812 31.5938 9.23438 31.5938C9.23438 31.586 9.23438 31.5783 9.23438 31.5703Z" fill="#625368"/>
<path d="M3.1875 8.76562C3.19523 8.76562 3.20297 8.76562 3.21094 8.76562C3.23155 8.93735 3.23866 9.1069 3.23877 9.27979C3.23906 9.30385 3.23934 9.32791 3.23964 9.35271C3.23968 9.37574 3.23973 9.39878 3.23978 9.42252C3.23987 9.44324 3.23997 9.46396 3.24007 9.48532C3.23438 9.53906 3.23438 9.53906 3.1875 9.60938C3.18777 9.58481 3.18804 9.56025 3.18832 9.53494C3.18854 9.50262 3.18876 9.47031 3.18896 9.43799C3.18916 9.42181 3.18936 9.40563 3.18956 9.38896C3.18992 9.31527 3.18755 9.25795 3.16406 9.1875C3.16745 9.16865 3.17083 9.14979 3.17432 9.13037C3.19349 9.00891 3.18929 8.88834 3.1875 8.76562Z" fill="#6C5E74"/>
<path d="M18.7734 29.2031C18.8368 29.2601 18.8748 29.3217 18.9164 29.3958C18.9366 29.4314 18.9366 29.4314 18.9571 29.4678C18.9709 29.4926 18.9848 29.5174 18.999 29.543C19.013 29.5678 19.0271 29.5926 19.0415 29.6181C19.1452 29.8027 19.1452 29.8027 19.1719 29.8828C19.0776 29.8514 19.057 29.7928 19.0122 29.71C19.0041 29.6953 18.996 29.6806 18.9876 29.6654C18.971 29.6353 18.9544 29.6052 18.938 29.575C18.9159 29.5346 18.8933 29.4946 18.8706 29.4546C18.8515 29.4208 18.8515 29.4208 18.832 29.3862C18.815 29.356 18.815 29.356 18.7976 29.3252C18.7734 29.2734 18.7734 29.2734 18.7734 29.2031Z" fill="#67586F"/>
<path d="M11.25 23.6016C11.2577 23.6016 11.2655 23.6016 11.2734 23.6016C11.2962 23.8778 11.2944 24.1455 11.2734 24.4219C11.258 24.4141 11.2425 24.4064 11.2266 24.3984C11.2285 24.3677 11.2305 24.3369 11.2325 24.3051C11.2349 24.2645 11.2373 24.2238 11.2397 24.1831C11.2411 24.1628 11.2424 24.1426 11.2437 24.1217C11.2495 24.0208 11.2489 23.935 11.2266 23.8359C11.2294 23.7732 11.2294 23.7732 11.2368 23.7114C11.2392 23.6907 11.2416 23.67 11.244 23.6487C11.246 23.6332 11.248 23.6176 11.25 23.6016Z" fill="#83728B"/>
<path d="M11.2736 11.3672C11.2814 11.3672 11.2891 11.3672 11.2971 11.3672C11.2971 11.5915 11.2971 11.8158 11.2971 12.0469C11.2893 12.0469 11.2816 12.0469 11.2736 12.0469C11.2715 12.004 11.2715 12.004 11.2693 11.9604C11.2674 11.9223 11.2654 11.8842 11.2634 11.8462C11.262 11.8181 11.262 11.8181 11.2606 11.7894C11.256 11.7026 11.2493 11.6188 11.2363 11.5327C11.2263 11.4572 11.2315 11.4292 11.2736 11.3672Z" fill="#66576E"/>
<path d="M19.2656 10.4062C19.2656 10.5609 19.2656 10.7156 19.2656 10.875C19.2579 10.875 19.2502 10.875 19.2422 10.875C19.2345 10.7512 19.2267 10.6275 19.2188 10.5C19.1723 10.5155 19.1259 10.5309 19.0781 10.5469C19.1865 10.4062 19.1865 10.4062 19.2656 10.4062Z" fill="#77677E"/>
<path d="M6.51562 9.91406C6.55421 9.91735 6.59278 9.9208 6.63135 9.92432C6.66357 9.92717 6.66357 9.92717 6.69644 9.93008C6.75 9.9375 6.75 9.9375 6.77344 9.96094C6.80894 9.96637 6.84463 9.9706 6.88037 9.97412C6.90942 9.97707 6.90942 9.97707 6.93906 9.98007C6.95401 9.98149 6.96897 9.98291 6.98438 9.98438C6.85188 10.062 6.71509 10.0181 6.57275 9.98291C6.54617 9.97566 6.51958 9.96841 6.49219 9.96094C6.49992 9.94547 6.50766 9.93 6.51562 9.91406Z" fill="#705F77"/>
<path d="M11.2733 19.5234C11.281 19.5234 11.2888 19.5234 11.2967 19.5234C11.321 19.6418 11.3226 19.7549 11.3202 19.875C11.3124 19.875 11.3047 19.875 11.2967 19.875C11.2967 19.8363 11.2967 19.7977 11.2967 19.7578C11.2813 19.7578 11.2658 19.7578 11.2498 19.7578C11.2492 19.7231 11.2488 19.6885 11.2484 19.6538C11.2481 19.6345 11.2478 19.6152 11.2476 19.5953C11.2498 19.5469 11.2498 19.5469 11.2733 19.5234Z" fill="#70617A"/>
<path d="M20.7891 14.1562C20.8239 14.1795 20.8239 14.1795 20.8594 14.2031C20.8703 14.3017 20.8544 14.3718 20.8125 14.4609C20.8048 14.4609 20.797 14.4609 20.7891 14.4609C20.7891 14.3604 20.7891 14.2598 20.7891 14.1562Z" fill="#716079"/>
<path d="M5.01562 26.9766C5.03109 26.9766 5.04656 26.9766 5.0625 26.9766C5.02402 27.0885 4.96253 27.1827 4.89844 27.2812C4.8826 27.2413 4.8826 27.2413 4.875 27.1875C4.90182 27.1322 4.90182 27.1322 4.94092 27.0762C4.95364 27.0574 4.96636 27.0387 4.97946 27.0194C4.9914 27.0053 5.00333 26.9911 5.01562 26.9766Z" fill="#685970"/>
<path d="M9.77344 31.5703C9.85078 31.5703 9.92812 31.5703 10.0078 31.5703C9.98438 31.6172 9.98438 31.6172 9.94272 31.6337C9.91766 31.64 9.91766 31.64 9.89209 31.6465C9.86712 31.6532 9.86712 31.6532 9.84164 31.66C9.81948 31.662 9.81948 31.662 9.79688 31.6641C9.78141 31.6486 9.76594 31.6331 9.75 31.6172C9.75773 31.6017 9.76547 31.5862 9.77344 31.5703Z" fill="#6E5E74"/>
<path d="M11.2733 25.6406C11.281 25.6406 11.2887 25.6406 11.2967 25.6406C11.2967 25.7334 11.2967 25.8263 11.2967 25.9219C11.2812 25.9141 11.2658 25.9064 11.2498 25.8984C11.2178 25.7568 11.2178 25.7568 11.2484 25.6772C11.2566 25.6652 11.2648 25.6531 11.2733 25.6406Z" fill="#6E5F77"/>
<path d="M6.375 26.0625C6.43688 26.0702 6.49875 26.078 6.5625 26.0859C6.5625 26.1014 6.5625 26.1169 6.5625 26.1328C6.50062 26.1328 6.43875 26.1328 6.375 26.1328C6.375 26.1096 6.375 26.0864 6.375 26.0625Z" fill="#716178"/>
<path d="M19.1953 26.5547C19.203 26.5547 19.2108 26.5547 19.2188 26.5547C19.2188 26.6243 19.2188 26.6939 19.2188 26.7656C19.211 26.7656 19.2033 26.7656 19.1953 26.7656C19.1953 26.696 19.1953 26.6264 19.1953 26.5547Z" fill="#86778E"/>
<path d="M19.1953 24.2812C19.203 24.2812 19.2108 24.2812 19.2188 24.2812C19.2188 24.3431 19.2188 24.405 19.2188 24.4688C19.2033 24.461 19.1878 24.4533 19.1719 24.4453C19.1796 24.3912 19.1873 24.337 19.1953 24.2812Z" fill="#84748A"/>
<path d="M19.1953 23.6016C19.203 23.6016 19.2108 23.6016 19.2188 23.6016C19.2188 23.6712 19.2188 23.7408 19.2188 23.8125C19.211 23.8125 19.2033 23.8125 19.1953 23.8125C19.1953 23.7429 19.1953 23.6733 19.1953 23.6016Z" fill="#837389"/>
<path d="M19.1953 24.8203C19.203 24.8203 19.2108 24.8203 19.2188 24.8203C19.2188 24.8745 19.2188 24.9286 19.2188 24.9844C19.211 24.9844 19.2033 24.9844 19.1953 24.9844C19.1953 24.9302 19.1953 24.8761 19.1953 24.8203Z" fill="#84758B"/>
<path d="M11.9062 9.9375C11.9604 9.9375 12.0145 9.9375 12.0703 9.9375C12.0703 9.94523 12.0703 9.95297 12.0703 9.96094C12.0162 9.96094 11.962 9.96094 11.9062 9.96094C11.9062 9.9532 11.9062 9.94547 11.9062 9.9375Z" fill="#87758B"/>
<path d="M9.65625 9.9375C9.71039 9.9375 9.76453 9.9375 9.82031 9.9375C9.82031 9.94523 9.82031 9.95297 9.82031 9.96094C9.76617 9.96094 9.71203 9.96094 9.65625 9.96094C9.65625 9.9532 9.65625 9.94547 9.65625 9.9375Z" fill="#85748B"/>
<path d="M8.0625 31.6172C8.10891 31.6172 8.15531 31.6172 8.20312 31.6172C8.20312 31.6249 8.20312 31.6327 8.20312 31.6406C8.15672 31.6406 8.11031 31.6406 8.0625 31.6406C8.0625 31.6329 8.0625 31.6252 8.0625 31.6172Z" fill="#807086"/>
<path d="M19.1953 23.8594C19.203 23.8594 19.2108 23.8594 19.2188 23.8594C19.2188 23.9058 19.2188 23.9522 19.2188 24C19.211 24 19.2033 24 19.1953 24C19.1953 23.9536 19.1953 23.9072 19.1953 23.8594Z" fill="#84758A"/>
<path d="M19.1953 13.1016C19.203 13.1016 19.2108 13.1016 19.2188 13.1016C19.2188 13.1402 19.2188 13.1789 19.2188 13.2188C19.2033 13.1878 19.1878 13.1569 19.1719 13.125C19.1796 13.1173 19.1873 13.1095 19.1953 13.1016Z" fill="#83748A"/>
<path d="M10.9688 9.9375C11.0152 9.9375 11.0616 9.9375 11.1094 9.9375C11.1094 9.94523 11.1094 9.95297 11.1094 9.96094C11.063 9.96094 11.0166 9.96094 10.9688 9.96094C10.9688 9.9532 10.9688 9.94547 10.9688 9.9375Z" fill="#86758A"/>
<path d="M19.1953 25.2422C19.203 25.2422 19.2108 25.2422 19.2188 25.2422C19.2188 25.2809 19.2188 25.3195 19.2188 25.3594C19.211 25.3594 19.2033 25.3594 19.1953 25.3594C19.1953 25.3207 19.1953 25.282 19.1953 25.2422Z" fill="#85758C"/>
<path d="M19.1953 10.6172C19.203 10.6172 19.2108 10.6172 19.2188 10.6172C19.2188 10.6559 19.2188 10.6945 19.2188 10.7344C19.211 10.7344 19.2033 10.7344 19.1953 10.7344C19.1953 10.6957 19.1953 10.657 19.1953 10.6172Z" fill="#86778E"/>
<path d="M6.77344 9.9375C6.81211 9.9375 6.85078 9.9375 6.89062 9.9375C6.89062 9.94523 6.89062 9.95297 6.89062 9.96094C6.85195 9.96094 6.81328 9.96094 6.77344 9.96094C6.77344 9.9532 6.77344 9.94547 6.77344 9.9375Z" fill="#87778D"/>
<path d="M17.6484 31.6172C17.7422 31.6406 17.7422 31.6406 17.7422 31.6406L17.6484 31.6172Z" fill="#816F84"/>
<path d="M11.3203 31.6172C11.3358 31.6249 11.3513 31.6327 11.3672 31.6406C11.344 31.6406 11.3208 31.6406 11.2969 31.6406C11.3046 31.6329 11.3123 31.6252 11.3203 31.6172Z" fill="#817086"/>
<path d="M7.17188 31.6172C7.19508 31.6249 7.21828 31.6327 7.24219 31.6406C7.21898 31.6406 7.19578 31.6406 7.17188 31.6406C7.17188 31.6329 7.17188 31.6252 7.17188 31.6172Z" fill="#817185"/>
<path d="M19.1953 27.0703C19.203 27.0935 19.2108 27.1167 19.2188 27.1406C19.2033 27.1329 19.1878 27.1252 19.1719 27.1172C19.1796 27.1017 19.1873 27.0862 19.1953 27.0703Z" fill="#87778E"/>
<path d="M19.1953 26.9062C19.2188 27 19.2188 27 19.2188 27L19.1953 26.9062Z" fill="#86778D"/>
<path d="M17.7188 26.0625C17.8125 26.0859 17.8125 26.0859 17.8125 26.0859L17.7188 26.0625Z" fill="#84758B"/>
<path d="M19.1953 25.7812C19.2188 25.875 19.2188 25.875 19.2188 25.875L19.1953 25.7812Z" fill="#86768C"/>
<path d="M19.1953 25.4062C19.2188 25.5 19.2188 25.5 19.2188 25.5L19.1953 25.4062Z" fill="#84768C"/>
<path d="M19.1953 23.1562C19.2188 23.25 19.2188 23.25 19.2188 23.25L19.1953 23.1562Z" fill="#827288"/>
<path d="M19.1953 20.5312C19.2188 20.625 19.2188 20.625 19.2188 20.625L19.1953 20.5312Z" fill="#817288"/>
<path d="M19.1953 20.1562C19.2188 20.25 19.2188 20.25 19.2188 20.25L19.1953 20.1562Z" fill="#817388"/>
<path d="M19.1953 19.9688C19.2188 20.0625 19.2188 20.0625 19.2188 20.0625L19.1953 19.9688Z" fill="#837388"/>
<path d="M19.1953 19.4531C19.2188 19.5469 19.2188 19.5469 19.2188 19.5469L19.1953 19.4531Z" fill="#817289"/>
<path d="M19.1953 17.1797C19.2188 17.2734 19.2188 17.2734 19.2188 17.2734L19.1953 17.1797Z" fill="#82738A"/>
<path d="M19.1953 14.7891C19.2188 14.8828 19.2188 14.8828 19.2188 14.8828L19.1953 14.7891Z" fill="#837288"/>
<path d="M19.1953 12.2812C19.2188 12.375 19.2188 12.375 19.2188 12.375L19.1953 12.2812Z" fill="#83748A"/>
<path d="M5.92969 11.2266C6.02344 11.25 6.02344 11.25 6.02344 11.25L5.92969 11.2266Z" fill="#88768F"/>
<path d="M5.46094 10.9688C5.48414 10.9765 5.50734 10.9842 5.53125 10.9922C5.50805 10.9922 5.48484 10.9922 5.46094 10.9922C5.46094 10.9845 5.46094 10.9767 5.46094 10.9688Z" fill="#897791"/>
<path d="M4.875 10.5703C4.89047 10.5858 4.90594 10.6013 4.92188 10.6172C4.89867 10.6288 4.89867 10.6288 4.875 10.6406C4.875 10.6174 4.875 10.5942 4.875 10.5703Z" fill="#8A788F"/>
<path d="M16.4766 9.9375C16.5703 9.96094 16.5703 9.96094 16.5703 9.96094L16.4766 9.9375Z" fill="#86758B"/>
<path d="M15.9141 9.9375C16.0078 9.96094 16.0078 9.96094 16.0078 9.96094L15.9141 9.9375Z" fill="#85768A"/>
<path d="M12.7266 9.9375C12.8203 9.96094 12.8203 9.96094 12.8203 9.96094L12.7266 9.9375Z" fill="#87758B"/>
<path d="M11.7891 9.9375C11.8828 9.96094 11.8828 9.96094 11.8828 9.96094L11.7891 9.9375Z" fill="#86758A"/>
<path d="M10.125 9.9375C10.2188 9.96094 10.2188 9.96094 10.2188 9.96094L10.125 9.9375Z" fill="#87758A"/>
<path d="M18.6328 31.6172C18.7031 31.6406 18.7031 31.6406 18.7031 31.6406L18.6328 31.6172Z" fill="#806F86"/>
<path d="M17.7891 31.6172C17.8594 31.6406 17.8594 31.6406 17.8594 31.6406L17.7891 31.6172Z" fill="#827085"/>
<path d="M15.8203 31.6172C15.828 31.6327 15.8358 31.6481 15.8438 31.6641C15.8283 31.6563 15.8128 31.6486 15.7969 31.6406C15.8046 31.6329 15.8123 31.6252 15.8203 31.6172Z" fill="#807085"/>
<path d="M15.4453 31.6172C15.5156 31.6406 15.5156 31.6406 15.5156 31.6406L15.4453 31.6172Z" fill="#837387"/>
<path d="M14.8594 31.6172C14.9297 31.6406 14.9297 31.6406 14.9297 31.6406L14.8594 31.6172Z" fill="#837287"/>
<path d="M11.5078 31.6172C11.531 31.6288 11.531 31.6288 11.5547 31.6406C11.5315 31.6522 11.5315 31.6522 11.5078 31.6641C11.5078 31.6486 11.5078 31.6331 11.5078 31.6172Z" fill="#7F6F87"/>
<path d="M9.32812 31.6172C9.35133 31.6288 9.35133 31.6288 9.375 31.6406C9.3518 31.6522 9.3518 31.6522 9.32812 31.6641C9.32812 31.6486 9.32812 31.6331 9.32812 31.6172Z" fill="#817185"/>
<path d="M19.1719 21.7734C19.1873 21.7734 19.2028 21.7734 19.2188 21.7734C19.211 21.7889 19.2033 21.8044 19.1953 21.8203C19.1876 21.8048 19.1798 21.7894 19.1719 21.7734Z" fill="#817187"/>
<path d="M19.1719 14.3672C19.1873 14.3672 19.2028 14.3672 19.2188 14.3672C19.211 14.3827 19.2033 14.3981 19.1953 14.4141C19.1876 14.3986 19.1798 14.3831 19.1719 14.3672Z" fill="#837489"/>
<path d="M14.6484 11.3672C14.7188 11.3906 14.7188 11.3906 14.7188 11.3906L14.6484 11.3672Z" fill="#87758C"/>
<path d="M9.53906 11.3672C9.60938 11.3906 9.60938 11.3906 9.60938 11.3906L9.53906 11.3672Z" fill="#86758B"/>
<path d="M17.6016 11.3438C17.6248 11.3554 17.6248 11.3554 17.6484 11.3672C17.6252 11.3788 17.6252 11.3788 17.6016 11.3906C17.6016 11.3752 17.6016 11.3597 17.6016 11.3438Z" fill="#85758C"/>
<path d="M4.875 10.5234C4.89047 10.5234 4.90594 10.5234 4.92188 10.5234C4.91414 10.5389 4.90641 10.5544 4.89844 10.5703C4.8907 10.5548 4.88297 10.5394 4.875 10.5234Z" fill="#89778F"/>
<path d="M19.1719 10.5C19.1873 10.5 19.2028 10.5 19.2188 10.5C19.211 10.5155 19.2033 10.5309 19.1953 10.5469C19.1876 10.5314 19.1798 10.5159 19.1719 10.5Z" fill="#89788E"/>
<path d="M17.25 9.9375C17.3203 9.96094 17.3203 9.96094 17.3203 9.96094L17.25 9.9375Z" fill="#87788F"/>
<path d="M16.5938 9.9375C16.6641 9.96094 16.6641 9.96094 16.6641 9.96094L16.5938 9.9375Z" fill="#86758B"/>
<path d="M15.3516 9.9375C15.4219 9.96094 15.4219 9.96094 15.4219 9.96094L15.3516 9.9375Z" fill="#85758A"/>
<path d="M13.8516 9.9375C13.9219 9.96094 13.9219 9.96094 13.9219 9.96094L13.8516 9.9375Z" fill="#88768B"/>
<path d="M10.8516 9.9375C10.9219 9.96094 10.9219 9.96094 10.9219 9.96094L10.8516 9.9375Z" fill="#87758B"/>
<path d="M7.125 9.9375C7.19531 9.96094 7.19531 9.96094 7.19531 9.96094L7.125 9.9375Z" fill="#87768D"/>
<path d="M18.5859 8.92969C18.6014 8.94516 18.6169 8.96063 18.6328 8.97656C18.6173 8.97656 18.6019 8.97656 18.5859 8.97656C18.5859 8.96109 18.5859 8.94562 18.5859 8.92969Z" fill="#87768E"/>
<path d="M5.03906 7.47656C5.0468 7.49203 5.05453 7.5075 5.0625 7.52344C5.04703 7.5157 5.03156 7.50797 5.01562 7.5C5.02336 7.49227 5.03109 7.48453 5.03906 7.47656Z" fill="#87748C"/>
<path d="M12.1406 6.28125C12.2109 6.30469 12.2109 6.30469 12.2109 6.30469L12.1406 6.28125Z" fill="#85778D"/>
<path d="M15.1875 4.61719C15.2578 4.64062 15.2578 4.64062 15.2578 4.64062L15.1875 4.61719Z" fill="#817389"/>
<path d="M8.25 4.61719C8.32031 4.64062 8.32031 4.64062 8.32031 4.64062L8.25 4.61719Z" fill="#817288"/>
<path d="M15.3047 31.6406C15.3516 31.6641 15.3516 31.6641 15.3516 31.6641L15.3047 31.6406Z" fill="#7E7082"/>
<path d="M18.7734 31.6172C18.8203 31.6406 18.8203 31.6406 18.8203 31.6406L18.7734 31.6172Z" fill="#806F87"/>
<path d="M18.2344 31.6172C18.2812 31.6406 18.2812 31.6406 18.2812 31.6406L18.2344 31.6172Z" fill="#817186"/>
<path d="M18.0469 31.6172C18.0938 31.6406 18.0938 31.6406 18.0938 31.6406L18.0469 31.6172Z" fill="#837087"/>
<path d="M17.5078 31.6172C17.5547 31.6406 17.5547 31.6406 17.5547 31.6406L17.5078 31.6172Z" fill="#827187"/>
<path d="M16.8516 31.6172C16.8984 31.6406 16.8984 31.6406 16.8984 31.6406L16.8516 31.6172Z" fill="#827087"/>
<path d="M13.3828 31.6172C13.4297 31.6406 13.4297 31.6406 13.4297 31.6406L13.3828 31.6172Z" fill="#837087"/>
<path d="M13.2656 31.6172C13.3125 31.6406 13.3125 31.6406 13.3125 31.6406L13.2656 31.6172Z" fill="#827086"/>
<path d="M13.1953 31.6172C13.2422 31.6406 13.2422 31.6406 13.2422 31.6406L13.1953 31.6172Z" fill="#837188"/>
<path d="M12.6328 31.6172C12.6797 31.6406 12.6797 31.6406 12.6797 31.6406L12.6328 31.6172Z" fill="#847288"/>
<path d="M8.95312 31.6172C9 31.6406 9 31.6406 9 31.6406L8.95312 31.6172Z" fill="#837187"/>
<path d="M5.69531 31.6172C5.74219 31.6406 5.74219 31.6406 5.74219 31.6406L5.69531 31.6172Z" fill="#817187"/>
<path d="M19.4297 31.4766C19.4766 31.5 19.4766 31.5 19.4766 31.5L19.4297 31.4766Z" fill="#837288"/>
<path d="M4.5 31.4531C4.54688 31.4766 4.54688 31.4766 4.54688 31.4766L4.5 31.4531Z" fill="#7F7086"/>
<path d="M4.21875 31.2891C4.26562 31.3125 4.26562 31.3125 4.26562 31.3125L4.21875 31.2891Z" fill="#807085"/>
<path d="M18.9609 29.6953C19.0078 29.7188 19.0078 29.7188 19.0078 29.7188L18.9609 29.6953Z" fill="#887790"/>
<path d="M20.8828 28.8984C20.9297 28.9219 20.9297 28.9219 20.9297 28.9219L20.8828 28.8984Z" fill="#7C6C82"/>
<path d="M20.9062 26.2266C20.9531 26.25 20.9531 26.25 20.9531 26.25L20.9062 26.2266Z" fill="#807187"/>
<path d="M5.88281 26.1797C5.92969 26.2031 5.92969 26.2031 5.92969 26.2031L5.88281 26.1797Z" fill="#87778C"/>
<path d="M18.0703 26.1562C18.1172 26.1797 18.1172 26.1797 18.1172 26.1797L18.0703 26.1562Z" fill="#85748B"/>
<path d="M6.30469 26.0625C6.35156 26.0859 6.35156 26.0859 6.35156 26.0859L6.30469 26.0625Z" fill="#83738A"/>
<path d="M22.2188 25.5469C22.2656 25.5703 22.2656 25.5703 22.2656 25.5703L22.2188 25.5469Z" fill="#4B4451"/>
<path d="M21.8672 25.5469C21.9141 25.5703 21.9141 25.5703 21.9141 25.5703L21.8672 25.5469Z" fill="#574E5D"/>
<path d="M18.8438 25.5469C18.8906 25.5703 18.8906 25.5703 18.8906 25.5703L18.8438 25.5469Z" fill="#827288"/>
<path d="M12.8438 25.5469C12.8906 25.5703 12.8906 25.5703 12.8906 25.5703L12.8438 25.5469Z" fill="#85758B"/>
<path d="M0.65625 25.5469C0.703125 25.5703 0.703125 25.5703 0.703125 25.5703L0.65625 25.5469Z" fill="#312E35"/>
<path d="M19.125 15.4453C19.1719 15.4688 19.1719 15.4688 19.1719 15.4688L19.125 15.4453Z" fill="#827287"/>
<path d="M20.9062 12.1406C20.9531 12.1641 20.9531 12.1641 20.9531 12.1641L20.9062 12.1406Z" fill="#837289"/>
<path d="M18.6562 12.1406C18.7031 12.1641 18.7031 12.1641 18.7031 12.1641L18.6562 12.1406Z" fill="#807085"/>
<path d="M19.1484 12C19.1953 12.0234 19.1953 12.0234 19.1953 12.0234L19.1484 12Z" fill="#87768D"/>
<path d="M20.9297 11.5078C20.9766 11.5312 20.9766 11.5312 20.9766 11.5312L20.9297 11.5078Z" fill="#807185"/>
<path d="M8.55469 11.3906C8.60156 11.4141 8.60156 11.4141 8.60156 11.4141L8.55469 11.3906Z" fill="#84758A"/>
<path d="M11.0625 11.3672C11.1094 11.3906 11.1094 11.3906 11.1094 11.3906L11.0625 11.3672Z" fill="#86768D"/>
<path d="M5.53125 11.0391C5.57812 11.0625 5.57812 11.0625 5.57812 11.0625L5.53125 11.0391Z" fill="#88778F"/>
<path d="M18.4922 11.0156C18.5391 11.0391 18.5391 11.0391 18.5391 11.0391L18.4922 11.0156Z" fill="#8B778E"/>
<path d="M15.8438 9.9375C15.8906 9.96094 15.8906 9.96094 15.8906 9.96094L15.8438 9.9375Z" fill="#88768B"/>
<path d="M14.7188 9.9375C14.7656 9.96094 14.7656 9.96094 14.7656 9.96094L14.7188 9.9375Z" fill="#877489"/>
<path d="M14.6484 9.9375C14.6953 9.96094 14.6953 9.96094 14.6953 9.96094L14.6484 9.9375Z" fill="#857489"/>
<path d="M14.0391 9.9375C14.0859 9.96094 14.0859 9.96094 14.0859 9.96094L14.0391 9.9375Z" fill="#88768B"/>
<path d="M13.7109 9.9375C13.7578 9.96094 13.7578 9.96094 13.7578 9.96094L13.7109 9.9375Z" fill="#86778A"/>
<path d="M13.5 9.9375C13.5469 9.96094 13.5469 9.96094 13.5469 9.96094L13.5 9.9375Z" fill="#85768B"/>
<path d="M13.4062 9.9375C13.4531 9.96094 13.4531 9.96094 13.4531 9.96094L13.4062 9.9375Z" fill="#87758B"/>
<path d="M13.0312 9.9375C13.0781 9.96094 13.0781 9.96094 13.0781 9.96094L13.0312 9.9375Z" fill="#86738A"/>
<path d="M12.6562 9.9375C12.7031 9.96094 12.7031 9.96094 12.7031 9.96094L12.6562 9.9375Z" fill="#87758A"/>
<path d="M12.4688 9.9375C12.5156 9.96094 12.5156 9.96094 12.5156 9.96094L12.4688 9.9375Z" fill="#86758A"/>
<path d="M12.2812 9.9375C12.3281 9.96094 12.3281 9.96094 12.3281 9.96094L12.2812 9.9375Z" fill="#88778B"/>
<path d="M12.0938 9.9375C12.1406 9.96094 12.1406 9.96094 12.1406 9.96094L12.0938 9.9375Z" fill="#88758A"/>
<path d="M11.4609 9.9375C11.5078 9.96094 11.5078 9.96094 11.5078 9.96094L11.4609 9.9375Z" fill="#86768B"/>
<path d="M10.4297 9.9375C10.4766 9.96094 10.4766 9.96094 10.4766 9.96094L10.4297 9.9375Z" fill="#867689"/>
<path d="M9.46875 9.9375C9.51562 9.96094 9.51562 9.96094 9.51562 9.96094L9.46875 9.9375Z" fill="#85768B"/>
<path d="M9.35156 9.9375C9.39844 9.96094 9.39844 9.96094 9.39844 9.96094L9.35156 9.9375Z" fill="#88768D"/>
<path d="M8.83594 9.9375C8.88281 9.96094 8.88281 9.96094 8.88281 9.96094L8.83594 9.9375Z" fill="#85768B"/>
<path d="M7.21875 9.9375C7.26562 9.96094 7.26562 9.96094 7.26562 9.96094L7.21875 9.9375Z" fill="#86778E"/>
<path d="M17.8359 9.75C17.8828 9.77344 17.8828 9.77344 17.8828 9.77344L17.8359 9.75Z" fill="#8A7B92"/>
<path d="M5.50781 9.09375C5.55469 9.11719 5.55469 9.11719 5.55469 9.11719L5.50781 9.09375Z" fill="#8B788F"/>
<path d="M19.0312 7.54688C19.0781 7.57031 19.0781 7.57031 19.0781 7.57031L19.0312 7.54688Z" fill="#88768E"/>
<path d="M16.4531 6.28125C16.5 6.30469 16.5 6.30469 16.5 6.30469L16.4531 6.28125Z" fill="#83758B"/>
<path d="M15.5156 6.28125C15.5625 6.30469 15.5625 6.30469 15.5625 6.30469L15.5156 6.28125Z" fill="#84768B"/>
<path d="M11.5781 6.28125C11.625 6.30469 11.625 6.30469 11.625 6.30469L11.5781 6.28125Z" fill="#85768D"/>
<path d="M9.32812 6.28125C9.375 6.30469 9.375 6.30469 9.375 6.30469L9.32812 6.28125Z" fill="#82748B"/>
<path d="M6.89062 6.28125C6.9375 6.30469 6.9375 6.30469 6.9375 6.30469L6.89062 6.28125Z" fill="#85768C"/>
<path d="M4.14844 5.0625C4.19531 5.08594 4.19531 5.08594 4.19531 5.08594L4.14844 5.0625Z" fill="#827388"/>
<path d="M19.4062 4.78125C19.4531 4.80469 19.4531 4.80469 19.4531 4.80469L19.4062 4.78125Z" fill="#7E7185"/>
<path d="M23.3906 4.6875C23.4375 4.71094 23.4375 4.71094 23.4375 4.71094L23.3906 4.6875Z" fill="#111114"/>
<path d="M19.2656 4.6875C19.3125 4.71094 19.3125 4.71094 19.3125 4.71094L19.2656 4.6875Z" fill="#807187"/>
<path d="M19.0781 4.6875C19.125 4.71094 19.125 4.71094 19.125 4.71094L19.0781 4.6875Z" fill="#827389"/>
<path d="M4.92188 4.6875C4.96875 4.71094 4.96875 4.71094 4.96875 4.71094L4.92188 4.6875Z" fill="#83758C"/>
<path d="M18.5156 4.61719C18.5625 4.64062 18.5625 4.64062 18.5625 4.64062L18.5156 4.61719Z" fill="#807187"/>
<path d="M17.2969 4.61719C17.3438 4.64062 17.3438 4.64062 17.3438 4.64062L17.2969 4.61719Z" fill="#837489"/>
<path d="M16.6641 4.61719C16.7109 4.64062 16.7109 4.64062 16.7109 4.64062L16.6641 4.61719Z" fill="#817388"/>
<path d="M16.125 4.61719C16.1719 4.64062 16.1719 4.64062 16.1719 4.64062L16.125 4.61719Z" fill="#817387"/>
<path d="M15.7734 4.61719C15.8203 4.64062 15.8203 4.64062 15.8203 4.64062L15.7734 4.61719Z" fill="#817388"/>
<path d="M15.0469 4.61719C15.0938 4.64062 15.0938 4.64062 15.0938 4.64062L15.0469 4.61719Z" fill="#827388"/>
<path d="M14.8594 4.61719C14.9062 4.64062 14.9062 4.64062 14.9062 4.64062L14.8594 4.61719Z" fill="#827389"/>
<path d="M13.4766 4.61719C13.5234 4.64062 13.5234 4.64062 13.5234 4.64062L13.4766 4.61719Z" fill="#827287"/>
<path d="M13.3359 4.61719C13.3828 4.64062 13.3828 4.64062 13.3828 4.64062L13.3359 4.61719Z" fill="#817288"/>
<path d="M12.7734 4.61719C12.8203 4.64062 12.8203 4.64062 12.8203 4.64062L12.7734 4.61719Z" fill="#837287"/>
<path d="M12.4219 4.61719C12.4688 4.64062 12.4688 4.64062 12.4688 4.64062L12.4219 4.61719Z" fill="#827288"/>
<path d="M11.9766 4.61719C12.0234 4.64062 12.0234 4.64062 12.0234 4.64062L11.9766 4.61719Z" fill="#817289"/>
<path d="M10.8984 4.61719C10.9453 4.64062 10.9453 4.64062 10.9453 4.64062L10.8984 4.61719Z" fill="#817288"/>
<path d="M10.5234 4.61719C10.5703 4.64062 10.5703 4.64062 10.5703 4.64062L10.5234 4.61719Z" fill="#817288"/>
<path d="M9.96094 4.61719C10.0078 4.64062 10.0078 4.64062 10.0078 4.64062L9.96094 4.61719Z" fill="#827389"/>
<path d="M9.79688 4.61719C9.84375 4.64062 9.84375 4.64062 9.84375 4.64062L9.79688 4.61719Z" fill="#807288"/>
<path d="M4.52344 4.24219C4.57031 4.26562 4.57031 4.26562 4.57031 4.26562L4.52344 4.24219Z" fill="#665A6B"/>
</svg>
