<svg width="39" height="38" viewBox="0 0 39 38" fill="none" xmlns="http://www.w3.org/2000/svg">
<path d="M8.55066 10.0845C8.65021 10.0845 8.74976 10.0843 8.84931 10.0842C9.06529 10.0839 9.28127 10.0839 9.49725 10.0841C9.81842 10.0844 10.1396 10.0843 10.4607 10.084C11.0344 10.0836 11.608 10.0837 12.1816 10.0839C12.6834 10.0841 13.1852 10.0841 13.687 10.084C13.7203 10.084 13.7536 10.084 13.788 10.084C13.9231 10.084 14.0583 10.084 14.1935 10.0839C15.4611 10.0837 16.7286 10.0839 17.9961 10.0843C19.1225 10.0847 20.2488 10.0846 21.3752 10.0843C22.6408 10.0839 23.9065 10.0837 25.1721 10.084C25.307 10.084 25.4418 10.084 25.5767 10.084C25.6099 10.084 25.6431 10.084 25.6773 10.084C26.179 10.0841 26.6807 10.084 27.1824 10.0838C27.7526 10.0836 28.3228 10.0837 28.893 10.0841C29.2122 10.0843 29.5314 10.0843 29.8506 10.084C30.0886 10.0839 30.3267 10.0841 30.5647 10.0844C30.6612 10.0845 30.7577 10.0845 30.8543 10.0843C30.985 10.084 31.1158 10.0843 31.2465 10.0846C31.2844 10.0844 31.3223 10.0843 31.3613 10.0841C31.5495 10.0851 31.701 10.0974 31.8777 10.1682C31.9433 10.188 31.9433 10.188 32.0102 10.2082C32.4336 10.3386 32.8098 10.4953 33.1345 10.799C33.1582 10.8194 33.1819 10.8398 33.2064 10.8608C33.3657 11.0041 33.4965 11.1623 33.6177 11.3371C33.6446 11.3758 33.6714 11.4144 33.6991 11.4543C34.0067 12.0097 34.0003 12.5678 33.9973 13.184C33.9969 13.3151 33.9975 13.4462 33.9981 13.5773C33.9989 13.8334 33.9987 14.0894 33.9982 14.3454C33.9977 14.5536 33.9977 14.7618 33.9979 14.97C33.9979 15.0146 33.9979 15.0146 33.998 15.0602C33.998 15.1206 33.9981 15.1811 33.9982 15.2415C33.9987 15.8069 33.9981 16.3723 33.9971 16.9377C33.9962 17.422 33.9964 17.9062 33.9972 18.3905C33.9983 18.9542 33.9987 19.5179 33.9981 20.0815C33.998 20.1417 33.998 20.2019 33.9979 20.2621C33.9979 20.3065 33.9979 20.3065 33.9978 20.3518C33.9976 20.5596 33.9979 20.7675 33.9984 20.9753C33.9989 21.2287 33.9988 21.4822 33.9977 21.7356C33.9972 21.8647 33.997 21.9938 33.9977 22.1229C33.9982 22.2633 33.9975 22.4037 33.9966 22.544C33.997 22.5842 33.9974 22.6245 33.9979 22.6659C33.9925 23.0826 33.859 23.4546 33.5573 23.7551C33.437 23.8594 33.3172 23.941 33.1726 24.01C33.1491 24.0214 33.1256 24.0327 33.1013 24.0445C32.9136 24.1194 32.7235 24.1328 32.5228 24.1426C32.4929 24.1441 32.4631 24.1457 32.4324 24.1472C32.0809 24.1636 31.7296 24.1625 31.3778 24.1607C31.3112 24.1605 31.2446 24.1604 31.178 24.1602C31.0177 24.1598 30.8574 24.1592 30.697 24.1584C30.6911 24.1797 30.6852 24.201 30.6791 24.2229C30.4391 25.0785 30.1335 25.7919 29.4783 26.4221C29.4473 26.4522 29.4164 26.4823 29.3845 26.5133C28.6967 27.1498 27.7658 27.474 26.8238 27.4648C25.8165 27.423 24.973 26.995 24.2773 26.2992C23.757 25.7411 23.2169 24.9051 23.2322 24.1213C23.1997 24.1239 23.1672 24.1266 23.1337 24.1293C22.7245 24.1594 22.3176 24.1635 21.9073 24.1626C21.8333 24.1626 21.7593 24.1626 21.6853 24.1626C21.4862 24.1627 21.287 24.1624 21.0879 24.1622C20.8791 24.1619 20.6704 24.1619 20.4616 24.1619C20.0671 24.1618 19.6726 24.1615 19.2781 24.1611C18.8286 24.1607 18.3791 24.1605 17.9296 24.1603C17.0057 24.1599 16.0818 24.1592 15.158 24.1584C15.1487 24.1913 15.1487 24.1913 15.1393 24.2249C15.1107 24.3262 15.0818 24.4273 15.0528 24.5284C15.0431 24.5629 15.0334 24.5974 15.0234 24.633C14.828 25.3111 14.4358 25.8784 13.9392 26.385C13.9043 26.4232 13.9043 26.4232 13.8687 26.4621C13.2491 27.1147 12.3213 27.4203 11.4316 27.4668C11.2857 27.4689 11.1481 27.4596 11.0066 27.424C10.994 27.4485 10.9815 27.473 10.9685 27.4983C10.9685 27.4738 10.9685 27.4493 10.9685 27.424C10.9242 27.4192 10.9242 27.4192 10.8789 27.4143C10.1418 27.3209 9.47372 27.0117 8.94995 26.4963C8.91775 26.4665 8.88554 26.4366 8.85236 26.4059C8.82172 26.3745 8.79109 26.3431 8.75952 26.3108C8.73375 26.2846 8.70797 26.2584 8.68142 26.2315C8.12408 25.6501 7.80949 24.9332 7.65503 24.1584C7.62918 24.1586 7.60333 24.1588 7.57669 24.159C5.87018 24.1701 5.87018 24.1701 5.33536 23.6843C5.06705 23.4134 4.94663 23.0491 4.94582 22.6756C4.94565 22.6392 4.94548 22.6029 4.9453 22.5655C4.94531 22.5259 4.94532 22.4862 4.94532 22.4454C4.94511 22.3819 4.94511 22.3819 4.9449 22.3171C4.94448 22.175 4.94433 22.0329 4.94419 21.8907C4.94397 21.7889 4.9437 21.6871 4.94343 21.5853C4.94268 21.2795 4.94229 20.9738 4.94196 20.668C4.94179 20.5238 4.94158 20.3796 4.94138 20.2354C4.94074 19.7557 4.94018 19.276 4.93991 18.7963C4.93984 18.6719 4.93976 18.5474 4.93969 18.423C4.93967 18.3921 4.93965 18.3611 4.93963 18.3293C4.93932 17.829 4.93835 17.3287 4.93711 16.8284C4.93585 16.3142 4.93517 15.7999 4.93505 15.2856C4.93496 14.9971 4.93464 14.7086 4.93366 14.4201C4.93283 14.1743 4.93253 13.9285 4.9329 13.6826C4.93307 13.5574 4.93292 13.4322 4.93226 13.307C4.9275 12.3508 5.05282 11.5787 5.75981 10.8609C6.13182 10.5127 6.57911 10.2753 7.08374 10.1682C7.11265 10.162 7.14156 10.1558 7.17135 10.1494C7.62722 10.0666 8.08878 10.0837 8.55066 10.0845ZM7.12897 13.515C7.03097 13.7411 7.03998 13.996 7.04012 14.2382C7.04 14.2689 7.03987 14.2996 7.03974 14.3312C7.03938 14.4318 7.0393 14.5323 7.03926 14.6329C7.03914 14.7033 7.03901 14.7737 7.03887 14.8442C7.03865 14.9914 7.03858 15.1386 7.0386 15.2858C7.0386 15.474 7.03808 15.6621 7.03743 15.8503C7.037 15.9956 7.03693 16.1409 7.03695 16.2862C7.0369 16.3556 7.03673 16.4249 7.03644 16.4943C7.03606 16.5914 7.03618 16.6885 7.0364 16.7857C7.03619 16.814 7.03598 16.8423 7.03576 16.8715C7.03707 17.0921 7.04967 17.3188 7.198 17.495C7.31691 17.5855 7.38448 17.5948 7.53317 17.5953C7.57178 17.5955 7.61039 17.5957 7.65016 17.5959C7.71394 17.596 7.71394 17.596 7.77901 17.596C7.82366 17.5962 7.86831 17.5964 7.91432 17.5966C8.037 17.597 8.15968 17.5973 8.28237 17.5975C8.35901 17.5976 8.43566 17.5977 8.51231 17.5979C8.75213 17.5984 8.99194 17.5988 9.23176 17.5989C9.50858 17.5991 9.7854 17.5997 10.0622 17.6008C10.2762 17.6016 10.4901 17.602 10.7041 17.602C10.8319 17.6021 10.9597 17.6023 11.0875 17.603C11.2301 17.6036 11.3727 17.6035 11.5153 17.6033C11.5787 17.6038 11.5787 17.6038 11.6434 17.6043C11.9186 17.6091 11.9186 17.6091 12.1492 17.4787C12.2539 17.314 12.2366 17.1261 12.2364 16.9384C12.2367 16.9029 12.2369 16.8674 12.2372 16.8308C12.2379 16.7136 12.2381 16.5964 12.2381 16.4792C12.2384 16.3977 12.2386 16.3161 12.2389 16.2345C12.2394 16.0636 12.2395 15.8927 12.2395 15.7218C12.2395 15.5029 12.2405 15.284 12.2418 15.065C12.2427 14.8966 12.2428 14.7282 12.2428 14.5597C12.2429 14.479 12.2432 14.3983 12.2438 14.3176C12.2445 14.2047 12.2443 14.0918 12.2438 13.9789C12.2443 13.9457 12.2447 13.9124 12.2451 13.8781C12.2431 13.6758 12.2157 13.5545 12.073 13.3967C11.9571 13.3263 11.8688 13.3131 11.7333 13.3128C11.6956 13.3125 11.6579 13.3123 11.619 13.312C11.5574 13.3121 11.5574 13.3121 11.4944 13.3123C11.451 13.3121 11.4075 13.3119 11.3627 13.3117C11.2187 13.3112 11.0747 13.3112 10.9307 13.3113C10.8307 13.3112 10.7307 13.311 10.6307 13.3108C10.421 13.3105 10.2113 13.3106 10.0016 13.3108C9.75948 13.311 9.51736 13.3105 9.27523 13.3097C9.04202 13.309 8.80881 13.3089 8.57561 13.309C8.47651 13.309 8.37741 13.3088 8.27832 13.3084C8.13973 13.308 8.00117 13.3082 7.86259 13.3087C7.82163 13.3084 7.78066 13.3081 7.73846 13.3078C7.49401 13.3095 7.29538 13.3193 7.12897 13.515ZM13.644 13.5034C13.535 13.6841 13.5527 13.8915 13.5528 14.0947C13.5527 14.1273 13.5526 14.1598 13.5524 14.1934C13.5521 14.3007 13.552 14.4081 13.552 14.5155C13.5518 14.5903 13.5517 14.6651 13.5516 14.74C13.5513 14.8967 13.5513 15.0535 13.5513 15.2103C13.5513 15.4109 13.5508 15.6115 13.5501 15.8121C13.5497 15.9667 13.5496 16.1212 13.5496 16.2757C13.5496 16.3497 13.5494 16.4236 13.5491 16.4976C13.5488 16.6011 13.5489 16.7046 13.5491 16.8082C13.5489 16.8386 13.5487 16.8689 13.5485 16.9002C13.5497 17.1173 13.5623 17.3183 13.7083 17.4926C13.8301 17.5861 13.9312 17.5948 14.081 17.5955C14.1181 17.5958 14.1551 17.596 14.1932 17.5963C14.254 17.5965 14.254 17.5965 14.316 17.5966C14.3588 17.5969 14.4015 17.5971 14.4455 17.5974C14.5873 17.5981 14.729 17.5985 14.8707 17.5989C14.919 17.5991 14.9674 17.5992 15.0172 17.5994C15.2467 17.6001 15.4761 17.6006 15.7056 17.6009C15.9702 17.6013 16.2349 17.6022 16.4995 17.6037C16.7289 17.605 16.9583 17.6054 17.1877 17.6056C17.2852 17.6058 17.3827 17.6062 17.4802 17.6069C17.6166 17.6078 17.753 17.6078 17.8894 17.6075C17.9499 17.6082 17.9499 17.6082 18.0116 17.6089C18.2317 17.6074 18.3816 17.5984 18.5476 17.4416C18.6424 17.26 18.6348 17.0729 18.6342 16.8736C18.6344 16.8395 18.6346 16.8055 18.6348 16.7704C18.6354 16.6582 18.6353 16.546 18.6352 16.4339C18.6354 16.3557 18.6355 16.2775 18.6357 16.1993C18.636 16.0356 18.636 15.8719 18.6358 15.7082C18.6356 15.4985 18.6362 15.2889 18.6371 15.0793C18.6377 14.9179 18.6377 14.7565 18.6376 14.5951C18.6376 14.5178 18.6378 14.4405 18.6382 14.3632C18.6387 14.2551 18.6384 14.147 18.638 14.0389C18.6383 14.0071 18.6385 13.9753 18.6388 13.9425C18.6369 13.7276 18.597 13.5739 18.4524 13.4037C18.3428 13.3191 18.2361 13.3177 18.1023 13.3173C18.0655 13.3171 18.0288 13.3168 17.991 13.3166C17.9306 13.3166 17.9306 13.3166 17.869 13.3165C17.8266 13.3163 17.7841 13.3161 17.7404 13.3159C17.5998 13.3154 17.4591 13.3151 17.3184 13.3149C17.2209 13.3147 17.1233 13.3145 17.0257 13.3143C16.8472 13.314 16.6686 13.3137 16.4901 13.3136C16.2274 13.3134 15.9648 13.3128 15.7021 13.3117C15.4745 13.3108 15.2469 13.3105 15.0193 13.3105C14.9225 13.3104 14.8257 13.3101 14.7289 13.3096C14.5936 13.3089 14.4583 13.309 14.323 13.3093C14.2829 13.3089 14.2428 13.3086 14.2015 13.3082C13.9627 13.3095 13.8135 13.3264 13.644 13.5034ZM20.1091 13.4709C20.0313 13.5847 20.0234 13.6081 20.0225 13.7364C20.0221 13.7678 20.0218 13.7992 20.0214 13.8315C20.0213 13.8658 20.0213 13.9001 20.0213 13.9354C20.021 13.9716 20.0207 14.0078 20.0203 14.0452C20.0194 14.1652 20.0191 14.2852 20.0188 14.4052C20.0185 14.4885 20.0181 14.5719 20.0178 14.6552C20.0172 14.83 20.0169 15.0049 20.0168 15.1797C20.0165 15.4037 20.0151 15.6277 20.0134 15.8517C20.0122 16.0239 20.012 16.1961 20.0119 16.3683C20.0118 16.4509 20.0113 16.5335 20.0105 16.616C20.0095 16.7316 20.0097 16.8471 20.0101 16.9627C20.0096 16.9968 20.009 17.0309 20.0084 17.066C20.0103 17.2272 20.0187 17.3342 20.1248 17.4623C20.2914 17.6155 20.4314 17.596 20.6507 17.5966C20.7053 17.597 20.7053 17.597 20.7611 17.5974C20.882 17.5981 21.0029 17.5985 21.1238 17.5989C21.165 17.5991 21.2063 17.5992 21.2487 17.5994C21.4671 17.6001 21.6854 17.6007 21.9037 17.601C22.1293 17.6014 22.3548 17.6027 22.5804 17.6042C22.7538 17.6051 22.9271 17.6055 23.1005 17.6056C23.1837 17.6058 23.2668 17.6062 23.35 17.6069C23.4664 17.6078 23.5828 17.6078 23.6992 17.6075C23.7335 17.608 23.7678 17.6084 23.8032 17.6089C24.0114 17.6073 24.1362 17.5812 24.2986 17.4416C24.3635 17.3375 24.3844 17.2599 24.3849 17.1388C24.3853 17.1083 24.3856 17.0778 24.3859 17.0464C24.3859 17.0133 24.3859 16.9801 24.3858 16.946C24.3861 16.9109 24.3863 16.8758 24.3866 16.8396C24.3873 16.7234 24.3875 16.6072 24.3876 16.491C24.3878 16.4102 24.3881 16.3294 24.3883 16.2486C24.3888 16.0792 24.3889 15.9098 24.3889 15.7404C24.3889 15.5235 24.3899 15.3065 24.3912 15.0896C24.3921 14.9227 24.3922 14.7558 24.3922 14.5889C24.3923 14.5089 24.3926 14.429 24.3932 14.349C24.3939 14.237 24.3937 14.1252 24.3933 14.0132C24.3937 13.9803 24.3941 13.9473 24.3946 13.9133C24.3925 13.7114 24.3648 13.5911 24.2224 13.4338C24.0552 13.2945 23.8844 13.3064 23.6749 13.3075C23.6392 13.3072 23.6035 13.307 23.5667 13.3067C23.4489 13.306 23.3311 13.3062 23.2133 13.3064C23.1313 13.3062 23.0493 13.306 22.9673 13.3058C22.7954 13.3055 22.6236 13.3056 22.4518 13.3059C22.2317 13.3064 22.0117 13.3056 21.7916 13.3045C21.6222 13.3038 21.4529 13.3038 21.2836 13.3041C21.2024 13.3041 21.1213 13.3038 21.0402 13.3034C20.9267 13.3028 20.8132 13.3032 20.6997 13.3039C20.6663 13.3035 20.6328 13.3031 20.5984 13.3028C20.3919 13.3052 20.2721 13.3357 20.1091 13.4709ZM25.7935 13.508C25.6878 13.6727 25.7019 13.8389 25.7016 14.0263C25.7014 14.0603 25.7013 14.0944 25.7011 14.1295C25.7005 14.2422 25.7002 14.355 25.7 14.4678C25.6998 14.5461 25.6996 14.6245 25.6994 14.7028C25.699 14.8672 25.6987 15.0316 25.6986 15.1959C25.6984 15.4065 25.6975 15.617 25.6964 15.8275C25.6957 15.9894 25.6955 16.1512 25.6954 16.3131C25.6953 16.3907 25.695 16.4683 25.6945 16.5459C25.6939 16.6546 25.6939 16.7632 25.6942 16.8718C25.6938 16.9038 25.6935 16.9358 25.6931 16.9688C25.6944 17.1543 25.7176 17.2803 25.822 17.4416C25.9285 17.5415 26.0154 17.5702 26.1602 17.5908C26.2009 17.5966 26.2417 17.6024 26.2837 17.6084C26.6112 17.65 26.9389 17.6891 27.2669 17.7269C27.3496 17.7365 27.4322 17.746 27.5149 17.7556C27.74 17.7816 27.9651 17.8075 28.1902 17.8332C28.2892 17.8445 28.3882 17.8558 28.4872 17.8672C28.7998 17.903 29.1124 17.9386 29.425 17.974C29.5262 17.9854 29.6274 17.9969 29.7286 18.0085C30.6616 18.1789 30.6616 18.1789 31.573 18.0725C31.7135 17.9577 31.777 17.84 31.8015 17.6643C31.8052 17.5662 31.8071 17.469 31.807 17.3709C31.8072 17.342 31.8073 17.313 31.8074 17.2831C31.8078 17.1874 31.8079 17.0918 31.8079 16.9962C31.808 16.9293 31.8082 16.8624 31.8083 16.7955C31.8085 16.6552 31.8086 16.5149 31.8086 16.3746C31.8086 16.1959 31.8091 16.0172 31.8097 15.8385C31.8102 15.7003 31.8102 15.562 31.8102 15.4237C31.8103 15.3579 31.8104 15.2921 31.8107 15.2263C31.8201 14.4997 31.8201 14.4997 31.5349 13.842C31.5129 13.8091 31.4909 13.7762 31.4683 13.7423C31.1992 13.4729 30.8663 13.3213 30.4807 13.3083C30.3987 13.3077 30.3166 13.3076 30.2346 13.3081C30.1895 13.3079 30.1445 13.3077 30.098 13.3075C29.95 13.307 29.8019 13.3073 29.6538 13.3077C29.5506 13.3077 29.4474 13.3075 29.3441 13.3074C29.1282 13.3072 28.9123 13.3074 28.6964 13.308C28.4471 13.3086 28.1978 13.3084 27.9484 13.3078C27.7338 13.3073 27.5192 13.3072 27.3046 13.3075C27.1766 13.3076 27.0487 13.3077 26.9207 13.3073C26.7782 13.307 26.6357 13.3075 26.4933 13.3081C26.4299 13.3077 26.4299 13.3077 26.3653 13.3074C26.1207 13.3094 25.9621 13.3202 25.7935 13.508ZM10.0925 22.7112C9.75383 23.1231 9.57277 23.5496 9.60217 24.0842C9.6461 24.4606 9.77295 24.7902 10.0164 25.0862C10.0374 25.1117 10.0584 25.1372 10.08 25.1636C10.4053 25.5171 10.8421 25.6809 11.3181 25.7138C11.7994 25.7244 12.2696 25.578 12.6407 25.274C13.0112 24.9185 13.2508 24.4424 13.2632 23.9311C13.2558 23.4572 13.0609 23.0191 12.7286 22.6778C12.3331 22.3121 11.8813 22.1677 11.3404 22.1767C10.8567 22.197 10.4395 22.3806 10.0925 22.7112ZM25.5602 22.7367C25.2621 23.084 25.0729 23.5025 25.089 23.9613C25.1397 24.4254 25.2809 24.9006 25.6316 25.2346C26.1007 25.5991 26.5697 25.7584 27.1721 25.7019C27.7019 25.6156 28.1431 25.3389 28.4632 24.9218C28.6957 24.5693 28.7749 24.1642 28.7546 23.7502C28.7421 23.738 28.7295 23.7257 28.7166 23.7131C28.7166 23.6513 28.7166 23.5894 28.7166 23.5276C28.6343 23.2871 28.5289 23.064 28.3738 22.8596C28.3587 22.8391 28.3436 22.8185 28.3281 22.7974C28.0601 22.4599 27.6561 22.2671 27.2312 22.1916C26.592 22.1295 26.0164 22.272 25.5602 22.7367Z" fill="#FBD889"/>
<path d="M20.6639 13.2355C20.7004 13.2355 20.7368 13.2355 20.7743 13.2355C20.8945 13.2356 21.0146 13.2364 21.1348 13.2373C21.2182 13.2375 21.3016 13.2377 21.385 13.2378C21.6043 13.2382 21.8236 13.2393 22.043 13.2405C22.2669 13.2417 22.4908 13.2422 22.7147 13.2427C23.1538 13.2439 23.593 13.2458 24.0321 13.2482C24.051 13.2849 24.051 13.2849 24.0702 13.3224C24.0239 13.3225 23.9777 13.3227 23.93 13.3228C23.4941 13.3242 23.0581 13.3263 22.6221 13.3292C22.398 13.3307 22.1738 13.3319 21.9497 13.3325C21.7334 13.333 21.517 13.3343 21.3007 13.3361C21.2182 13.3366 21.1357 13.3369 21.0532 13.3369C20.9375 13.337 20.822 13.338 20.7063 13.3392C20.6723 13.3391 20.6382 13.3389 20.6031 13.3387C20.3901 13.3421 20.2729 13.3723 20.1093 13.5079C20.0661 13.5921 20.0661 13.6386 20.0656 13.7321C20.0653 13.7635 20.065 13.7949 20.0647 13.8272C20.0646 13.8617 20.0645 13.8962 20.0644 13.9317C20.0642 13.968 20.0639 14.0042 20.0637 14.0416C20.0629 14.162 20.0625 14.2824 20.0621 14.4028C20.0619 14.4438 20.0618 14.4849 20.0616 14.5272C20.0608 14.7444 20.0603 14.9617 20.0599 15.1789C20.0595 15.4035 20.0582 15.6281 20.0567 15.8528C20.0557 16.0253 20.0554 16.1978 20.0552 16.3703C20.0551 16.4531 20.0546 16.5359 20.0539 16.6187C20.053 16.7346 20.053 16.8504 20.0533 16.9663C20.0528 17.0005 20.0523 17.0348 20.0518 17.0701C20.0531 17.2261 20.0572 17.3084 20.1437 17.4434C20.2516 17.5412 20.3088 17.5575 20.452 17.5587C20.4838 17.5591 20.5157 17.5595 20.5485 17.5598C20.5834 17.56 20.6184 17.5603 20.6545 17.5605C20.7096 17.561 20.7096 17.561 20.7659 17.5616C20.8879 17.5628 21.0099 17.5637 21.1319 17.5646C21.2164 17.5654 21.3008 17.5661 21.3852 17.5669C21.6077 17.569 21.8303 17.5708 22.0528 17.5726C22.2797 17.5745 22.5067 17.5765 22.7336 17.5786C23.1791 17.5826 23.6247 17.5864 24.0702 17.59C24.0828 17.5655 24.0953 17.541 24.1083 17.5158C24.1389 17.4989 24.1696 17.4821 24.2011 17.4647C24.308 17.3987 24.3293 17.3676 24.3749 17.256C24.3865 17.182 24.3865 17.182 24.3855 17.1043C24.3859 17.0744 24.3863 17.0446 24.3868 17.0138C24.3869 16.9814 24.3869 16.9489 24.387 16.9155C24.3874 16.8811 24.3878 16.8467 24.3882 16.8113C24.3894 16.6976 24.39 16.584 24.3907 16.4703C24.3914 16.3915 24.3921 16.3127 24.3929 16.2338C24.3949 16.0264 24.3964 15.819 24.3978 15.6116C24.3993 15.3999 24.4012 15.1882 24.4032 14.9765C24.4068 14.5612 24.4101 14.1459 24.413 13.7306C24.4255 13.7306 24.4381 13.7306 24.4511 13.7306C24.4528 14.1967 24.4542 14.6628 24.455 15.129C24.4554 15.3454 24.4559 15.5619 24.4568 15.7783C24.4576 15.9871 24.4581 16.196 24.4583 16.4048C24.4584 16.4845 24.4587 16.5643 24.4591 16.644C24.4597 16.7555 24.4597 16.8671 24.4597 16.9787C24.46 17.0117 24.4603 17.0447 24.4605 17.0787C24.4595 17.3961 24.4595 17.3961 24.3749 17.5158C24.1647 17.6679 23.955 17.6856 23.7007 17.6828C23.6651 17.683 23.6294 17.6832 23.5927 17.6834C23.4757 17.6839 23.3587 17.6833 23.2417 17.6826C23.1599 17.6826 23.0782 17.6827 22.9964 17.6828C22.8254 17.6828 22.6545 17.6824 22.4835 17.6815C22.2646 17.6805 22.0458 17.6806 21.827 17.681C21.6583 17.6813 21.4896 17.681 21.3209 17.6805C21.2403 17.6804 21.1596 17.6804 21.0789 17.6805C20.9661 17.6806 20.8533 17.68 20.7404 17.6792C20.6908 17.6794 20.6908 17.6794 20.6401 17.6797C20.4349 17.6773 20.2878 17.655 20.1093 17.5529C19.9337 17.37 19.935 17.2017 19.9372 16.9644C19.9369 16.9282 19.9367 16.8919 19.9364 16.8546C19.9357 16.7352 19.9362 16.6158 19.9367 16.4964C19.9366 16.4132 19.9364 16.33 19.9362 16.2469C19.936 16.0727 19.9363 15.8985 19.9371 15.7243C19.9379 15.5012 19.9374 15.2781 19.9365 15.055C19.936 14.8832 19.9361 14.7115 19.9365 14.5398C19.9366 14.4575 19.9365 14.3753 19.9362 14.293C19.9358 14.178 19.9364 14.063 19.9372 13.948C19.9369 13.9141 19.9366 13.8802 19.9363 13.8452C19.9391 13.6412 19.9649 13.5182 20.1093 13.3595C20.2778 13.2181 20.4525 13.2331 20.6639 13.2355Z" fill="#FCD071"/>
<path d="M4.98914 12.3945C5.00171 12.3945 5.01428 12.3945 5.02722 12.3945C5.02726 12.4277 5.02726 12.4277 5.02729 12.4616C5.02866 13.7743 5.03082 15.087 5.034 16.3996C5.03438 16.5574 5.03476 16.7151 5.03513 16.8728C5.0352 16.9042 5.03528 16.9356 5.03535 16.968C5.03653 17.476 5.03718 17.9839 5.03763 18.4919C5.0381 19.0134 5.03915 19.5348 5.04073 20.0563C5.04169 20.3779 5.0422 20.6995 5.04213 21.0211C5.04213 21.2419 5.04269 21.4626 5.04368 21.6834C5.04424 21.8106 5.04456 21.9378 5.0442 22.065C5.04395 22.2034 5.04463 22.3416 5.04554 22.4799C5.0451 22.5395 5.0451 22.5395 5.04465 22.6003C5.04973 23.0388 5.17367 23.3831 5.49006 23.6972C5.94676 24.0757 6.46345 24.0528 7.02912 24.0677C7.08627 24.0694 7.14342 24.071 7.20058 24.0726C7.3394 24.0765 7.47823 24.0803 7.61707 24.084C7.61707 24.0962 7.61707 24.1085 7.61707 24.1211C7.27034 24.1563 6.92754 24.1615 6.57923 24.1512C6.54142 24.1506 6.50362 24.1499 6.46467 24.1492C5.97306 24.1308 5.60376 23.9549 5.26526 23.6132C5.04265 23.3556 4.94633 23.0067 4.94626 22.6738C4.94616 22.6371 4.94606 22.6005 4.94596 22.5627C4.94604 22.5227 4.94613 22.4827 4.94622 22.4414C4.94616 22.3987 4.9461 22.356 4.94604 22.312C4.94591 22.1936 4.94596 22.0752 4.94607 21.9568C4.94616 21.829 4.94603 21.7013 4.94592 21.5736C4.94575 21.3234 4.94579 21.0733 4.9459 20.8231C4.94599 20.6199 4.946 20.4167 4.94596 20.2135C4.94595 20.1846 4.94594 20.1557 4.94594 20.1259C4.94593 20.0672 4.94591 20.0085 4.9459 19.9498C4.94579 19.3992 4.94592 18.8486 4.94612 18.2981C4.94629 17.8252 4.94626 17.3523 4.94609 16.8795C4.94588 16.3306 4.9458 15.7818 4.94592 15.233C4.94593 15.1745 4.94594 15.1161 4.94596 15.0576C4.94596 15.0289 4.94597 15.0001 4.94597 14.9705C4.94601 14.7673 4.94595 14.5642 4.94586 14.3611C4.94576 14.1138 4.94578 13.8665 4.94599 13.6192C4.94609 13.493 4.94613 13.3667 4.946 13.2404C4.9459 13.1039 4.94603 12.9673 4.94622 12.8307C4.94613 12.7904 4.94605 12.7501 4.94596 12.7085C4.94606 12.6722 4.94616 12.6359 4.94626 12.5985C4.94627 12.567 4.94627 12.5354 4.94628 12.5029C4.95105 12.4316 4.95105 12.4316 4.98914 12.3945Z" fill="#FBCF72"/>
<path d="M23.2705 24.0467C23.2831 24.0918 23.2957 24.1369 23.3086 24.1834C23.3256 24.2436 23.3425 24.3037 23.3595 24.3639C23.3677 24.3935 23.376 24.4231 23.3845 24.4536C23.4683 24.7505 23.568 25.0409 23.7141 25.3148C23.7656 25.4198 23.7656 25.4198 23.7656 25.5311C23.7908 25.5311 23.8159 25.5311 23.8418 25.5311C23.8845 25.5966 23.8845 25.5966 23.9346 25.6888C24.072 25.9196 24.2486 26.1051 24.4378 26.2953C24.4844 26.3426 24.5298 26.391 24.5751 26.4396C25.101 26.9879 25.8515 27.2903 26.6138 27.3159C26.7285 27.3173 26.843 27.3175 26.9577 27.317C26.9979 27.3169 27.0381 27.3169 27.0795 27.3168C27.3477 27.3153 27.6125 27.3071 27.8789 27.2753C27.8663 27.2998 27.8538 27.3242 27.8408 27.3495C27.7269 27.3737 27.6156 27.3933 27.5004 27.4098C27.4504 27.417 27.4504 27.417 27.3993 27.4244C26.4838 27.5511 25.5947 27.3131 24.8416 26.795C24.0292 26.1829 23.4482 25.3239 23.2324 24.3436C23.2312 24.2694 23.231 24.1952 23.2324 24.121C23.1804 24.1249 23.1804 24.1249 23.1272 24.1289C22.7837 24.1533 22.4427 24.1635 22.0982 24.163C22.0467 24.163 21.9952 24.1631 21.9437 24.1631C21.8371 24.1632 21.7304 24.1631 21.6238 24.1629C21.4878 24.1627 21.3518 24.1628 21.2157 24.163C21.1099 24.1632 21.0041 24.1631 20.8983 24.163C20.824 24.163 20.7497 24.1631 20.6754 24.1632C20.4575 24.1627 20.2477 24.1599 20.0332 24.121C20.0332 24.1087 20.0332 24.0965 20.0332 24.0839C21.1123 24.0421 22.1907 24.0426 23.2705 24.0467Z" fill="#FACF71"/>
<path d="M7.8227 13.2342C7.86614 13.2341 7.90958 13.2339 7.95433 13.2338C8.09772 13.2335 8.24109 13.234 8.38448 13.2345C8.48427 13.2346 8.58406 13.2345 8.68386 13.2345C8.89295 13.2345 9.10204 13.2349 9.31114 13.2356C9.5524 13.2363 9.79366 13.2365 10.0349 13.2362C10.2676 13.236 10.5002 13.2362 10.7328 13.2367C10.8316 13.2368 10.9303 13.2368 11.0291 13.2368C11.1672 13.2368 11.3053 13.2372 11.4434 13.2378C11.5045 13.2377 11.5045 13.2377 11.5667 13.2376C11.774 13.239 11.956 13.245 12.1492 13.3222C12.2039 13.4382 12.2039 13.4382 12.2254 13.5449C12.1492 13.5449 12.1492 13.5449 12.073 13.473C12.0353 13.4351 12.0353 13.4351 11.9968 13.3965C11.9045 13.3515 11.8456 13.3545 11.7424 13.3541C11.7048 13.3539 11.6673 13.3537 11.6285 13.3535C11.5664 13.3534 11.5664 13.3534 11.5031 13.3534C11.4596 13.3532 11.4161 13.353 11.3713 13.3528C11.227 13.3523 11.0826 13.352 10.9382 13.3518C10.8381 13.3516 10.738 13.3514 10.6379 13.3512C10.4546 13.3508 10.2713 13.3506 10.088 13.3505C9.81845 13.3503 9.54888 13.3497 9.2793 13.3486C9.04573 13.3477 8.81216 13.3474 8.57858 13.3473C8.47927 13.3472 8.37996 13.3469 8.28065 13.3465C8.1417 13.3458 8.00276 13.3459 7.86381 13.3461C7.80218 13.3456 7.80218 13.3456 7.73932 13.3451C7.44867 13.3429 7.44867 13.3429 7.19801 13.4707C7.08395 13.6792 7.06747 13.8961 7.07139 14.128C7.07143 14.1584 7.07147 14.1888 7.07152 14.2201C7.07179 14.3195 7.07286 14.4188 7.07393 14.5182C7.07424 14.5878 7.0745 14.6574 7.0747 14.727C7.07535 14.9096 7.07665 15.0921 7.07813 15.2747C7.08039 15.5671 7.08168 15.8595 7.08292 16.1519C7.08345 16.2536 7.08427 16.3554 7.08514 16.4572C7.08552 16.5199 7.08589 16.5825 7.08626 16.6452C7.08658 16.6733 7.0869 16.7013 7.08722 16.7302C7.08793 16.897 7.07386 17.0541 7.04567 17.2187C7.02053 17.2187 6.99539 17.2187 6.96949 17.2187C6.96508 16.7539 6.9617 16.2891 6.95963 15.8242C6.95863 15.6083 6.95729 15.3925 6.95513 15.1766C6.95306 14.9683 6.95192 14.7599 6.95143 14.5515C6.95108 14.4721 6.95039 14.3927 6.94936 14.3132C6.94797 14.2018 6.94779 14.0905 6.94788 13.979C6.94719 13.9463 6.94651 13.9136 6.9458 13.8799C6.94744 13.6878 6.97669 13.5612 7.1048 13.4119C7.3129 13.2136 7.54965 13.2323 7.8227 13.2342Z" fill="#FBCE6C"/>
<path d="M14.0769 13.2438C14.113 13.2438 14.149 13.2437 14.1862 13.2437C14.2257 13.2438 14.2651 13.2439 14.3058 13.2441C14.3474 13.2441 14.389 13.244 14.4319 13.244C14.5698 13.2441 14.7077 13.2444 14.8455 13.2446C14.941 13.2447 15.0365 13.2448 15.1319 13.2448C15.3577 13.2449 15.5835 13.2452 15.8093 13.2456C16.0916 13.2461 16.3739 13.2463 16.6562 13.2465C17.1597 13.2469 17.6633 13.2475 18.1669 13.2483C18.1669 13.2605 18.1669 13.2728 18.1669 13.2854C18.1453 13.2854 18.1237 13.2855 18.1015 13.2855C17.576 13.2869 17.0506 13.2891 16.5251 13.2922C16.271 13.2937 16.0169 13.2949 15.7628 13.2954C15.5176 13.296 15.2723 13.2973 15.0271 13.299C14.9336 13.2996 14.84 13.2999 14.7464 13.2999C14.6154 13.3 14.4844 13.301 14.3534 13.3022C14.2953 13.302 14.2953 13.302 14.2361 13.3017C14.0114 13.3049 13.8816 13.3244 13.7108 13.4709C13.5766 13.667 13.5909 13.8666 13.591 14.0947C13.5909 14.1273 13.5908 14.1598 13.5906 14.1934C13.5903 14.3007 13.5902 14.4081 13.5902 14.5155C13.59 14.5903 13.5899 14.6651 13.5898 14.74C13.5896 14.8968 13.5895 15.0535 13.5895 15.2103C13.5895 15.4109 13.589 15.6115 13.5883 15.8121C13.5879 15.9667 13.5878 16.1212 13.5879 16.2757C13.5878 16.3497 13.5876 16.4236 13.5874 16.4976C13.587 16.6011 13.5871 16.7047 13.5873 16.8082C13.5871 16.8386 13.5869 16.8689 13.5867 16.9002C13.5878 17.1003 13.5963 17.3064 13.7251 17.4718C13.855 17.5643 13.957 17.5993 14.1182 17.6004C14.1718 17.601 14.1718 17.601 14.2266 17.6017C14.2656 17.6017 14.3045 17.6018 14.3447 17.6019C14.4066 17.6025 14.4066 17.6025 14.4697 17.603C14.6062 17.6042 14.7426 17.6048 14.879 17.6054C14.9736 17.6061 15.0681 17.6069 15.1627 17.6076C15.3862 17.6093 15.6097 17.6107 15.8332 17.6119C16.1126 17.6135 16.3921 17.6156 16.6716 17.6176C17.17 17.6212 17.6684 17.6243 18.1669 17.6272C18.1669 17.6394 18.1669 17.6517 18.1669 17.6643C17.6153 17.6678 17.0638 17.6704 16.5122 17.672C16.2561 17.6727 16 17.6738 15.7438 17.6755C15.4966 17.6771 15.2495 17.678 15.0023 17.6784C14.908 17.6786 14.8137 17.6792 14.7194 17.68C14.5873 17.6811 14.4552 17.6812 14.3231 17.6811C14.2647 17.6819 14.2647 17.6819 14.2051 17.6828C13.969 17.6814 13.8225 17.6601 13.6347 17.5158C13.4749 17.3123 13.4602 17.1473 13.4626 16.8963C13.4623 16.8611 13.4621 16.826 13.4618 16.7898C13.4611 16.6742 13.4616 16.5586 13.4621 16.443C13.462 16.3624 13.4618 16.2817 13.4616 16.2011C13.4614 16.0324 13.4617 15.8637 13.4624 15.6949C13.4633 15.4789 13.4628 15.2628 13.4619 15.0467C13.4614 14.8803 13.4615 14.7139 13.4619 14.5475C13.462 14.4678 13.4619 14.3881 13.4615 14.3085C13.4612 14.1971 13.4618 14.0857 13.4626 13.9744C13.4623 13.9416 13.462 13.9088 13.4617 13.875C13.4645 13.6727 13.4971 13.5575 13.6347 13.3967C13.775 13.2765 13.8924 13.2436 14.0769 13.2438Z" fill="#FCCA62"/>
<path d="M33.8965 12.1348C33.9919 12.2278 33.9823 12.2569 33.9826 12.3854C33.9828 12.4229 33.9831 12.4604 33.9834 12.499C33.9833 12.5404 33.9832 12.5819 33.9831 12.6246C33.9833 12.6684 33.9835 12.7123 33.9837 12.7574C33.9842 12.8794 33.9843 13.0015 33.9843 13.1235C33.9844 13.255 33.9848 13.3864 33.9853 13.5179C33.9862 13.8057 33.9865 14.0934 33.9867 14.3812C33.9868 14.561 33.987 14.7407 33.9873 14.9205C33.988 15.4184 33.9887 15.9162 33.9888 16.4141C33.9888 16.4619 33.9888 16.4619 33.9888 16.5107C33.9888 16.5753 33.9888 16.64 33.9888 16.7046C33.9889 16.7527 33.9889 16.7527 33.9889 16.8018C33.9889 16.834 33.9889 16.8661 33.9889 16.8992C33.989 17.419 33.99 17.9388 33.9915 18.4586C33.9929 18.9925 33.9937 19.5263 33.9937 20.0602C33.9937 20.3599 33.994 20.6595 33.9951 20.9592C33.9961 21.2145 33.9963 21.4699 33.9958 21.7253C33.9955 21.8554 33.9955 21.9856 33.9964 22.1157C33.9972 22.2573 33.9968 22.3988 33.9961 22.5403C33.9966 22.5809 33.9971 22.6215 33.9976 22.6632C33.993 23.0812 33.8602 23.4535 33.5576 23.7549C33.4372 23.8591 33.3175 23.9408 33.1729 24.0098C33.1493 24.0212 33.1258 24.0325 33.1016 24.0443C32.6283 24.2331 32.0258 24.1615 31.5233 24.1628C31.497 24.1629 31.4708 24.163 31.4437 24.1632C31.368 24.1634 31.2923 24.1633 31.2166 24.1631C31.1505 24.1631 31.1505 24.1631 31.083 24.163C30.9752 24.1587 30.8782 24.1452 30.7734 24.1211C30.7734 24.1088 30.7734 24.0966 30.7734 24.084C30.7957 24.0838 30.818 24.0837 30.841 24.0836C31.0752 24.082 31.3094 24.0794 31.5436 24.0763C31.6307 24.0752 31.7178 24.0745 31.805 24.0739C32.3877 24.0702 32.896 24.0643 33.4014 23.75C33.4304 23.7378 33.4595 23.7255 33.4894 23.7129C33.5741 23.664 33.5878 23.6135 33.6299 23.5273C33.6775 23.4456 33.7256 23.3642 33.7739 23.2829C33.9043 23.0313 33.9071 22.8094 33.9056 22.5326C33.9057 22.4659 33.9057 22.4659 33.9058 22.3979C33.9059 22.2748 33.9057 22.1518 33.9053 22.0288C33.905 21.896 33.9051 21.7632 33.9052 21.6304C33.9052 21.4004 33.905 21.1704 33.9045 20.9404C33.9039 20.6079 33.9037 20.2753 33.9036 19.9428C33.9035 19.4033 33.903 18.8638 33.9022 18.3243C33.9015 17.8002 33.901 17.2762 33.9007 16.7521C33.9006 16.7198 33.9006 16.6875 33.9006 16.6542C33.9005 16.4922 33.9004 16.3301 33.9003 16.168C33.8995 14.8236 33.8982 13.4792 33.8965 12.1348Z" fill="#F8C762"/>
<path d="M18.5725 13.3886C18.7034 13.5941 18.7272 13.7819 18.723 14.0193C18.7232 14.0539 18.7233 14.0885 18.7235 14.1242C18.7237 14.2375 18.7226 14.3508 18.7215 14.4641C18.7213 14.5433 18.7212 14.6224 18.7212 14.7015C18.721 14.8668 18.7201 15.032 18.7187 15.1973C18.717 15.4093 18.7165 15.6213 18.7163 15.8333C18.7161 15.9964 18.7156 16.1596 18.7148 16.3227C18.7145 16.4009 18.7142 16.4791 18.7141 16.5573C18.7137 16.6663 18.7129 16.7753 18.7119 16.8843C18.7118 16.9167 18.7118 16.949 18.7118 16.9824C18.7089 17.2059 18.7089 17.2059 18.624 17.33C18.5906 16.828 18.5834 16.3275 18.5862 15.8247C18.5865 15.7628 18.5868 15.7008 18.5871 15.6389C18.5885 15.3826 18.5901 15.1264 18.5925 14.8702C18.5939 14.7114 18.5948 14.5526 18.5953 14.3938C18.5956 14.3339 18.5961 14.274 18.5969 14.2141C18.5979 14.1309 18.5982 14.0477 18.5983 13.9645C18.5987 13.9173 18.599 13.8702 18.5994 13.8216C18.5806 13.6426 18.532 13.525 18.3956 13.402C18.2192 13.336 18.0485 13.343 17.8611 13.3432C17.8187 13.3428 17.7763 13.3425 17.7327 13.3421C17.5927 13.3409 17.4528 13.3406 17.3129 13.3403C17.2158 13.3396 17.1187 13.339 17.0217 13.3382C16.7924 13.3367 16.5631 13.3356 16.3338 13.3347C16.0727 13.3337 15.8115 13.3321 15.5504 13.3304C15.0134 13.3269 14.4764 13.3243 13.9395 13.3221C13.9395 13.3099 13.9395 13.2977 13.9395 13.285C14.4847 13.2784 15.03 13.2723 15.5753 13.2667C15.8285 13.264 16.0817 13.2613 16.3349 13.2582C16.5794 13.2552 16.8239 13.2526 17.0684 13.2502C17.1615 13.2493 17.2547 13.2482 17.3478 13.247C17.4786 13.2452 17.6093 13.244 17.74 13.2429C17.7783 13.2423 17.8166 13.2417 17.8561 13.241C18.4302 13.2377 18.4302 13.2377 18.5725 13.3886Z" fill="#FBD377"/>
<path d="M12.2256 13.582C12.2633 13.6004 12.2633 13.6004 12.3018 13.6191C12.3035 14.1053 12.3049 14.5914 12.3057 15.0775C12.3061 15.3032 12.3066 15.5289 12.3075 15.7547C12.3083 15.9724 12.3088 16.1902 12.309 16.4079C12.3091 16.4911 12.3094 16.5742 12.3098 16.6574C12.3104 16.7737 12.3104 16.89 12.3104 17.0063C12.3107 17.0408 12.311 17.0753 12.3112 17.1109C12.3111 17.1426 12.311 17.1743 12.3109 17.207C12.311 17.2345 12.3111 17.2621 12.3111 17.2904C12.3001 17.381 12.275 17.4384 12.2256 17.5156C11.9967 17.6869 11.7941 17.6845 11.5127 17.6809C11.4684 17.6809 11.4242 17.681 11.3786 17.681C11.2329 17.6809 11.0872 17.6797 10.9415 17.6786C10.8403 17.6783 10.7391 17.6781 10.6378 17.6779C10.3989 17.6775 10.1601 17.6762 9.92121 17.6748C9.64913 17.6731 9.37705 17.6723 9.10496 17.6715C8.54555 17.67 7.98616 17.6674 7.42676 17.6641C7.42676 17.6518 7.42676 17.6396 7.42676 17.627C7.46089 17.6268 7.46089 17.6268 7.49571 17.6267C8.04978 17.6245 8.60385 17.6217 9.15791 17.6182C9.42585 17.6165 9.69379 17.6151 9.96174 17.6141C10.2203 17.6132 10.4788 17.6116 10.7374 17.6098C10.8361 17.6091 10.9347 17.6087 11.0334 17.6085C11.1716 17.6081 11.3097 17.6071 11.4478 17.6059C11.4887 17.6059 11.5295 17.606 11.5716 17.6061C11.8584 17.6026 11.8584 17.6026 12.1113 17.4785C12.1889 17.3486 12.1967 17.2354 12.1955 17.0871C12.1954 17.0464 12.1953 17.0057 12.1952 16.9638C12.1946 16.9198 12.1941 16.8759 12.1936 16.8306C12.1934 16.7844 12.1932 16.7383 12.193 16.6908C12.1925 16.5918 12.1919 16.4928 12.1911 16.3939C12.189 16.1369 12.1883 15.8799 12.1876 15.6229C12.1875 15.5846 12.1875 15.5846 12.1874 15.5456C12.1861 15.0849 12.1926 14.6247 12.2065 14.1642C12.2075 14.1336 12.2084 14.1029 12.2093 14.0714C12.2143 13.9083 12.2197 13.7451 12.2256 13.582Z" fill="#FCCE6B"/>
<path d="M26.0889 13.248C26.6726 13.2463 27.2563 13.245 27.8399 13.2442C28.111 13.2438 28.3821 13.2433 28.6531 13.2424C28.8895 13.2417 29.1259 13.2412 29.3624 13.241C29.4874 13.2409 29.6124 13.2407 29.7374 13.2402C29.8775 13.2396 30.0175 13.2395 30.1575 13.2396C30.2188 13.2392 30.2188 13.2392 30.2813 13.2388C30.5419 13.2395 30.7855 13.2684 31.04 13.3222C31.04 13.3467 31.04 13.3712 31.04 13.3964C31.0741 13.4055 31.1082 13.4146 31.1433 13.424C31.4149 13.5252 31.6152 13.7693 31.735 14.023C31.8203 14.2566 31.8507 14.4503 31.8485 14.6974C31.8485 14.73 31.8485 14.7626 31.8485 14.7962C31.8485 14.9032 31.8479 15.0102 31.8473 15.1172C31.8471 15.1918 31.847 15.2663 31.847 15.3408C31.8467 15.5363 31.8459 15.7318 31.8451 15.9273C31.8443 16.1271 31.8439 16.3269 31.8436 16.5266C31.8427 16.9181 31.8414 17.3096 31.8398 17.7011C31.8273 17.7011 31.8147 17.7011 31.8018 17.7011C31.7951 17.4731 31.7888 17.245 31.7827 17.0169C31.7818 16.9823 31.7809 16.9477 31.7799 16.9121C31.7695 16.5133 31.7621 16.1148 31.7638 15.7159C31.764 15.6647 31.764 15.6647 31.7642 15.6124C31.765 15.449 31.7664 15.2857 31.7684 15.1223C31.7733 14.6099 31.7687 14.1395 31.4019 13.7374C31.3704 13.7106 31.339 13.6838 31.3066 13.6562C31.2799 13.6309 31.2532 13.6057 31.2257 13.5797C31.0626 13.4726 30.8832 13.4191 30.6973 13.3593C30.6596 13.3471 30.6219 13.3348 30.583 13.3222C30.5216 13.3185 30.4601 13.3168 30.3987 13.3164C30.3417 13.3158 30.3417 13.3158 30.2836 13.3153C30.2212 13.3149 30.2212 13.3149 30.1575 13.3146C30.0917 13.3141 30.0917 13.3141 30.0246 13.3135C29.8793 13.3123 29.734 13.3114 29.5888 13.3105C29.4882 13.3097 29.3876 13.3089 29.287 13.3081C29.049 13.3063 28.8111 13.3046 28.5732 13.303C28.3023 13.3012 28.0314 13.2992 27.7605 13.2971C27.2033 13.2929 26.6461 13.2889 26.0889 13.2851C26.0889 13.2729 26.0889 13.2606 26.0889 13.248Z" fill="#FCC75D"/>
<path d="M15.082 24.0469C15.5264 24.0458 15.9707 24.045 16.415 24.0446C16.4479 24.0446 16.4807 24.0445 16.5145 24.0445C17.6117 24.0436 18.7078 24.0534 19.8047 24.084C19.8047 24.0963 19.8047 24.1085 19.8047 24.1211C18.6231 24.1464 17.4422 24.1619 16.2603 24.1606C16.2326 24.1605 16.2048 24.1605 16.1762 24.1605C15.8369 24.16 15.4975 24.1593 15.1582 24.1582C15.1508 24.19 15.1435 24.2217 15.1359 24.2543C15.126 24.2953 15.1161 24.3363 15.1058 24.3786C15.0961 24.4195 15.0864 24.4604 15.0764 24.5025C15.0657 24.5359 15.055 24.5692 15.0439 24.6036C15.0062 24.6219 15.0062 24.6219 14.9678 24.6407C14.9903 24.4359 15.0301 24.2465 15.082 24.0469Z" fill="#FACE70"/>
<path d="M14.8535 24.8633C14.9054 24.975 14.8893 25.0179 14.8447 25.1352C14.8206 25.1841 14.7957 25.2326 14.7702 25.2808C14.7565 25.3068 14.7429 25.3328 14.7288 25.3597C14.2287 26.2774 13.4227 26.9893 12.4065 27.3218C11.977 27.4425 11.4451 27.534 11.0068 27.4238C10.988 27.4606 10.988 27.4606 10.9688 27.498C10.9688 27.4736 10.9688 27.4491 10.9688 27.4238C10.9059 27.4116 10.8431 27.3993 10.7783 27.3867C10.7783 27.3745 10.7783 27.3622 10.7783 27.3496C10.8126 27.3493 10.847 27.3489 10.8823 27.3486C11.0122 27.3469 11.142 27.3446 11.2718 27.3419C11.3276 27.3409 11.3833 27.3401 11.439 27.3396C11.8151 27.3358 12.1361 27.2945 12.4922 27.1641C12.5314 27.15 12.5706 27.136 12.6109 27.1215C12.8379 27.038 13.0458 26.9295 13.2539 26.8092C13.2781 26.7953 13.3023 26.7813 13.3272 26.7669C13.4595 26.6882 13.5648 26.6036 13.6729 26.4961C13.698 26.4961 13.7231 26.4961 13.749 26.4961C13.749 26.4716 13.749 26.4471 13.749 26.4219C13.7742 26.4219 13.7993 26.4219 13.8252 26.4219C13.8252 26.3974 13.8252 26.3729 13.8252 26.3477C13.8503 26.3477 13.8755 26.3477 13.9014 26.3477C13.9014 26.3232 13.9014 26.2987 13.9014 26.2734C13.944 26.2319 13.9867 26.1906 14.0301 26.1498C14.4038 25.7751 14.6387 25.3367 14.8535 24.8633Z" fill="#FACF6D"/>
<path d="M25.632 13.6562C25.6571 13.6562 25.6823 13.6562 25.7082 13.6562C25.7084 13.7004 25.7086 13.7445 25.7089 13.79C25.711 14.2061 25.7138 14.6221 25.7172 15.0382C25.7189 15.2521 25.7204 15.466 25.7214 15.6799C25.7224 15.8863 25.7239 16.0928 25.7258 16.2992C25.7265 16.378 25.7269 16.4567 25.7271 16.5354C25.7275 16.6458 25.7286 16.7561 25.7298 16.8664C25.7297 16.899 25.7297 16.9315 25.7296 16.965C25.7326 17.1509 25.7542 17.2806 25.8605 17.4414C26.066 17.5902 26.3278 17.5876 26.5746 17.6107C26.661 17.619 26.7472 17.6275 26.8335 17.6364C26.8715 17.6399 26.9096 17.6435 26.9488 17.6472C27.0412 17.6641 27.0412 17.6641 27.1174 17.7383C27.0372 17.7393 26.9571 17.74 26.8769 17.7406C26.8323 17.741 26.7877 17.7415 26.7417 17.7419C26.6222 17.7383 26.6222 17.7383 26.508 17.7012C26.4422 17.6965 26.3763 17.6927 26.3104 17.6896C26.1154 17.6727 25.9357 17.6437 25.7844 17.5156C25.6333 17.3042 25.6105 17.1501 25.6147 16.8959C25.6147 16.8608 25.6147 16.8256 25.6147 16.7894C25.6148 16.674 25.6159 16.5585 25.6171 16.4431C25.6174 16.3627 25.6176 16.2824 25.6178 16.2021C25.6184 15.9912 25.6199 15.7803 25.6216 15.5694C25.6231 15.354 25.6238 15.1385 25.6246 14.9231C25.6262 14.5008 25.6288 14.0785 25.632 13.6562Z" fill="#FED26D"/>
<path d="M10.8166 22.2658C10.783 22.2855 10.7495 22.3052 10.715 22.3255C10.6703 22.352 10.6256 22.3785 10.5809 22.405C10.5589 22.4179 10.5369 22.4308 10.5142 22.4441C10.0928 22.6946 9.80804 23.0508 9.6847 23.5204C9.58489 24.0124 9.65523 24.5031 9.93345 24.9307C9.97283 24.9833 10.0133 25.0352 10.0548 25.0861C10.0731 25.1089 10.0913 25.1318 10.11 25.1553C10.5115 25.5997 11.0853 25.6636 11.6545 25.717C11.6545 25.7292 11.6545 25.7415 11.6545 25.7541C11.0112 25.769 10.5443 25.6882 10.0575 25.2419C9.83157 25.0081 9.67779 24.7669 9.59782 24.4553C9.59006 24.4273 9.5823 24.3994 9.57431 24.3706C9.4421 23.8553 9.55814 23.3875 9.82633 22.9338C9.85147 22.897 9.8766 22.8603 9.9025 22.8224C9.92764 22.8224 9.95278 22.8224 9.97867 22.8224C9.98795 22.801 9.99723 22.7796 10.0068 22.7575C10.1426 22.5215 10.5262 22.1731 10.8166 22.2658Z" fill="#FDD16E"/>
<path d="M30.583 24.2324C30.5956 24.2324 30.6081 24.2324 30.6211 24.2324C30.5924 25.1127 30.0111 25.9498 29.3757 26.5373C28.9789 26.8866 28.454 27.2172 27.917 27.2754C28.0004 27.1833 28.0626 27.1472 28.1836 27.1154C28.4615 27.0311 28.7134 26.8905 28.9477 26.7234C29.0596 26.6445 29.0596 26.6445 29.1357 26.6445C29.1357 26.62 29.1357 26.5955 29.1357 26.5703C29.1903 26.5287 29.1903 26.5287 29.2667 26.4799C29.4778 26.3305 29.6262 26.1405 29.7832 25.9395C29.8059 25.9117 29.8287 25.884 29.8521 25.8554C30.2174 25.3851 30.4447 24.8024 30.583 24.2324Z" fill="#FBCF6D"/>
<path d="M7.69327 24.1211C7.82679 24.2598 7.84933 24.4148 7.89084 24.5942C8.02737 25.1366 8.29899 25.7167 8.71163 26.1141C8.79777 26.1992 8.79777 26.1992 8.79777 26.2734C8.8229 26.2734 8.84804 26.2734 8.87394 26.2734C8.87394 26.2979 8.87394 26.3224 8.87394 26.3477C8.89907 26.3477 8.92421 26.3477 8.95011 26.3477C8.97166 26.3744 8.99321 26.4012 9.01542 26.4288C9.11428 26.5474 9.22523 26.6317 9.35239 26.7188C9.38731 26.7429 9.38731 26.7429 9.42293 26.7676C9.62194 26.9019 9.82867 27.0045 10.0546 27.0898C10.0546 27.1143 10.0546 27.1388 10.0546 27.1641C9.8868 27.142 9.75432 27.0784 9.60947 26.9971C9.57446 26.9775 9.57446 26.9775 9.53874 26.9575C9.31737 26.8294 9.1327 26.6726 8.95011 26.4961C8.9179 26.4662 8.8857 26.4364 8.85251 26.4056C8.82188 26.3743 8.79124 26.3429 8.75968 26.3105C8.72102 26.2713 8.72102 26.2713 8.68157 26.2313C8.24226 25.773 7.95555 25.2359 7.77183 24.6383C7.75974 24.5992 7.75974 24.5992 7.74741 24.5594C7.70405 24.4097 7.68507 24.2764 7.69327 24.1211Z" fill="#FBD06F"/>
<path d="M33.9346 22.8594C34.0072 23.0432 33.917 23.1939 33.845 23.3666C33.6977 23.6567 33.4701 23.868 33.1729 24.0098C33.1493 24.0212 33.1258 24.0325 33.1016 24.0443C32.6283 24.2331 32.0258 24.1615 31.5233 24.1628C31.497 24.1629 31.4708 24.163 31.4437 24.1632C31.368 24.1634 31.2923 24.1633 31.2166 24.1631C31.1505 24.1631 31.1505 24.1631 31.083 24.163C30.9752 24.1587 30.8782 24.1452 30.7734 24.1211C30.7734 24.1088 30.7734 24.0966 30.7734 24.084C30.8069 24.0838 30.8069 24.0838 30.841 24.0836C31.0752 24.082 31.3094 24.0794 31.5436 24.0763C31.6307 24.0752 31.7178 24.0745 31.805 24.0739C32.3877 24.0702 32.896 24.0643 33.4014 23.75C33.4304 23.7378 33.4595 23.7255 33.4894 23.7129C33.574 23.6641 33.5879 23.6133 33.6299 23.5273C33.6607 23.4755 33.6917 23.4237 33.7227 23.3719C33.8177 23.2071 33.8805 23.0405 33.9346 22.8594Z" fill="#F9CD6F"/>
<path d="M7.46479 10.1678C7.46479 10.18 7.46479 10.1923 7.46479 10.2049C7.43116 10.2112 7.39753 10.2175 7.36288 10.224C6.536 10.3867 5.89901 10.7448 5.40815 11.4295C5.34887 11.5258 5.30001 11.6228 5.2558 11.7264C5.24535 11.7503 5.23489 11.7743 5.22412 11.799C5.14941 11.9808 5.10412 12.1654 5.06537 12.3572C5.05281 12.3572 5.04024 12.3572 5.02729 12.3572C4.97894 11.8767 5.26848 11.4312 5.56689 11.0697C5.73783 10.8776 5.91286 10.7143 6.13178 10.576C6.16585 10.5542 6.19992 10.5325 6.23503 10.51C6.57639 10.3036 7.05403 10.0649 7.46479 10.1678Z" fill="#FCD06F"/>
<path d="M27.9782 22.4086C28.0312 22.4512 28.0312 22.4512 28.0693 22.5254C27.8892 22.4561 27.7115 22.3817 27.5337 22.3073C27.1717 22.1727 26.6605 22.1685 26.2942 22.2991C25.6925 22.5679 25.4214 22.9302 25.1366 23.4903C25.0986 23.416 25.0986 23.416 25.1148 23.3446C25.312 22.8274 25.6645 22.4718 26.165 22.2285C26.7513 21.9972 27.4533 22.0712 27.9782 22.4086Z" fill="#FCD06D"/>
<path d="M26.4236 13.2681C26.4686 13.2681 26.5136 13.2681 26.5599 13.268C26.6827 13.2681 26.8055 13.2689 26.9283 13.2699C27.0569 13.2708 27.1854 13.2709 27.314 13.2711C27.5572 13.2716 27.8004 13.2728 28.0436 13.2743C28.3205 13.2759 28.5975 13.2767 28.8745 13.2775C29.444 13.279 30.0135 13.2816 30.583 13.285C30.583 13.2972 30.583 13.3094 30.583 13.3221C30.5598 13.3222 30.5366 13.3222 30.5128 13.3223C29.9485 13.3245 29.3843 13.3273 28.8201 13.3308C28.5472 13.3325 28.2744 13.3339 28.0015 13.3349C27.7637 13.3358 27.5259 13.337 27.288 13.3387C27.1621 13.3396 27.0362 13.3402 26.9103 13.3405C26.7696 13.3409 26.6291 13.3419 26.4884 13.3431C26.4467 13.3431 26.4051 13.343 26.3621 13.343C26.0906 13.3422 26.0906 13.3422 25.8604 13.4705C25.7908 13.5843 25.7908 13.5843 25.7461 13.6932C25.721 13.6809 25.6958 13.6687 25.6699 13.656C25.7013 13.5213 25.7305 13.4474 25.8356 13.3527C26.0155 13.2438 26.2187 13.2655 26.4236 13.2681Z" fill="#FBD47C"/>
<path d="M27.1553 17.7381C27.4892 17.7321 27.8142 17.7477 28.146 17.7841C28.1907 17.7889 28.2355 17.7937 28.2816 17.7986C28.3752 17.8086 28.4687 17.8188 28.5622 17.8291C28.7059 17.8449 28.8497 17.86 28.9934 17.875C29.0847 17.8849 29.1759 17.8948 29.2671 17.9048C29.3101 17.9092 29.3532 17.9137 29.3975 17.9184C29.4371 17.9228 29.4767 17.9273 29.5174 17.9318C29.5698 17.9375 29.5698 17.9375 29.6231 17.9433C29.707 17.9607 29.707 17.9607 29.7832 18.0349C29.3356 18.0477 28.9114 18.0103 28.4692 17.9468C28.4093 17.9384 28.3493 17.9301 28.2894 17.9219C28.2008 17.9096 28.1123 17.8974 28.0237 17.885C27.7347 17.8446 27.4451 17.8094 27.1553 17.7752C27.1553 17.7629 27.1553 17.7507 27.1553 17.7381Z" fill="#FDD272"/>
<path d="M12.2637 22.2658C12.6333 22.451 12.973 22.7379 13.1396 23.1193C13.1208 23.1744 13.1208 23.1744 13.1016 23.2307C13.0845 23.2064 13.0675 23.1822 13.0499 23.1573C12.725 22.6997 12.4069 22.3442 11.8182 22.2391C11.5001 22.2014 11.174 22.2182 10.8545 22.2287C11.2807 22.0139 11.8362 22.082 12.2637 22.2658Z" fill="#FDD16F"/>
<path d="M25.0604 23.5645C25.073 23.5645 25.0856 23.5645 25.0985 23.5645C25.1018 23.612 25.1051 23.6596 25.1085 23.7085C25.1476 24.2021 25.2019 24.675 25.5466 25.0655C25.5936 25.123 25.5936 25.123 25.6317 25.2344C25.701 25.274 25.701 25.274 25.7841 25.3086C25.8422 25.3439 25.9001 25.3795 25.9578 25.4153C26.1572 25.5334 26.3625 25.61 26.5839 25.6797C26.5839 25.6919 26.5839 25.7042 26.5839 25.7168C26.1097 25.7016 25.7603 25.4514 25.4413 25.123C25.3623 25.0292 25.3053 24.9351 25.2509 24.8262C25.2332 24.7937 25.2155 24.7612 25.1973 24.7277C25.0175 24.3496 25.0411 23.9731 25.0604 23.5645Z" fill="#FCD171"/>
<path d="M19.9569 13.6934C19.9695 13.6934 19.9821 13.6934 19.995 13.6934C19.9952 13.7375 19.9953 13.7816 19.9954 13.8271C19.9968 14.2432 19.999 14.6592 20.002 15.0753C20.0035 15.2892 20.0047 15.5031 20.0053 15.717C20.0059 15.9235 20.0072 16.1299 20.009 16.3363C20.0096 16.4151 20.0099 16.4938 20.0099 16.5726C20.01 16.6829 20.0111 16.7932 20.0123 16.9036C20.0121 16.9361 20.0119 16.9686 20.0117 17.0021C20.0152 17.2034 20.0482 17.3187 20.1854 17.4785C20.2848 17.5647 20.2848 17.5647 20.3759 17.627C20.2262 17.617 20.1645 17.6075 20.0593 17.4994C19.9431 17.3275 19.9518 17.189 19.9526 16.9878C19.9526 16.9523 19.9526 16.9168 19.9526 16.8803C19.9526 16.7626 19.9529 16.645 19.9532 16.5273C19.9533 16.4459 19.9533 16.3644 19.9534 16.283C19.9535 16.0684 19.9539 15.8538 19.9543 15.6391C19.9547 15.4203 19.9549 15.2014 19.9551 14.9825C19.9555 14.5528 19.9561 14.1231 19.9569 13.6934Z" fill="#FEC85D"/>
<path d="M28.7549 23.6016C28.7675 23.6016 28.78 23.6016 28.793 23.6016C28.8208 24.196 28.7955 24.6579 28.374 25.123C28.3517 25.1482 28.3294 25.1734 28.3065 25.1993C28.118 25.3979 27.9061 25.5363 27.6504 25.6426C27.6127 25.6426 27.575 25.6426 27.5361 25.6426C27.5361 25.6181 27.5361 25.5936 27.5361 25.5684C27.566 25.5549 27.5959 25.5414 27.6267 25.5275C28.0478 25.3312 28.3984 25.0932 28.5658 24.6469C28.5846 24.5825 28.602 24.5178 28.6176 24.4526C28.6252 24.4289 28.6328 24.4053 28.6406 24.3809C28.6658 24.3686 28.6909 24.3564 28.7168 24.3438C28.7294 24.0988 28.7419 23.8539 28.7549 23.6016Z" fill="#FCD16F"/>
<path d="M32.2207 10.3164C32.5812 10.3602 32.8774 10.5574 33.1348 10.7988C33.1589 10.8201 33.1831 10.8413 33.208 10.8632C33.423 11.0597 33.6078 11.2855 33.7441 11.541C33.7316 11.5778 33.719 11.6145 33.7061 11.6523C33.4947 11.3837 33.4947 11.3837 33.4156 11.2534C33.3649 11.1651 33.3649 11.1651 33.28 11.0887C33.2572 11.0665 33.2344 11.0444 33.2109 11.0215C33.2109 10.997 33.2109 10.9725 33.2109 10.9473C33.1889 10.9375 33.1669 10.9277 33.1441 10.9175C33.0549 10.8711 32.986 10.818 32.9086 10.7548C32.6957 10.5896 32.4626 10.4734 32.2207 10.3535C32.2207 10.3413 32.2207 10.329 32.2207 10.3164Z" fill="#FACE71"/>
<path d="M25.7461 17.3301C25.7885 17.3737 25.7885 17.3737 25.8318 17.4182C26.0077 17.5597 26.2116 17.5658 26.4316 17.5898C26.5136 17.5989 26.5956 17.6081 26.6775 17.6176C26.7319 17.6237 26.7863 17.6296 26.8408 17.635C27.0326 17.6559 27.0326 17.6559 27.1172 17.7383C27.0371 17.7393 26.9569 17.74 26.8768 17.7406C26.8321 17.741 26.7875 17.7415 26.7415 17.7419C26.6221 17.7383 26.6221 17.7383 26.5078 17.7012C26.442 17.6965 26.3761 17.6927 26.3102 17.6896C26.1135 17.673 25.9406 17.6395 25.7842 17.5156C25.7461 17.4136 25.7461 17.4136 25.7461 17.3301Z" fill="#FDD274"/>
<path d="M12.873 24.9746C12.8982 24.9869 12.9233 24.9991 12.9492 25.0117C12.6388 25.3723 12.3551 25.5937 11.8828 25.7168C11.775 25.7207 11.775 25.7207 11.6924 25.7168C11.7917 25.6201 11.8824 25.6029 12.0161 25.5614C12.3705 25.4445 12.6511 25.2701 12.873 24.9746Z" fill="#FCD16E"/>
<path d="M30.6211 24.0469C31.2872 24.0469 31.9533 24.0469 32.6396 24.0469C32.6396 24.0591 32.6396 24.0714 32.6396 24.084C32.617 24.0844 32.5943 24.0847 32.571 24.0851C32.3356 24.0892 32.1002 24.0934 31.8648 24.0978C31.7769 24.0994 31.6891 24.101 31.6012 24.1024C31.475 24.1046 31.3488 24.1069 31.2225 24.1094C31.1831 24.11 31.1437 24.1106 31.1032 24.1112C31.0666 24.112 31.03 24.1127 30.9923 24.1135C30.9439 24.1143 30.9439 24.1143 30.8946 24.1152C30.8046 24.1182 30.8046 24.1182 30.6972 24.1582C30.6512 24.2324 30.6512 24.2324 30.6211 24.3066C30.5855 24.1949 30.5813 24.1632 30.6211 24.0469Z" fill="#FCD57B"/>
<path d="M31.7637 17.6641C31.7888 17.6763 31.8139 17.6886 31.8398 17.7012C31.8293 17.848 31.8116 17.9127 31.7113 18.0259C31.5356 18.1727 31.4285 18.1935 31.2043 18.1882C31.1642 18.1877 31.1642 18.1877 31.1233 18.1872C31.0574 18.1863 30.9916 18.185 30.9258 18.1836C30.9258 18.1713 30.9258 18.1591 30.9258 18.1465C30.9843 18.141 30.9843 18.141 31.0441 18.1355C31.0959 18.1299 31.1477 18.1243 31.1995 18.1187C31.2252 18.1164 31.2508 18.1141 31.2773 18.1117C31.4566 18.0912 31.5615 18.0503 31.6875 17.9238C31.7392 17.7893 31.7392 17.7893 31.7637 17.6641Z" fill="#FCCF70"/>
<path d="M24.4131 16.9219C24.4257 16.9219 24.4382 16.9219 24.4512 16.9219C24.4532 16.986 24.4547 17.0502 24.4559 17.1144C24.4568 17.1501 24.4577 17.1858 24.4586 17.2227C24.4506 17.3382 24.4318 17.414 24.375 17.5156C24.3036 17.5662 24.3036 17.5662 24.2227 17.6014C24.1826 17.6196 24.1826 17.6196 24.1417 17.6381C24.0703 17.6641 24.0703 17.6641 23.9941 17.6641C23.9941 17.6396 23.9941 17.6151 23.9941 17.5898C24.0193 17.5898 24.0444 17.5898 24.0703 17.5898C24.0829 17.5654 24.0954 17.5409 24.1084 17.5156C24.1544 17.4904 24.1544 17.4904 24.2012 17.4646C24.3088 17.3982 24.3289 17.3681 24.375 17.2559C24.3921 17.1684 24.3921 17.1684 24.3988 17.0796C24.4017 17.0499 24.4045 17.0203 24.4074 16.9897C24.4093 16.9673 24.4112 16.9449 24.4131 16.9219Z" fill="#FDD373"/>
<path d="M28.1074 22.5625C28.3407 22.6599 28.5363 22.8967 28.6406 23.1191C28.6281 23.1559 28.6155 23.1926 28.6025 23.2305C28.5859 23.2071 28.5694 23.1838 28.5523 23.1597C28.4079 22.9576 28.2607 22.7583 28.1074 22.5625Z" fill="#FDD170"/>
<path d="M13.2158 24.2324C13.2284 24.2324 13.241 24.2324 13.2539 24.2324C13.2485 24.2858 13.2429 24.3391 13.2372 24.3925C13.2342 24.4222 13.2311 24.4519 13.2279 24.4825C13.2158 24.5664 13.2158 24.5664 13.1777 24.6777C13.1526 24.6777 13.1275 24.6777 13.1016 24.6777C13.0961 24.7068 13.0906 24.7359 13.0849 24.7659C13.0635 24.8633 13.0635 24.8633 13.0254 24.9375C13.0003 24.9375 12.9751 24.9375 12.9492 24.9375C13.0031 24.7762 13.0624 24.6179 13.1254 24.4597C13.1424 24.417 13.1593 24.3742 13.1768 24.3301C13.1897 24.2979 13.2026 24.2656 13.2158 24.2324Z" fill="#FDD371"/>
<path d="M7.04575 17.1074C7.05832 17.1074 7.07089 17.1074 7.08384 17.1074C7.08713 17.1333 7.09042 17.1593 7.09381 17.186C7.1098 17.2869 7.12744 17.3814 7.16001 17.4785C7.25045 17.5417 7.25045 17.5417 7.35044 17.5527C7.37558 17.565 7.40071 17.5772 7.42661 17.5898C7.42661 17.6143 7.42661 17.6388 7.42661 17.6641C7.11454 17.5695 7.11454 17.5695 7.03623 17.4321C7.00233 17.311 7.01683 17.2286 7.04575 17.1074Z" fill="#FDD476"/>
<path d="M20.4521 13.2849C20.4287 13.2988 20.4053 13.3128 20.3812 13.3271C20.1456 13.4701 20.1456 13.4701 19.9951 13.6931C19.9825 13.6564 19.97 13.6196 19.957 13.5818C20.0728 13.3736 20.1988 13.2091 20.4521 13.2849Z" fill="#FDD06E"/>
<path d="M12.2256 17.2188C12.2507 17.231 12.2759 17.2432 12.3018 17.2559C12.2889 17.3685 12.2711 17.432 12.1994 17.5226C12.0981 17.6 12.0063 17.6312 11.8828 17.6641C11.8828 17.6396 11.8828 17.6151 11.8828 17.5898C11.9182 17.5768 11.9535 17.5638 11.9899 17.5504C12.1489 17.4563 12.167 17.3868 12.2256 17.2188Z" fill="#FCD373"/>
<path d="M10.0928 27.1641C10.3142 27.1932 10.5258 27.2534 10.7402 27.3125C10.7402 27.3247 10.7402 27.337 10.7402 27.3496C10.5204 27.3633 10.3318 27.3299 10.1309 27.2383C10.1183 27.2138 10.1057 27.1893 10.0928 27.1641Z" fill="#FBD070"/>
<path d="M24.0703 13.2852C24.238 13.3351 24.3197 13.4 24.4131 13.5449C24.4226 13.6493 24.4226 13.6493 24.4131 13.7305C24.3974 13.7098 24.3817 13.6891 24.3655 13.6678C24.2192 13.475 24.2192 13.475 24.0322 13.3223C24.0448 13.31 24.0574 13.2978 24.0703 13.2852Z" fill="#FDD272"/>
<path d="M19.957 17.2188C20.0269 17.2834 20.0859 17.3484 20.1451 17.4229C20.2167 17.5075 20.2834 17.5657 20.376 17.627C20.2314 17.6174 20.1649 17.6064 20.0594 17.5063C19.9962 17.406 19.9706 17.3347 19.957 17.2188Z" fill="#FDD070"/>
<path d="M13.5586 17.293C13.5853 17.3205 13.612 17.3481 13.6395 17.3765C13.7482 17.4777 13.851 17.5495 13.9775 17.627C13.9398 17.6453 13.9398 17.6453 13.9014 17.6641C13.6538 17.5435 13.6538 17.5435 13.5586 17.4043C13.5586 17.3676 13.5586 17.3308 13.5586 17.293Z" fill="#FCD06F"/>
<path d="M31.9541 10.2052C31.9541 10.2174 31.9541 10.2297 31.9541 10.2423C31.8731 10.2381 31.7922 10.2333 31.7113 10.2284C31.6662 10.2258 31.6212 10.2232 31.5747 10.2206C31.459 10.2052 31.459 10.2052 31.3828 10.131C31.6004 10.0712 31.7517 10.1276 31.9541 10.2052Z" fill="#FAD173"/>
<path d="M11.8828 13.2852C11.9708 13.2974 12.0588 13.3096 12.1494 13.3223C12.1746 13.3957 12.1997 13.4692 12.2256 13.5449C12.1494 13.5449 12.1494 13.5449 12.0756 13.4777C12.0497 13.4509 12.0238 13.4241 11.9971 13.3965C11.9751 13.3751 11.9531 13.3536 11.9304 13.3315C11.9147 13.3162 11.899 13.3009 11.8828 13.2852Z" fill="#FBCF6E"/>
<path d="M4.875 17.5527C4.88797 17.5527 4.90094 17.5527 4.91431 17.5527C4.91431 17.6385 4.91431 17.7242 4.91431 17.8125C4.90134 17.8125 4.88837 17.8125 4.875 17.8125C4.875 17.7268 4.875 17.6411 4.875 17.5527Z" fill="#F5D78E"/>
<path d="M4.875 18.4805C4.88797 18.4805 4.90094 18.4805 4.91431 18.4805C4.91431 18.5539 4.91431 18.6274 4.91431 18.7031C4.90134 18.7031 4.88837 18.7031 4.875 18.7031C4.875 18.6296 4.875 18.5562 4.875 18.4805Z" fill="#F6D690"/>
<path d="M4.875 17.293C4.88797 17.293 4.90094 17.293 4.91431 17.293C4.91431 17.3664 4.91431 17.4399 4.91431 17.5156C4.90134 17.5156 4.88837 17.5156 4.875 17.5156C4.875 17.4421 4.875 17.3687 4.875 17.293Z" fill="#F5D690"/>
<path d="M4.875 20.8184C4.88797 20.8184 4.90094 20.8184 4.91431 20.8184C4.91431 20.8796 4.91431 20.9408 4.91431 21.0039C4.90134 21.0039 4.88837 21.0039 4.875 21.0039C4.875 20.9427 4.875 20.8814 4.875 20.8184Z" fill="#F4D58E"/>
<path d="M4.875 19.9648C4.88797 19.9648 4.90094 19.9648 4.91431 19.9648C4.91431 20.0261 4.91431 20.0873 4.91431 20.1504C4.90134 20.1504 4.88837 20.1504 4.875 20.1504C4.875 20.0892 4.875 20.0279 4.875 19.9648Z" fill="#F3D48F"/>
<path d="M4.875 18.7773C4.88797 18.7773 4.90094 18.7773 4.91431 18.7773C4.91431 18.8386 4.91431 18.8998 4.91431 18.9629C4.90134 18.9629 4.88837 18.9629 4.875 18.9629C4.875 18.9017 4.875 18.8404 4.875 18.7773Z" fill="#F5D690"/>
<path d="M4.875 17.8496C4.88797 17.8496 4.90094 17.8496 4.91431 17.8496C4.91431 17.9108 4.91431 17.9721 4.91431 18.0352C4.90134 18.0352 4.88837 18.0352 4.875 18.0352C4.875 17.9739 4.875 17.9127 4.875 17.8496Z" fill="#F4D68E"/>
<path d="M4.875 14.0645C4.88797 14.0645 4.90094 14.0645 4.91431 14.0645C4.91431 14.1257 4.91431 14.1869 4.91431 14.25C4.90134 14.25 4.88837 14.25 4.875 14.25C4.875 14.1888 4.875 14.1275 4.875 14.0645Z" fill="#F4D58F"/>
<path d="M11.8828 25.5312C12.0352 25.5675 12.0352 25.5675 12.0352 25.5675L11.8828 25.5312Z" fill="#FCDC93"/>
<path d="M26.6602 22.2285C26.8125 22.2648 26.8125 22.2648 26.8125 22.2648L26.6602 22.2285Z" fill="#FAD991"/>
<path d="M4.875 19.668C4.91431 19.8164 4.91431 19.8164 4.91431 19.8164L4.875 19.668Z" fill="#F5D58F"/>
<path d="M4.875 19.3711C4.91431 19.5195 4.91431 19.5195 4.91431 19.5195L4.875 19.3711Z" fill="#F4D690"/>
<path d="M11.3877 22.2285C11.502 22.2648 11.502 22.2648 11.502 22.2648L11.3877 22.2285Z" fill="#FAD890"/>
<path d="M22.8516 17.5156C22.9658 17.5519 22.9658 17.5519 22.9658 17.5519L22.8516 17.5156Z" fill="#FBDA8D"/>
<path d="M17.2529 17.5156C17.3672 17.5519 17.3672 17.5519 17.3672 17.5519L17.2529 17.5156Z" fill="#FACE84"/>
<path d="M12.6445 27.2383C12.7207 27.2745 12.7207 27.2745 12.7207 27.2745L12.6445 27.2383Z" fill="#F1D38D"/>
<path d="M27.8408 22.4883C27.917 22.5245 27.917 22.5245 27.917 22.5245L27.8408 22.4883Z" fill="#FCDB90"/>
<path d="M26.9268 22.2285C27.0029 22.2648 27.0029 22.2648 27.0029 22.2648L26.9268 22.2285Z" fill="#FCDA8F"/>
<path d="M11.1973 22.2285C11.2734 22.2648 11.2734 22.2648 11.2734 22.2648L11.1973 22.2285Z" fill="#FADA93"/>
<path d="M28.8311 17.8125C28.9072 17.8487 28.9072 17.8487 28.9072 17.8487L28.8311 17.8125Z" fill="#FAD88D"/>
<path d="M11.8828 17.5156C11.959 17.5519 11.959 17.5519 11.959 17.5519L11.8828 17.5156Z" fill="#FBDB8D"/>
</svg>
