<svg width="42" height="45" viewBox="0 0 42 45" fill="none" xmlns="http://www.w3.org/2000/svg">
<g filter="url(#filter0_d_474_5414)">
<path d="M23.297 7.01402C23.4834 7.17903 23.6446 7.36719 23.8065 7.55571C23.8588 7.61511 23.9146 7.67144 23.9712 7.72666C24.0353 7.79331 24.0353 7.79331 24.0353 7.87534C24.0624 7.87534 24.0895 7.87534 24.1174 7.87534C24.168 7.92549 24.168 7.92549 24.2301 8.00095C24.3773 8.17423 24.5309 8.34034 24.6864 8.50596C24.8791 8.71143 25.0697 8.91828 25.2575 9.12824C25.3611 9.24368 25.4659 9.3581 25.5708 9.47239C25.5896 9.49283 25.6083 9.51327 25.6276 9.53432C25.7242 9.63985 25.8212 9.74502 25.9188 9.8497C25.9566 9.89056 25.9945 9.93141 26.0323 9.97227C26.0663 10.0087 26.1003 10.0452 26.1353 10.0828C26.2091 10.1722 26.2091 10.1722 26.2091 10.2543C26.2362 10.2543 26.2633 10.2543 26.2912 10.2543C26.3447 10.3058 26.3447 10.3058 26.4091 10.3824C26.4347 10.4126 26.4603 10.4428 26.4866 10.4739C26.5169 10.5097 26.5471 10.5455 26.5783 10.5824C26.6147 10.6241 26.6513 10.6659 26.6879 10.7075C27.1829 11.2733 27.633 11.8612 28.0138 12.5101C28.0284 12.534 28.0429 12.558 28.0578 12.5826C28.5386 13.3791 28.7929 14.3323 28.8341 15.2582C28.8374 15.3176 28.8374 15.3176 28.8407 15.3782C28.8674 16.2927 28.6205 17.2312 28.2189 18.0472C28.2058 18.0741 28.1928 18.101 28.1793 18.1286C27.9262 18.6433 27.6431 19.0821 27.1371 19.3751C26.9184 19.4272 26.7046 19.4297 26.4911 19.3572C26.2213 19.1753 25.9735 18.9872 25.881 18.6625C25.8491 18.406 25.8817 18.1681 25.9631 17.9242C26.0032 17.8823 26.0443 17.8414 26.0861 17.8011C26.6544 17.0053 26.8303 16.0156 26.6778 15.0632C26.6288 14.8056 26.5449 14.5606 26.4552 14.3148C26.4405 14.2728 26.4258 14.2308 26.4107 14.1876C26.3138 13.9326 26.1851 13.703 26.0425 13.4714C26.0165 13.4289 26.0165 13.4289 25.9899 13.3855C25.897 13.2392 25.8157 13.147 25.6759 13.0433C25.664 13.0118 25.652 12.9803 25.6396 12.9479C25.5583 12.7528 25.3986 12.6213 25.2504 12.4742C25.2159 12.4399 25.1815 12.4056 25.1459 12.3702C24.7149 11.9502 24.2357 11.6035 23.7357 11.2709C23.6918 11.2417 23.648 11.2125 23.6027 11.1825C23.5695 11.1604 23.5363 11.1383 23.5021 11.1156C23.5021 11.1493 23.5021 11.183 23.5021 11.2177C23.5021 13.4669 23.5021 15.716 23.5021 17.9652C23.597 18.0458 23.597 18.0458 23.7245 18.1164C23.7478 18.1304 23.7711 18.1443 23.7951 18.1586C23.8714 18.2041 23.9482 18.2487 24.0251 18.2933C24.0777 18.3245 24.1303 18.3557 24.1829 18.3869C24.2887 18.4497 24.3946 18.5121 24.5006 18.5743C24.7047 18.694 24.907 18.8168 25.1094 18.9393C25.3224 19.0679 25.5368 19.1926 25.7554 19.3114C25.843 19.3614 25.926 19.4157 26.0092 19.4725C26.1835 19.5906 26.3624 19.6993 26.5434 19.807C26.7302 19.9183 26.9164 20.0306 27.1022 20.1437C27.127 20.1588 27.1518 20.1739 27.1774 20.1894C27.2783 20.2508 27.3791 20.3122 27.48 20.3736C28.014 20.7292 28.014 20.7292 28.5881 21.0003C28.5881 21.0274 28.5881 21.0545 28.5881 21.0824C28.633 21.0994 28.633 21.0994 28.6789 21.1168C28.7857 21.1613 28.8808 21.2114 28.9803 21.2703C29.0159 21.2914 29.0516 21.3125 29.0884 21.3342C29.1263 21.3568 29.1642 21.3795 29.2033 21.4028C29.2426 21.4262 29.2819 21.4495 29.3225 21.4736C30.2542 22.0291 30.2542 22.0291 30.6799 22.3128C30.6799 22.3399 30.6799 22.367 30.6799 22.3949C30.7045 22.4059 30.7291 22.4169 30.7545 22.4282C31.1027 22.6179 31.3247 23.0946 31.4369 23.457C31.5855 24.0333 31.4896 24.6046 31.1977 25.1224C30.891 25.6082 30.4998 25.8723 30.0159 26.1709C29.951 26.2112 29.951 26.2112 29.8849 26.2523C29.7535 26.3338 29.6219 26.4151 29.4904 26.4964C29.4166 26.5421 29.3429 26.5878 29.2691 26.6334C29.1644 26.6983 29.0597 26.7631 28.9549 26.8278C28.6368 27.0245 28.3199 27.223 28.003 27.4214C27.7597 27.5736 27.5157 27.7242 27.2704 27.873C27.0048 28.0343 26.7425 28.2001 26.4809 28.3678C26.1067 28.6075 25.7281 28.8393 25.3477 29.069C25.0136 29.2708 24.6819 29.4758 24.3527 29.6856C24.1261 29.8295 23.8968 29.9684 23.6662 30.1058C23.3701 30.2822 23.0774 30.4633 22.7866 30.6483C22.5114 30.823 22.2341 30.9941 21.9563 31.1645C21.6067 31.3791 21.258 31.5951 20.9104 31.8131C20.5499 32.0392 20.1871 32.2615 19.8231 32.4821C19.5415 32.6531 19.2624 32.8278 18.9843 33.0045C18.7689 33.1411 18.5521 33.2751 18.3341 33.4076C18.0493 33.5807 17.7669 33.7575 17.4853 33.9361C17.2471 34.087 17.0078 34.2361 16.7679 34.3843C16.4538 34.5783 16.1402 34.7731 15.8271 34.9687C15.7856 34.9946 15.7442 35.0205 15.7015 35.0472C15.5112 35.1662 15.3211 35.2855 15.1319 35.4063C14.807 35.6135 14.4804 35.817 14.148 36.0121C14.1173 36.0303 14.0865 36.0486 14.0549 36.0674C13.391 36.4522 12.6367 36.5682 11.887 36.3786C11.526 36.2527 11.17 36.046 10.9103 35.766C10.867 35.7197 10.867 35.7197 10.8228 35.6724C10.7824 35.6274 10.7824 35.6274 10.7411 35.5814C10.7004 35.5364 10.7004 35.5364 10.6588 35.4904C10.4591 35.2465 10.4591 35.2465 10.4591 35.1097C10.4321 35.0962 10.405 35.0826 10.3771 35.0687C10.3347 34.9503 10.3347 34.9503 10.2925 34.7944C10.2785 34.7443 10.2645 34.6943 10.2501 34.6427C10.1533 34.2133 10.166 33.7577 10.1672 33.3199C10.1672 33.2666 10.1671 33.2132 10.1671 33.1583C10.167 33.0118 10.1672 32.8653 10.1675 32.7188C10.1677 32.5599 10.1676 32.401 10.1676 32.2421C10.1677 31.93 10.168 31.6178 10.1683 31.3056C10.1686 31.0483 10.1688 30.791 10.169 30.5337C10.169 30.4967 10.169 30.4597 10.169 30.4216C10.1691 30.3463 10.1691 30.2709 10.1691 30.1956C10.1696 29.3278 10.1706 28.46 10.1716 27.5922C10.1719 27.3182 10.1722 27.0442 10.1725 26.7701C10.1745 24.9496 10.1773 23.1291 10.1817 21.3086C10.1821 21.1574 10.1824 21.0062 10.1828 20.855C10.1829 20.7988 10.1829 20.7988 10.1831 20.7415C10.1846 20.118 10.1856 19.4946 10.1864 18.8711C10.1873 18.2165 10.1887 17.5618 10.1904 16.9072C10.1915 16.51 10.1923 16.1129 10.1925 15.7157C10.1927 15.4478 10.1934 15.18 10.1944 14.9121C10.195 14.7584 10.1954 14.6048 10.1952 14.4512C10.195 14.2847 10.1958 14.1182 10.1967 13.9517C10.1965 13.9039 10.1963 13.856 10.1961 13.8068C10.2015 13.1758 10.3871 12.6445 10.8232 12.182C11.2641 11.767 11.8353 11.6131 12.4321 11.6063C13.2908 11.6528 13.9963 12.1661 14.7008 12.6079C14.8594 12.7071 15.0189 12.8049 15.1785 12.9023C15.2084 12.9206 15.2383 12.9389 15.2691 12.9577C15.527 13.1149 15.7861 13.2702 16.0452 13.4253C16.428 13.6546 16.8088 13.8869 17.1898 14.1192C17.3823 14.2366 17.575 14.3539 17.7676 14.4712C17.8061 14.4946 17.8447 14.5181 17.8844 14.5422C18.2422 14.76 18.6003 14.9775 18.9584 15.1948C19.1818 15.3304 19.4051 15.466 19.6283 15.6018C19.729 15.6632 19.8298 15.7244 19.9305 15.7857C19.9996 15.8278 20.0687 15.8699 20.1377 15.912C20.3956 16.0688 20.6548 16.2233 20.9151 16.3761C20.9631 16.4043 20.9631 16.4043 21.012 16.4331C21.0901 16.4789 21.1682 16.5248 21.2463 16.5707C21.2462 16.5095 21.2462 16.5095 21.2461 16.4471C21.2452 15.4511 21.2446 14.455 21.2441 13.459C21.2439 12.9773 21.2436 12.4956 21.2432 12.0139C21.2428 11.5937 21.2425 11.1734 21.2424 10.7531C21.2423 10.531 21.2422 10.3089 21.2419 10.0867C21.2413 9.58531 21.2416 9.08394 21.2456 8.58255C21.246 8.52363 21.2464 8.4647 21.2467 8.40577C21.2476 8.24656 21.2502 8.08747 21.2542 7.92831C21.2545 7.8766 21.2545 7.8766 21.2549 7.82385C21.267 7.49644 21.4084 7.21816 21.6282 6.97813C22.1599 6.48699 22.7631 6.60266 23.297 7.01402ZM21.2873 16.6937C21.2873 17.4923 21.2873 18.2909 21.2873 19.1136C21.0436 19.0527 21.0436 19.0527 20.7951 18.9906C20.6479 18.9759 20.5064 18.9645 20.3593 18.9598C20.3231 18.9581 20.2869 18.9563 20.2495 18.9545C20.065 18.94 20.065 18.94 19.8927 18.9906C19.8309 18.9918 19.769 18.991 19.7072 18.989C19.4936 18.9871 19.2965 19.0139 19.0878 19.0572C19.0523 19.0645 19.0168 19.0718 18.9803 19.0794C18.6405 19.1532 18.3248 19.2633 18.006 19.4007C17.9638 19.4185 17.9638 19.4185 17.9207 19.4366C16.5527 20.0174 15.4988 21.0753 14.9169 22.4394C14.6376 23.1916 14.6778 24.0065 14.9853 24.7424C15.3078 25.422 15.8657 25.9692 16.5728 26.2419C17.8862 26.7009 19.2632 26.505 20.5034 25.9237C21.3919 25.4883 22.1442 24.7768 22.6818 23.9535C22.7053 23.9186 22.7288 23.8838 22.7529 23.8479C23.1612 23.2113 23.3329 22.4857 23.3594 21.7391C23.3618 21.6705 23.3618 21.6705 23.3644 21.6005C23.3843 21.011 23.3981 20.4213 23.4037 19.8315C23.4054 19.6547 23.4079 19.4779 23.4123 19.3011C23.4165 19.1267 23.4188 18.9524 23.4196 18.778C23.4202 18.7124 23.4216 18.6468 23.4237 18.5813C23.4444 18.2181 23.4444 18.2181 23.2909 17.9046C23.1864 17.8304 23.0847 17.7738 22.9689 17.7191C22.9119 17.6842 22.8552 17.6488 22.7991 17.6125C22.743 17.5787 22.6868 17.545 22.6305 17.5115C22.2884 17.3051 21.9513 17.0913 21.6153 16.875C21.5785 16.8514 21.5417 16.8278 21.5037 16.8035C21.4544 16.7717 21.4544 16.7717 21.4041 16.7393C21.3372 16.6902 21.3372 16.6902 21.2873 16.6937Z" fill="#F3C9E4"/>
<path d="M10.2537 27.2344C10.2672 27.2344 10.2808 27.2344 10.2947 27.2344C10.2947 29.4541 10.2947 31.6739 10.2947 33.9609C10.2676 33.9745 10.2406 33.988 10.2127 34.002C10.1658 33.7032 10.1659 33.4086 10.1664 33.1066C10.1663 33.0497 10.1662 32.9927 10.1661 32.9357C10.1659 32.7817 10.166 32.6277 10.1662 32.4738C10.1663 32.3119 10.1662 32.1501 10.1661 31.9882C10.166 31.7163 10.1661 31.4444 10.1663 31.1725C10.1665 30.8593 10.1665 30.5461 10.1662 30.2329C10.1661 29.9631 10.166 29.6932 10.1661 29.4234C10.1662 29.2626 10.1662 29.1019 10.1661 28.9412C10.1659 28.7898 10.166 28.6384 10.1663 28.487C10.1663 28.4058 10.1662 28.3247 10.1661 28.2435C10.1683 27.3198 10.1683 27.3198 10.2537 27.2344Z" fill="#F3C9E4"/>
<path d="M23.4609 7.30078C23.584 7.30078 23.584 7.30078 23.653 7.36679C23.6768 7.39576 23.7005 7.42474 23.725 7.45459C23.8046 7.5501 23.8819 7.63939 23.9711 7.72632C24.0352 7.79297 24.0352 7.79297 24.0352 7.875C24.0622 7.875 24.0893 7.875 24.1172 7.875C24.1678 7.92515 24.1678 7.92515 24.23 8.00061C24.3771 8.17389 24.5307 8.33999 24.6863 8.50562C24.8785 8.71062 25.0687 8.91698 25.256 9.12646C25.367 9.25004 25.479 9.37266 25.5912 9.49512C25.6106 9.51633 25.63 9.53754 25.65 9.55939C25.7257 9.64192 25.8017 9.72354 25.8809 9.80273C25.8809 9.84334 25.8809 9.88395 25.8809 9.92578C25.7988 9.92578 25.7988 9.92578 25.741 9.86842C25.7186 9.84167 25.6963 9.81492 25.6732 9.78735C25.5245 9.61167 25.3697 9.44246 25.2132 9.2737C25.1426 9.1875 25.1426 9.1875 25.1426 9.10547C25.1155 9.10547 25.0884 9.10547 25.0605 9.10547C25.0605 9.0784 25.0605 9.05133 25.0605 9.02344C25.0335 9.02344 25.0064 9.02344 24.9785 9.02344C24.9181 8.96275 24.9181 8.96275 24.8483 8.87908C24.7026 8.70777 24.551 8.54344 24.3966 8.38C24.3429 8.32287 24.2893 8.26573 24.2356 8.20857C24.1574 8.12533 24.0791 8.04214 24.0006 7.95907C23.9316 7.88593 23.8629 7.81256 23.7942 7.73914C23.7735 7.71729 23.7527 7.69544 23.7314 7.67294C23.641 7.57603 23.5854 7.51024 23.543 7.38281C23.5159 7.38281 23.4888 7.38281 23.4609 7.38281C23.4609 7.35574 23.4609 7.32867 23.4609 7.30078Z" fill="#F3C9E4"/>
<path d="M23.4608 13.4941C23.4743 13.4941 23.4878 13.4941 23.5018 13.4941C23.5018 14.78 23.5018 16.0658 23.5018 17.3906C23.4882 17.3906 23.4747 17.3906 23.4608 17.3906C23.4597 17.3538 23.4587 17.3169 23.4576 17.279C23.4537 17.1424 23.4497 17.0059 23.4455 16.8694C23.4437 16.8103 23.442 16.7512 23.4404 16.6921C23.438 16.6071 23.4354 16.5222 23.4327 16.4373C23.4312 16.3862 23.4297 16.3351 23.4282 16.2824C23.4278 16.1632 23.4278 16.1632 23.3787 16.0781C23.3752 15.9793 23.374 15.8818 23.3747 15.783C23.3748 15.754 23.3748 15.725 23.3749 15.6951C23.3751 15.6023 23.3756 15.5095 23.3762 15.4167C23.3764 15.3539 23.3766 15.291 23.3767 15.2282C23.3772 15.074 23.3779 14.9198 23.3787 14.7656C23.3923 14.7656 23.4058 14.7656 23.4197 14.7656C23.44 14.1362 23.44 14.1362 23.4608 13.4941Z" fill="#F3C9E4"/>
<path d="M11.4844 11.854C11.4438 11.8743 11.4438 11.8743 11.4023 11.895C11.3888 11.9356 11.3753 11.9762 11.3613 12.018C11.2938 12.0474 11.2253 12.0744 11.1562 12.1001C10.9085 12.2584 10.752 12.4117 10.623 12.6743C10.5861 12.7353 10.5485 12.796 10.5102 12.8563C10.4839 12.8981 10.4839 12.8981 10.4571 12.9407C10.4442 12.9611 10.4313 12.9815 10.418 13.0024C10.3767 12.8953 10.3713 12.8518 10.4167 12.7442C10.9938 11.8196 10.9938 11.8196 11.4844 11.854Z" fill="#F3C9E4"/>
<path d="M10.2541 32.4844C10.2676 32.4844 10.2812 32.4844 10.2951 32.4844C10.2951 32.9716 10.2951 33.4589 10.2951 33.9609C10.2545 33.9812 10.2545 33.9812 10.2131 34.002C10.1714 33.7251 10.1646 33.4536 10.1644 33.174C10.1639 33.1302 10.1634 33.0864 10.1629 33.0414C10.1628 32.9991 10.1627 32.9568 10.1626 32.9133C10.1625 32.8752 10.1623 32.8371 10.1621 32.7979C10.1729 32.6802 10.2052 32.5914 10.2541 32.4844Z" fill="#F3C9E4"/>
<path d="M16.1602 34.6172C16.1872 34.6307 16.2143 34.6443 16.2422 34.6582C16.1261 34.7825 16.0102 34.871 15.8644 34.9581C15.8235 34.9828 15.7825 35.0074 15.7404 35.0328C15.6979 35.0581 15.6554 35.0833 15.6116 35.1094C15.5275 35.1597 15.4434 35.2102 15.3594 35.2606C15.3201 35.284 15.2807 35.3075 15.2402 35.3316C15.1544 35.3844 15.0734 35.4396 14.9922 35.499C14.8887 35.5605 14.8887 35.5605 14.8002 35.5439C14.7752 35.5358 14.7503 35.5278 14.7246 35.5195C14.7477 35.5053 14.7708 35.4911 14.7946 35.4764C14.9029 35.4097 15.0111 35.3428 15.1194 35.276C15.1779 35.2399 15.1779 35.2399 15.2377 35.2031C15.4157 35.093 15.5933 34.9825 15.7681 34.8673C15.8076 34.8413 15.8076 34.8413 15.8479 34.8148C15.9177 34.7685 15.9873 34.7219 16.0568 34.6752C16.108 34.6465 16.108 34.6465 16.1602 34.6172Z" fill="#F3C9E4"/>
<path d="M17.1855 26.4547C17.7059 26.4465 18.2245 26.4717 18.7441 26.4957C18.7306 26.5228 18.7171 26.5499 18.7031 26.5778C18.5348 26.5802 18.3665 26.5816 18.1981 26.5829C18.1275 26.5839 18.1275 26.5839 18.0554 26.585C17.756 26.5867 17.4778 26.5615 17.1855 26.4957C17.1855 26.4822 17.1855 26.4687 17.1855 26.4547Z" fill="#F3C9E4"/>
<path d="M10.623 35.3145C10.8113 35.4972 10.8113 35.4972 10.8778 35.5855C11.0836 35.8574 11.3879 36.025 11.6895 36.1758C11.6895 36.2029 11.6895 36.2299 11.6895 36.2578C11.224 36.117 10.8896 35.8374 10.623 35.4375C10.623 35.3969 10.623 35.3563 10.623 35.3145Z" fill="#F3C9E4"/>
<path d="M23.379 20.6719C23.4061 20.6719 23.4331 20.6719 23.461 20.6719C23.4622 20.8265 23.4629 20.9812 23.4636 21.1359C23.4639 21.179 23.4643 21.2222 23.4646 21.2667C23.4655 21.5493 23.451 21.8265 23.42 22.1074C23.4065 22.1074 23.3929 22.1074 23.379 22.1074C23.3708 21.9528 23.3633 21.7981 23.3559 21.6434C23.3536 21.6003 23.3513 21.5571 23.349 21.5126C23.3358 21.2283 23.3452 20.9545 23.379 20.6719Z" fill="#F3C9E4"/>
<path d="M28.6289 26.9473C28.6289 26.9743 28.6289 27.0014 28.6289 27.0293C28.4895 27.1382 28.3372 27.2293 28.188 27.3241C28.1463 27.3515 28.1047 27.3788 28.0617 27.407C28.0216 27.4327 27.9814 27.4583 27.94 27.4848C27.903 27.5085 27.8661 27.5323 27.828 27.5568C27.7266 27.6035 27.7266 27.6035 27.6312 27.5904C27.6085 27.5812 27.5859 27.572 27.5625 27.5625C27.701 27.4746 27.8397 27.387 27.9786 27.2996C28.0258 27.2699 28.073 27.24 28.1201 27.2101C28.1878 27.1672 28.2557 27.1245 28.3235 27.0818C28.3643 27.0561 28.4052 27.0303 28.4472 27.0037C28.5469 26.9473 28.5469 26.9473 28.6289 26.9473Z" fill="#F3C9E4"/>
<path d="M11.9766 36.2988C12.5247 36.3191 12.5247 36.3191 13.084 36.3398C13.084 36.3534 13.084 36.3669 13.084 36.3809C12.8591 36.4579 12.6741 36.4715 12.438 36.4552C12.4071 36.4539 12.3761 36.4526 12.3443 36.4513C12.1617 36.4401 12.1108 36.4331 11.9766 36.2988Z" fill="#F3C9E4"/>
<path d="M27.6035 12.0176C27.7395 12.074 27.7984 12.1275 27.8719 12.2544C27.8897 12.2848 27.9075 12.3153 27.9258 12.3467C27.9438 12.3785 27.9618 12.4103 27.9803 12.4431C27.9988 12.4746 28.0173 12.5061 28.0363 12.5386C28.1174 12.679 28.1853 12.8011 28.2188 12.9609C28.1917 12.9609 28.1646 12.9609 28.1367 12.9609C28.1154 12.9228 28.0941 12.8847 28.0722 12.8454C27.8919 12.5207 27.8919 12.5207 27.6855 12.2124C27.6035 12.0996 27.6035 12.0996 27.6035 12.0176Z" fill="#F3C9E4"/>
<path d="M12.7969 11.648C12.7969 11.6751 12.7969 11.7021 12.7969 11.73C12.8375 11.73 12.8781 11.73 12.9199 11.73C12.9199 11.7571 12.9199 11.7842 12.9199 11.8121C12.8872 11.8058 12.8546 11.7995 12.8209 11.793C12.6437 11.7666 12.4681 11.7567 12.2893 11.748C12.2552 11.7462 12.2211 11.7444 12.186 11.7426C12.1025 11.7383 12.019 11.7341 11.9355 11.73C12.2017 11.5526 12.4934 11.6161 12.7969 11.648Z" fill="#F3C9E4"/>
<path d="M14.6838 23.0508C14.6974 23.0508 14.7109 23.0508 14.7248 23.0508C14.7521 23.4342 14.7724 23.8145 14.7659 24.1992C14.6248 23.9876 14.6372 23.7662 14.6377 23.5173C14.6376 23.4644 14.6375 23.4114 14.6374 23.3568C14.6416 23.2451 14.6501 23.1562 14.6838 23.0508Z" fill="#F3C9E4"/>
<path d="M28.6699 14.6016C28.7951 14.7685 28.8083 14.7876 28.805 14.979C28.8046 15.0192 28.8042 15.0594 28.8038 15.1008C28.8028 15.1425 28.8017 15.1841 28.8007 15.2271C28.8001 15.2693 28.7995 15.3116 28.799 15.3552C28.7975 15.4595 28.7955 15.5637 28.793 15.668C28.7659 15.6544 28.7388 15.6409 28.7109 15.627C28.6974 15.2886 28.6839 14.9502 28.6699 14.6016Z" fill="#F3C9E4"/>
<path d="M23.3789 12.3457C23.4956 12.4765 23.5169 12.5583 23.514 12.7321C23.5136 12.7742 23.5132 12.8162 23.5128 12.8595C23.5117 12.9031 23.5107 12.9468 23.5096 12.9917C23.5088 13.0581 23.5088 13.0581 23.508 13.1258C23.5065 13.2349 23.5045 13.344 23.502 13.4531C23.4246 13.3212 23.408 13.2187 23.4029 13.0667C23.4014 13.0246 23.3998 12.9826 23.3981 12.9393C23.3962 12.8739 23.3962 12.8739 23.3943 12.8071C23.3927 12.7629 23.3911 12.7186 23.3895 12.673C23.3856 12.5639 23.3821 12.4548 23.3789 12.3457Z" fill="#F3C9E4"/>
<path d="M19.6875 32.4844C19.6875 32.5114 19.6875 32.5385 19.6875 32.5664C19.5823 32.6544 19.4642 32.7253 19.3491 32.7997C19.3172 32.8212 19.2854 32.8427 19.2525 32.8648C19.2216 32.8849 19.1907 32.905 19.1588 32.9258C19.1304 32.9444 19.1021 32.963 19.0729 32.9821C18.9726 33.0252 18.9268 33.0135 18.8262 32.9766C18.9542 32.8942 19.0824 32.8123 19.2107 32.7305C19.2472 32.707 19.2837 32.6835 19.3212 32.6593C19.3561 32.6371 19.391 32.6149 19.427 32.592C19.4592 32.5714 19.4914 32.5508 19.5246 32.5296C19.6055 32.4844 19.6055 32.4844 19.6875 32.4844Z" fill="#F3C9E4"/>
<path d="M30.5977 25.6348C30.6247 25.6348 30.6518 25.6348 30.6797 25.6348C30.6169 25.8065 30.5056 25.8761 30.3567 25.9757C30.3137 26.0052 30.2706 26.0346 30.2263 26.0649C30.1055 26.127 30.1055 26.127 30.0159 26.1103C29.9913 26.1023 29.9667 26.0942 29.9414 26.0859C29.9853 26.0568 30.0293 26.0277 30.0745 25.9977C30.1319 25.9596 30.1892 25.9215 30.2465 25.8834C30.2755 25.8642 30.3045 25.845 30.3343 25.8252C30.3758 25.7976 30.3758 25.7976 30.4181 25.7695C30.4436 25.7525 30.4692 25.7356 30.4955 25.7181C30.5558 25.679 30.5558 25.679 30.5977 25.6348Z" fill="#F3C9E4"/>
<path d="M19.9746 18.9493C19.8926 19.0313 19.8926 19.0313 19.8107 19.0379C19.7777 19.0366 19.7446 19.0353 19.7106 19.0339C19.4818 19.0289 19.2586 19.0482 19.0312 19.0724C19.0312 19.0453 19.0312 19.0182 19.0312 18.9903C19.3467 18.8809 19.6487 18.9179 19.9746 18.9493Z" fill="#F3C9E4"/>
<path d="M14.5195 35.6426C14.5466 35.6561 14.5737 35.6696 14.6016 35.6836C14.4877 35.8045 14.3739 35.8966 14.2324 35.9835C14.1977 36.0054 14.1631 36.0272 14.1273 36.0497C14.0123 36.1004 13.9792 36.0883 13.8633 36.0527C13.9706 35.983 14.0784 35.914 14.1863 35.8451C14.2169 35.8252 14.2475 35.8053 14.279 35.7848C14.3084 35.7661 14.3377 35.7475 14.368 35.7283C14.395 35.7109 14.4221 35.6935 14.45 35.6756C14.4729 35.6647 14.4959 35.6538 14.5195 35.6426Z" fill="#F3C9E4"/>
<path d="M26.291 10.377C26.4415 10.4386 26.5244 10.5261 26.6294 10.6487C26.6584 10.6822 26.6873 10.7157 26.7172 10.7503C26.739 10.776 26.7608 10.8017 26.7832 10.8281C26.7697 10.8687 26.7561 10.9093 26.7422 10.9512C26.6667 10.8711 26.5916 10.7907 26.5166 10.7102C26.4951 10.6874 26.4736 10.6646 26.4514 10.6412C26.291 10.4683 26.291 10.4683 26.291 10.377Z" fill="#F3C9E4"/>
<path d="M23.584 18.1289C23.8357 18.1422 24.0418 18.2682 24.2402 18.416C24.2402 18.4431 24.2402 18.4702 24.2402 18.498C24.0806 18.4702 23.9584 18.3951 23.8198 18.3135C23.7756 18.2877 23.7314 18.2619 23.6859 18.2353C23.6523 18.2137 23.6186 18.1921 23.584 18.1699C23.584 18.1564 23.584 18.1429 23.584 18.1289Z" fill="#F3C9E4"/>
<path d="M23.4609 17.6777C23.488 17.7048 23.5151 17.7319 23.543 17.7598C23.5276 17.8674 23.5276 17.8674 23.502 17.9648C23.6035 18.0461 23.6035 18.0461 23.707 18.1289C23.6817 18.1331 23.6563 18.1374 23.6301 18.1417C23.528 18.1648 23.528 18.1648 23.4609 18.293C23.4567 18.2549 23.4525 18.2168 23.4481 18.1776C23.4196 18.0455 23.4003 18.0048 23.2969 17.9238C23.3239 17.9238 23.351 17.9238 23.3789 17.9238C23.406 17.8426 23.433 17.7614 23.4609 17.6777Z" fill="#F3C9E4"/>
<path d="M13.248 11.8535C13.4881 11.872 13.6616 11.9781 13.8633 12.0996C13.8633 12.1267 13.8633 12.1538 13.8633 12.1816C13.7133 12.1534 13.5959 12.0892 13.4634 12.015C13.423 11.9925 13.3826 11.9701 13.341 11.9469C13.3103 11.9296 13.2796 11.9123 13.248 11.8945C13.248 11.881 13.248 11.8675 13.248 11.8535Z" fill="#F3C9E4"/>
<path d="M22.5586 30.6387C22.5857 30.6522 22.6127 30.6657 22.6406 30.6797C22.5041 30.8333 22.3383 30.9676 22.1484 31.0488C22.0562 31.0339 22.0562 31.0339 21.9844 31.0078C22.0121 30.9915 22.0398 30.9751 22.0683 30.9583C22.1049 30.9366 22.1415 30.9148 22.1792 30.8925C22.2154 30.871 22.2515 30.8496 22.2888 30.8276C22.383 30.7689 22.471 30.7068 22.5586 30.6387Z" fill="#F3C9E4"/>
<path d="M25.1836 29.0801C25.1283 29.246 25.051 29.2702 24.9016 29.3569C24.8577 29.3829 24.8138 29.409 24.7686 29.4358C24.6504 29.4902 24.6504 29.4902 24.5273 29.4492C24.6212 29.3875 24.7152 29.326 24.8093 29.2646C24.836 29.247 24.8627 29.2294 24.8902 29.2113C25.0923 29.0801 25.0923 29.0801 25.1836 29.0801Z" fill="#F3C9E4"/>
<path d="M20.5488 31.9512C20.4976 32.1048 20.4468 32.1253 20.3104 32.2075C20.2746 32.2297 20.2388 32.2519 20.202 32.2748C20.0977 32.3203 20.0977 32.3203 20.0023 32.3069C19.9796 32.2978 19.957 32.2887 19.9336 32.2793C20.0206 32.2244 20.1078 32.1697 20.1951 32.1152C20.2198 32.0996 20.2446 32.0839 20.2701 32.0678C20.4575 31.9512 20.4575 31.9512 20.5488 31.9512Z" fill="#F3C9E4"/>
<path d="M18.375 14.9297C18.5797 14.9489 18.7504 15.0482 18.9082 15.1758C18.9217 15.2164 18.9353 15.257 18.9492 15.2988C18.8017 15.2446 18.677 15.1791 18.5468 15.0912C18.5143 15.0696 18.4819 15.0479 18.4485 15.0257C18.4243 15.0075 18.4 14.9894 18.375 14.9707C18.375 14.9572 18.375 14.9436 18.375 14.9297Z" fill="#F3C9E4"/>
<path d="M17.3086 19.6875C17.2597 19.8343 17.2165 19.859 17.0907 19.9438C17.0427 19.9772 17.0427 19.9772 16.9938 20.0111C16.8984 20.0566 16.8984 20.0566 16.8044 20.0432C16.7813 20.0341 16.7582 20.025 16.7344 20.0156C16.8145 19.9607 16.8949 19.9061 16.9753 19.8516C17.0201 19.8211 17.0648 19.7907 17.1109 19.7593C17.2266 19.6875 17.2266 19.6875 17.3086 19.6875Z" fill="#F3C9E4"/>
<path d="M17.4727 33.7969C17.4997 33.8104 17.5268 33.8239 17.5547 33.8379C17.4198 33.989 17.2839 34.0774 17.1035 34.166C17.0629 34.1525 17.0223 34.1389 16.9805 34.125C17.1429 34.0167 17.3053 33.9084 17.4727 33.7969Z" fill="#F3C9E4"/>
<path d="M18.7031 33.0996C18.7031 33.1267 18.7031 33.1537 18.7031 33.1816C18.6231 33.2343 18.5406 33.2833 18.457 33.3303C18.4114 33.3562 18.3657 33.3821 18.3186 33.4088C18.2831 33.4286 18.2475 33.4484 18.2109 33.4688C18.2109 33.4281 18.2109 33.3875 18.2109 33.3457C18.2978 33.2799 18.2978 33.2799 18.4109 33.215C18.448 33.1932 18.4851 33.1715 18.5234 33.1491C18.6211 33.0996 18.6211 33.0996 18.7031 33.0996Z" fill="#F3C9E4"/>
<path d="M10.3359 34.6582C10.4047 34.7613 10.4565 34.8563 10.5077 34.9684C10.5226 35.0006 10.5376 35.0328 10.553 35.066C10.5626 35.0938 10.5722 35.1217 10.582 35.1504C10.5685 35.1775 10.555 35.2045 10.541 35.2324C10.5139 35.2189 10.4869 35.2054 10.459 35.1914C10.459 35.1643 10.459 35.1373 10.459 35.1094C10.4319 35.0958 10.4048 35.0823 10.3769 35.0684C10.3295 34.9259 10.3331 34.8075 10.3359 34.6582Z" fill="#F3C9E4"/>
<path d="M16.8164 34.207C16.8435 34.2206 16.8705 34.2341 16.8984 34.248C16.7635 34.3992 16.6277 34.4876 16.4473 34.5762C16.4067 34.5626 16.3661 34.5491 16.3242 34.5352C16.4883 34.4258 16.6523 34.3164 16.8164 34.207Z" fill="#F3C9E4"/>
<path d="M26.7832 28.0957C26.7832 28.1228 26.7832 28.1498 26.7832 28.1777C26.6978 28.241 26.6978 28.241 26.5858 28.3085C26.5309 28.3423 26.5309 28.3423 26.4748 28.3769C26.373 28.4238 26.373 28.4238 26.25 28.3828C26.3233 28.3347 26.3969 28.2869 26.4705 28.2393C26.5114 28.2126 26.5523 28.186 26.5945 28.1585C26.7012 28.0957 26.7012 28.0957 26.7832 28.0957Z" fill="#F3C9E4"/>
<path d="M29.1211 26.5781C29.1482 26.5917 29.1752 26.6052 29.2031 26.6191C29.0684 26.77 28.9298 26.855 28.752 26.9473C28.7249 26.9473 28.6978 26.9473 28.6699 26.9473C28.6699 26.9202 28.6699 26.8931 28.6699 26.8652C28.7657 26.793 28.7657 26.793 28.8904 26.714C28.9313 26.6876 28.9722 26.6612 29.0144 26.634C29.0496 26.6156 29.0848 26.5971 29.1211 26.5781Z" fill="#F3C9E4"/>
<path d="M29.7773 26.168C29.8044 26.1815 29.8315 26.195 29.8594 26.209C29.7353 26.3426 29.6085 26.4475 29.4492 26.5371C29.3595 26.5209 29.3595 26.5209 29.2852 26.4961C29.3172 26.4758 29.3493 26.4556 29.3824 26.4347C29.4239 26.4085 29.4654 26.3822 29.5082 26.3551C29.5496 26.3289 29.591 26.3028 29.6336 26.2758C29.73 26.2182 29.73 26.2182 29.7773 26.168Z" fill="#F3C9E4"/>
<path d="M30.8848 22.6406C31.0906 22.7347 31.2042 22.8884 31.2949 23.0918C31.2814 23.1189 31.2679 23.1459 31.2539 23.1738C31.0883 23.0201 30.9568 22.8567 30.8848 22.6406Z" fill="#F3C9E4"/>
<path d="M25.7988 28.7109C25.7988 28.738 25.7988 28.7651 25.7988 28.793C25.7134 28.8563 25.7134 28.8563 25.6014 28.9237C25.5465 28.9576 25.5465 28.9576 25.4904 28.9921C25.3887 29.0391 25.3887 29.0391 25.2656 28.998C25.339 28.95 25.4125 28.9022 25.4861 28.8545C25.527 28.8278 25.5679 28.8012 25.6101 28.7737C25.7168 28.7109 25.7168 28.7109 25.7988 28.7109Z" fill="#F3C9E4"/>
<path d="M21.5332 31.3359C21.4862 31.477 21.4575 31.495 21.3358 31.5718C21.3076 31.5902 21.2795 31.6086 21.2504 31.6275C21.1477 31.671 21.1028 31.6609 21 31.623C21.0733 31.575 21.1469 31.5272 21.2205 31.4795C21.2614 31.4528 21.3023 31.4262 21.3445 31.3987C21.4512 31.3359 21.4512 31.3359 21.5332 31.3359Z" fill="#F3C9E4"/>
<path d="M16.9805 14.0684C17.1657 14.0902 17.2848 14.16 17.4316 14.2734C17.4452 14.314 17.4587 14.3546 17.4727 14.3965C17.296 14.3322 17.142 14.2454 16.9805 14.1504C16.9805 14.1233 16.9805 14.0962 16.9805 14.0684Z" fill="#F3C9E4"/>
<path d="M18.0879 33.4688C18.0402 33.6119 18.0104 33.6268 17.8854 33.702C17.8562 33.7199 17.8271 33.7379 17.7971 33.7563C17.7188 33.7969 17.7188 33.7969 17.6367 33.7969C17.6844 33.6537 17.7142 33.6389 17.8392 33.5636C17.8684 33.5457 17.8975 33.5278 17.9275 33.5093C18.0059 33.4688 18.0059 33.4688 18.0879 33.4688Z" fill="#F3C9E4"/>
<path d="M14.3965 12.5098C14.5584 12.5329 14.6736 12.5777 14.8066 12.6738C14.8202 12.7144 14.8337 12.755 14.8477 12.7969C14.6922 12.7374 14.5447 12.6676 14.3965 12.5918C14.3965 12.5647 14.3965 12.5377 14.3965 12.5098Z" fill="#F3C9E4"/>
<path d="M27.1934 11.4434C27.336 11.5205 27.4426 11.5859 27.5215 11.7305C27.5039 11.8178 27.5039 11.8178 27.4805 11.8945C27.4324 11.8349 27.3846 11.775 27.3369 11.7151C27.2969 11.6651 27.2969 11.6651 27.2562 11.6142C27.1934 11.5254 27.1934 11.5254 27.1934 11.4434Z" fill="#F3C9E4"/>
<path d="M19.2773 15.5039C19.4562 15.5247 19.5829 15.5598 19.7285 15.668C19.7421 15.7086 19.7556 15.7492 19.7695 15.791C19.5929 15.7268 19.4389 15.6399 19.2773 15.5449C19.2773 15.5314 19.2773 15.5179 19.2773 15.5039Z" fill="#F3C9E4"/>
<path d="M24.3633 29.5312C24.3904 29.5448 24.4174 29.5583 24.4453 29.5723C24.3527 29.668 24.2697 29.744 24.1582 29.8184C24.1041 29.8048 24.0499 29.7913 23.9941 29.7773C24.116 29.6961 24.2378 29.6149 24.3633 29.5312Z" fill="#F3C9E4"/>
<path d="M21.492 7.13672C21.5326 7.15025 21.5732 7.16379 21.6151 7.17773C21.5474 7.31309 21.4797 7.44844 21.41 7.58789C21.3965 7.58789 21.3829 7.58789 21.369 7.58789C21.3556 7.39616 21.381 7.29394 21.492 7.13672Z" fill="#F3C9E4"/>
<path d="M15.0527 21.9434C15.0919 22.0324 15.0997 22.0895 15.0691 22.1822C15.038 22.2538 15.0045 22.3242 14.9707 22.3945C14.9436 22.3945 14.9166 22.3945 14.8887 22.3945C14.9136 22.2252 14.9723 22.0938 15.0527 21.9434Z" fill="#F3C9E4"/>
<path d="M16.1602 20.5078C16.1872 20.5213 16.2143 20.5349 16.2422 20.5488C16.1339 20.6571 16.0256 20.7654 15.9141 20.877C15.887 20.8634 15.8599 20.8499 15.832 20.8359C16.0217 20.6001 16.0217 20.6001 16.1602 20.5078Z" fill="#F3C9E4"/>
<path d="M26.332 19.7695C26.4937 19.7926 26.6089 19.8384 26.7422 19.9336C26.7422 19.9607 26.7422 19.9877 26.7422 20.0156C26.5783 19.9904 26.4643 19.9067 26.332 19.8105C26.332 19.797 26.332 19.7835 26.332 19.7695Z" fill="#F3C9E4"/>
<path d="M25.9219 9.9668C26.0775 10.028 26.152 10.1209 26.25 10.2539C26.2365 10.281 26.2229 10.308 26.209 10.3359C26.1609 10.29 26.1131 10.2438 26.0654 10.1975C26.0388 10.1718 26.0121 10.1461 25.9847 10.1196C25.9219 10.0488 25.9219 10.0488 25.9219 9.9668Z" fill="#F3C9E4"/>
<path d="M23.1328 30.3516C23.0918 30.4746 23.0918 30.4746 22.9969 30.5464C22.8735 30.6038 22.8465 30.5957 22.7227 30.5566C22.7755 30.5222 22.8285 30.4881 22.8816 30.4541C22.9111 30.4351 22.9406 30.416 22.971 30.3964C23.0508 30.3516 23.0508 30.3516 23.1328 30.3516Z" fill="#F3C9E4"/>
<path d="M18.7031 19.1129C18.6896 19.1399 18.6761 19.167 18.6621 19.1949C18.5774 19.2119 18.5774 19.2119 18.475 19.2205C18.4411 19.2236 18.4072 19.2267 18.3723 19.2298C18.333 19.2328 18.333 19.2328 18.293 19.2359C18.334 19.1539 18.334 19.1539 18.4519 19.1052C18.5801 19.0718 18.5801 19.0718 18.7031 19.1129Z" fill="#F3C9E4"/>
<path d="M26.6191 14.6836C26.6327 14.7107 26.6462 14.7377 26.6602 14.7656C26.6872 14.7656 26.7143 14.7656 26.7422 14.7656C26.7767 14.9304 26.7854 15.0535 26.7422 15.2168C26.7287 15.2168 26.7151 15.2168 26.7012 15.2168C26.6741 15.0408 26.647 14.8649 26.6191 14.6836Z" fill="#F3C9E4"/>
<path d="M28.4238 13.6172C28.5469 13.6992 28.5469 13.6992 28.5879 13.8223C28.5895 13.918 28.5897 14.0137 28.5879 14.1094C28.5098 13.9923 28.4869 13.9281 28.4597 13.7941C28.4528 13.7609 28.446 13.7278 28.4389 13.6936C28.4339 13.6684 28.4289 13.6432 28.4238 13.6172Z" fill="#F3C9E4"/>
<path d="M16.5703 13.8223C16.7473 13.8419 16.8232 13.8939 16.9395 14.0273C16.7879 14.0273 16.7025 13.9748 16.5703 13.9043C16.5703 13.8772 16.5703 13.8502 16.5703 13.8223Z" fill="#F3C9E4"/>
<path d="M29.1211 21.4512C29.2571 21.4738 29.3734 21.4991 29.4902 21.5742C29.5038 21.6148 29.5173 21.6554 29.5312 21.6973C29.384 21.6426 29.2525 21.5786 29.1211 21.4922C29.1211 21.4787 29.1211 21.4651 29.1211 21.4512Z" fill="#F3C9E4"/>
<path d="M22.1074 24.6504C22.1345 24.691 22.1616 24.7316 22.1895 24.7734C22.092 24.8375 22.092 24.8375 21.9844 24.8965C21.9573 24.8829 21.9302 24.8694 21.9023 24.8555C21.97 24.7878 22.0377 24.7201 22.1074 24.6504Z" fill="#F3C9E4"/>
<path d="M21.123 16.6112C21.2358 16.601 21.2358 16.601 21.3691 16.6112C21.4666 16.6932 21.4666 16.6932 21.5332 16.7753C21.4808 16.771 21.4283 16.7668 21.3743 16.7625C21.33 16.7589 21.33 16.7589 21.2849 16.7552C21.2051 16.7343 21.2051 16.7343 21.123 16.6112Z" fill="#F3C9E4"/>
<path d="M23.707 11.1562C23.8685 11.2101 23.9624 11.276 24.0762 11.4023C23.9208 11.3808 23.823 11.3457 23.707 11.2383C23.707 11.2112 23.707 11.1841 23.707 11.1562Z" fill="#F3C9E4"/>
<path d="M26.7012 16.2832C26.7147 16.2832 26.7282 16.2832 26.7422 16.2832C26.7996 16.5641 26.7996 16.5641 26.7422 16.6934C26.7016 16.7069 26.661 16.7204 26.6191 16.7344C26.6462 16.5855 26.6733 16.4366 26.7012 16.2832Z" fill="#F3C9E4"/>
<path d="M31.2949 24.6504C31.3085 24.6504 31.322 24.6504 31.3359 24.6504C31.3 24.9272 31.3 24.9272 31.2539 25.0195C31.2268 25.0195 31.1998 25.0195 31.1719 25.0195C31.2006 24.8904 31.2441 24.7724 31.2949 24.6504Z" fill="#F3C9E4"/>
<path d="M23.4609 17.6777C23.488 17.7048 23.5151 17.7319 23.543 17.7598C23.5353 17.8623 23.5353 17.8623 23.502 17.9648C23.441 18.0054 23.441 18.0054 23.3789 18.0469C23.3518 18.0063 23.3248 17.9657 23.2969 17.9238C23.3239 17.9238 23.351 17.9238 23.3789 17.9238C23.406 17.8426 23.433 17.7614 23.4609 17.6777Z" fill="#F3C9E4"/>
<path d="M21.7793 6.84961C21.8639 6.86755 21.8639 6.86755 21.9434 6.89062C21.8905 6.94705 21.8356 7.00168 21.7793 7.05469C21.7522 7.05469 21.7252 7.05469 21.6973 7.05469C21.7332 6.89575 21.7332 6.89575 21.7793 6.84961Z" fill="#F3C9E4"/>
<path d="M21.1641 16.3652C21.2051 16.5293 21.2051 16.5293 21.2051 16.5293L21.1641 16.3652Z" fill="#F3C9E4"/>
<path d="M23.7891 30.0234C23.8711 30.0645 23.8711 30.0645 23.8711 30.0645L23.7891 30.0234Z" fill="#F3C9E4"/>
<path d="M11.4844 11.6895C11.5664 11.7305 11.5664 11.7305 11.5664 11.7305L11.4844 11.6895Z" fill="#F3C9E4"/>
<path d="M23.666 11.2793C23.748 11.3203 23.748 11.3203 23.748 11.3203L23.666 11.2793Z" fill="#F3C9E4"/>
<path d="M24.7734 8.57227C24.8555 8.61328 24.8555 8.61328 24.8555 8.61328L24.7734 8.57227Z" fill="#F3C9E4"/>
</g>
<defs>
<filter id="filter0_d_474_5414" x="-4" y="0" width="50" height="50" filterUnits="userSpaceOnUse" color-interpolation-filters="sRGB">
<feFlood flood-opacity="0" result="BackgroundImageFix"/>
<feColorMatrix in="SourceAlpha" type="matrix" values="0 0 0 0 0 0 0 0 0 0 0 0 0 0 0 0 0 0 127 0" result="hardAlpha"/>
<feOffset dy="4"/>
<feGaussianBlur stdDeviation="2"/>
<feComposite in2="hardAlpha" operator="out"/>
<feColorMatrix type="matrix" values="0 0 0 0 0 0 0 0 0 0 0 0 0 0 0 0 0 0 0.25 0"/>
<feBlend mode="normal" in2="BackgroundImageFix" result="effect1_dropShadow_474_5414"/>
<feBlend mode="normal" in="SourceGraphic" in2="effect1_dropShadow_474_5414" result="shape"/>
</filter>
</defs>
</svg>
