<svg width="26" height="26" viewBox="0 0 26 26" fill="none" xmlns="http://www.w3.org/2000/svg">
<path d="M21.0233 8.35394C21.2573 8.55137 21.4309 8.77448 21.5819 9.03949C21.5953 9.06187 21.6087 9.08426 21.6225 9.10733C21.7464 9.33122 21.8124 9.57824 21.8879 9.82135C21.9602 10.0534 22.0363 10.2843 22.1119 10.5153C22.1289 10.5674 22.1459 10.6194 22.1629 10.6715C22.3479 11.2376 22.5344 11.8032 22.7208 12.3688C22.8831 12.8617 23.0454 13.3546 23.2054 13.8482C23.299 14.1367 23.3934 14.4249 23.4884 14.713C23.5085 14.774 23.5286 14.835 23.5487 14.896C23.5622 14.937 23.5757 14.9779 23.5892 15.0189C23.5992 15.0494 23.5992 15.0494 23.6095 15.0806C23.6495 15.2022 23.6897 15.3237 23.7299 15.4453C23.755 15.5214 23.7801 15.5975 23.8051 15.6737C23.8169 15.7093 23.8287 15.745 23.8405 15.7807C24.0119 16.2982 24.0119 16.2982 23.9686 16.4535C23.9178 16.5297 23.9178 16.5297 23.8549 16.5481C23.6304 16.5803 23.4096 16.5872 23.1834 16.5855C23.1457 16.5854 23.108 16.5853 23.0704 16.5852C22.9724 16.5851 22.8744 16.5846 22.7765 16.584C22.676 16.5835 22.5756 16.5832 22.4752 16.583C22.279 16.5824 22.0828 16.5816 21.8866 16.5805C21.9028 17.0192 21.9301 17.4567 21.9608 17.8947C21.9657 17.9647 21.9705 18.0347 21.9754 18.1047C21.9868 18.27 21.9983 18.4352 22.0098 18.6004C22.0238 18.8005 22.0377 19.0006 22.0516 19.2007C22.0528 19.2185 22.054 19.2364 22.0553 19.2547C22.0764 19.5592 22.0974 19.8636 22.1183 20.1681C22.1308 20.3499 22.1433 20.5317 22.156 20.7136C22.1674 20.877 22.1787 21.0404 22.1897 21.2038C22.1955 21.2889 22.2014 21.3739 22.2074 21.459C22.2139 21.5523 22.2202 21.6456 22.2265 21.739C22.2294 21.7798 22.2294 21.7798 22.2325 21.8214C22.26 22.2455 22.26 22.2455 22.1405 22.395C21.9267 22.6026 21.6679 22.5838 21.3901 22.5829C21.3474 22.5831 21.3047 22.5833 21.262 22.5835C21.1465 22.5839 21.031 22.5839 20.9155 22.5838C20.8189 22.5837 20.7223 22.5838 20.6257 22.584C20.3977 22.5843 20.1697 22.5843 19.9418 22.584C19.7069 22.5837 19.4721 22.5841 19.2373 22.5848C19.0353 22.5853 18.8333 22.5855 18.6314 22.5853C18.5109 22.5853 18.3904 22.5853 18.2699 22.5858C18.1566 22.5861 18.0433 22.586 17.93 22.5856C17.8885 22.5855 17.8471 22.5856 17.8056 22.5858C17.3588 22.5885 17.3588 22.5885 17.2147 22.4711C17.115 22.3527 17.0991 22.2574 17.1051 22.1073C17.1055 22.0873 17.1059 22.0672 17.1064 22.0466C17.1079 21.9849 17.1103 21.9234 17.1131 21.8618C17.1139 21.8438 17.1148 21.8258 17.1156 21.8073C17.1217 21.6835 17.1306 21.5599 17.1399 21.4363C17.1428 21.3961 17.1457 21.3559 17.1485 21.3156C17.1562 21.2077 17.1642 21.0997 17.1721 20.9918C17.1806 20.8773 17.1888 20.7628 17.197 20.6483C17.211 20.4555 17.225 20.2628 17.2391 20.07C17.2588 19.8019 17.2782 19.5337 17.2976 19.2655C17.3342 18.7599 17.3708 18.2543 17.4084 17.7487C17.415 17.6599 17.4215 17.5712 17.428 17.4824C17.4366 17.3661 17.4452 17.2498 17.4539 17.1335C17.4573 17.0892 17.4605 17.0449 17.4638 17.0005C17.4682 16.9395 17.4728 16.8785 17.4774 16.8174C17.4794 16.7901 17.4794 16.7901 17.4814 16.7623C17.4911 16.6371 17.4911 16.6371 17.5194 16.5805C17.4978 16.5806 17.4763 16.5807 17.4541 16.5808C17.2505 16.5819 17.0469 16.5826 16.8433 16.5831C16.7386 16.5834 16.634 16.5838 16.5293 16.5843C16.4283 16.5849 16.3272 16.5852 16.2261 16.5853C16.1876 16.5854 16.1491 16.5856 16.1107 16.5859C16.0566 16.5862 16.0025 16.5863 15.9484 16.5863C15.9177 16.5864 15.887 16.5865 15.8553 16.5866C15.7409 16.5787 15.6363 16.5628 15.5412 16.4954C15.4821 16.4062 15.5012 16.3016 15.5135 16.1996C15.5412 16.0835 15.5789 15.9715 15.6177 15.8587C15.6287 15.8256 15.6397 15.7926 15.6506 15.7596C15.6739 15.6896 15.6974 15.6196 15.7211 15.5498C15.7583 15.4401 15.795 15.3303 15.8315 15.2205C15.8438 15.1836 15.8561 15.1466 15.8684 15.1097C15.8745 15.0914 15.8806 15.0732 15.8868 15.0543C15.9053 14.999 15.9238 14.9438 15.9423 14.8885C16.0458 14.5791 16.1454 14.2685 16.2435 13.9573C16.2713 13.8695 16.2991 13.7816 16.3269 13.6938C16.3333 13.6735 16.3398 13.6532 16.3464 13.6323C16.4074 13.4402 16.4702 13.2487 16.5339 13.0576C16.5428 13.0308 16.5517 13.0041 16.5609 12.9765C16.5838 12.9082 16.6072 12.84 16.6307 12.7719C16.6371 12.7526 16.6434 12.7333 16.6499 12.7134C16.6873 12.6049 16.729 12.5322 16.81 12.4514C17.1426 12.0977 17.3622 11.6908 17.494 11.2231C17.5021 11.1948 17.5103 11.1665 17.5187 11.1373C17.5794 10.8801 17.5737 10.6239 17.5712 10.3613C17.5654 9.70795 17.6393 9.03782 18.1034 8.53167C18.1682 8.46852 18.2362 8.41093 18.3065 8.35394C18.3319 8.33199 18.3319 8.33199 18.3578 8.3096C19.1259 7.66973 20.2653 7.75023 21.0233 8.35394Z" fill="#F26C61"/>
<path d="M5.28807 7.88671C5.31727 7.88653 5.34647 7.88636 5.37655 7.88618C5.47206 7.88572 5.56756 7.88581 5.66308 7.88596C5.71324 7.88587 5.76341 7.88578 5.81358 7.88567C5.97114 7.88531 6.1287 7.88535 6.28626 7.88564C6.44732 7.88593 6.60837 7.88557 6.76943 7.88489C6.90895 7.88432 7.04848 7.88416 7.18801 7.88431C7.27078 7.8844 7.35355 7.8843 7.43633 7.8839C8.05952 7.88132 8.69364 7.92137 9.18761 8.34864C9.31372 8.47818 9.4473 8.63387 9.49617 8.81103C9.49239 8.96928 9.42887 9.07724 9.35017 9.20934C9.12417 9.60382 8.97812 10.0028 8.96296 10.4614C8.96195 10.4821 8.96094 10.5028 8.95989 10.5241C8.93907 11.2787 9.27553 11.9107 9.76545 12.4555C9.79582 12.4874 9.82757 12.5179 9.85957 12.5482C9.94631 12.6414 9.95983 12.7438 9.96371 12.8674C9.96519 12.9116 9.96519 12.9116 9.9667 12.9567C9.96748 12.9889 9.96826 13.0212 9.96907 13.0544C9.96953 13.0713 9.97 13.0881 9.97048 13.1054C9.98798 13.7388 9.98722 14.3735 9.97188 15.0069C9.9707 15.0569 9.96981 15.1069 9.96893 15.1569C9.95992 15.4579 9.90266 15.7262 9.67678 15.9404C9.49824 16.0829 9.31884 16.1342 9.09309 16.141C9.07434 16.1419 9.05558 16.1427 9.03626 16.1436C8.93318 16.148 8.83027 16.1493 8.7271 16.1491C8.70459 16.1491 8.68209 16.149 8.6589 16.149C8.64194 16.149 8.62497 16.149 8.6075 16.1489C8.60763 16.1755 8.60776 16.202 8.60789 16.2294C8.61109 16.8789 8.61427 17.5284 8.61743 18.1779C8.61896 18.4919 8.62049 18.806 8.62204 19.1201C8.62339 19.3942 8.62473 19.6683 8.62606 19.9424C8.62676 20.0873 8.62746 20.2321 8.62818 20.3769C8.62832 20.4047 8.62846 20.4326 8.6286 20.4612C8.62888 20.5163 8.62915 20.5713 8.62943 20.6264C8.63008 20.7566 8.63065 20.8867 8.63098 21.0169C8.6317 21.3097 8.6317 21.3097 8.63646 21.6024C8.63765 21.6532 8.63856 21.7041 8.63946 21.755C8.64054 21.8128 8.6421 21.8706 8.64433 21.9284C8.64708 22.1088 8.6086 22.245 8.50593 22.395C8.32321 22.5702 8.12032 22.5803 7.87783 22.5801C7.83303 22.5804 7.83303 22.5804 7.78732 22.5806C7.70569 22.581 7.62406 22.5812 7.54243 22.5812C7.49133 22.5813 7.44023 22.5814 7.38913 22.5815C7.21057 22.582 7.03201 22.5822 6.85345 22.5822C6.68747 22.5821 6.5215 22.5827 6.35552 22.5835C6.21264 22.5841 6.06976 22.5844 5.92688 22.5844C5.8417 22.5844 5.75655 22.5845 5.67138 22.585C5.57627 22.5855 5.48119 22.5854 5.38608 22.5851C5.35817 22.5854 5.33027 22.5857 5.30152 22.5859C5.11373 22.5844 4.94628 22.5589 4.8028 22.4286C4.50801 22.113 4.59206 21.5915 4.59249 21.1898C4.59246 21.1359 4.59241 21.0819 4.59236 21.028C4.59224 20.8827 4.59229 20.7374 4.59237 20.5921C4.59243 20.4398 4.59237 20.2874 4.59233 20.135C4.59229 19.8795 4.59235 19.624 4.59247 19.3685C4.59261 19.0731 4.59256 18.7776 4.59242 18.4822C4.59231 18.2281 4.59229 17.9741 4.59236 17.72C4.5924 17.5684 4.5924 17.4168 4.59232 17.2653C4.59224 17.123 4.59229 16.9808 4.59244 16.8385C4.59247 16.7863 4.59246 16.7341 4.59241 16.6818C4.59234 16.6107 4.59243 16.5395 4.59255 16.4683C4.5925 16.4476 4.59244 16.4268 4.59238 16.4054C4.59269 16.3155 4.59701 16.2354 4.62117 16.1489C4.58775 16.1495 4.55433 16.1501 4.5199 16.1507C3.82322 16.1596 3.82322 16.1596 3.53403 15.9052C3.33768 15.6971 3.29696 15.4308 3.29746 15.1565C3.2974 15.1332 3.29735 15.1099 3.29729 15.0859C3.29713 15.0078 3.29715 14.9297 3.29717 14.8517C3.29709 14.7957 3.297 14.7397 3.29691 14.6837C3.29668 14.5316 3.29662 14.3795 3.29661 14.2273C3.29659 14.1322 3.29654 14.037 3.29647 13.9419C3.29625 13.6269 3.29613 13.3119 3.29615 12.9969C3.29615 12.98 3.29615 12.963 3.29615 12.9455C3.29615 12.9285 3.29615 12.9115 3.29615 12.894C3.29616 12.6191 3.29592 12.3441 3.29556 12.0692C3.2952 11.7865 3.29503 11.5037 3.29504 11.221C3.29505 11.0624 3.29498 10.9039 3.29471 10.7453C3.29446 10.596 3.29446 10.4467 3.29465 10.2974C3.29467 10.2428 3.29461 10.1882 3.29446 10.1336C3.29275 9.48515 3.37266 8.94248 3.82612 8.44921C4.22198 8.07766 4.75012 7.88441 5.28807 7.88671Z" fill="#F26C61"/>
<path d="M12.8731 9.03887C12.8965 9.05654 12.92 9.07422 12.9442 9.09243C12.9718 9.11619 12.9718 9.11619 13 9.14043C13 9.15719 13 9.17395 13 9.19121C13.0168 9.19121 13.0335 9.19121 13.0508 9.19121C13.0942 9.23237 13.1364 9.27488 13.1777 9.31817C13.2115 9.35208 13.2454 9.38595 13.2793 9.41973C13.2953 9.40097 13.3114 9.38222 13.3279 9.3629C13.7256 8.9078 14.2154 8.57922 14.8345 8.53264C15.3782 8.50486 15.8501 8.69982 16.2706 9.0357C16.6512 9.38365 16.9667 9.91185 16.9944 10.4327C17.0023 10.6821 16.9851 10.9049 16.9095 11.143C16.8855 11.2202 16.8708 11.2949 16.8594 11.3748C16.8426 11.3748 16.8259 11.3748 16.8086 11.3748C16.8019 11.3972 16.7952 11.4195 16.7883 11.4425C16.7087 11.6637 16.5495 11.8543 16.4024 12.035C16.3851 12.0565 16.3851 12.0565 16.3674 12.0785C16.1855 12.3019 16.1855 12.3019 16.0723 12.3397C16.0723 12.3564 16.0723 12.3732 16.0723 12.3904C15.963 12.5115 15.963 12.5115 15.8691 12.5428C15.8691 12.5595 15.8691 12.5763 15.8691 12.5936C15.8104 12.6573 15.7508 12.7139 15.6819 12.7665C15.6034 12.832 15.5417 12.9056 15.4769 12.9843C15.4639 12.9978 15.4509 13.0113 15.4375 13.0252C15.4207 13.0252 15.404 13.0252 15.3867 13.0252C15.3783 13.0503 15.37 13.0755 15.3613 13.1014C15.3446 13.1014 15.3278 13.1014 15.3106 13.1014C15.3106 13.1181 15.3106 13.1349 15.3106 13.1522C15.2013 13.2732 15.2013 13.2732 15.1074 13.3045C15.1074 13.3213 15.1074 13.338 15.1074 13.3553C15.0684 13.3929 15.0684 13.3929 15.0154 13.4362C14.9275 13.5104 14.8542 13.5878 14.7831 13.6781C14.7728 13.6889 14.7625 13.6997 14.752 13.7107C14.7352 13.7107 14.7184 13.7107 14.7012 13.7107C14.6948 13.7254 14.6884 13.7401 14.6818 13.7553C14.6464 13.8195 14.6063 13.8614 14.5536 13.9123C14.5355 13.9299 14.5173 13.9476 14.4986 13.9657C14.4817 13.9821 14.4647 13.9985 14.4473 14.0154C14.4135 14.05 14.4135 14.05 14.379 14.0853C14.3203 14.1424 14.3203 14.1424 14.2584 14.19C14.2042 14.235 14.1648 14.2759 14.1204 14.3296C14.0535 14.4104 13.9808 14.4763 13.8993 14.542C13.8598 14.5731 13.8598 14.5731 13.8379 14.6248C13.8211 14.6248 13.8044 14.6248 13.7871 14.6248C13.7787 14.6499 13.7704 14.6751 13.7617 14.701C13.745 14.701 13.7282 14.701 13.7109 14.701C13.7109 14.7177 13.7109 14.7345 13.7109 14.7518C13.6942 14.7518 13.6774 14.7518 13.6602 14.7518C13.6518 14.7769 13.6434 14.802 13.6348 14.8279C13.5905 14.8725 13.5905 14.8725 13.5364 14.9184C13.5186 14.9336 13.5009 14.9488 13.4826 14.9645C13.3986 15.0323 13.3537 15.0651 13.246 15.0549C13.121 15.0381 13.0608 14.9947 12.9746 14.9041C12.9746 14.8873 12.9746 14.8706 12.9746 14.8533C12.9579 14.8533 12.9411 14.8533 12.9238 14.8533C12.9238 14.8366 12.9238 14.8198 12.9238 14.8025C12.9071 14.8025 12.8903 14.8025 12.8731 14.8025C12.8731 14.7858 12.8731 14.769 12.8731 14.7518C12.8479 14.7434 12.8228 14.735 12.7969 14.7264C12.7969 14.7096 12.7969 14.6929 12.7969 14.6756C12.7717 14.6672 12.7466 14.6588 12.7207 14.6502C12.7207 14.6334 12.7207 14.6167 12.7207 14.5994C12.6987 14.59 12.6987 14.59 12.6763 14.5804C12.6108 14.544 12.5668 14.5033 12.5176 14.4471C12.5176 14.4303 12.5176 14.4136 12.5176 14.3963C12.5008 14.3963 12.4841 14.3963 12.4668 14.3963C12.4668 14.3795 12.4668 14.3628 12.4668 14.3455C12.45 14.3455 12.4333 14.3455 12.416 14.3455C12.416 14.3288 12.416 14.312 12.416 14.2947C12.3657 14.2696 12.3657 14.2696 12.3145 14.2439C12.3145 14.2272 12.3145 14.2104 12.3145 14.1932C12.2925 14.1837 12.2925 14.1837 12.27 14.1741C12.2045 14.1377 12.1606 14.0971 12.1113 14.0408C12.1113 14.0241 12.1113 14.0073 12.1113 13.99C12.0946 13.99 12.0778 13.99 12.0606 13.99C12.0606 13.9733 12.0606 13.9565 12.0606 13.9393C12.0448 13.933 12.0291 13.9267 12.0129 13.9202C11.9487 13.8825 11.9408 13.852 11.9082 13.7869C11.8933 13.7798 11.8784 13.7727 11.8631 13.7654C11.792 13.7285 11.7465 13.6808 11.6908 13.6235C11.6714 13.6036 11.652 13.5837 11.632 13.5633C11.6142 13.5449 11.5964 13.5265 11.5781 13.5076C11.5632 13.4937 11.5483 13.4798 11.533 13.4655C11.502 13.4314 11.502 13.4314 11.502 13.3807C11.48 13.3712 11.48 13.3712 11.4575 13.3616C11.392 13.3252 11.3481 13.2846 11.2988 13.2283C11.2988 13.2116 11.2988 13.1948 11.2988 13.1775C11.2826 13.1707 11.2664 13.1639 11.2496 13.1569C11.1973 13.1268 11.1973 13.1268 11.1719 13.0506C11.1467 13.0422 11.1216 13.0338 11.0957 13.0252C11.0957 13.0084 11.0957 12.9917 11.0957 12.9744C11.079 12.9744 11.0622 12.9744 11.0449 12.9744C11.0449 12.9577 11.0449 12.9409 11.0449 12.9236C11.0198 12.9153 10.9947 12.9069 10.9688 12.8982C10.9259 12.8617 10.9259 12.8617 10.8926 12.8221C10.8926 12.8053 10.8926 12.7886 10.8926 12.7713C10.8591 12.7545 10.8256 12.7378 10.791 12.7205C10.791 12.7038 10.791 12.687 10.791 12.6697C10.7575 12.653 10.724 12.6362 10.6895 12.6189C10.6895 12.6022 10.6895 12.5854 10.6895 12.5682C10.6743 12.5614 10.6592 12.5545 10.6435 12.5475C10.5875 12.5171 10.5534 12.4879 10.51 12.4416C10.4958 12.4264 10.4815 12.4112 10.4668 12.3956C10.4518 12.3792 10.4367 12.3629 10.4213 12.346C10.4056 12.329 10.3899 12.3119 10.3737 12.2944C9.89955 11.7736 9.52218 11.1929 9.55085 10.461C9.60381 9.97069 9.83117 9.55383 10.1563 9.19121C10.1718 9.17328 10.1874 9.15534 10.2034 9.13686C10.3503 8.97772 10.5296 8.86861 10.7149 8.75957C10.7372 8.74638 10.7596 8.73319 10.7826 8.7196C11.4847 8.33818 12.2849 8.5699 12.8731 9.03887Z" fill="#F26C61"/>
<path d="M7.3381 3.04732C7.35067 3.07245 7.35067 3.07245 7.36349 3.0981C7.41411 3.11548 7.46492 3.13234 7.51583 3.14888C7.97759 3.38958 8.34755 3.8199 8.50607 4.31685C8.51408 4.34195 8.5221 4.36706 8.53036 4.39292C8.67524 4.92281 8.55701 5.44913 8.29501 5.92122C8.03876 6.34444 7.61067 6.66703 7.13755 6.81177C7.01787 6.84026 6.89743 6.85686 6.77534 6.87128C6.7048 6.87719 6.7048 6.87719 6.65255 6.90669C6.11992 6.86118 5.61712 6.67456 5.23067 6.29732C5.23067 6.28056 5.23067 6.2638 5.23067 6.24653C5.21392 6.24653 5.19716 6.24653 5.17989 6.24653C4.84563 5.92012 4.67022 5.41506 4.646 4.95608C4.65082 4.39556 4.84736 3.9166 5.23067 3.50435C5.49644 3.25723 5.77347 3.10336 6.11935 2.99653C6.13957 2.99022 6.1598 2.9839 6.18064 2.97739C6.55199 2.88357 6.97772 2.93155 7.3381 3.04732Z" fill="#F26C61"/>
<path d="M20.9221 3.37718C20.9546 3.403 20.9546 3.403 20.9877 3.42934C21.3823 3.76075 21.6188 4.25208 21.6642 4.76215C21.6831 5.32926 21.4622 5.85554 21.0793 6.26633C20.9757 6.37392 20.8677 6.46707 20.7443 6.551C20.7252 6.56423 20.706 6.57745 20.6862 6.59107C20.3662 6.79745 20.0227 6.85793 19.6526 6.90647C19.6526 6.88971 19.6526 6.87296 19.6526 6.85569C19.6294 6.8579 19.6294 6.8579 19.6057 6.86015C19.11 6.88567 18.6945 6.60668 18.3297 6.30354C17.973 5.97702 17.806 5.46256 17.7665 4.99355C17.7507 4.46079 17.949 3.97888 18.2899 3.57524C18.5857 3.26475 18.9496 3.05056 19.3733 2.97093C19.4026 2.96516 19.4319 2.9594 19.4621 2.95347C20.0051 2.90498 20.4961 3.02843 20.9221 3.37718Z" fill="#F26C61"/>
<path d="M8.64318 16.0947C8.68287 16.0949 8.68287 16.0949 8.72337 16.0951C8.75192 16.0952 8.78048 16.0953 8.8099 16.0954C8.83996 16.0956 8.87003 16.0958 8.901 16.096C8.93116 16.0961 8.96132 16.0963 8.9924 16.0964C9.0672 16.0967 9.142 16.0971 9.2168 16.0976C9.2168 16.106 9.2168 16.1144 9.2168 16.123C9.08545 16.15 8.95975 16.1514 8.82642 16.15C8.80531 16.1499 8.78419 16.1497 8.76244 16.1496C8.71077 16.1493 8.6591 16.1489 8.60742 16.1484C8.60755 16.175 8.60768 16.2015 8.60782 16.2289C8.61102 16.8784 8.6142 17.5278 8.61735 18.1773C8.61888 18.4914 8.62041 18.8055 8.62196 19.1196C8.62332 19.3937 8.62466 19.6678 8.62598 19.9419C8.62668 20.0867 8.62739 20.2316 8.62811 20.3764C8.62825 20.4042 8.62839 20.432 8.62853 20.4607C8.6288 20.5157 8.62908 20.5708 8.62936 20.6258C8.63001 20.756 8.63057 20.8862 8.63091 21.0164C8.63162 21.3092 8.63162 21.3092 8.63638 21.6019C8.63757 21.6527 8.63848 21.7036 8.63939 21.7544C8.64047 21.8123 8.64203 21.8701 8.64425 21.9279C8.64701 22.1083 8.60853 22.2444 8.50586 22.3945C8.32313 22.5697 8.12024 22.5798 7.87776 22.5796C7.83295 22.5799 7.83295 22.5799 7.78725 22.5801C7.70561 22.5805 7.62399 22.5807 7.54235 22.5807C7.49125 22.5807 7.44015 22.5809 7.38905 22.581C7.21049 22.5815 7.03194 22.5817 6.85338 22.5816C6.6874 22.5816 6.52143 22.5821 6.35545 22.5829C6.21257 22.5836 6.06969 22.5839 5.9268 22.5838C5.84163 22.5838 5.75647 22.584 5.6713 22.5845C5.5762 22.585 5.48111 22.5849 5.386 22.5846C5.3581 22.5848 5.3302 22.5851 5.30145 22.5854C5.11232 22.5839 4.94518 22.5579 4.80113 22.4264C4.72602 22.3464 4.67872 22.279 4.67188 22.166C4.68601 22.1843 4.70015 22.2026 4.71472 22.2215C4.82681 22.3578 4.92355 22.4698 5.10352 22.496C5.1473 22.4984 5.19116 22.4996 5.23501 22.4998C5.27393 22.5001 5.27393 22.5001 5.31364 22.5003C5.35592 22.5004 5.35592 22.5004 5.39906 22.5005C5.42897 22.5007 5.45887 22.5009 5.48968 22.501C5.58858 22.5015 5.68748 22.5018 5.78638 22.5021C5.82053 22.5022 5.85468 22.5023 5.88882 22.5024C6.04926 22.5029 6.20969 22.5033 6.37012 22.5035C6.55492 22.5037 6.7397 22.5044 6.92449 22.5054C7.06761 22.5062 7.21073 22.5066 7.35385 22.5066C7.43921 22.5067 7.52455 22.5069 7.6099 22.5076C7.7052 22.5082 7.80047 22.5082 7.89577 22.508C7.92381 22.5083 7.95184 22.5086 7.98073 22.509C8.17762 22.5076 8.32268 22.4761 8.4646 22.3342C8.55871 22.1822 8.56383 22.043 8.56258 21.8696C8.5626 21.845 8.56263 21.8204 8.56265 21.7951C8.56268 21.7128 8.56234 21.6305 8.562 21.5482C8.56195 21.4892 8.56191 21.4302 8.5619 21.3712C8.56183 21.2442 8.56159 21.1171 8.56123 20.9901C8.56072 20.8065 8.56049 20.6228 8.56035 20.4391C8.56011 20.1411 8.55967 19.843 8.55908 19.545C8.55904 19.5271 8.55901 19.5093 8.55897 19.4909C8.55893 19.4731 8.5589 19.4552 8.55886 19.4368C8.55836 19.1835 8.55791 18.9301 8.55751 18.6767C8.55749 18.6588 8.55746 18.641 8.55743 18.6226C8.55697 18.3255 8.55662 18.0284 8.55632 17.7313C8.5561 17.5316 8.55575 17.3319 8.55528 17.1323C8.55501 17.0084 8.55484 16.8845 8.5547 16.7607C8.55461 16.703 8.55448 16.6453 8.5543 16.5876C8.55406 16.5093 8.55397 16.4309 8.55393 16.3525C8.55382 16.3294 8.55371 16.3062 8.5536 16.2824C8.55377 16.0989 8.55377 16.0989 8.64318 16.0947Z" fill="#F26C61"/>
<path d="M17.1387 21.7344C17.1471 21.7344 17.1554 21.7344 17.1641 21.7344C17.164 21.7522 17.164 21.77 17.164 21.7883C17.1643 21.8693 17.1658 21.9502 17.1672 22.0311C17.1672 22.0591 17.1671 22.0871 17.167 22.116C17.1666 22.2612 17.1666 22.2612 17.2222 22.3907C17.3397 22.4917 17.446 22.4994 17.5949 22.5001C17.613 22.5002 17.6311 22.5004 17.6497 22.5005C17.7105 22.5009 17.7714 22.5011 17.8322 22.5013C17.8757 22.5016 17.9192 22.5018 17.9628 22.5021C18.0811 22.5028 18.1995 22.5033 18.3178 22.5038C18.4414 22.5044 18.5651 22.505 18.6887 22.5057C18.9228 22.507 19.157 22.5081 19.3911 22.5092C19.6577 22.5105 19.9242 22.5119 20.1908 22.5133C20.7392 22.5162 21.2876 22.5189 21.8359 22.5215C21.8276 22.5382 21.8192 22.555 21.8105 22.5723C21.2451 22.5746 20.6796 22.5764 20.1142 22.5775C19.8516 22.5781 19.589 22.5788 19.3265 22.5799C19.0976 22.5809 18.8687 22.5816 18.6398 22.5818C18.5186 22.582 18.3975 22.5823 18.2763 22.583C18.1622 22.5837 18.048 22.5839 17.9339 22.5838C17.8921 22.5838 17.8503 22.584 17.8085 22.5844C17.3852 22.5881 17.3852 22.5881 17.2148 22.4707C17.1175 22.3679 17.1016 22.2847 17.1031 22.1487C17.1039 22.1288 17.1046 22.1088 17.1053 22.0883C17.1056 22.0682 17.1058 22.0482 17.1061 22.0275C17.108 21.927 17.1144 21.8324 17.1387 21.7344Z" fill="#F26C61"/>
<path d="M7.33795 3.04732C7.35052 3.07245 7.35052 3.07245 7.36334 3.0981C7.41397 3.11548 7.46478 3.13234 7.51568 3.14888C7.96699 3.38414 8.30028 3.7832 8.48797 4.25208C8.50653 4.31905 8.50953 4.37466 8.50592 4.4438C8.46064 4.37588 8.43259 4.31259 8.40299 4.23711C8.19889 3.72839 7.84332 3.36096 7.33955 3.14455C6.86484 2.95366 6.33494 2.97117 5.86053 3.15523C5.65117 3.24815 5.46374 3.36257 5.3067 3.52974C5.28994 3.52974 5.27318 3.52974 5.25592 3.52974C5.24918 3.54453 5.24243 3.55933 5.23549 3.57457C5.20424 3.63298 5.16891 3.67637 5.12579 3.72652C4.76577 4.18295 4.7118 4.6946 4.72271 5.2563C4.58699 5.05272 4.64474 4.73124 4.68538 4.49938C4.79977 3.9669 5.13328 3.54159 5.57152 3.23229C5.74219 3.12233 5.92592 3.05623 6.1192 2.99653C6.13943 2.99022 6.15965 2.9839 6.18049 2.97739C6.55184 2.88357 6.97757 2.93155 7.33795 3.04732Z" fill="#F26C61"/>
<path d="M4.85611 7.94541C4.90324 7.9462 4.90324 7.9462 4.95132 7.947C4.87402 7.99853 4.82649 8.01175 4.73709 8.03111C4.38751 8.11618 4.10996 8.27247 3.85953 8.53098C3.84277 8.53098 3.82601 8.53098 3.80875 8.53098C3.8021 8.54539 3.79546 8.55979 3.78861 8.57462C3.75548 8.63724 3.71641 8.69019 3.67386 8.7468C3.38576 9.15649 3.36571 9.60849 3.36613 10.0904C3.3659 10.1445 3.36564 10.1986 3.36534 10.2527C3.36465 10.3985 3.36441 10.5443 3.36425 10.6901C3.36402 10.8429 3.36335 10.9956 3.36273 11.1484C3.36162 11.4372 3.3609 11.726 3.36031 12.0149C3.35962 12.3439 3.35851 12.6729 3.35736 13.0019C3.355 13.6782 3.35318 14.3546 3.35171 15.031C3.34334 15.031 3.33496 15.031 3.32632 15.031C3.32335 14.3068 3.32112 13.5826 3.31975 12.8585C3.31909 12.5222 3.3182 12.1859 3.31675 11.8496C3.31548 11.5564 3.31466 11.2631 3.31438 10.9699C3.31421 10.8148 3.31383 10.6596 3.3129 10.5045C3.31203 10.3582 3.31177 10.2119 3.31196 10.0655C3.31193 10.0121 3.31168 9.9587 3.31119 9.90529C3.30641 9.35748 3.41104 8.90053 3.79709 8.48779C4.04981 8.23104 4.47854 7.93912 4.85611 7.94541Z" fill="#F26C61"/>
<path d="M9.03906 11.3496C9.12165 11.3909 9.13737 11.4803 9.17078 11.5623C9.29045 11.8447 9.45165 12.0796 9.64844 12.3145C9.66268 12.3315 9.67691 12.3486 9.69158 12.3662C9.74496 12.4294 9.79771 12.4893 9.85791 12.5461C9.94565 12.6402 9.95971 12.7419 9.96364 12.8669C9.96512 12.9111 9.96512 12.9111 9.96663 12.9562C9.9678 13.0046 9.9678 13.0046 9.96899 13.054C9.96946 13.0708 9.96993 13.0876 9.97041 13.105C9.98801 13.742 9.98729 14.3805 9.97041 15.0176C9.96947 15.0529 9.96861 15.0882 9.96782 15.1235C9.96669 15.1716 9.96517 15.2197 9.96364 15.2678C9.96284 15.2946 9.96204 15.3214 9.96122 15.3491C9.95312 15.4121 9.95312 15.4121 9.90234 15.4629C9.90231 15.4488 9.90227 15.4346 9.90223 15.4201C9.90129 15.0761 9.89978 14.7322 9.89767 14.3882C9.89667 14.2219 9.89585 14.0556 9.89546 13.8892C9.89508 13.7287 9.89421 13.5682 9.89299 13.4077C9.89262 13.3465 9.89241 13.2852 9.89239 13.224C9.89233 13.1382 9.89165 13.0524 9.89081 12.9667C9.89094 12.9413 9.89107 12.916 9.8912 12.8899C9.88776 12.6613 9.78823 12.5516 9.63257 12.3922C9.36674 12.1111 9.09095 11.742 9.03906 11.3496Z" fill="#F26C61"/>
<path d="M15.4629 8.63281C15.7584 8.63861 16.0059 8.83043 16.2246 9.01367C16.2454 9.02951 16.2661 9.04535 16.2875 9.06168C16.6346 9.35187 16.9266 9.85958 16.9863 10.3086C17.0087 10.5978 16.9974 10.8662 16.9095 11.1432C16.8855 11.2204 16.8708 11.295 16.8594 11.375C16.8426 11.375 16.8259 11.375 16.8086 11.375C16.802 11.3973 16.7954 11.4195 16.7886 11.4424C16.758 11.5268 16.7213 11.5922 16.6721 11.667C16.6564 11.691 16.6408 11.715 16.6246 11.7397C16.6026 11.7728 16.6026 11.7728 16.5801 11.8066C16.5631 11.8323 16.5631 11.8323 16.5459 11.8585C16.5236 11.8921 16.5011 11.9256 16.4785 11.959C16.4534 11.9506 16.4282 11.9422 16.4023 11.9336C16.4128 11.9215 16.4233 11.9094 16.4341 11.897C16.7596 11.5025 16.9729 10.9783 16.9355 10.4609C16.8549 9.8575 16.5574 9.35147 16.0834 8.96924C15.8935 8.83205 15.6788 8.74625 15.4629 8.6582C15.4629 8.64982 15.4629 8.64145 15.4629 8.63281Z" fill="#F26C61"/>
<path d="M23.1816 13.9141C23.2571 13.9518 23.2616 14.0119 23.2872 14.088C23.2941 14.1093 23.301 14.1306 23.3082 14.1526C23.3156 14.1749 23.323 14.1972 23.3307 14.2202C23.3553 14.2942 23.3795 14.3684 23.4038 14.4425C23.4207 14.4938 23.4377 14.5452 23.4546 14.5965C23.5079 14.7582 23.5606 14.9201 23.6133 15.082C23.6263 15.1219 23.6263 15.1219 23.6396 15.1626C23.6899 15.3171 23.74 15.4716 23.7897 15.6263C23.8053 15.6747 23.8209 15.7231 23.8366 15.7716C23.8586 15.8394 23.8803 15.9073 23.9019 15.9752C23.9083 15.9949 23.9148 16.0147 23.9214 16.0351C24.0189 16.3443 24.0189 16.3443 23.9654 16.4697C23.8881 16.5669 23.8014 16.5588 23.6832 16.5728C23.5194 16.5853 23.356 16.5874 23.1918 16.5868C23.1548 16.5869 23.1179 16.5869 23.081 16.587C23.0044 16.587 22.9278 16.5869 22.8512 16.5867C22.753 16.5864 22.6549 16.5866 22.5567 16.5869C22.4809 16.5871 22.405 16.587 22.3291 16.5869C22.2929 16.5868 22.2566 16.5869 22.2204 16.587C22.1701 16.5871 22.1197 16.5869 22.0694 16.5866C22.0264 16.5866 22.0264 16.5866 21.9827 16.5865C21.9121 16.5801 21.9121 16.5801 21.8359 16.5293C21.8601 16.5291 21.8844 16.529 21.9093 16.5288C22.1376 16.5274 22.3658 16.5255 22.5941 16.5233C22.7114 16.5222 22.8288 16.5212 22.9461 16.5205C23.0594 16.5198 23.1727 16.5188 23.2859 16.5175C23.3291 16.5171 23.3723 16.5168 23.4155 16.5167C23.4761 16.5164 23.5366 16.5157 23.5971 16.5149C23.615 16.5149 23.6328 16.515 23.6511 16.515C23.7603 16.5129 23.8322 16.4966 23.918 16.4277C23.9519 16.2546 23.8711 16.0826 23.8164 15.9199C23.8048 15.8851 23.7932 15.8503 23.7816 15.8155C23.7546 15.7345 23.7276 15.6535 23.7005 15.5725C23.599 15.2686 23.4982 14.9644 23.3986 14.6599C23.3828 14.6116 23.367 14.5633 23.3511 14.5151C23.3276 14.4439 23.3043 14.3726 23.281 14.3014C23.2704 14.2692 23.2704 14.2692 23.2595 14.2365C23.2247 14.1293 23.1964 14.0263 23.1816 13.9141Z" fill="#F26C61"/>
<path d="M21.9375 10.1055C22.0042 10.1721 22.0176 10.2327 22.0471 10.3224C22.0528 10.3396 22.0585 10.3568 22.0644 10.3746C22.0834 10.4322 22.1023 10.4899 22.1211 10.5476C22.1346 10.5887 22.1481 10.6297 22.1617 10.6707C22.1906 10.7584 22.2194 10.8462 22.2482 10.9339C22.2925 11.069 22.3371 11.2039 22.3817 11.3389C22.4579 11.5694 22.534 11.8 22.6099 12.0307C22.6411 12.1253 22.6723 12.2199 22.7035 12.3145C22.7851 12.5619 22.8665 12.8093 22.9476 13.0569C22.9771 13.1469 23.0067 13.237 23.0366 13.3269C23.0633 13.4071 23.0897 13.4873 23.1161 13.5675C23.1234 13.5893 23.1308 13.611 23.1384 13.6334C23.1696 13.7297 23.1869 13.7919 23.1562 13.8887C23.0237 13.5324 22.9083 13.1701 22.7909 12.8086C22.7522 12.6896 22.7135 12.5707 22.6748 12.4517C22.6666 12.4265 22.6584 12.4014 22.65 12.3754C22.5584 12.0941 22.4666 11.8128 22.3747 11.5316C22.3565 11.4758 22.3383 11.4201 22.3201 11.3644C22.2942 11.285 22.2683 11.2057 22.2424 11.1264C22.2341 11.1009 22.2258 11.0755 22.2173 11.0493C22.1731 10.9143 22.1283 10.7796 22.0826 10.6452C22.0731 10.6173 22.0637 10.5894 22.054 10.5606C22.0358 10.5072 22.0176 10.4539 21.9992 10.4006C21.9911 10.3766 21.983 10.3527 21.9747 10.3281C21.9675 10.3071 21.9603 10.2861 21.9529 10.2645C21.9375 10.207 21.9375 10.207 21.9375 10.1055Z" fill="#F26C61"/>
<path d="M20.2363 3.04688C20.5953 3.06319 20.9332 3.34942 21.171 3.60071C21.4798 3.96391 21.6739 4.41459 21.6648 4.89593C21.6563 4.99952 21.6409 5.10109 21.6233 5.20349C21.6201 5.22214 21.6169 5.24078 21.6136 5.25999C21.5968 5.35043 21.5789 5.43044 21.5312 5.50977C21.5003 5.41683 21.516 5.38244 21.5424 5.28918C21.6528 4.83068 21.5731 4.33433 21.33 3.93049C21.0514 3.50394 20.7059 3.25447 20.2363 3.07227C20.2363 3.06389 20.2363 3.05551 20.2363 3.04688Z" fill="#F26C61"/>
<path d="M8.64329 16.0947C8.68298 16.0949 8.68298 16.0949 8.72347 16.0951C8.75203 16.0952 8.78059 16.0953 8.81001 16.0954C8.84007 16.0956 8.87013 16.0958 8.90111 16.096C8.93127 16.0961 8.96143 16.0963 8.9925 16.0964C9.06731 16.0967 9.1421 16.0971 9.2169 16.0976C9.2169 16.106 9.2169 16.1144 9.2169 16.123C9.01637 16.1564 8.81083 16.1484 8.60753 16.1484C8.60753 17.1203 8.60753 18.0923 8.60753 19.0937C8.59915 19.0937 8.59077 19.0937 8.58214 19.0937C8.55425 17.3085 8.55425 17.3085 8.55357 16.5816C8.55351 16.5576 8.55345 16.5337 8.55338 16.509C8.55324 16.443 8.55327 16.3771 8.55338 16.3111C8.55332 16.2921 8.55327 16.273 8.55322 16.2534C8.55394 16.0989 8.55394 16.0989 8.64329 16.0947Z" fill="#F26C61"/>
<path d="M15.4121 8.58248C15.4247 8.60762 15.4247 8.60762 15.4375 8.63326C15.4126 8.63114 15.3877 8.62901 15.362 8.62682C14.7567 8.57922 14.2157 8.64983 13.7395 9.05221C13.5818 9.18947 13.4312 9.3295 13.3047 9.49654C13.2712 9.47979 13.2377 9.46303 13.2031 9.44576C13.2031 9.42063 13.2031 9.39549 13.2031 9.36959C13.2283 9.38635 13.2534 9.40311 13.2793 9.42037C13.2953 9.40162 13.3114 9.38286 13.3279 9.36354C13.722 8.91252 14.2002 8.59139 14.8123 8.53487C15.0132 8.5258 15.2153 8.53967 15.4121 8.58248Z" fill="#F26C61"/>
<path d="M3.35144 15.4629C3.39395 15.5267 3.42406 15.5837 3.45459 15.6533C3.46326 15.673 3.47194 15.6926 3.48087 15.7128C3.49883 15.7557 3.51447 15.7996 3.52917 15.8438C3.57609 15.8713 3.57609 15.8713 3.63074 15.8945C3.68034 15.9259 3.72925 15.9581 3.77812 15.9905C4.05293 16.1431 4.31456 16.0849 4.64636 16.0977C4.64636 16.5501 4.64636 17.0026 4.64636 17.4688C4.63798 17.4688 4.6296 17.4688 4.62097 17.4688C4.6167 17.297 4.61264 17.1253 4.60873 16.9536C4.60737 16.8952 4.60597 16.8368 4.60451 16.7784C4.60243 16.6944 4.60053 16.6105 4.59866 16.5265C4.59797 16.5004 4.59728 16.4743 4.59658 16.4473C4.59607 16.4229 4.59556 16.3985 4.59503 16.3734C4.59452 16.352 4.59401 16.3306 4.59349 16.3085C4.59553 16.2514 4.60491 16.2031 4.62097 16.1484C4.58755 16.149 4.55414 16.1496 4.51971 16.1502C3.80789 16.1593 3.80789 16.1593 3.53294 15.9012C3.43386 15.7911 3.3551 15.6811 3.34668 15.5295C3.34825 15.5075 3.34982 15.4856 3.35144 15.4629Z" fill="#F26C61"/>
<path d="M8.55664 20.7188C8.56502 20.7188 8.5734 20.7188 8.58203 20.7188C8.58203 20.769 8.58203 20.8193 8.58203 20.8711C8.59879 20.8711 8.61555 20.8711 8.63281 20.8711C8.63605 21.0472 8.63826 21.2234 8.63979 21.3995C8.64042 21.4594 8.64129 21.5192 8.64239 21.5791C8.64394 21.6654 8.64465 21.7518 8.64521 21.8381C8.64587 21.8646 8.64652 21.891 8.6472 21.9183C8.64727 22.1018 8.61045 22.2418 8.50586 22.3945C8.38155 22.5143 8.24083 22.5733 8.06787 22.5786C7.97266 22.5723 7.97266 22.5723 7.92188 22.5215C7.93968 22.5208 7.95749 22.5202 7.97583 22.5195C8.17313 22.5077 8.32205 22.4768 8.4646 22.3342C8.57203 22.1607 8.56334 21.9929 8.5616 21.7949C8.56153 21.7641 8.56146 21.7333 8.56138 21.7016C8.5611 21.6036 8.56046 21.5055 8.55981 21.4075C8.55956 21.3409 8.55933 21.2743 8.55912 21.2077C8.55856 21.0447 8.55771 20.8817 8.55664 20.7188Z" fill="#F26C61"/>
<path d="M8.125 7.94678C8.51383 7.92042 8.89317 8.11068 9.18962 8.35244C9.31681 8.47674 9.44829 8.6361 9.49609 8.81006C9.49261 8.97068 9.42592 9.08455 9.34692 9.21949C9.33557 9.23942 9.32421 9.25935 9.31251 9.27989C9.25646 9.37793 9.19919 9.47521 9.14062 9.57178C9.11523 9.49561 9.11523 9.49561 9.13799 9.44437C9.14982 9.42512 9.16166 9.40586 9.17385 9.38601C9.18653 9.36449 9.19922 9.34297 9.21228 9.3208C9.23929 9.27603 9.26653 9.23139 9.29401 9.1869C9.38325 9.03426 9.42576 8.91129 9.39453 8.73389C9.36475 8.66092 9.36475 8.66092 9.31836 8.60694C9.24219 8.5082 9.24219 8.5082 9.24219 8.45459C9.2272 8.44762 9.21221 8.44065 9.19676 8.43347C9.14293 8.40503 9.10173 8.37422 9.05493 8.33557C8.76861 8.12031 8.47164 8.03545 8.125 7.97217C8.125 7.96379 8.125 7.95541 8.125 7.94678Z" fill="#F26C61"/>
<path d="M4.85596 7.94541C4.90309 7.94619 4.90309 7.94619 4.95117 7.94699C4.87387 7.99853 4.82634 8.01175 4.73694 8.0311C4.38736 8.11618 4.10981 8.27246 3.85938 8.53098C3.84262 8.53098 3.82586 8.53098 3.80859 8.53098C3.80195 8.54538 3.79531 8.55978 3.78846 8.57462C3.75533 8.63724 3.71626 8.69019 3.67371 8.7468C3.5009 8.99253 3.43024 9.25374 3.37695 9.5466C3.3602 9.5466 3.34344 9.5466 3.32617 9.5466C3.32819 9.12686 3.54939 8.74941 3.82605 8.44846C4.07815 8.21183 4.49942 7.93947 4.85596 7.94541Z" fill="#F26C61"/>
<path d="M9.75 11.3496C9.81947 11.3843 9.82949 11.4248 9.86426 11.494C10.1868 12.0948 10.7189 12.5507 11.1973 13.0254C11.1889 13.0421 11.1805 13.0589 11.1719 13.0762C11.1467 13.0594 11.1216 13.0427 11.0957 13.0254C11.0957 13.0086 11.0957 12.9919 11.0957 12.9746C11.0789 12.9746 11.0622 12.9746 11.0449 12.9746C11.0449 12.9579 11.0449 12.9411 11.0449 12.9238C11.0198 12.9154 10.9946 12.9071 10.9688 12.8984C10.9259 12.8619 10.9259 12.8619 10.8926 12.8223C10.8926 12.8055 10.8926 12.7888 10.8926 12.7715C10.8591 12.7547 10.8255 12.738 10.791 12.7207C10.791 12.7039 10.791 12.6872 10.791 12.6699C10.7575 12.6532 10.724 12.6364 10.6895 12.6191C10.6895 12.6024 10.6895 12.5856 10.6895 12.5684C10.6743 12.5615 10.6591 12.5547 10.6435 12.5477C10.5874 12.5173 10.5534 12.4881 10.51 12.4418C10.4886 12.419 10.4886 12.419 10.4668 12.3958C10.4517 12.3794 10.4367 12.3631 10.4213 12.3462C10.3978 12.3207 10.3978 12.3207 10.3738 12.2947C9.75 11.6101 9.75 11.6101 9.75 11.3496Z" fill="#F26C61"/>
<path d="M11.2227 13.0762C11.3884 13.2126 11.5387 13.3635 11.6899 13.5155C11.7175 13.5432 11.7452 13.5709 11.7728 13.5986C11.845 13.6709 11.9172 13.7433 11.9893 13.8157C12.0632 13.8898 12.1371 13.9638 12.211 14.0378C12.3556 14.1827 12.5001 14.3277 12.6445 14.4727C12.5684 14.4727 12.5684 14.4727 12.5176 14.4473C12.5176 14.4305 12.5176 14.4138 12.5176 14.3965C12.5008 14.3965 12.4841 14.3965 12.4668 14.3965C12.4668 14.3797 12.4668 14.363 12.4668 14.3457C12.45 14.3457 12.4333 14.3457 12.416 14.3457C12.416 14.3289 12.416 14.3122 12.416 14.2949C12.3825 14.2782 12.349 14.2614 12.3145 14.2441C12.3145 14.2274 12.3145 14.2106 12.3145 14.1934C12.2998 14.1871 12.2851 14.1808 12.27 14.1743C12.2045 14.1379 12.1606 14.0973 12.1113 14.041C12.1113 14.0243 12.1113 14.0075 12.1113 13.9902C12.0946 13.9902 12.0778 13.9902 12.0605 13.9902C12.0605 13.9735 12.0605 13.9567 12.0605 13.9395C12.0448 13.9332 12.0291 13.9269 12.0129 13.9204C11.9487 13.8826 11.9407 13.8522 11.9082 13.7871C11.8933 13.78 11.8784 13.7729 11.8631 13.7656C11.792 13.7287 11.7465 13.681 11.6908 13.6237C11.6714 13.6038 11.652 13.5839 11.632 13.5635C11.6142 13.5451 11.5964 13.5267 11.5781 13.5078C11.5632 13.4939 11.5483 13.48 11.533 13.4657C11.502 13.4316 11.502 13.4316 11.502 13.3809C11.48 13.3714 11.48 13.3714 11.4575 13.3618C11.392 13.3254 11.3481 13.2848 11.2988 13.2285C11.2988 13.2118 11.2988 13.195 11.2988 13.1777C11.2737 13.1694 11.2486 13.161 11.2227 13.1523C11.2227 13.1272 11.2227 13.1021 11.2227 13.0762Z" fill="#F26C61"/>
<path d="M20.0078 7.92188C20.4618 7.92401 20.8835 8.20493 21.198 8.51221C21.398 8.71572 21.6993 9.0709 21.7121 9.36349C21.711 9.38211 21.71 9.40073 21.709 9.41992C21.6634 9.3516 21.6292 9.28348 21.5944 9.20935C21.4881 8.98523 21.3619 8.7959 21.2012 8.60742C21.1872 8.5906 21.1733 8.57378 21.1589 8.55644C20.8664 8.23388 20.4224 8.04372 20.0078 7.94727C20.0078 7.93889 20.0078 7.93051 20.0078 7.92188Z" fill="#F26C61"/>
<path d="M17.5195 16.4787C17.5195 16.4954 17.5195 16.5122 17.5195 16.5294C16.9162 16.5294 16.313 16.5294 15.6914 16.5294C15.683 16.5127 15.6746 16.4959 15.666 16.4787C15.9002 16.4747 16.1344 16.471 16.3685 16.4674C16.4773 16.4657 16.586 16.464 16.6947 16.4622C16.7996 16.4604 16.9044 16.4588 17.0093 16.4573C17.0494 16.4566 17.0895 16.456 17.1295 16.4553C17.1855 16.4543 17.2415 16.4535 17.2975 16.4527C17.3294 16.4522 17.3613 16.4517 17.3942 16.4512C17.4688 16.4533 17.4688 16.4533 17.5195 16.4787Z" fill="#F26C61"/>
<path d="M11.0195 8.68358C10.9929 8.69618 10.9662 8.70878 10.9387 8.72176C10.7367 8.81888 10.5551 8.91657 10.3848 9.06444C10.3591 9.08381 10.3334 9.10319 10.307 9.12315C9.9961 9.4076 9.74863 9.82252 9.64844 10.2324C9.64006 10.2324 9.63168 10.2324 9.62305 10.2324C9.62305 9.81897 9.95358 9.3972 10.2261 9.10728C10.3731 8.96649 10.54 8.86218 10.7148 8.75975C10.7467 8.74109 10.7467 8.74109 10.7791 8.72206C10.8709 8.67208 10.9201 8.65101 11.0195 8.68358Z" fill="#F26C61"/>
<path d="M19.1699 7.94725C19.1025 7.99217 19.0411 8.0195 18.9658 8.0476C18.4506 8.24069 18.0737 8.58593 17.8363 9.08229C17.794 9.17688 17.756 9.27103 17.7227 9.36913C17.7143 9.36913 17.7059 9.36913 17.6973 9.36913C17.7085 9.206 17.7497 9.0922 17.829 8.95018C17.8394 8.93122 17.8497 8.91225 17.8604 8.89272C17.9819 8.6741 18.1121 8.51135 18.3066 8.3535C18.3236 8.33887 18.3405 8.32424 18.3579 8.30917C18.5687 8.13358 18.8867 7.93059 19.1699 7.94725Z" fill="#F26C61"/>
<path d="M17.875 5.43359C17.9332 5.49177 17.9416 5.5271 17.9655 5.60498C18.137 6.08569 18.5045 6.43991 18.9572 6.65919C19.1157 6.72692 19.2815 6.76664 19.4492 6.80469C19.4492 6.81307 19.4492 6.82145 19.4492 6.83008C19.0366 6.84642 18.6735 6.60588 18.3749 6.3429C18.142 6.12723 17.9683 5.838 17.875 5.53516C17.875 5.50164 17.875 5.46813 17.875 5.43359Z" fill="#F26C61"/>
<path d="M14.168 14.1934C14.1847 14.2017 14.2015 14.2101 14.2188 14.2188C14.1195 14.3377 14.0194 14.446 13.8984 14.5431C13.8597 14.5735 13.8597 14.5735 13.8379 14.625C13.8211 14.625 13.8044 14.625 13.7871 14.625C13.7745 14.6627 13.7745 14.6627 13.7617 14.7012C13.745 14.7012 13.7282 14.7012 13.7109 14.7012C13.7109 14.7179 13.7109 14.7347 13.7109 14.752C13.6942 14.752 13.6774 14.752 13.6602 14.752C13.6476 14.7897 13.6476 14.7897 13.6348 14.8281C13.5905 14.8727 13.5905 14.8727 13.5364 14.9186C13.5186 14.9338 13.5009 14.949 13.4826 14.9647C13.3986 15.0325 13.3537 15.0653 13.246 15.0551C13.121 15.0383 13.0608 14.9949 12.9746 14.9043C12.9746 14.8875 12.9746 14.8708 12.9746 14.8535C12.9579 14.8535 12.9411 14.8535 12.9238 14.8535C12.9238 14.8368 12.9238 14.82 12.9238 14.8027C12.9071 14.8027 12.8903 14.8027 12.873 14.8027C12.873 14.786 12.873 14.7692 12.873 14.752C12.8479 14.7436 12.8228 14.7352 12.7969 14.7266C12.7969 14.7098 12.7969 14.693 12.7969 14.6758C12.7717 14.6674 12.7466 14.659 12.7207 14.6504C12.7032 14.598 12.7032 14.598 12.6953 14.5488C12.8209 14.653 12.9366 14.7631 13.0504 14.8801C13.1186 14.9462 13.1643 14.9781 13.2587 14.9948C13.4971 14.9596 13.7096 14.6547 13.876 14.4869C13.9044 14.4584 13.9328 14.4298 13.9613 14.4013C14.0302 14.3321 14.0991 14.2627 14.168 14.1934Z" fill="#F26C61"/>
<path d="M15.5137 12.8477C15.5137 12.937 15.4958 12.9604 15.4375 13.0254C15.4207 13.0254 15.404 13.0254 15.3867 13.0254C15.3783 13.0505 15.37 13.0757 15.3613 13.1016C15.3446 13.1016 15.3278 13.1016 15.3105 13.1016C15.3105 13.1183 15.3105 13.1351 15.3105 13.1523C15.2013 13.2734 15.2013 13.2734 15.1074 13.3047C15.1074 13.3214 15.1074 13.3382 15.1074 13.3555C15.0683 13.3931 15.0683 13.3931 15.0154 13.4364C14.9275 13.5106 14.8541 13.588 14.7831 13.6783C14.7677 13.6945 14.7677 13.6945 14.752 13.7109C14.7352 13.7109 14.7184 13.7109 14.7012 13.7109C14.6948 13.7256 14.6884 13.7403 14.6818 13.7555C14.6464 13.8197 14.6063 13.8616 14.5536 13.9125C14.4935 13.9707 14.4345 14.0291 14.3774 14.0902C14.3192 14.1436 14.2933 14.1531 14.2188 14.168C14.3489 14.0105 14.4911 13.8669 14.6359 13.7229C14.6613 13.6976 14.6867 13.6722 14.7121 13.6468C14.7784 13.5806 14.8448 13.5145 14.9112 13.4484C14.9792 13.3807 15.0471 13.3129 15.115 13.2451C15.2478 13.1126 15.3807 12.9801 15.5137 12.8477Z" fill="#F26C61"/>
<path d="M16.0723 14.5488C16.1088 14.663 16.0708 14.7441 16.0294 14.8519C16.015 14.8912 16.0005 14.9304 15.9862 14.9697C15.9791 14.9889 15.972 15.0082 15.9647 15.028C15.9395 15.0983 15.9175 15.1692 15.8961 15.2407C15.8448 15.4118 15.7879 15.581 15.7307 15.7502C15.6864 15.8819 15.6454 16.0139 15.6084 16.1479C15.5898 16.1992 15.5898 16.1992 15.5391 16.25C15.5534 16.0587 15.6112 15.8871 15.6716 15.7058C15.6823 15.6731 15.693 15.6405 15.7037 15.6078C15.7261 15.5397 15.7485 15.4717 15.7711 15.4038C15.8 15.3165 15.8288 15.2292 15.8574 15.1418C15.8795 15.0746 15.9016 15.0073 15.9238 14.9401C15.9396 14.8922 15.9553 14.8443 15.9711 14.7964C15.9807 14.7676 15.9902 14.7388 16.0001 14.7091C16.0085 14.6836 16.017 14.6581 16.0257 14.6318C16.0469 14.5742 16.0469 14.5742 16.0723 14.5488Z" fill="#F26C61"/>
<path d="M17.672 9.39453C17.6804 9.39453 17.6888 9.39453 17.6974 9.39453C17.7006 9.56274 17.7006 9.56274 17.672 9.64844C17.6694 9.6875 17.6681 9.72667 17.6676 9.76583C17.6673 9.78955 17.6669 9.81327 17.6666 9.83771C17.6663 9.86326 17.6661 9.88881 17.6658 9.91514C17.6649 9.96904 17.6641 10.0229 17.6633 10.0769C17.662 10.162 17.6609 10.2471 17.6599 10.3323C17.6589 10.4144 17.6576 10.4964 17.6563 10.5785C17.656 10.6041 17.6558 10.6297 17.6556 10.6561C17.6552 10.6797 17.6548 10.7033 17.6543 10.7277C17.6541 10.7486 17.6538 10.7694 17.6535 10.7909C17.6466 10.8418 17.6466 10.8418 17.5959 10.8926C17.5442 9.67403 17.5442 9.67403 17.672 9.39453Z" fill="#F26C61"/>
<path d="M17.4435 11.4512C17.4798 11.5599 17.4319 11.6276 17.3848 11.7257C17.3756 11.7449 17.3665 11.7641 17.357 11.7839C17.2211 12.0591 17.041 12.2874 16.832 12.5108C16.7634 12.592 16.7233 12.674 16.6818 12.7715C16.6522 12.6837 16.6548 12.6733 16.6977 12.5826C16.7501 12.498 16.8136 12.4349 16.8849 12.3652C17.1036 12.1192 17.2906 11.8323 17.4015 11.5212C17.4181 11.4766 17.4181 11.4766 17.4435 11.4512Z" fill="#F26C61"/>
<path d="M15.5136 16.2754C15.5193 16.2895 15.5251 16.3037 15.531 16.3182C15.5754 16.3965 15.622 16.446 15.6913 16.5039C15.7776 16.5231 15.7776 16.5231 15.8735 16.5206C15.8914 16.5209 15.9092 16.5212 15.9276 16.5215C15.9863 16.5222 16.0449 16.522 16.1036 16.5219C16.1444 16.5222 16.1852 16.5226 16.226 16.523C16.3332 16.524 16.4403 16.5243 16.5475 16.5244C16.6569 16.5246 16.7663 16.5256 16.8758 16.5265C17.0903 16.5281 17.3049 16.529 17.5194 16.5293C17.5194 16.5377 17.5194 16.5461 17.5194 16.5547C17.2941 16.5592 17.0687 16.5634 16.8434 16.5673C16.7387 16.569 16.634 16.5709 16.5294 16.5731C16.4283 16.5751 16.3272 16.5769 16.2261 16.5785C16.1877 16.5791 16.1492 16.5799 16.1107 16.5807C16.0566 16.5819 16.0026 16.5828 15.9485 16.5835C15.9024 16.5844 15.9024 16.5844 15.8554 16.5852C15.7428 16.5786 15.6376 16.5586 15.5405 16.4991C15.498 16.4265 15.5089 16.3574 15.5136 16.2754Z" fill="#F26C61"/>
<path d="M19.4238 2.99586C19.3525 3.04339 19.2936 3.06429 19.212 3.08717C18.8849 3.17952 18.6409 3.33335 18.3979 3.56834C18.344 3.61927 18.2908 3.66409 18.2305 3.7068C18.3189 3.43781 18.6484 3.25081 18.8906 3.12282C19.067 3.04049 19.2278 2.98818 19.4238 2.99586Z" fill="#F26C61"/>
<path d="M5.23047 6.24609C5.32148 6.28567 5.38746 6.34159 5.46216 6.40637C5.73247 6.63008 6.05425 6.74795 6.39844 6.80469C6.39844 6.81307 6.39844 6.82145 6.39844 6.83008C6.00996 6.85166 5.64549 6.64378 5.35742 6.39844C5.31893 6.36937 5.31893 6.36937 5.27966 6.33972C5.26343 6.32558 5.24719 6.31144 5.23047 6.29688C5.23047 6.28012 5.23047 6.26336 5.23047 6.24609Z" fill="#F26C61"/>
<path d="M12.0859 8.63281C12.2234 8.64534 12.3282 8.68155 12.4493 8.74866C12.4658 8.75762 12.4824 8.76657 12.4994 8.7758C12.6452 8.85723 12.7719 8.95572 12.8984 9.06445C12.927 9.08463 12.927 9.08463 12.9561 9.10522C12.9778 9.12274 12.9778 9.12274 13 9.14062C13 9.15738 13 9.17414 13 9.19141C13.0168 9.19141 13.0335 9.19141 13.0508 9.19141C13.0861 9.24121 13.12 9.292 13.1523 9.34375C13.0719 9.30863 13.0237 9.26885 12.9651 9.2041C12.7517 8.98593 12.4968 8.81978 12.2129 8.70898C12.1894 8.69956 12.1658 8.69013 12.1416 8.68042C12.1232 8.67309 12.1049 8.66576 12.0859 8.6582C12.0859 8.64982 12.0859 8.64145 12.0859 8.63281Z" fill="#F26C61"/>
<path d="M4.72245 5.28125C4.77183 5.35532 4.79003 5.40786 4.81449 5.49231C4.90146 5.76005 5.0522 6.00352 5.23026 6.2207C5.20512 6.23327 5.20512 6.23327 5.17948 6.24609C4.95718 6.00015 4.706 5.62659 4.72245 5.28125Z" fill="#F26C61"/>
<path d="M8.50586 5.20508C8.51424 5.20508 8.52262 5.20508 8.53125 5.20508C8.57122 5.5488 8.31446 5.92107 8.1127 6.18053C8.09365 6.20042 8.09365 6.20042 8.07422 6.2207C8.05746 6.2207 8.0407 6.2207 8.02344 6.2207C8.06014 6.14153 8.10489 6.07495 8.15674 6.00488C8.33279 5.75453 8.4319 5.49919 8.50586 5.20508Z" fill="#F26C61"/>
<path d="M21.0996 8.48047C21.3622 8.59165 21.5073 8.90101 21.6328 9.14062C21.6472 9.16779 21.6615 9.19496 21.6764 9.22295C21.7103 9.2958 21.716 9.3407 21.709 9.41992C21.6634 9.35159 21.6292 9.28346 21.5944 9.20934C21.4877 8.98443 21.36 8.79891 21.2012 8.60742C21.1673 8.56515 21.1334 8.52285 21.0996 8.48047Z" fill="#F26C61"/>
<path d="M8.64322 16.0947C8.68291 16.0949 8.68291 16.0949 8.7234 16.0951C8.75196 16.0952 8.78052 16.0953 8.80994 16.0954C8.84 16.0956 8.87007 16.0958 8.90104 16.096C8.9312 16.0961 8.96136 16.0963 8.99244 16.0964C9.06724 16.0967 9.14204 16.0971 9.21684 16.0976C9.21684 16.106 9.21684 16.1144 9.21684 16.123C9.08548 16.15 8.95979 16.1514 8.82645 16.15C8.80534 16.1499 8.78423 16.1497 8.76248 16.1496C8.71081 16.1493 8.65913 16.1489 8.60746 16.1484C8.60746 16.2322 8.60746 16.316 8.60746 16.4023C8.58232 16.4149 8.58232 16.4149 8.55668 16.4277C8.556 16.3774 8.5555 16.3272 8.55509 16.2769C8.5548 16.2489 8.5545 16.221 8.5542 16.1921C8.55755 16.0988 8.55755 16.0988 8.64322 16.0947Z" fill="#F26C61"/>
<path d="M4.67188 22.166C4.68601 22.1843 4.70015 22.2027 4.71472 22.2216C4.82694 22.358 4.92357 22.4697 5.10352 22.4961C5.1697 22.5016 5.2356 22.5065 5.30188 22.5104C5.32827 22.512 5.32827 22.512 5.35519 22.5137C5.39825 22.5164 5.44131 22.5189 5.48438 22.5215C5.48438 22.5299 5.48438 22.5382 5.48438 22.5469C5.25378 22.5861 5.05462 22.6022 4.84961 22.4707C4.76506 22.3959 4.70746 22.3272 4.67505 22.2184C4.674 22.2011 4.67295 22.1838 4.67188 22.166Z" fill="#F26C61"/>
<path d="M3.35154 15.4629C3.39405 15.5267 3.42416 15.5837 3.45469 15.6533C3.46336 15.673 3.47203 15.6926 3.48097 15.7128C3.49893 15.7557 3.51456 15.7996 3.52927 15.8438C3.57618 15.8713 3.57618 15.8713 3.63083 15.8945C3.66383 15.9154 3.69663 15.9365 3.72922 15.958C3.81221 16.0107 3.89093 16.046 3.9863 16.0723C3.9863 16.089 3.9863 16.1058 3.9863 16.123C3.74381 16.079 3.57471 15.9675 3.43257 15.7658C3.3661 15.6581 3.34569 15.5916 3.35154 15.4629Z" fill="#F26C61"/>
<path d="M16.6309 12.7969C16.6476 12.8053 16.6644 12.8136 16.6816 12.8223C16.4904 13.4315 16.4904 13.4315 16.4023 13.6602C16.394 13.6602 16.3856 13.6602 16.377 13.6602C16.3901 13.4665 16.453 13.296 16.5182 13.1143C16.529 13.0837 16.5398 13.0531 16.5509 13.0216C16.5774 12.9466 16.604 12.8717 16.6309 12.7969Z" fill="#F26C61"/>
<path d="M16.3518 13.6855C16.3885 13.7829 16.3646 13.8475 16.3327 13.9442C16.3232 13.9734 16.3137 14.0027 16.3039 14.0328C16.2945 14.0606 16.2852 14.0885 16.2756 14.1172C16.2686 14.139 16.2616 14.1608 16.2545 14.1833C16.2169 14.2999 16.1732 14.4116 16.1232 14.5234C16.0849 14.4241 16.1121 14.356 16.1445 14.2573C16.1599 14.2099 16.1599 14.2099 16.1756 14.1615C16.1811 14.1451 16.1865 14.1287 16.1922 14.1119C16.2089 14.0616 16.2253 14.0113 16.2417 13.9609C16.3223 13.715 16.3223 13.715 16.3518 13.6855Z" fill="#F26C61"/>
<path d="M20.1855 2.9958C20.1939 3.01256 20.2023 3.02932 20.2109 3.04658C20.0769 3.04658 19.9428 3.04658 19.8047 3.04658C19.8047 3.0382 19.8047 3.02982 19.8047 3.02119C19.6287 3.00862 19.6287 3.00862 19.4492 2.9958C19.6644 2.88822 19.9577 2.93857 20.1855 2.9958Z" fill="#F26C61"/>
<path d="M13.7871 8.96289C13.7521 9.04405 13.7144 9.08868 13.6459 9.1438C13.5196 9.25014 13.4128 9.37171 13.3047 9.49609C13.2712 9.47934 13.2377 9.46258 13.2031 9.44531C13.2031 9.42018 13.2031 9.39504 13.2031 9.36914C13.2408 9.39428 13.2408 9.39428 13.2793 9.41992C13.2974 9.39969 13.3155 9.37947 13.3341 9.35863C13.6908 8.96289 13.6908 8.96289 13.7871 8.96289Z" fill="#F26C61"/>
<path d="M16.0723 12.2891C16.0806 12.3058 16.089 12.3226 16.0977 12.3398C16.0693 12.3738 16.0407 12.4077 16.012 12.4414C15.9881 12.4697 15.9881 12.4697 15.9638 12.4985C15.9493 12.5132 15.9348 12.5279 15.9199 12.543C15.9032 12.543 15.8864 12.543 15.8691 12.543C15.8691 12.5597 15.8691 12.5765 15.8691 12.5938C15.7831 12.6874 15.6882 12.7676 15.5898 12.8477C15.5898 12.7715 15.5898 12.7715 15.6341 12.7186C15.6543 12.6987 15.6746 12.6789 15.6954 12.6585C15.728 12.6262 15.728 12.6262 15.7613 12.5933C15.7843 12.5709 15.8073 12.5486 15.8311 12.5255C15.8541 12.5028 15.8771 12.4802 15.9008 12.4568C15.9578 12.4007 16.0149 12.3448 16.0723 12.2891Z" fill="#F26C61"/>
<path d="M17.1386 21.7344C17.147 21.7344 17.1554 21.7344 17.164 21.7344C17.1645 21.7526 17.165 21.7708 17.1656 21.7895C17.168 21.8716 17.1708 21.9538 17.1736 22.0359C17.1747 22.0788 17.1747 22.0788 17.1759 22.1227C17.1769 22.15 17.1779 22.1773 17.1789 22.2055C17.1797 22.2308 17.1805 22.256 17.1813 22.282C17.1836 22.3483 17.1836 22.3483 17.2402 22.3945C17.2318 22.4197 17.2234 22.4448 17.2148 22.4707C17.1104 22.3424 17.0993 22.251 17.1053 22.0883C17.1056 22.0682 17.1058 22.0482 17.1061 22.0275C17.108 21.927 17.1144 21.8324 17.1386 21.7344Z" fill="#F26C61"/>
<path d="M14.7012 13.7109C14.6647 13.795 14.6193 13.849 14.5536 13.9125C14.4935 13.9707 14.4345 14.0291 14.3774 14.0902C14.3192 14.1436 14.2933 14.1531 14.2188 14.168C14.3131 14.0532 14.4127 13.9452 14.5171 13.8395C14.5294 13.8269 14.5417 13.8143 14.5543 13.8013C14.6444 13.7109 14.6444 13.7109 14.7012 13.7109Z" fill="#F26C61"/>
<path d="M22.1914 21.8867C22.1998 21.8867 22.2082 21.8867 22.2168 21.8867C22.2434 22.0611 22.263 22.2142 22.166 22.3691C22.0977 22.4497 22.0321 22.4917 21.928 22.5167C21.895 22.5191 21.895 22.5191 21.8613 22.5215C21.9375 22.4707 21.9375 22.4707 22.0137 22.4279C22.1033 22.3588 22.1405 22.2992 22.166 22.1914C22.179 22.09 22.1865 21.9888 22.1914 21.8867Z" fill="#F26C61"/>
<path d="M8.55664 20.7188C8.56502 20.7188 8.5734 20.7188 8.58203 20.7188C8.58203 20.769 8.58203 20.8193 8.58203 20.8711C8.59879 20.8711 8.61555 20.8711 8.63281 20.8711C8.63281 20.9465 8.63281 21.0219 8.63281 21.0996C8.62443 21.0996 8.61605 21.0996 8.60742 21.0996C8.59904 21.175 8.59066 21.2504 8.58203 21.3281C8.57365 21.3281 8.56527 21.3281 8.55664 21.3281C8.55664 21.127 8.55664 20.9259 8.55664 20.7188Z" fill="#F26C61"/>
<path d="M12.7207 8.96289C12.8375 9.00069 12.9112 9.05801 13 9.14062C13 9.15738 13 9.17414 13 9.19141C13.0168 9.19141 13.0335 9.19141 13.0508 9.19141C13.0861 9.24121 13.12 9.292 13.1523 9.34375C13.0683 9.30725 13.0142 9.26187 12.9508 9.19617C12.9333 9.1782 12.9158 9.16023 12.8977 9.14172C12.8812 9.1246 12.8647 9.10748 12.8477 9.08984C12.8223 9.06439 12.7969 9.03899 12.7715 9.01367C12.7547 8.99691 12.738 8.98016 12.7207 8.96289Z" fill="#F26C61"/>
<path d="M18.2305 8.48047C18.2305 8.58705 18.1719 8.64184 18.1083 8.72168C18.0968 8.73644 18.0853 8.7512 18.0735 8.76641C18.0192 8.83569 17.9649 8.90286 17.9004 8.96289C17.9328 8.84793 17.9749 8.77044 18.0511 8.67883C18.0774 8.64687 18.0774 8.64687 18.1042 8.61427C18.1448 8.56757 18.1859 8.52334 18.2305 8.48047Z" fill="#F26C61"/>
<path d="M8.30273 5.78906C8.31949 5.79744 8.33625 5.80582 8.35352 5.81445C8.32611 5.85842 8.29857 5.90231 8.271 5.94617C8.24802 5.98284 8.24802 5.98284 8.22458 6.02026C8.17769 6.09088 8.1304 6.1572 8.07422 6.2207C8.05746 6.2207 8.0407 6.2207 8.02344 6.2207C8.06207 6.13746 8.10991 6.0653 8.16309 5.9906C8.21046 5.92386 8.25733 5.85717 8.30273 5.78906Z" fill="#F26C61"/>
<path d="M20.7949 3.32617C20.9037 3.33835 20.9668 3.4079 21.0425 3.4801C21.0553 3.4921 21.0682 3.50409 21.0815 3.51645C21.1131 3.54596 21.1444 3.57569 21.1758 3.60547C21.159 3.62223 21.1423 3.63898 21.125 3.65625C21.1082 3.63897 21.0915 3.62169 21.0742 3.60388C20.9983 3.52754 20.9169 3.45816 20.8349 3.38846C20.8217 3.37628 20.8085 3.36411 20.7949 3.35156C20.7949 3.34318 20.7949 3.3348 20.7949 3.32617Z" fill="#F26C61"/>
<path d="M3.37708 15.3359C3.38546 15.3695 3.39384 15.403 3.40247 15.4375C3.41923 15.4375 3.43599 15.4375 3.45326 15.4375C3.45663 15.4547 3.46 15.4718 3.46347 15.4895C3.46796 15.5121 3.47244 15.5348 3.47706 15.5581C3.48148 15.5805 3.4859 15.6029 3.49045 15.6259C3.5021 15.6821 3.51504 15.7375 3.52943 15.793C3.43051 15.727 3.40503 15.6505 3.37708 15.5391C3.37145 15.4698 3.37335 15.4056 3.37708 15.3359Z" fill="#F26C61"/>
<path d="M15.5138 16.2754C15.5196 16.2895 15.5253 16.3037 15.5313 16.3182C15.5939 16.4285 15.6658 16.5022 15.7884 16.5372C15.8284 16.5459 15.8284 16.5459 15.8693 16.5547C15.7673 16.5955 15.69 16.5657 15.59 16.5293C15.5408 16.4991 15.5408 16.4991 15.5138 16.4531C15.5091 16.3595 15.5091 16.3595 15.5138 16.2754Z" fill="#F26C61"/>
<path d="M10.8672 12.7207C10.983 12.8173 11.0919 12.9175 11.1973 13.0254C11.1889 13.0421 11.1805 13.0589 11.1719 13.0762C11.1467 13.0594 11.1216 13.0427 11.0957 13.0254C11.0957 13.0086 11.0957 12.9919 11.0957 12.9746C11.0789 12.9746 11.0622 12.9746 11.0449 12.9746C11.0449 12.9579 11.0449 12.9411 11.0449 12.9238C11.0198 12.9154 10.9946 12.9071 10.9688 12.8984C10.8672 12.7853 10.8672 12.7853 10.8672 12.7207Z" fill="#F26C61"/>
<path d="M20.1855 2.99564C20.1939 3.0124 20.2023 3.02916 20.2109 3.04642C20.0769 3.04642 19.9428 3.04642 19.8047 3.04642C19.8301 2.99564 19.8301 2.99564 19.8809 2.97819C19.9833 2.96751 20.085 2.97175 20.1855 2.99564Z" fill="#F26C61"/>
<path d="M18.2305 6.14453C18.312 6.17962 18.3587 6.21878 18.4146 6.28735C18.4344 6.31141 18.4344 6.31141 18.4546 6.33595C18.4693 6.35431 18.4693 6.35431 18.4844 6.37305C18.4082 6.37305 18.4082 6.37305 18.3619 6.33595C18.3463 6.31992 18.3307 6.30388 18.3146 6.28735C18.2988 6.27145 18.283 6.25554 18.2667 6.23915C18.2305 6.19531 18.2305 6.19531 18.2305 6.14453Z" fill="#F26C61"/>
<path d="M17.7734 9.06445C17.7902 9.08121 17.807 9.09797 17.8242 9.11523C17.7907 9.19902 17.7572 9.28281 17.7227 9.36914C17.7143 9.36914 17.7059 9.36914 17.6973 9.36914C17.719 9.15151 17.719 9.15151 17.7734 9.06445Z" fill="#F26C61"/>
<path d="M6.42383 6.83008C6.55789 6.83008 6.69195 6.83008 6.83008 6.83008C6.83008 6.83846 6.83008 6.84684 6.83008 6.85547C6.67856 6.9135 6.57815 6.90096 6.42383 6.85547C6.42383 6.84709 6.42383 6.83871 6.42383 6.83008Z" fill="#F26C61"/>
<path d="M11.502 13.3555C11.5306 13.3792 11.5592 13.403 11.5876 13.4269C11.6036 13.4401 11.6195 13.4534 11.6358 13.467C11.6797 13.5078 11.6797 13.5078 11.7305 13.584C11.6225 13.572 11.5705 13.5116 11.502 13.4316C11.502 13.4065 11.502 13.3814 11.502 13.3555Z" fill="#F26C61"/>
<path d="M15.5137 12.8477C15.5137 12.937 15.4958 12.9604 15.4375 13.0254C15.4207 13.0254 15.404 13.0254 15.3867 13.0254C15.3783 13.0505 15.37 13.0757 15.3613 13.1016C15.3446 13.0848 15.3278 13.068 15.3105 13.0508C15.3776 12.9838 15.4446 12.9167 15.5137 12.8477Z" fill="#F26C61"/>
<path d="M17.6719 9.39453C17.6803 9.39453 17.6886 9.39453 17.6973 9.39453C17.7004 9.56274 17.7004 9.56274 17.6719 9.64844C17.6551 9.64844 17.6384 9.64844 17.6211 9.64844C17.6247 9.61087 17.6284 9.57331 17.6322 9.53577C17.6343 9.51485 17.6363 9.49394 17.6385 9.47239C17.6465 9.41992 17.6465 9.41992 17.6719 9.39453Z" fill="#F26C61"/>
<path d="M4.01172 8.35352C4.03686 8.36189 4.06199 8.37027 4.08789 8.37891C4.0041 8.44594 3.92031 8.51297 3.83398 8.58203C3.82561 8.56527 3.81723 8.54852 3.80859 8.53125C3.82535 8.53125 3.84211 8.53125 3.85938 8.53125C3.86775 8.50611 3.87613 8.48098 3.88477 8.45508C3.94507 8.39795 3.94507 8.39795 4.01172 8.35352Z" fill="#F26C61"/>
<path d="M3.91016 8.37891C3.92691 8.39566 3.94367 8.41242 3.96094 8.42969C3.92819 8.46462 3.89424 8.49844 3.85938 8.53125C3.84262 8.53125 3.82586 8.53125 3.80859 8.53125C3.80021 8.55639 3.79184 8.58152 3.7832 8.60742C3.76645 8.59066 3.74969 8.57391 3.73242 8.55664C3.79107 8.49799 3.84973 8.43934 3.91016 8.37891Z" fill="#F26C61"/>
<path d="M14.3965 13.9648C14.3965 14.0641 14.3583 14.0947 14.2949 14.168C14.2698 14.1596 14.2446 14.1512 14.2188 14.1426C14.2774 14.0839 14.3361 14.0253 14.3965 13.9648Z" fill="#F26C61"/>
<path d="M10.2832 9.11523C10.3 9.11523 10.3167 9.11523 10.334 9.11523C10.2974 9.2007 10.2494 9.25515 10.1816 9.31836C10.1649 9.30998 10.1481 9.3016 10.1309 9.29297C10.155 9.2632 10.1794 9.23361 10.2039 9.2041C10.2174 9.18761 10.231 9.17111 10.2449 9.15411C10.2639 9.13487 10.2639 9.13487 10.2832 9.11523Z" fill="#F26C61"/>
<path d="M9.44551 8.73438C9.51068 8.83214 9.49205 8.8762 9.4709 8.98828C9.40572 8.89052 9.42436 8.84646 9.44551 8.73438Z" fill="#F26C61"/>
<path d="M18.3828 3.47852C18.3912 3.50365 18.3996 3.52879 18.4082 3.55469C18.3496 3.60496 18.2909 3.65523 18.2305 3.70703C18.2638 3.60708 18.3046 3.54892 18.3828 3.47852Z" fill="#F26C61"/>
<path d="M9.08984 8.32812C9.1725 8.33698 9.19188 8.35406 9.24854 8.41858C9.2632 8.439 9.27786 8.45943 9.29297 8.48047C9.26783 8.49304 9.26783 8.49304 9.24219 8.50586C9.24219 8.4891 9.24219 8.47234 9.24219 8.45508C9.22648 8.44827 9.21077 8.44146 9.19458 8.43445C9.14062 8.4043 9.14062 8.4043 9.08984 8.32812Z" fill="#F26C61"/>
<path d="M5.81445 6.67735C5.91468 6.6728 5.98198 6.67498 6.06836 6.72813C6.06836 6.74489 6.06836 6.76165 6.06836 6.77892C5.97802 6.76343 5.89868 6.73884 5.81445 6.70274C5.81445 6.69436 5.81445 6.68599 5.81445 6.67735Z" fill="#F26C61"/>
<path d="M16.3262 9.14062C16.356 9.16415 16.3856 9.18802 16.415 9.21204C16.4315 9.22529 16.448 9.23855 16.465 9.2522C16.5039 9.29297 16.5039 9.29297 16.5039 9.36914C16.4275 9.29679 16.3699 9.23622 16.3262 9.14062Z" fill="#F26C61"/>
<path d="M3.25 14.1426C3.25838 14.1426 3.26676 14.1426 3.27539 14.1426C3.27539 14.2096 3.27539 14.2766 3.27539 14.3457C3.26701 14.3457 3.25863 14.3457 3.25 14.3457C3.25 14.2787 3.25 14.2116 3.25 14.1426Z" fill="#F26C61"/>
<path d="M22.1914 16.5801C22.2333 16.5801 22.2752 16.5801 22.3184 16.5801C22.3184 16.5885 22.3184 16.5968 22.3184 16.6055C22.2765 16.6055 22.2346 16.6055 22.1914 16.6055C22.1914 16.5971 22.1914 16.5887 22.1914 16.5801Z" fill="#F26C61"/>
<path d="M3.25 13.6602C3.25838 13.6602 3.26676 13.6602 3.27539 13.6602C3.27539 13.7021 3.27539 13.7439 3.27539 13.7871C3.26701 13.7871 3.25863 13.7871 3.25 13.7871C3.25 13.7452 3.25 13.7033 3.25 13.6602Z" fill="#F26C61"/>
<path d="M3.25 12.2129C3.25838 12.2129 3.26676 12.2129 3.27539 12.2129C3.27539 12.2548 3.27539 12.2967 3.27539 12.3398C3.26701 12.3398 3.25863 12.3398 3.25 12.3398C3.25 12.2979 3.25 12.2561 3.25 12.2129Z" fill="#F26C61"/>
<path d="M16.3262 16.5801C16.3429 16.5968 16.3597 16.6136 16.377 16.6309C16.3518 16.6225 16.3267 16.6141 16.3008 16.6055C16.3092 16.5971 16.3175 16.5887 16.3262 16.5801Z" fill="#F26C61"/>
<path d="M3.25 12.6953C3.27539 12.7969 3.27539 12.7969 3.27539 12.7969L3.25 12.6953Z" fill="#F26C61"/>
<path d="M3.25 11.9844C3.27539 12.0859 3.27539 12.0859 3.27539 12.0859L3.25 11.9844Z" fill="#F26C61"/>
<path d="M23.3848 16.5801C23.4609 16.6055 23.4609 16.6055 23.4609 16.6055L23.3848 16.5801Z" fill="#F26C61"/>
<path d="M22.5469 16.5801C22.623 16.6055 22.623 16.6055 22.623 16.6055L22.5469 16.5801Z" fill="#F26C61"/>
<path d="M16.6816 16.5801C16.7578 16.6055 16.7578 16.6055 16.7578 16.6055L16.6816 16.5801Z" fill="#F26C61"/>
<path d="M11.9082 8.53125C11.9844 8.55664 11.9844 8.55664 11.9844 8.55664L11.9082 8.53125Z" fill="#F26C61"/>
<path d="M4.64648 7.92188C4.72266 7.94727 4.72266 7.94727 4.72266 7.94727L4.64648 7.92188Z" fill="#F26C61"/>
<path d="M23.1562 16.5801C23.207 16.6055 23.207 16.6055 23.207 16.6055L23.1562 16.5801Z" fill="#F26C61"/>
<path d="M16.4531 16.5801C16.5039 16.6055 16.5039 16.6055 16.5039 16.6055L16.4531 16.5801Z" fill="#F26C61"/>
<path d="M16.0723 16.5801C16.123 16.6055 16.123 16.6055 16.123 16.6055L16.0723 16.5801Z" fill="#F26C61"/>
<path d="M15.3613 8.53125C15.4121 8.55664 15.4121 8.55664 15.4121 8.55664L15.3613 8.53125Z" fill="#F26C61"/>
<path d="M8.88672 8.125C8.9375 8.15039 8.9375 8.15039 8.9375 8.15039L8.88672 8.125Z" fill="#F26C61"/>
<path d="M20.2617 7.92188C20.3125 7.94727 20.3125 7.94727 20.3125 7.94727L20.2617 7.92188Z" fill="#F26C61"/>
<path d="M6.85547 6.88086C6.90625 6.90625 6.90625 6.90625 6.90625 6.90625L6.85547 6.88086Z" fill="#F26C61"/>
<path d="M6.70312 6.88086C6.75391 6.90625 6.75391 6.90625 6.75391 6.90625L6.70312 6.88086Z" fill="#F26C61"/>
<path d="M4.95117 6.01758C5.00195 6.04297 5.00195 6.04297 5.00195 6.04297L4.95117 6.01758Z" fill="#F26C61"/>
</svg>
