<svg width="23" height="25" viewBox="0 0 23 25" fill="none" xmlns="http://www.w3.org/2000/svg">
<path d="M21.9934 15.525C22.2896 14.5625 22.4441 13.55 22.4441 12.5C22.4441 11.45 22.2896 10.4375 21.9934 9.475C22.9978 8.725 23.3069 7.35 22.6502 6.25C21.9934 5.15 20.6155 4.7125 19.4437 5.1875C18.0143 3.725 16.147 2.65 14.0609 2.1625C13.8806 0.9375 12.7989 0 11.4983 0C10.1977 0 9.11596 0.9375 8.94855 2.1625C6.84952 2.65 4.99517 3.725 3.5529 5.1875C2.38105 4.7125 1.00316 5.15 0.346412 6.25C-0.310338 7.35 -0.00127952 8.725 1.00316 9.475C0.70698 10.4375 0.552451 11.45 0.552451 12.5C0.552451 13.55 0.70698 14.5625 1.00316 15.525C-0.00127952 16.275 -0.310338 17.65 0.346412 18.75C1.00316 19.85 2.38105 20.2875 3.5529 19.8125C4.06799 20.3375 4.62173 20.8 5.22697 21.2125L3.48851 25H5.90947L7.17146 22.2625C7.73807 22.5 8.33043 22.6875 8.94855 22.8375C9.11596 24.0625 10.1977 25 11.4983 25C12.7989 25 13.8806 24.0625 14.048 22.8375C14.6404 22.7 15.2199 22.5125 15.7736 22.2875L17.0356 25H19.4565L17.731 21.25C18.3491 20.825 18.9286 20.35 19.4565 19.8125C20.6284 20.2875 22.0192 19.85 22.663 18.75C23.3069 17.65 22.9978 16.275 21.9934 15.525ZM13.5072 20.9375C13.0307 20.3625 12.3096 20 11.4983 20C10.687 20 9.95299 20.3625 9.47652 20.9375C8.96143 20.825 8.45921 20.675 7.98274 20.475L9.82421 16.4875C10.3393 16.6875 10.9059 16.8 11.4983 16.8C12.0649 16.8 12.6186 16.7 13.1208 16.5125L14.9494 20.4875C14.4859 20.675 14.0094 20.825 13.5072 20.9375ZM9.54091 12.525C9.54091 11.4875 10.4037 10.65 11.4725 10.65C12.5414 10.65 13.4041 11.4875 13.4041 12.525C13.4041 13.5625 12.5414 14.4 11.4725 14.4C10.4037 14.4 9.54091 13.5625 9.54091 12.525ZM20.1391 15.0125C19.3535 15.1 18.6195 15.525 18.1817 16.25C17.7696 16.95 17.7438 17.75 18.0272 18.4375C17.6666 18.8 17.2803 19.125 16.8682 19.425L14.9366 15.2375C15.5676 14.5 15.941 13.5625 15.941 12.5375C15.941 10.175 13.945 8.275 11.4854 8.275C9.02581 8.275 7.02981 10.1875 7.02981 12.5375C7.02981 13.5375 7.39038 14.4625 7.99562 15.2L6.03825 19.4375C5.63904 19.15 5.2656 18.8375 4.91791 18.4875C5.25272 17.7875 5.22697 16.9625 4.80201 16.25C4.36418 15.5125 3.60441 15.075 2.79313 15.0125C2.50982 14.1625 2.36817 13.2625 2.36817 12.325C2.36817 11.525 2.48407 10.75 2.69011 10.0125C3.54002 9.975 4.36418 9.5375 4.81489 8.7625C5.29135 7.975 5.2656 7.0375 4.82776 6.2875C6.01249 5.0625 7.54491 4.175 9.27048 3.75C9.70832 4.4875 10.5454 5 11.4983 5C12.4512 5 13.2882 4.5 13.7261 3.75C15.4517 4.175 16.9841 5.0875 18.1559 6.3125C17.7438 7.05 17.731 7.975 18.1946 8.75C18.6453 9.5 19.4308 9.9375 20.2549 10C20.461 10.7375 20.5769 11.5125 20.5769 12.325C20.5769 13.2625 20.4224 14.1625 20.1391 15.0125Z" fill="#8ECF82"/>
</svg>
