<svg width="20" height="25" viewBox="0 0 20 25" fill="none" xmlns="http://www.w3.org/2000/svg">
<path d="M2.44675 4.07609C1.44566 2.63478 2.3261 0.877174 3.84566 0L9.78371 10.1511L15.7218 0C17.2413 0.877174 18.1218 2.63478 17.1207 4.07609L11.1044 12.4076L13.6413 16.7462C14.5403 16.2883 15.5771 16.1801 16.5512 16.4424C17.5253 16.7047 18.3676 17.3189 18.915 18.1663C19.4625 19.0137 19.6763 20.0339 19.515 21.0298C19.3537 22.0257 18.8289 22.9263 18.042 23.5576C17.2551 24.1889 16.2621 24.506 15.255 24.4475C14.2478 24.389 13.2982 23.9591 12.5897 23.2409C11.8811 22.5228 11.4641 21.5674 11.4193 20.5596C11.3744 19.5517 11.7049 18.5631 12.3468 17.7848L9.78371 14.2337L7.22066 17.7832C7.86255 18.5614 8.19302 19.5501 8.14815 20.5579C8.10328 21.5658 7.68627 22.5211 6.97776 23.2393C6.26925 23.9575 5.3196 24.3874 4.31246 24.4459C3.30533 24.5044 2.31229 24.1873 1.52539 23.556C0.738502 22.9247 0.213675 22.024 0.0524202 21.0282C-0.108834 20.0323 0.104942 19.012 0.652402 18.1647C1.19986 17.3173 2.04211 16.7031 3.01624 16.4408C3.99036 16.1784 5.02716 16.2867 5.9261 16.7446L8.46306 12.4076L2.44675 4.07609ZM6.52284 20.3804C6.52284 19.7318 6.26517 19.1097 5.80652 18.6511C5.34788 18.1924 4.72581 17.9348 4.07719 17.9348C3.42856 17.9348 2.8065 18.1924 2.34785 18.6511C1.8892 19.1097 1.63153 19.7318 1.63153 20.3804C1.63153 21.0291 1.8892 21.6511 2.34785 22.1098C2.8065 22.5684 3.42856 22.8261 4.07719 22.8261C4.72581 22.8261 5.34788 22.5684 5.80652 22.1098C6.26517 21.6511 6.52284 21.0291 6.52284 20.3804ZM17.9359 20.3804C17.9359 19.7318 17.6782 19.1097 17.2196 18.6511C16.7609 18.1924 16.1389 17.9348 15.4902 17.9348C14.8416 17.9348 14.2195 18.1924 13.7609 18.6511C13.3022 19.1097 13.0446 19.7318 13.0446 20.3804C13.0446 21.0291 13.3022 21.6511 13.7609 22.1098C14.2195 22.5684 14.8416 22.8261 15.4902 22.8261C16.1389 22.8261 16.7609 22.5684 17.2196 22.1098C17.6782 21.6511 17.9359 21.0291 17.9359 20.3804Z" fill="#E7A396"/>
</svg>
