<svg width="46" height="47" viewBox="0 0 46 47" fill="none" xmlns="http://www.w3.org/2000/svg">
<path d="M22.4106 12.467C22.674 12.7678 22.6593 13.0623 22.6408 13.4481C22.6113 13.7158 22.5676 13.981 22.525 14.2468C22.3963 14.8727 22.3963 14.8728 22.5186 15.4576C22.6001 15.5165 22.6762 15.5572 22.7686 15.596C22.8021 15.6105 22.8356 15.6249 22.8702 15.6398C22.9057 15.6549 22.9412 15.6701 22.9777 15.6856C23.4986 15.9161 23.9223 16.1768 24.3029 16.6151C24.3384 16.6555 24.3384 16.6555 24.3745 16.6968C24.4636 16.8404 24.5046 16.9953 24.55 17.1573C24.6656 17.646 24.6656 17.646 24.988 17.992C25.4031 18.2537 25.6309 18.5744 25.7853 19.0477C25.849 19.7288 25.6524 20.2598 25.2463 20.7918C25.2166 20.8373 25.187 20.8827 25.1564 20.9295C25.1268 20.9295 25.0971 20.9295 25.0666 20.9295C25.0535 20.9672 25.0535 20.9672 25.0401 21.0057C24.9495 21.1594 24.8194 21.2552 24.6819 21.3627C24.6536 21.3851 24.6252 21.4076 24.5959 21.4307C24.3885 21.592 24.1797 21.7334 23.9435 21.8475C23.9094 21.8643 23.8753 21.8811 23.8402 21.8984C23.6385 21.994 23.4401 22.0667 23.2248 22.1229C23.2248 22.1532 23.2248 22.1835 23.2248 22.2147C23.1951 22.2298 23.1655 22.245 23.135 22.2606C23.3658 22.3254 23.5968 22.3899 23.8278 22.4542C23.9063 22.476 23.9848 22.498 24.0632 22.52C24.1763 22.5518 24.2895 22.5832 24.4028 22.6147C24.4375 22.6245 24.4722 22.6343 24.508 22.6444C24.7089 22.6999 24.9049 22.7399 25.1115 22.7655C25.1115 22.7958 25.1115 22.8261 25.1115 22.8573C25.1509 22.8658 25.1509 22.8658 25.1912 22.8745C26.1016 23.0979 26.9291 23.6078 27.6271 24.2342C27.6638 24.2661 27.7004 24.298 27.7382 24.3309C29.629 26.0117 31.1205 28.762 31.3023 31.3227C31.3062 31.4383 31.309 31.554 31.3107 31.6698C31.313 31.7362 31.3153 31.8026 31.3176 31.869C31.3499 33.1029 31.0038 34.2271 30.1708 35.1369C29.6867 35.6104 29.1214 35.8656 28.4807 36.0301C28.3999 36.0521 28.3999 36.0521 28.3175 36.0746C26.8746 36.4015 24.8613 36.234 23.5392 35.5711C23.4974 35.5504 23.4555 35.5296 23.4124 35.5082C23.1104 35.3494 22.8511 35.1567 22.5959 34.9286C22.5672 34.9031 22.5386 34.8777 22.509 34.8515C22.0901 34.453 21.7831 33.8796 21.7408 33.2907C21.7465 32.9063 21.8312 32.5283 22.0793 32.2318C22.271 32.0436 22.464 31.9528 22.7307 31.9452C23.2515 31.9926 23.6719 32.3083 24.0931 32.5987C24.7531 33.0485 25.4504 33.403 26.2346 33.5516C26.2963 33.5647 26.2963 33.5647 26.3593 33.5781C26.5668 33.6059 26.7723 33.6063 26.9814 33.6061C27.0252 33.6061 27.069 33.6062 27.1142 33.6062C27.4285 33.6038 27.7246 33.5798 28.0314 33.5057C28.0314 33.4754 28.0314 33.4451 28.0314 33.4139C28.1023 33.4096 28.1023 33.4096 28.1746 33.4053C28.3757 33.3615 28.4412 33.2978 28.5705 33.1385C28.6456 32.985 28.6288 32.8327 28.593 32.6681C28.4832 32.5372 28.3267 32.5209 28.1662 32.4959C27.9969 32.5027 27.9969 32.5027 27.8237 32.5332C27.3556 32.6013 26.8863 32.6171 26.4142 32.6336C26.4142 32.6033 26.4142 32.573 26.4142 32.5418C26.3605 32.539 26.3068 32.5362 26.2514 32.5332C25.496 32.444 24.8251 31.9764 24.1943 31.5756C23.5597 31.1768 22.975 30.9632 22.2255 31.0996C21.7769 31.2427 21.516 31.5623 21.3016 31.9767C20.9499 32.747 20.8575 33.4804 21.0264 34.3061C21.1761 35.0613 21.1761 35.0613 21.0685 35.3875C20.9677 35.5223 20.8577 35.5903 20.7092 35.6629C20.655 35.6895 20.655 35.6895 20.5997 35.7165C20.1685 35.9072 19.7343 35.9576 19.2689 35.99C19.188 35.9957 19.188 35.9957 19.1056 36.0016C18.3396 36.0534 17.6029 36.0278 16.8459 35.8924C16.8459 35.8621 16.8459 35.8318 16.8459 35.8006C16.8153 35.7921 16.7847 35.7836 16.7532 35.7748C16.4517 35.6241 16.2671 35.3781 16.1568 35.0575C16.0634 34.6515 16.0925 34.2753 16.3068 33.9188C16.4475 33.6956 16.6165 33.5081 16.7954 33.3164C17.5979 32.421 17.6735 31.2742 17.6685 30.115C17.6685 30.0762 17.6684 30.0375 17.6683 29.9977C17.6655 29.0787 17.5953 28.179 17.3746 27.2854C17.3449 27.1484 17.3324 27.0356 17.34 26.8963C17.3104 26.8812 17.2807 26.866 17.2502 26.8504C17.2392 26.7667 17.2287 26.6829 17.2203 26.5989C17.2033 26.4682 17.1754 26.3432 17.1451 26.215C17.1335 26.1653 17.1219 26.1155 17.1099 26.0642C17.0862 25.9638 17.062 25.8635 17.0372 25.7634C16.8437 24.9224 16.8369 24.0458 16.811 23.186C16.7843 22.3194 16.733 21.4603 16.6357 20.5989C16.5607 19.9212 16.5236 19.228 16.6297 18.5514C16.6357 18.5115 16.6418 18.4716 16.648 18.4305C16.8117 17.4238 17.3149 16.5667 17.9883 15.8243C18.0647 15.7401 18.1407 15.6556 18.2163 15.5706C18.5641 15.1805 18.9244 14.8041 19.2896 14.431C19.3871 14.3314 19.4841 14.2314 19.5811 14.1314C19.9133 13.7905 20.2464 13.4671 20.6193 13.1727C20.6771 13.1252 20.7349 13.0776 20.7925 13.03C21.8692 12.1543 21.8692 12.1543 22.4106 12.467Z" fill="#F7A978"/>
<path d="M16.8008 21.3428C16.8156 21.3428 16.8304 21.3428 16.8457 21.3428C16.8838 21.5154 16.8999 21.6811 16.9081 21.8578C16.9108 21.9145 16.9135 21.9712 16.9163 22.0297C16.919 22.0913 16.9218 22.153 16.9245 22.2147C16.9274 22.2787 16.9304 22.3426 16.9334 22.4066C16.9395 22.5409 16.9456 22.6751 16.9516 22.8093C16.9592 22.9795 16.967 23.1497 16.975 23.3199C16.9812 23.4522 16.9872 23.5846 16.9932 23.717C16.9974 23.8096 17.0017 23.9023 17.006 23.995C17.023 24.3812 17.0287 24.7657 17.0254 25.1523C16.776 24.6597 16.8386 24.0057 16.8315 23.4629C16.8306 23.4011 16.8296 23.3393 16.8287 23.2775C16.8262 23.1175 16.824 22.9575 16.8218 22.7974C16.8195 22.6331 16.817 22.4687 16.8146 22.3044C16.8098 21.9839 16.8052 21.6633 16.8008 21.3428Z" fill="#F7A978"/>
<path d="M20.125 13.6777C20.1472 13.7459 20.1472 13.7459 20.1699 13.8154C20.1508 13.8322 20.1316 13.849 20.1118 13.8663C19.5985 14.3206 19.1205 14.7935 18.662 15.3052C18.5829 15.3923 18.5011 15.4765 18.418 15.5596C18.3883 15.5444 18.3587 15.5293 18.3281 15.5137C18.3622 15.4799 18.3963 15.4461 18.4315 15.4113C18.4766 15.3661 18.5217 15.3208 18.5668 15.2756C18.5892 15.2534 18.6117 15.2313 18.6348 15.2084C18.7318 15.1106 18.8163 15.0193 18.8852 14.8988C18.9618 14.7713 19.0458 14.6768 19.149 14.571C19.2046 14.514 19.2046 14.514 19.2613 14.4559C19.2999 14.4168 19.3384 14.3778 19.3782 14.3375C19.4164 14.2981 19.4546 14.2587 19.494 14.2181C19.5312 14.1803 19.5683 14.1424 19.6066 14.1034C19.6404 14.069 19.6741 14.0347 19.7088 13.9993C19.8118 13.9061 19.9165 13.8399 20.0352 13.7695C20.0648 13.7392 20.0945 13.7089 20.125 13.6777Z" fill="#F7A978"/>
<path d="M16.6212 19.4609C16.636 19.4609 16.6508 19.4609 16.6661 19.4609C16.6856 19.6438 16.7047 19.8266 16.7237 20.0095C16.7302 20.0715 16.7367 20.1336 16.7433 20.1956C16.7776 20.5179 16.8106 20.8349 16.8009 21.1592C16.6037 20.7868 16.6089 20.3734 16.6156 19.9601C16.616 19.9118 16.6164 19.8635 16.6168 19.8138C16.6179 19.6962 16.6193 19.5786 16.6212 19.4609Z" fill="#F7A978"/>
<path d="M16.7108 18.3594C16.7257 18.3594 16.7405 18.3594 16.7558 18.3594C16.7496 18.5344 16.7429 18.7094 16.7361 18.8843C16.7344 18.9343 16.7326 18.9843 16.7308 19.0357C16.7289 19.0832 16.727 19.1307 16.7251 19.1796C16.7234 19.2236 16.7218 19.2676 16.7201 19.3129C16.7108 19.415 16.7108 19.415 16.6659 19.4609C16.6554 19.5458 16.6474 19.631 16.6407 19.7162C16.6369 19.7627 16.6331 19.8091 16.6293 19.857C16.6252 19.9109 16.6252 19.9109 16.621 19.9658C16.6062 19.9658 16.5914 19.9658 16.5761 19.9658C16.564 18.6595 16.564 18.6595 16.7108 18.3594Z" fill="#F7A978"/>
<path d="M22.1915 32.1289C22.2508 32.1441 22.3101 32.1592 22.3712 32.1748C22.3295 32.207 22.2878 32.2392 22.2448 32.2723C22.0429 32.4446 21.9601 32.6468 21.922 32.9092C21.9168 33.0517 21.9177 33.194 21.9192 33.3366C21.9194 33.375 21.9196 33.4133 21.9198 33.4529C21.9203 33.547 21.9211 33.6412 21.922 33.7354C21.7419 33.4456 21.8059 32.9612 21.8602 32.6338C21.9137 32.4219 22.041 32.2793 22.1915 32.1289Z" fill="#F7A978"/>
<path d="M16.2167 34.2402C16.2579 34.3664 16.261 34.4605 16.2588 34.5959C16.2559 34.7971 16.2979 34.9648 16.3515 35.1582C16.3666 35.2194 16.3817 35.2805 16.3964 35.3418C16.2616 35.2959 16.2616 35.2959 16.1858 35.1467C16.0952 34.8823 16.1157 34.6083 16.1269 34.332C16.1565 34.332 16.1862 34.332 16.2167 34.332C16.2167 34.3017 16.2167 34.2714 16.2167 34.2402Z" fill="#F7A978"/>
<path d="M31.1308 30.752C31.1457 30.752 31.1605 30.752 31.1758 30.752C31.2756 31.2871 31.3315 31.7695 31.2656 32.3125C31.2508 32.3125 31.236 32.3125 31.2207 32.3125C31.2054 32.1299 31.1906 31.9472 31.1758 31.7646C31.1715 31.7133 31.1672 31.6621 31.1628 31.6092C31.1397 31.3223 31.1261 31.0399 31.1308 30.752Z" fill="#F7A978"/>
<path d="M17.5196 16.4775C17.5196 16.629 17.4959 16.6727 17.4213 16.7994C17.3909 16.8515 17.3909 16.8515 17.3599 16.9047C17.3385 16.9408 17.317 16.9768 17.295 17.014C17.2735 17.0506 17.2521 17.0872 17.23 17.1249C17.1771 17.2152 17.1238 17.3054 17.0704 17.3955C17.035 17.291 17.0173 17.234 17.056 17.1286C17.0726 17.101 17.0892 17.0734 17.1063 17.045C17.1243 17.0147 17.1423 16.9845 17.1608 16.9533C17.1801 16.9222 17.1993 16.8911 17.2192 16.8591C17.2473 16.8116 17.2473 16.8116 17.2759 16.7632C17.4166 16.5302 17.4166 16.5302 17.5196 16.4775Z" fill="#F7A978"/>
<path d="M17.3396 26.7129C17.4567 26.8325 17.4661 26.9272 17.5025 27.0916C17.5142 27.1429 17.5259 27.1943 17.5379 27.2472C17.563 27.3941 17.5691 27.528 17.5642 27.6768C17.5494 27.6313 17.5346 27.5859 17.5193 27.5391C17.4897 27.5391 17.46 27.5391 17.4295 27.5391C17.3564 27.2569 17.3306 27.0048 17.3396 26.7129Z" fill="#F7A978"/>
<path d="M16.711 33.4141C16.7406 33.4292 16.7703 33.4444 16.8008 33.46C16.7656 33.5138 16.73 33.5673 16.6941 33.6206C16.6743 33.6504 16.6545 33.6802 16.6341 33.711C16.615 33.7342 16.5959 33.7574 16.5762 33.7812C16.5466 33.7812 16.5169 33.7812 16.4864 33.7812C16.4683 33.8324 16.4683 33.8324 16.4499 33.8845C16.3991 34.0046 16.3422 34.0934 16.2617 34.1943C16.2487 34.052 16.2523 33.9808 16.3258 33.8569C16.3538 33.8225 16.3817 33.788 16.4106 33.7526C16.4382 33.7179 16.4658 33.6832 16.4943 33.6475C16.5639 33.5662 16.6349 33.4891 16.711 33.4141Z" fill="#F7A978"/>
<path d="M25.7852 23.1787C26.1071 23.1937 26.3588 23.3464 26.6387 23.5C26.6387 23.5303 26.6387 23.5606 26.6387 23.5918C26.438 23.5276 26.2506 23.4478 26.0603 23.3566C26.0085 23.3318 25.9568 23.3071 25.9034 23.2816C25.8644 23.2628 25.8254 23.244 25.7852 23.2246C25.7852 23.2095 25.7852 23.1943 25.7852 23.1787Z" fill="#F7A978"/>
<path d="M30.7266 29.0996C30.7414 29.1299 30.7562 29.1602 30.7715 29.1914C30.8011 29.1914 30.8308 29.1914 30.8613 29.1914C30.9644 29.4621 31.0116 29.681 30.9961 29.9717C30.9011 29.8261 30.8604 29.7025 30.8108 29.5356C30.7949 29.4831 30.7791 29.4306 30.7627 29.3764C30.7266 29.2373 30.7266 29.2373 30.7266 29.0996Z" fill="#F7A978"/>
<path d="M18.9121 14.8252C18.9566 14.8403 19.0011 14.8555 19.0469 14.8711C18.8464 15.1108 18.6392 15.3397 18.418 15.5596C18.3883 15.5444 18.3587 15.5293 18.3281 15.5137C18.3628 15.4794 18.3974 15.445 18.4331 15.4097C18.4786 15.364 18.5241 15.3184 18.5696 15.2727C18.5924 15.2502 18.6152 15.2276 18.6387 15.2044C18.7556 15.0865 18.8513 14.9824 18.9121 14.8252Z" fill="#F7A978"/>
<path d="M20.8439 33.9189C20.8588 33.9189 20.8736 33.9189 20.8889 33.9189C20.8889 33.9947 20.8889 34.0704 20.8889 34.1484C20.9185 34.1484 20.9482 34.1484 20.9787 34.1484C21.0237 34.3004 21.0283 34.4376 21.0264 34.5959C21.026 34.6412 21.0256 34.6864 21.0252 34.7329C21.0247 34.7672 21.0242 34.8016 21.0236 34.8369C21.0088 34.8369 20.994 34.8369 20.9787 34.8369C20.9559 34.7356 20.9335 34.6343 20.9113 34.5328C20.8926 34.4482 20.8926 34.4482 20.8734 34.3618C20.8466 34.2094 20.8384 34.0732 20.8439 33.9189Z" fill="#F7A978"/>
<path d="M25.0664 22.7656C25.0812 22.7959 25.0961 22.8262 25.1113 22.8574C25.1961 22.8888 25.1961 22.8888 25.2938 22.9091C25.3268 22.9167 25.3597 22.9244 25.3937 22.9324C25.4191 22.9379 25.4445 22.9435 25.4707 22.9492C25.4707 22.9795 25.4707 23.0098 25.4707 23.041C25.5004 23.0562 25.53 23.0713 25.5605 23.0869C25.3848 23.0553 25.2212 23.0051 25.0524 22.9464C25.0044 22.9297 24.9564 22.9131 24.9069 22.896C24.8524 22.8769 24.8524 22.8769 24.7969 22.8574C24.7969 22.8423 24.7969 22.8271 24.7969 22.8115C24.8858 22.7964 24.9748 22.7812 25.0664 22.7656Z" fill="#F7A978"/>
<path d="M24.3027 16.7988C24.4375 16.8447 24.4375 16.8447 24.5133 16.9853C24.5861 17.1721 24.5825 17.334 24.5723 17.5332C24.5031 17.3962 24.4434 17.2573 24.387 17.1144C24.3711 17.0745 24.3552 17.0346 24.3389 16.9935C24.3027 16.8906 24.3027 16.8906 24.3027 16.7988Z" fill="#F7A978"/>
<path d="M16.9804 17.4414C17.051 17.5857 16.9857 17.6877 16.9383 17.8373C16.9212 17.8918 16.9041 17.9464 16.8865 18.0026C16.873 18.0446 16.8595 18.0866 16.8456 18.1299C16.8308 18.1299 16.816 18.1299 16.8007 18.1299C16.7927 17.8931 16.7955 17.7085 16.8905 17.4873C16.9202 17.4722 16.9498 17.457 16.9804 17.4414Z" fill="#F7A978"/>
<path d="M17.5645 31.9912C17.6146 32.1197 17.611 32.1703 17.5647 32.3032C17.5434 32.3479 17.522 32.3926 17.5 32.4387C17.4787 32.4839 17.4575 32.5291 17.4356 32.5757C17.4188 32.61 17.4021 32.6443 17.3849 32.6797C17.3344 32.528 17.3446 32.4479 17.4045 32.301C17.4174 32.2686 17.4303 32.2362 17.4436 32.2028C17.4539 32.1784 17.4641 32.154 17.4747 32.1289C17.5043 32.1289 17.534 32.1289 17.5645 32.1289C17.5645 32.0835 17.5645 32.038 17.5645 31.9912Z" fill="#F7A978"/>
<path d="M21.5176 12.4844C21.5769 12.4995 21.6362 12.5147 21.6973 12.5303C21.549 12.6363 21.4008 12.7423 21.248 12.8516C21.2184 12.8364 21.1888 12.8213 21.1582 12.8057C21.274 12.6841 21.3791 12.5787 21.5176 12.4844Z" fill="#F7A978"/>
<path d="M17.25 32.7715C17.2648 32.8018 17.2796 32.8321 17.2949 32.8633C17.206 32.9845 17.117 33.1056 17.0254 33.2305C17.0106 33.185 16.9957 33.1396 16.9805 33.0928C17.1273 32.8342 17.1273 32.8342 17.25 32.7715Z" fill="#F7A978"/>
<path d="M24.5723 17.5791C24.6112 17.6302 24.6112 17.6302 24.6509 17.6824C24.7395 17.793 24.831 17.8931 24.9316 17.9922C24.7969 17.9922 24.7969 17.9922 24.6761 17.8889C24.5723 17.7627 24.5723 17.7627 24.5723 17.5791Z" fill="#F7A978"/>
<path d="M22.5059 15.5596C22.7934 15.5822 22.7934 15.5822 22.9298 15.7001C22.9646 15.7442 22.9646 15.7442 23 15.7891C22.9259 15.7685 22.852 15.7473 22.7782 15.726C22.737 15.7142 22.6959 15.7025 22.6534 15.6905C22.5508 15.6514 22.5508 15.6514 22.5059 15.5596Z" fill="#F7A978"/>
<path d="M16.666 20.5166C16.6809 20.5166 16.6957 20.5166 16.711 20.5166C16.7995 20.7428 16.8089 20.9196 16.8008 21.1592C16.6829 20.9183 16.6617 20.7879 16.666 20.5166Z" fill="#F7A978"/>
<path d="M30.4121 28.3193C30.4418 28.3193 30.4714 28.3193 30.502 28.3193C30.5854 28.4632 30.6008 28.566 30.5918 28.7324C30.4794 28.5976 30.4359 28.4947 30.4121 28.3193Z" fill="#F7A978"/>
<path d="M28.2559 24.9688C28.374 25.0386 28.4734 25.0993 28.5703 25.1982C28.5555 25.2437 28.5407 25.2891 28.5254 25.3359C28.4636 25.2767 28.4038 25.2154 28.3457 25.1523C28.3457 25.1221 28.3457 25.0918 28.3457 25.0605C28.3161 25.0605 28.2864 25.0605 28.2559 25.0605C28.2559 25.0303 28.2559 25 28.2559 24.9688Z" fill="#F7A978"/>
<path d="M24.123 22.628C24.4603 22.611 24.4603 22.611 24.5723 22.6968C24.5945 22.7309 24.5945 22.7309 24.6172 22.7657C24.5607 22.76 24.5042 22.7543 24.4459 22.7484C24.3982 22.7437 24.3982 22.7437 24.3496 22.7388C24.2578 22.7198 24.2578 22.7198 24.123 22.628Z" fill="#F7A978"/>
<path d="M29.3789 35.6631C29.2469 35.778 29.1463 35.8224 28.9746 35.8467C28.9894 35.8013 29.0043 35.7558 29.0195 35.709C29.1511 35.6642 29.2422 35.6594 29.3789 35.6631Z" fill="#F7A978"/>
<path d="M16.5312 20.0576C16.5462 20.0576 16.5611 20.0576 16.5765 20.0576C16.5765 20.1939 16.5765 20.3303 16.5765 20.4707C16.5615 20.4707 16.5466 20.4707 16.5312 20.4707C16.5312 20.3344 16.5312 20.1981 16.5312 20.0576Z" fill="#F7A978"/>
<path d="M26.998 32.6338C27.087 32.6338 27.1759 32.6338 27.2676 32.6338C27.2676 32.6491 27.2676 32.6643 27.2676 32.6801C27.1786 32.6801 27.0897 32.6801 26.998 32.6801C26.998 32.6648 26.998 32.6495 26.998 32.6338Z" fill="#F7A978"/>
<path d="M16.7109 22.123C16.7259 22.123 16.7408 22.123 16.7561 22.123C16.7561 22.2139 16.7561 22.3048 16.7561 22.3984C16.7412 22.3984 16.7263 22.3984 16.7109 22.3984C16.7109 22.3076 16.7109 22.2167 16.7109 22.123Z" fill="#F7A978"/>
<path d="M25.9199 36.168C25.9792 36.1831 26.0385 36.1983 26.0996 36.2139C26.0551 36.229 26.0107 36.2442 25.9648 36.2598C25.95 36.2295 25.9352 36.1992 25.9199 36.168Z" fill="#F7A978"/>
<path d="M24.0781 35.8467C24.1374 35.8618 24.1967 35.877 24.2578 35.8926C24.2133 35.9153 24.2133 35.9153 24.168 35.9385C24.1383 35.9082 24.1087 35.8779 24.0781 35.8467Z" fill="#F7A978"/>
<path d="M26.7285 32.6338C26.8026 32.6338 26.8768 32.6338 26.9531 32.6338C26.9531 32.6491 26.9531 32.6643 26.9531 32.6801C26.879 32.6801 26.8049 32.6801 26.7285 32.6801C26.7285 32.6648 26.7285 32.6495 26.7285 32.6338Z" fill="#F7A978"/>
<path d="M17.6094 29.6045C17.6243 29.6045 17.6392 29.6045 17.6546 29.6045C17.6546 29.6802 17.6546 29.756 17.6546 29.834C17.6397 29.834 17.6247 29.834 17.6094 29.834C17.6094 29.7583 17.6094 29.6825 17.6094 29.6045Z" fill="#F7A978"/>
<path d="M17.2949 27.3096C17.3246 27.3096 17.3542 27.3096 17.3848 27.3096C17.3699 27.3702 17.3551 27.4307 17.3398 27.4932C17.325 27.4326 17.3102 27.372 17.2949 27.3096Z" fill="#F7A978"/>
<path d="M26.9531 36.2139C27.1328 36.2601 27.1328 36.2601 27.1328 36.2601L26.9531 36.2139Z" fill="#F7A978"/>
<path d="M25.5156 36.1221C25.6953 36.1683 25.6953 36.1683 25.6953 36.1683L25.5156 36.1221Z" fill="#F7A978"/>
<path d="M19.9004 35.9385C20.0801 35.9847 20.0801 35.9847 20.0801 35.9847L19.9004 35.9385Z" fill="#F7A978"/>
<path d="M22.3262 34.7451C22.3706 34.7604 22.4151 34.7757 22.4609 34.7914C22.4165 34.7914 22.372 34.7914 22.3262 34.7914C22.3262 34.7761 22.3262 34.7608 22.3262 34.7451Z" fill="#F7A978"/>
<path d="M21.9219 34.2861C21.9663 34.2861 22.0108 34.2861 22.0566 34.2861C22.0418 34.3164 22.027 34.3467 22.0117 34.3779C21.9821 34.3476 21.9524 34.3173 21.9219 34.2861Z" fill="#F7A978"/>
<path d="M27.4473 32.5879C27.627 32.6342 27.627 32.6342 27.627 32.6342L27.4473 32.5879Z" fill="#F7A978"/>
<path d="M16.9805 25.749C17.0257 25.9326 17.0257 25.9326 17.0257 25.9326L16.9805 25.749Z" fill="#F7A978"/>
<path d="M16.8906 25.3359C16.9358 25.5195 16.9358 25.5195 16.9358 25.5195L16.8906 25.3359Z" fill="#F7A978"/>
<path d="M16.7109 22.4443C16.7561 22.6279 16.7561 22.6279 16.7561 22.6279L16.7109 22.4443Z" fill="#F7A978"/>
<path d="M16.6211 21.0674C16.6663 21.251 16.6663 21.251 16.6663 21.251L16.6211 21.0674Z" fill="#F7A978"/>
<path d="M16.5312 18.7266C16.5765 18.9102 16.5765 18.9102 16.5765 18.9102L16.5312 18.7266Z" fill="#F7A978"/>
<path d="M27.3125 36.2139C27.4473 36.2601 27.4473 36.2601 27.4473 36.2601L27.3125 36.2139Z" fill="#F7A978"/>
<path d="M24.5273 31.8076C24.557 31.8379 24.5866 31.8682 24.6172 31.8994C24.5875 31.8994 24.5579 31.8994 24.5273 31.8994C24.5273 31.8691 24.5273 31.8388 24.5273 31.8076Z" fill="#F7A978"/>
<path d="M22.9551 31.0732C23.0898 31.1195 23.0898 31.1195 23.0898 31.1195L22.9551 31.0732Z" fill="#F7A978"/>
<path d="M17.0254 26.1162C17.055 26.1162 17.0847 26.1162 17.1152 26.1162C17.1004 26.1465 17.0856 26.1768 17.0703 26.208C17.0555 26.1777 17.0407 26.1474 17.0254 26.1162Z" fill="#F7A978"/>
<path d="M27.627 36.2139C27.7168 36.2601 27.7168 36.2601 27.7168 36.2601L27.627 36.2139Z" fill="#F7A978"/>
<path d="M27.4922 36.2139C27.582 36.2601 27.582 36.2601 27.582 36.2601L27.4922 36.2139Z" fill="#F7A978"/>
<path d="M26.998 33.5518C27.0879 33.598 27.0879 33.598 27.0879 33.598L26.998 33.5518Z" fill="#F7A978"/>
<path d="M27.8516 33.46C27.9414 33.5062 27.9414 33.5062 27.9414 33.5062L27.8516 33.46Z" fill="#F7A978"/>
<path d="M26.5938 32.6338C26.6836 32.6801 26.6836 32.6801 26.6836 32.6801L26.5938 32.6338Z" fill="#F7A978"/>
<path d="M26.2344 32.5879C26.3242 32.6342 26.3242 32.6342 26.3242 32.6342L26.2344 32.5879Z" fill="#F7A978"/>
<path d="M28.0762 32.542C28.166 32.5883 28.166 32.5883 28.166 32.5883L28.0762 32.542Z" fill="#F7A978"/>
<path d="M22.1016 31.165C22.1914 31.2113 22.1914 31.2113 22.1914 31.2113L22.1016 31.165Z" fill="#F7A978"/>
<path d="M23.1348 31.1191C23.2246 31.1654 23.2246 31.1654 23.2246 31.1654L23.1348 31.1191Z" fill="#F7A978"/>
<path d="M22.2812 31.1191C22.3711 31.1654 22.3711 31.1654 22.3711 31.1654L22.2812 31.1191Z" fill="#F7A978"/>
</svg>
