<svg width="35" height="35" viewBox="0 0 35 35" fill="none" xmlns="http://www.w3.org/2000/svg">
<path d="M17.8911 3.1277C18.1075 3.25895 18.2587 3.44712 18.3204 3.69167C18.3298 3.83546 18.3284 3.97887 18.3271 4.12292C18.327 4.18507 18.327 4.18507 18.3268 4.24848C18.3264 4.38047 18.3256 4.51244 18.3247 4.64442C18.3244 4.73406 18.3241 4.82369 18.3238 4.91332C18.323 5.13273 18.3219 5.35214 18.3204 5.57155C18.3443 5.57338 18.3681 5.57522 18.3927 5.57711C18.5029 5.58564 18.6131 5.59428 18.7233 5.60292C18.7607 5.60581 18.7982 5.60869 18.8368 5.61167C19.3895 5.65523 19.9237 5.72174 20.4542 5.88618C20.5555 5.91747 20.6571 5.94771 20.7587 5.97797C22.167 6.40032 23.4468 7.02739 24.6095 7.92995C24.6419 7.95497 24.6743 7.98 24.7076 8.00578C24.8821 8.14293 25.048 8.28776 25.2119 8.4373C25.285 8.50367 25.3592 8.56842 25.4341 8.63277C25.6439 8.81599 25.8355 9.0139 26.0167 9.2253C26.0597 9.27466 26.1035 9.32323 26.1481 9.3711C26.3672 9.60674 26.5582 9.85944 26.7478 10.1189C26.7916 10.1785 26.8362 10.2374 26.8811 10.2961C27.9605 11.7413 28.6224 13.5678 28.8478 15.3469C28.8537 15.3925 28.8537 15.3925 28.8598 15.439C28.9003 15.7596 28.9227 16.0791 28.9268 16.4022C28.9274 16.4305 28.928 16.4587 28.9287 16.4879C28.9285 16.6558 28.9113 16.7762 28.8136 16.9192C28.6746 17.0097 28.5377 17.0259 28.3757 17.0047C28.1951 16.9197 28.1141 16.7603 28.0156 16.5939C27.4978 15.7235 26.7211 15.2266 25.7521 14.9732C24.9956 14.8025 24.2486 14.8612 23.5158 15.1077C23.487 15.117 23.4582 15.1264 23.4286 15.136C22.9527 15.3073 22.5673 15.6057 22.2169 15.9622C22.1913 15.9878 22.1657 16.0135 22.1394 16.0399C21.9687 16.221 21.8377 16.4239 21.7069 16.6344C21.4601 17.0301 21.4601 17.0301 21.2492 17.0858C21.1037 17.0908 21.0022 17.0708 20.8839 16.9876C20.7562 16.8568 20.667 16.6953 20.5705 16.5413C20.3463 16.1849 20.0831 15.8874 19.756 15.6204C19.7321 15.6008 19.7081 15.5813 19.6835 15.5611C18.9575 15.0125 17.9764 14.7814 17.0782 14.8944C16.3133 15.0019 15.6491 15.2647 15.0734 15.7913C15.0443 15.8176 15.0152 15.8439 14.9853 15.871C14.7315 16.1119 14.5389 16.3849 14.36 16.6845C14.2427 16.8805 14.1628 17.0071 13.9454 17.0901C13.7924 17.1156 13.6947 17.0797 13.5619 17.0013C13.4483 16.9118 13.3898 16.7881 13.3217 16.6629C13.159 16.3805 12.9798 16.1579 12.7492 15.928C12.729 15.9058 12.7088 15.8836 12.688 15.8607C12.2545 15.3909 11.6172 15.1155 11.006 14.971C10.9775 14.9637 10.949 14.9564 10.9196 14.9489C10.0132 14.7393 8.94595 14.9047 8.15122 15.3871C7.92034 15.5338 7.71317 15.7003 7.51966 15.8938C7.49084 15.9226 7.46203 15.9514 7.43234 15.9811C7.19591 16.2291 7.0291 16.4968 6.85916 16.793C6.78832 16.9062 6.72718 16.9677 6.60108 17.0068C6.45953 17.0308 6.35324 17.012 6.22083 16.9534C6.1057 16.8564 6.0768 16.7747 6.06208 16.6299C6.04527 16.433 6.05623 16.242 6.07343 16.0455C6.07657 16.0085 6.0797 15.9716 6.08294 15.9335C6.14423 15.2614 6.2731 14.6022 6.42591 13.9456C6.43245 13.917 6.43898 13.8884 6.44572 13.859C6.52346 13.5208 6.52346 13.5208 6.56263 13.3987C6.58519 13.3874 6.60775 13.3761 6.63099 13.3645C6.65041 13.3024 6.65041 13.3024 6.66223 13.2278C6.69644 13.06 6.75023 12.9076 6.8147 12.7493C6.82618 12.7207 6.83766 12.6921 6.84948 12.6627C6.97079 12.3673 7.10981 12.0804 7.25094 11.794C7.27663 11.7417 7.27663 11.7417 7.30283 11.6884C7.31827 11.6573 7.33372 11.6262 7.34963 11.5942C7.38755 11.5221 7.38755 11.5221 7.38294 11.4505C7.40455 11.4296 7.40455 11.4296 7.4266 11.4083C7.50663 11.3262 7.55229 11.2348 7.60724 11.1343C7.75753 10.8652 7.92555 10.6102 8.10071 10.3567C8.11546 10.3353 8.1302 10.314 8.14539 10.292C8.31207 10.0516 8.48207 9.81905 8.68177 9.60475C8.71427 9.56956 8.74676 9.53436 8.77923 9.49914C8.83318 9.44067 8.88717 9.38224 8.94129 9.32392C9.03466 9.22319 9.12649 9.12165 9.21583 9.01729C9.43926 8.7596 9.68669 8.52639 9.94642 8.30592C9.97748 8.27865 10.0085 8.25138 10.0405 8.22328C10.9516 7.42886 12.0051 6.80652 13.1251 6.35768C13.1251 6.33512 13.1251 6.31256 13.1251 6.28932C13.178 6.28615 13.178 6.28615 13.2319 6.28291C13.4543 6.25567 13.6725 6.17335 13.8771 6.08424C13.8884 6.06169 13.8996 6.03913 13.9113 6.01588C13.9828 6.00769 14.0543 5.99979 14.126 5.99332C14.2967 5.97198 14.4611 5.92392 14.6269 5.87917C14.6802 5.86515 14.6802 5.86515 14.7346 5.85086C14.9082 5.80814 14.9082 5.80814 15.0734 5.74245C15.1459 5.73379 15.2185 5.72532 15.2912 5.71788C15.3828 5.70808 15.4738 5.69621 15.565 5.6837C15.5971 5.67934 15.6293 5.67498 15.6624 5.67048C15.7275 5.6616 15.7926 5.65261 15.8576 5.64351C16.1312 5.60671 16.4043 5.58752 16.6798 5.57155C16.6797 5.55039 16.6795 5.52924 16.6794 5.50744C16.6778 5.28619 16.6768 5.06494 16.6761 4.84369C16.6757 4.76124 16.6753 4.6788 16.6747 4.59635C16.6738 4.47748 16.6734 4.35862 16.6731 4.23974C16.6728 4.2032 16.6724 4.16666 16.6721 4.12901C16.672 3.77957 16.7051 3.50665 16.9533 3.24733C17.2032 3.03895 17.5914 2.99382 17.8911 3.1277Z" fill="#ADD9E1"/>
<path d="M18.0128 16.4063C18.1795 16.5583 18.304 16.7406 18.33 16.9687C18.3337 17.0696 18.3343 17.1701 18.3337 17.2711C18.334 17.329 18.334 17.329 18.3342 17.3882C18.3347 17.5177 18.3345 17.6471 18.3342 17.7766C18.3344 17.8694 18.3347 17.9623 18.335 18.0552C18.3355 18.2813 18.3356 18.5074 18.3354 18.7336C18.3353 18.9176 18.3353 19.1017 18.3355 19.2858C18.3355 19.312 18.3355 19.3382 18.3356 19.3653C18.3356 19.4186 18.3357 19.4719 18.3357 19.5252C18.3362 20.0252 18.336 20.5251 18.3356 21.0251C18.3353 21.4811 18.3357 21.9372 18.3365 22.3932C18.3374 22.8624 18.3377 23.3317 18.3375 23.8009C18.3374 24.0639 18.3374 24.3269 18.338 24.59C18.3385 24.8142 18.3385 25.0384 18.338 25.2626C18.3377 25.3767 18.3377 25.4907 18.3381 25.6049C18.3404 26.2326 18.3221 26.8655 18.0555 27.4464C18.0437 27.4731 18.0319 27.4998 18.0197 27.5273C17.9151 27.7568 17.7917 27.9646 17.6368 28.1641C17.622 28.1833 17.6072 28.2024 17.592 28.2222C17.3546 28.5252 17.0994 28.7669 16.7824 28.9845C16.7544 29.004 16.7264 29.0236 16.6976 29.0437C16.3393 29.2766 15.9238 29.4003 15.5073 29.4786C15.4167 29.4927 15.4167 29.4927 15.3468 29.5313C15.0008 29.551 14.6594 29.5229 14.3157 29.4843C14.2716 29.4795 14.2716 29.4795 14.2266 29.4746C14.2004 29.4715 14.1742 29.4685 14.1471 29.4654C14.0791 29.4577 14.0791 29.4577 14.0138 29.4972C14.0138 29.4633 14.0138 29.4295 14.0138 29.3946C13.9797 29.3911 13.9456 29.3876 13.9105 29.3839C13.2441 29.2875 12.6214 28.7519 12.2214 28.2376C12.0368 27.981 11.8874 27.7001 11.7579 27.4122C11.7454 27.3849 11.7328 27.3576 11.7199 27.3295C11.4847 26.7583 11.3367 25.8919 11.5529 25.2931C11.6496 25.0765 11.7953 24.9366 11.9972 24.8145C12.2015 24.7464 12.459 24.7386 12.6633 24.8101C12.897 24.9485 13.05 25.1362 13.1251 25.3956C13.1333 25.4712 13.1387 25.5471 13.1419 25.6231C13.1442 25.6665 13.1464 25.71 13.1488 25.7547C13.1529 25.8446 13.1568 25.9345 13.1605 26.0244C13.1898 26.5732 13.325 27.0959 13.7404 27.4806C14.1469 27.7953 14.6006 27.9189 15.1121 27.8832C15.4995 27.8306 15.8471 27.6817 16.1329 27.4122C16.1442 27.3896 16.1555 27.3671 16.1671 27.3438C16.1897 27.3438 16.2122 27.3438 16.2355 27.3438C16.2488 27.3169 16.2488 27.3169 16.2623 27.2894C16.2938 27.227 16.3263 27.1651 16.3592 27.1035C16.39 27.0448 16.39 27.0448 16.4213 26.9849C16.4417 26.9465 16.4621 26.9081 16.4831 26.8685C16.625 26.5637 16.6608 26.2464 16.6586 25.9141C16.6588 25.8563 16.6588 25.8563 16.659 25.7973C16.6594 25.6693 16.6591 25.5414 16.6588 25.4134C16.6589 25.3212 16.6591 25.2289 16.6593 25.1367C16.6598 24.9387 16.6598 24.7407 16.6597 24.5427C16.6594 24.2561 16.6599 23.9696 16.6605 23.683C16.6615 23.2175 16.6621 22.7521 16.6623 22.2867C16.6624 22.2589 16.6624 22.231 16.6624 22.2024C16.6625 21.9767 16.6627 21.7511 16.6628 21.5254C16.6629 21.3279 16.663 21.1305 16.6631 20.933C16.6631 20.9052 16.6631 20.8774 16.6632 20.8487C16.6635 20.3847 16.6642 19.9208 16.6651 19.4568C16.6657 19.171 16.666 18.8851 16.6657 18.5993C16.6656 18.4035 16.6658 18.2078 16.6663 18.012C16.6666 17.8991 16.6666 17.7863 16.6663 17.6734C16.666 17.5509 16.6664 17.4285 16.6669 17.306C16.6665 17.2527 16.6665 17.2527 16.6662 17.1984C16.6686 16.8839 16.7417 16.6631 16.9591 16.4301C17.2515 16.1589 17.6991 16.1873 18.0128 16.4063Z" fill="#ADD9E1"/>
<path d="M16.8164 3.41797C16.8333 3.45181 16.8333 3.45181 16.8506 3.48633C16.8402 3.51185 16.8299 3.53737 16.8192 3.56366C16.7782 3.66749 16.7728 3.74416 16.7713 3.85547C16.7706 3.89446 16.77 3.93346 16.7693 3.97363C16.7689 4.01536 16.7685 4.0571 16.7681 4.10009C16.7674 4.1431 16.7668 4.1861 16.7661 4.2304C16.7644 4.3443 16.763 4.45819 16.7617 4.57209C16.7603 4.68849 16.7586 4.80488 16.7569 4.92127C16.7536 5.14934 16.7507 5.3774 16.748 5.60547C16.6469 5.65606 16.5401 5.65582 16.4288 5.66568C16.3761 5.67071 16.3234 5.67577 16.2708 5.68086C16.2291 5.68487 16.2291 5.68487 16.1867 5.68895C15.639 5.74235 15.1158 5.82959 14.5809 5.9616C14.4605 5.98854 14.3415 6.00346 14.2188 6.01562C14.3145 5.95177 14.3694 5.93035 14.4784 5.90441C14.5086 5.89707 14.5388 5.88974 14.57 5.88218C14.6171 5.87104 14.6171 5.87104 14.6652 5.85968C14.7276 5.84475 14.7899 5.82976 14.8523 5.81469C14.8799 5.80814 14.9075 5.80159 14.936 5.79485C15.0066 5.77838 15.0066 5.77838 15.0732 5.74219C15.1458 5.73353 15.2184 5.72506 15.2911 5.71762C15.3826 5.70782 15.4737 5.69595 15.5648 5.68344C15.597 5.67908 15.6292 5.67472 15.6623 5.67022C15.7274 5.66134 15.7925 5.65235 15.8575 5.64325C16.1311 5.60645 16.4042 5.58726 16.6797 5.57129C16.6795 5.55013 16.6794 5.52898 16.6792 5.50718C16.6777 5.28593 16.6767 5.06468 16.6759 4.84343C16.6756 4.76098 16.6751 4.67854 16.6745 4.59609C16.6737 4.47722 16.6733 4.35836 16.673 4.23948C16.6727 4.20294 16.6723 4.1664 16.6719 4.12875C16.6719 3.87771 16.6737 3.63197 16.8164 3.41797Z" fill="#7FC2CB"/>
<path d="M16.4746 29.0869C16.5084 29.1038 16.5084 29.1038 16.543 29.1211C16.2515 29.2894 15.9428 29.3766 15.6201 29.4629C15.5854 29.4727 15.5854 29.4727 15.55 29.4827C15.1504 29.5912 14.7215 29.5298 14.3155 29.4842C14.2861 29.481 14.2568 29.4778 14.2265 29.4745C14.2003 29.4715 14.174 29.4684 14.147 29.4653C14.079 29.4576 14.079 29.4576 14.0137 29.4971C14.0137 29.4632 14.0137 29.4294 14.0137 29.3945C13.9791 29.391 13.9446 29.3875 13.909 29.3839C13.7672 29.3591 13.6646 29.3186 13.5352 29.2578C13.5886 29.2343 13.5886 29.2343 13.6719 29.2236C13.7306 29.2484 13.7894 29.2734 13.8476 29.2993C14.5948 29.6153 15.5726 29.4559 16.2992 29.1657C16.3583 29.141 16.4173 29.1156 16.4746 29.0869Z" fill="#7BBBC4"/>
<path d="M18.3545 5.60536C18.7521 5.58675 19.1329 5.63974 19.5256 5.69565C19.6182 5.70777 19.7106 5.71689 19.8035 5.72525C19.9178 5.73616 20.0211 5.75218 20.1297 5.79121C20.154 5.79962 20.1783 5.80804 20.2033 5.81671C20.2686 5.84461 20.2686 5.84461 20.3711 5.91297C20.1882 5.89512 20.0112 5.87017 19.8315 5.83236C19.3433 5.72992 18.8506 5.68468 18.3545 5.63954C18.3545 5.62826 18.3545 5.61698 18.3545 5.60536Z" fill="#7BBCC4"/>
<path d="M16.2012 5.63931C16.2012 5.65059 16.2012 5.66187 16.2012 5.67349C16.1768 5.67656 16.1525 5.67962 16.1274 5.68278C15.6217 5.74773 15.1296 5.82658 14.635 5.95228C14.6002 5.96096 14.5654 5.96963 14.5296 5.97857C14.4839 5.99042 14.4839 5.99042 14.4374 6.00251C14.3522 6.01579 14.2997 6.00841 14.2188 5.98111C14.2422 5.97507 14.2657 5.96904 14.2898 5.96282C14.3958 5.93553 14.5016 5.90812 14.6075 5.8807C14.6445 5.87121 14.6814 5.86171 14.7194 5.85193C14.7723 5.83822 14.7723 5.83822 14.8262 5.82423C14.8588 5.81581 14.8914 5.8074 14.925 5.79873C15.0047 5.77874 15.0047 5.77874 15.0732 5.74185C15.1436 5.73364 15.2139 5.72565 15.2843 5.71862C15.3961 5.70594 15.5068 5.68857 15.618 5.67135C15.8142 5.64259 16.0031 5.6311 16.2012 5.63931Z" fill="#7ABCC4"/>
<path d="M27.4463 11.3477C27.591 11.3986 27.629 11.4824 27.6941 11.6168C27.7119 11.6527 27.7297 11.6886 27.748 11.7255C27.7881 11.8262 27.7881 11.8262 27.7881 11.9629C27.7655 11.9629 27.743 11.9629 27.7197 11.9629C27.674 11.8733 27.6284 11.7835 27.583 11.6937C27.57 11.6682 27.5569 11.6427 27.5435 11.6164C27.5312 11.592 27.5188 11.5675 27.5061 11.5423C27.4946 11.5198 27.4832 11.4972 27.4714 11.474C27.4463 11.416 27.4463 11.416 27.4463 11.3477Z" fill="#87CED6"/>
<path d="M28.1641 16.7139C28.2138 16.7562 28.2138 16.7562 28.2645 16.7993C28.4102 16.9054 28.5365 16.9026 28.7109 16.8848C28.6997 16.9186 28.6884 16.9524 28.6768 16.9873C28.4906 17.0283 28.3946 17.0208 28.2324 16.9189C28.2099 16.8964 28.1873 16.8738 28.1641 16.8506C28.1641 16.8055 28.1641 16.7604 28.1641 16.7139Z" fill="#88CDD5"/>
<path d="M11.8261 27.3779C11.9759 27.5577 12.0762 27.7594 12.0995 27.9932C11.946 27.8513 11.8338 27.6705 11.8154 27.4612C11.819 27.4337 11.8225 27.4063 11.8261 27.3779Z" fill="#86CBD3"/>
<path d="M16.167 27.3438C16.1896 27.355 16.2121 27.3663 16.2354 27.3779C16.0224 27.686 16.0224 27.686 15.8594 27.7539C15.8368 27.7426 15.8143 27.7313 15.791 27.7197C15.8761 27.6322 15.9603 27.5501 16.0559 27.4741C16.1354 27.4188 16.1354 27.4188 16.167 27.3438Z" fill="#86CCD4"/>
<path d="M16.2354 15.0729C16.1807 15.1025 16.1259 15.1316 16.0709 15.1605C16.0403 15.1767 16.0098 15.193 15.9783 15.2098C15.8936 15.2438 15.8936 15.2438 15.791 15.2096C15.9003 15.0682 16.0682 15.0172 16.2354 15.0729Z" fill="#84C9D1"/>
<path d="M18.0467 27.2754C18.0809 27.3779 18.0809 27.3779 18.0394 27.4777C18.0199 27.5145 18.0005 27.5514 17.9805 27.5894C17.9611 27.6266 17.9418 27.6637 17.9219 27.702C17.8991 27.7446 17.8991 27.7446 17.8758 27.7881C17.8416 27.7197 17.8416 27.7197 17.8682 27.6308C17.8813 27.5967 17.8944 27.5626 17.9078 27.5275C17.9208 27.4932 17.9338 27.4589 17.9472 27.4236C17.9575 27.3972 17.9678 27.3709 17.9783 27.3438C18.0009 27.3438 18.0235 27.3438 18.0467 27.3438C18.0467 27.3212 18.0467 27.2986 18.0467 27.2754Z" fill="#7DBEC6"/>
<path d="M11.2109 7.34863C11.2335 7.35991 11.2561 7.37119 11.2793 7.38281C11.2371 7.42392 11.1942 7.46439 11.1511 7.50458C11.1154 7.53848 11.1154 7.53848 11.079 7.57307C11.0549 7.58924 11.0307 7.60541 11.0059 7.62207C10.9607 7.61079 10.9156 7.59951 10.8691 7.58789C10.9819 7.50894 11.0947 7.42998 11.2109 7.34863Z" fill="#82C7CF"/>
<path d="M23.1396 15.1416C23.1622 15.1529 23.1848 15.1642 23.208 15.1758C23.1283 15.2954 23.0655 15.3263 22.9346 15.3809C22.912 15.3696 22.8895 15.3583 22.8662 15.3467C22.9503 15.2566 23.0227 15.1845 23.1396 15.1416Z" fill="#86CED6"/>
<path d="M10.8008 7.62207C10.8713 7.63702 10.8713 7.63702 10.9375 7.65625C10.8251 7.75579 10.7461 7.80996 10.5957 7.82715C10.6641 7.75879 10.7324 7.69043 10.8008 7.62207Z" fill="#88CDD5"/>
<path d="M26.9336 10.4932C27.0637 10.5425 27.1136 10.6076 27.1729 10.7324C27.1616 10.755 27.1503 10.7775 27.1387 10.8008C27.1274 10.7669 27.1161 10.7331 27.1045 10.6982C27.0819 10.6877 27.0594 10.6771 27.0361 10.6662C26.9678 10.6299 26.9678 10.6299 26.9421 10.5573C26.9393 10.5361 26.9365 10.515 26.9336 10.4932Z" fill="#84CAD2"/>
<path d="M27.959 16.4404C27.9928 16.4404 28.0267 16.4404 28.0615 16.4404C28.0841 16.5307 28.1066 16.6209 28.1299 16.7139C28.0368 16.6335 27.9995 16.5558 27.959 16.4404Z" fill="#82C5CE"/>
<path d="M28.9502 16.167C28.9615 16.167 28.9728 16.167 28.9844 16.167C28.9844 16.2347 28.9844 16.3023 28.9844 16.3721C28.9731 16.3721 28.9618 16.3721 28.9502 16.3721C28.9502 16.3044 28.9502 16.2367 28.9502 16.167Z" fill="#84C6CC"/>
<path d="M15.4492 29.4971C15.5518 29.5312 15.5518 29.5312 15.5518 29.5312L15.4492 29.4971Z" fill="#8ACBD1"/>
<path d="M28.1641 16.8848C28.1866 16.9073 28.2092 16.9299 28.2324 16.9531C28.2099 16.9531 28.1873 16.9531 28.1641 16.9531C28.1641 16.9306 28.1641 16.908 28.1641 16.8848Z" fill="#85C4CA"/>
<path d="M25.1904 14.9023C25.293 14.9365 25.293 14.9365 25.293 14.9365L25.1904 14.9023Z" fill="#8BCFD7"/>
<path d="M15.6885 29.4629C15.7568 29.4971 15.7568 29.4971 15.7568 29.4971L15.6885 29.4629Z" fill="#86C7CE"/>
<path d="M13.9111 29.4287C13.9795 29.4629 13.9795 29.4629 13.9795 29.4629L13.9111 29.4287Z" fill="#87C5CD"/>
<path d="M12.5781 28.6768C12.6465 28.7109 12.6465 28.7109 12.6465 28.7109L12.5781 28.6768Z" fill="#86C8CF"/>
<path d="M12.2363 15.5518C12.3047 15.5859 12.3047 15.5859 12.3047 15.5859L12.2363 15.5518Z" fill="#8BCED6"/>
<path d="M19.1406 15.2783C19.209 15.3125 19.209 15.3125 19.209 15.3125L19.1406 15.2783Z" fill="#8CD2DA"/>
<path d="M23.2764 15.21C23.3447 15.2441 23.3447 15.2441 23.3447 15.2441L23.2764 15.21Z" fill="#8CCED7"/>
<path d="M16.543 15.0049C16.6113 15.0391 16.6113 15.0391 16.6113 15.0391L16.543 15.0049Z" fill="#8ED3DA"/>
<path d="M9.16016 15.0049C9.22852 15.0391 9.22852 15.0391 9.22852 15.0391L9.16016 15.0049Z" fill="#8ED0D6"/>
<path d="M17.8418 14.9023C17.9102 14.9365 17.9102 14.9365 17.9102 14.9365L17.8418 14.9023Z" fill="#8ED3DA"/>
<path d="M10.4248 14.9023C10.4932 14.9365 10.4932 14.9365 10.4932 14.9365L10.4248 14.9023Z" fill="#8CCED7"/>
<path d="M21.8066 6.28906C21.875 6.32324 21.875 6.32324 21.875 6.32324L21.8066 6.28906Z" fill="#87CBD2"/>
<path d="M13.6719 6.08398C13.7402 6.11816 13.7402 6.11816 13.7402 6.11816L13.6719 6.08398Z" fill="#89CAD2"/>
<path d="M17.6025 3.00781C17.6709 3.04199 17.6709 3.04199 17.6709 3.04199L17.6025 3.00781Z" fill="#85C4CC"/>
<path d="M17.4316 3.00781C17.5 3.04199 17.5 3.04199 17.5 3.04199L17.4316 3.00781Z" fill="#84C3CB"/>
</svg>
