<svg width="24" height="24" viewBox="0 0 24 24" fill="none" xmlns="http://www.w3.org/2000/svg">
<path d="M22 1.8L20 0L18 1.8L16 0L14 1.8L12 0L10 1.8L8 0L6 1.8L4 0V16.8H0V20.4C0 22.392 1.78667 24 4 24H20C22.2133 24 24 22.392 24 20.4V0L22 1.8ZM16 21.6H4C3.26667 21.6 2.66667 21.06 2.66667 20.4V19.2H16V21.6ZM21.3333 20.4C21.3333 21.06 20.7333 21.6 20 21.6C19.2667 21.6 18.6667 21.06 18.6667 20.4V16.8H6.66667V3.6H21.3333V20.4Z" fill="#AD9291"/>
<path d="M16 6H8V8.4H16V6Z" fill="#AD9291"/>
<path d="M20 6H17.3333V8.4H20V6Z" fill="#AD9291"/>
<path d="M16 9.6H8V12H16V9.6Z" fill="#AD9291"/>
<path d="M20 9.6H17.3333V12H20V9.6Z" fill="#AD9291"/>
</svg>
