<svg width="25" height="26" viewBox="0 0 25 26" fill="none" xmlns="http://www.w3.org/2000/svg">
<path d="M21.0938 21.1226C21.3053 21.1226 21.4884 21.2031 21.6431 21.3639C21.7977 21.5248 21.875 21.7154 21.875 21.9355C21.875 22.1557 21.7977 22.3462 21.6431 22.5071C21.4884 22.668 21.3053 22.7484 21.0938 22.7484H11.7188C11.5072 22.7484 11.3241 22.668 11.1694 22.5071C11.0148 22.3462 10.9375 22.1557 10.9375 21.9355C10.9375 21.7154 11.0148 21.5248 11.1694 21.3639C11.3241 21.2031 11.5072 21.1226 11.7188 21.1226H21.0938ZM19.5312 24.3742C19.7428 24.3742 19.9259 24.4546 20.0806 24.6155C20.2352 24.7764 20.3125 24.9669 20.3125 25.1871C20.3125 25.4073 20.2352 25.5978 20.0806 25.7587C19.9259 25.9196 19.7428 26 19.5312 26H13.2812C13.0697 26 12.8866 25.9196 12.7319 25.7587C12.5773 25.5978 12.5 25.4073 12.5 25.1871C12.5 24.9669 12.5773 24.7764 12.7319 24.6155C12.8866 24.4546 13.0697 24.3742 13.2812 24.3742H19.5312ZM22.4365 17.871H25V19.4968H6.55518C6.4738 20.0388 6.41683 20.5807 6.38428 21.1226C6.35173 21.6645 6.32324 22.2022 6.29883 22.7357C6.27441 23.2692 6.26221 23.8111 6.26221 24.3615C6.26221 24.9119 6.25814 25.4581 6.25 26H1.5625V23.5486C1.5625 22.8627 1.58691 22.1853 1.63574 21.5164C1.68457 20.8474 1.75374 20.1742 1.84326 19.4968H0V17.871H2.09961C2.50651 15.7964 3.12093 13.8023 3.94287 11.8886C4.76481 9.97492 5.78206 8.16707 6.99463 6.46507C5.80648 6.42273 4.71598 6.16447 3.72314 5.69028C2.73031 5.21609 1.82292 4.53867 1.00098 3.65804L0.45166 3.07377L1.02539 2.5149C1.87174 1.69354 2.79948 1.07116 3.80859 0.647777C4.81771 0.224393 5.90413 0.00846768 7.06787 0C8.3374 0 9.50114 0.245563 10.5591 0.736688C11.617 1.22781 12.5895 1.9391 13.4766 2.87054C14.1032 2.88748 14.7095 2.98909 15.2954 3.17538C15.8813 3.36167 16.4266 3.6157 16.9312 3.93747C17.4357 4.25924 17.8955 4.64029 18.3105 5.08061C18.7256 5.52093 19.0796 6.00782 19.3726 6.54128C19.6655 7.07474 19.8975 7.64631 20.0684 8.25598C20.2393 8.86566 20.3206 9.50073 20.3125 10.1612V10.9741H19.5312C18.457 10.9741 17.452 10.737 16.5161 10.2628C15.5802 9.78863 14.7705 9.11545 14.0869 8.24328C13.4684 9.41182 12.6912 10.3729 11.7554 11.1265C10.8195 11.8801 9.72493 12.4094 8.47168 12.7142C8.12175 13.5525 7.8125 14.3993 7.54395 15.2545C7.27539 16.1098 7.04346 16.9819 6.84814 17.871H10.376C10.555 17.1597 10.8358 16.5077 11.2183 15.915C11.6007 15.3223 12.0565 14.8057 12.5854 14.3654C13.1144 13.9251 13.7085 13.5906 14.3677 13.362C15.0269 13.1334 15.7064 13.0106 16.4062 12.9936C17.1143 12.9936 17.7938 13.1122 18.4448 13.3493C19.0959 13.5864 19.6859 13.9251 20.2148 14.3654C20.7438 14.8057 21.2036 15.318 21.5942 15.9023C21.9849 16.4866 22.2656 17.1428 22.4365 17.871ZM15.1123 4.81387C15.0635 5.36427 14.9577 5.92314 14.7949 6.49047C15.21 7.23563 15.7552 7.85377 16.4307 8.34489C17.1061 8.83602 17.8589 9.14932 18.689 9.28481C18.6076 8.76828 18.4652 8.28139 18.2617 7.82413C18.0583 7.36688 17.8019 6.93926 17.4927 6.54128C17.1834 6.1433 16.8254 5.80459 16.4185 5.52516C16.0116 5.24573 15.5762 5.00863 15.1123 4.81387ZM13.5742 4.90278C12.7441 4.97053 11.9629 5.18222 11.2305 5.53786C10.498 5.8935 9.84294 6.35923 9.26514 6.93503C8.68734 7.51083 8.21126 8.17554 7.83691 8.92916C7.46256 9.68279 7.21436 10.483 7.09229 11.3298C7.78402 11.2705 8.43913 11.1181 9.05762 10.8725C9.67611 10.6269 10.2417 10.2967 10.7544 9.88178C11.2671 9.46686 11.7228 8.99267 12.1216 8.45921C12.5203 7.92574 12.8499 7.31607 13.1104 6.63019C13.2243 6.35076 13.3179 6.06709 13.3911 5.77919C13.4644 5.49129 13.5254 5.19915 13.5742 4.90278ZM2.73438 3.12457C3.38542 3.68344 4.10563 4.11106 4.89502 4.40743C5.68441 4.70379 6.50228 4.85198 7.34863 4.85198C8.13802 4.85198 8.89893 4.72496 9.63135 4.47093C10.3638 4.2169 11.0474 3.84433 11.6821 3.3532C11.0311 2.79433 10.3109 2.36672 9.52148 2.07035C8.7321 1.77398 7.91423 1.62579 7.06787 1.62579C6.27848 1.62579 5.51758 1.75281 4.78516 2.00684C4.05273 2.26087 3.36914 2.63345 2.73438 3.12457ZM6.61621 12.9682C6.55111 12.9852 6.486 12.9936 6.4209 12.9936C6.35579 12.9936 6.29069 12.9936 6.22559 12.9936H5.83496C5.70475 12.9936 5.57454 12.9852 5.44434 12.9682V12.3713C5.01302 13.3705 4.65088 14.3527 4.35791 15.318C4.06494 16.2833 3.82487 17.2571 3.6377 18.2394C3.45052 19.2216 3.32031 20.2166 3.24707 21.2242C3.17383 22.2319 3.13314 23.2819 3.125 24.3742H4.6875C4.6875 23.3496 4.72005 22.3589 4.78516 21.4021C4.85026 20.4452 4.96012 19.5011 5.11475 18.5696C5.26937 17.6382 5.46875 16.711 5.71289 15.788C5.95703 14.865 6.25814 13.9251 6.61621 12.9682ZM12.0117 17.871H20.8008C20.638 17.3884 20.4102 16.9481 20.1172 16.5501C19.8242 16.1521 19.4865 15.8092 19.104 15.5212C18.7215 15.2333 18.2983 15.0132 17.8345 14.8608C17.3706 14.7084 16.8945 14.6279 16.4062 14.6194C15.9098 14.6194 15.4338 14.6957 14.978 14.8481C14.5223 15.0005 14.1032 15.2206 13.7207 15.5085C13.3382 15.7964 12.9964 16.1394 12.6953 16.5374C12.3942 16.9354 12.1663 17.3799 12.0117 17.871Z" fill="#CAD892"/>
</svg>
