<svg width="27" height="26" viewBox="0 0 27 26" fill="none" xmlns="http://www.w3.org/2000/svg">
<path d="M17.3333 10.6667C17.3333 9.93333 17.9333 9.33333 18.6667 9.33333C19.4 9.33333 20 9.93333 20 10.6667C20 11.4 19.4 12 18.6667 12C17.9333 12 17.3333 11.4 17.3333 10.6667ZM8 8C8 8.73638 8.59695 9.33333 9.33333 9.33333H13.3333C14.0697 9.33333 14.6667 8.73638 14.6667 8C14.6667 7.26362 14.0697 6.66667 13.3333 6.66667H9.33333C8.59695 6.66667 8 7.26362 8 8ZM24.6208 7.33333C25.7507 7.33333 26.6667 8.24931 26.6667 9.37923V14.322C26.6667 15.6983 25.786 16.9202 24.4803 17.3555C23.4936 17.6843 22.7286 18.4725 22.4292 19.4686L21.5668 22.3381C21.0325 24.116 19.3956 25.3333 17.5391 25.3333H14.6667C13.9303 25.3333 13.3333 24.7364 13.3333 24C13.3333 23.2636 12.7364 22.6667 12 22.6667C11.2636 22.6667 10.6667 23.2636 10.6667 24C10.6667 24.7364 10.0697 25.3333 9.33333 25.3333H6.46957C4.6097 25.3333 2.97255 24.1129 2.48521 22.318C1.49764 18.6807 0 12.7169 0 10C0 5.94667 3.28 2.66667 7.33333 2.66667H10.0066C12.5209 2.66667 14.8036 1.16574 17.1835 0.354589C17.8574 0.124912 18.5803 0 19.3333 0C20.44 0 21.3333 0.893333 21.3333 2C21.3333 2.28 21.28 2.53333 21.1733 2.77333C20.7909 3.70217 21.1647 4.72469 21.875 5.43498L23.1741 6.7341C23.5578 7.11778 24.0782 7.33333 24.6208 7.33333ZM24 10.9428C24 10.4221 23.5779 10 23.0572 10C22.8071 10 22.5673 9.90067 22.3905 9.72386L18.353 5.68635C18.127 5.46032 17.9964 5.1506 18.0134 4.8314C18.0628 3.9069 17.219 3.14789 16.5527 3.79068C16.3833 3.95407 16.2283 4.13223 16.0898 4.32318C15.6872 4.87825 15.1011 5.33333 14.4154 5.33333H7.33333C4.76 5.33333 2.66667 7.42667 2.66667 10C2.66667 12.2768 4.00865 17.7325 5.04409 21.5615C5.2209 22.2153 5.81554 22.6667 6.49286 22.6667H6.66667C7.40305 22.6667 8 22.0697 8 21.3333C8 20.597 8.59695 20 9.33333 20H14.6667C15.403 20 16 20.597 16 21.3333C16 22.0697 16.597 22.6667 17.3333 22.6667H17.5373C18.2156 22.6667 18.8138 22.222 19.0093 21.5724L20.3329 17.1747C20.5924 16.3125 21.2651 15.6258 22.1187 15.3389C23.2336 14.9642 24 13.9143 24 12.7382V10.9428Z" fill="#969A60"/>
</svg>
