<svg width="23" height="22" viewBox="0 0 23 22" fill="none" xmlns="http://www.w3.org/2000/svg">
<path d="M15.2174 2.17391C15.2174 0.967391 16.1848 0 17.3913 0C18.5978 0 19.5652 0.967391 19.5652 2.17391C19.5652 3.38043 18.5978 4.34783 17.3913 4.34783C16.1848 4.34783 15.2174 3.38043 15.2174 2.17391ZM19.5652 21.7391V15.2174H22.2826L19.5217 6.92391C19.2174 6.03261 18.3913 5.43478 17.4565 5.43478H17.3261C16.3913 5.43478 15.5543 6.03261 15.2609 6.92391L14.3261 9.72826C15.5 10.3804 16.3043 11.6087 16.3043 13.0435V21.7391H19.5652ZM11.413 10.3261C12.3152 10.3261 13.0435 9.59783 13.0435 8.69565C13.0435 7.79348 12.3152 7.06522 11.413 7.06522C10.5109 7.06522 9.78261 7.79348 9.78261 8.69565C9.78261 9.59783 10.5109 10.3261 11.413 10.3261ZM3.80435 4.34783C5.01087 4.34783 5.97826 3.38043 5.97826 2.17391C5.97826 0.967391 5.01087 0 3.80435 0C2.59783 0 1.63043 0.967391 1.63043 2.17391C1.63043 3.38043 2.59783 4.34783 3.80435 4.34783ZM5.97826 21.7391V14.1304H7.6087V7.6087C7.6087 6.41304 6.63044 5.43478 5.43478 5.43478H2.17391C0.978261 5.43478 0 6.41304 0 7.6087V14.1304H1.63043V21.7391H5.97826ZM13.0435 21.7391V17.3913H14.1304V13.0435C14.1304 12.1522 13.3913 11.413 12.5 11.413H10.3261C9.43478 11.413 8.69565 12.1522 8.69565 13.0435V17.3913H9.78261V21.7391H13.0435Z" fill="#E7AAD7"/>
</svg>
