<svg width="24" height="30" viewBox="0 0 24 30" fill="none" xmlns="http://www.w3.org/2000/svg">
<path d="M21.2267 1.34667C20.96 0.56 20.2133 0 19.3333 0H4.66667C3.78667 0 3.05333 0.56 2.77333 1.34667L0 9.33333V20C0 20.7333 0.6 21.3333 1.33333 21.3333H2.66667C3.4 21.3333 4 20.7333 4 20V18.6667H20V20C20 20.7333 20.6 21.3333 21.3333 21.3333H22.6667C23.4 21.3333 24 20.7333 24 20V9.33333L21.2267 1.34667ZM5.13333 2.66667H18.8533L20.2933 6.81333H3.69333L5.13333 2.66667ZM21.3333 16H2.66667V9.33333H21.3333V16Z" fill="#D99AC0"/>
<path d="M6 14.6667C7.10457 14.6667 8 13.7712 8 12.6667C8 11.5621 7.10457 10.6667 6 10.6667C4.89543 10.6667 4 11.5621 4 12.6667C4 13.7712 4.89543 14.6667 6 14.6667Z" fill="#D99AC0"/>
<path d="M18 14.6667C19.1046 14.6667 20 13.7712 20 12.6667C20 11.5621 19.1046 10.6667 18 10.6667C16.8954 10.6667 16 11.5621 16 12.6667C16 13.7712 16.8954 14.6667 18 14.6667Z" fill="#D99AC0"/>
<path d="M5.33333 25.3333H10.6667V22.6667L18.6667 26.6667H13.3333V29.3333L5.33333 25.3333Z" fill="#D99AC0"/>
</svg>
