<svg width="27" height="20" viewBox="0 0 27 20" fill="none" xmlns="http://www.w3.org/2000/svg">
<path d="M26.4571 17.7504L14.8497 9.68949V8.55221C17.0767 7.93983 18.6289 5.84023 18.1295 3.49069C17.7786 1.8535 16.3749 0.491265 14.6068 0.116337C11.5294 -0.533538 8.77604 1.62854 8.77604 4.37801H11.4754C11.4754 3.34071 12.3797 2.50338 13.5 2.50338C14.6203 2.50338 15.5246 3.34071 15.5246 4.37801C15.5246 5.42781 14.5933 6.27765 13.4595 6.25265C12.7307 6.24016 12.1503 6.81504 12.1503 7.48991V9.68949L0.542867 17.7504C-0.496403 18.4753 0.0569743 20 1.35269 20H25.6473C26.943 20 27.4964 18.4753 26.4571 17.7504ZM5.40179 17.5005L13.5 11.8766L21.5982 17.5005H5.40179Z" fill="#B8A9E4"/>
</svg>
