<svg width="39" height="39" viewBox="0 0 39 39" fill="none" xmlns="http://www.w3.org/2000/svg">
<path d="M24.4511 7.35059C24.4637 7.37572 24.4763 7.40086 24.4892 7.42676C24.5379 7.42283 24.5866 7.4189 24.6368 7.41486C24.8907 7.41606 25.1011 7.51116 25.285 7.68562C25.4449 7.88018 25.5281 8.08971 25.5128 8.34335C25.4669 8.58752 25.3299 8.7921 25.127 8.93413C24.8935 9.06798 24.7199 9.1072 24.4496 9.10794C24.4229 9.10807 24.3962 9.10821 24.3686 9.10834C24.3107 9.10862 24.2528 9.10883 24.1948 9.10896C24.1027 9.10924 24.0105 9.10983 23.9184 9.11054C23.6564 9.11253 23.3945 9.11436 23.1325 9.11495C22.972 9.11534 22.8116 9.11647 22.6512 9.11805C22.5904 9.11851 22.5297 9.11871 22.469 9.11863C21.918 9.11804 21.4277 9.20083 20.9853 9.55957C20.5019 10.0521 20.4383 10.6355 20.4422 11.295C20.4426 11.3786 20.4422 11.4622 20.4417 11.5458C20.418 11.9857 20.418 11.9857 20.5897 12.3651C20.7128 12.434 20.8267 12.4349 20.9643 12.4368C20.9922 12.4376 21.02 12.4384 21.0487 12.4392C21.1078 12.4407 21.1669 12.442 21.2261 12.443C21.3142 12.4445 21.4022 12.4469 21.4903 12.4495C22.2569 12.4691 22.9076 12.419 23.6085 12.078C23.9201 11.9297 24.2268 11.7913 24.556 11.6873C24.648 11.6629 24.648 11.6629 24.6796 11.5781C24.7619 11.565 24.7619 11.565 24.8725 11.5591C25.0569 11.5472 25.2371 11.5263 25.4199 11.4996C26.5957 11.3442 27.843 11.5642 28.878 12.1496C28.9467 12.1883 29.0162 12.2254 29.0859 12.2623C29.355 12.4075 29.5873 12.5695 29.8171 12.7707C29.8902 12.8429 29.8902 12.8429 29.9736 12.835C30.03 12.8936 30.03 12.8936 30.095 12.973C30.1809 13.0745 30.2647 13.1641 30.3687 13.2468C30.6442 13.4756 30.8489 13.7813 31.0567 14.0704C31.0729 14.0929 31.089 14.1154 31.1057 14.1386C31.1824 14.2468 31.2484 14.3538 31.3066 14.4727C31.3317 14.4978 31.3569 14.5229 31.3828 14.5488C31.6964 15.1317 31.8799 15.7709 32.0598 16.4041C32.1086 16.5757 32.1589 16.7468 32.2094 16.9179C32.3283 17.3213 32.446 17.725 32.5634 18.1289C32.5745 18.1669 32.5855 18.2048 32.5969 18.2439C33.0238 19.713 33.4481 21.1832 33.8438 22.6611C33.8579 22.7135 33.872 22.7659 33.8862 22.8184C34.0126 23.2863 34.1343 23.7695 34.1535 24.256C34.1548 24.2842 34.156 24.3125 34.1573 24.3415C34.1963 25.4499 33.9182 26.5239 33.1562 27.3576C33.0866 27.4311 33.0158 27.5026 32.9443 27.5742C32.8992 27.62 32.8992 27.62 32.8531 27.6668C32.2078 28.2853 31.3584 28.5542 30.4806 28.6121C30.4358 28.6155 30.3909 28.6189 30.3447 28.6225C30.1038 28.6397 30.1038 28.6397 30.0117 28.6406C29.9991 28.6281 29.9865 28.6155 29.9736 28.6025C29.9055 28.5906 29.8374 28.5788 29.7691 28.5683C28.947 28.4403 28.2858 28.1032 27.6504 27.5742C27.6163 27.546 27.5822 27.5178 27.5471 27.4887C27.3312 27.3023 27.1517 27.099 26.976 26.8748C26.9004 26.7792 26.8229 26.6852 26.7457 26.591C26.5422 26.3423 26.344 26.0905 26.1492 25.8349C26.0385 25.6909 25.9231 25.5509 25.8079 25.4105C25.6406 25.2064 25.4792 24.999 25.3223 24.7868C25.1192 24.5122 24.9027 24.2527 24.6796 23.9941C24.6482 23.955 24.6168 23.9158 24.5844 23.8754C24.1583 23.384 23.5035 23.1297 22.8694 23.0807C22.7752 23.073 22.7752 23.073 22.6992 23.1182C22.667 23.1101 22.667 23.1101 22.6341 23.1018C22.5188 23.0731 22.4118 23.0752 22.2929 23.075C22.2674 23.0749 22.2419 23.0748 22.2156 23.0747C22.1302 23.0745 22.0448 23.0745 21.9595 23.0745C21.8982 23.0744 21.8369 23.0743 21.7757 23.0742C21.6091 23.0738 21.4426 23.0737 21.2761 23.0737C21.1718 23.0737 21.0675 23.0736 20.9632 23.0735C20.5987 23.0731 20.2342 23.073 19.8697 23.073C19.5313 23.073 19.1928 23.0726 18.8543 23.072C18.5629 23.0715 18.2716 23.0713 17.9802 23.0714C17.8065 23.0714 17.6329 23.0713 17.4592 23.0709C17.2954 23.0705 17.1316 23.0705 16.9677 23.0708C16.9081 23.0708 16.8485 23.0707 16.7889 23.0705C16.4836 23.0694 16.1825 23.0788 15.8789 23.1125C15.853 23.1152 15.8272 23.118 15.8005 23.1208C15.1938 23.1958 14.6796 23.5415 14.2822 23.9941C14.2696 24.0193 14.2571 24.0444 14.2441 24.0703C14.219 24.0703 14.1938 24.0703 14.1679 24.0703C14.155 24.1003 14.155 24.1003 14.1419 24.1309C14.074 24.2552 13.9871 24.3623 13.8989 24.4726C13.8803 24.4961 13.8616 24.5197 13.8424 24.544C13.7 24.7231 13.5555 24.9005 13.4101 25.0772C13.3089 25.2005 13.2093 25.325 13.1099 25.4497C13.0465 25.5292 12.983 25.6085 12.9194 25.6878C12.8809 25.7358 12.8425 25.7838 12.804 25.8318C12.7844 25.8561 12.7649 25.8805 12.7448 25.9056C12.6498 26.0243 12.5553 26.1433 12.4619 26.2634C12.2306 26.561 11.991 26.8495 11.7434 27.1337C11.693 27.1926 11.6443 27.2526 11.5956 27.3128C11.0556 27.9411 10.2703 28.3191 9.48336 28.5264C9.45804 28.5331 9.43272 28.5399 9.40663 28.5468C8.48939 28.7796 7.4978 28.5341 6.69119 28.0717C5.88186 27.5861 5.3045 26.7924 5.02731 25.8984C5.01596 25.8626 5.00462 25.8268 4.99294 25.7898C4.61027 24.4381 5.02296 23.0842 5.37911 21.7775C5.40882 21.6685 5.43844 21.5594 5.46805 21.4504C5.82118 20.1506 6.1846 18.8537 6.55074 17.5576C6.56086 17.5218 6.57098 17.4859 6.58141 17.449C6.68421 17.0852 6.78782 16.7216 6.89309 16.3584C6.92957 16.2317 6.96511 16.1047 7.00048 15.9776C7.36945 14.6766 8.09912 13.5986 9.16171 12.7591C9.25544 12.6851 9.25544 12.6851 9.33369 12.6014C9.40778 12.5297 9.46685 12.4971 9.55953 12.4541C9.63033 12.4092 9.70093 12.3639 9.77139 12.3184C10.2013 12.0488 10.6687 11.823 11.1571 11.683C11.2424 11.6618 11.2424 11.6618 11.2734 11.5781C11.3557 11.565 11.3557 11.565 11.4662 11.5591C11.6506 11.5472 11.8309 11.5263 12.0137 11.4996C12.7008 11.41 13.3508 11.4798 14.03 11.6022C14.1282 11.616 14.2213 11.6187 14.3203 11.6162C14.3328 11.6413 14.3454 11.6665 14.3584 11.6924C14.4288 11.7204 14.5005 11.7452 14.5726 11.7686C14.7919 11.8422 15.0022 11.9299 15.2132 12.0246C15.9381 12.3492 16.5352 12.4438 17.3291 12.4541C17.3849 12.4552 17.4407 12.4563 17.4966 12.4574C17.7594 12.4603 18.0205 12.4518 18.2812 12.416C18.3223 12.413 18.3223 12.413 18.3642 12.4099C18.445 12.3821 18.445 12.3821 18.4757 12.2781C18.5121 12.1406 18.5173 12.028 18.5145 11.8859C18.5138 11.8348 18.5132 11.7838 18.5125 11.7327C18.512 11.7063 18.5116 11.6798 18.5111 11.6526C18.4978 10.8497 18.5263 10.1154 18.8924 9.38208C18.9383 9.28549 18.9383 9.28549 18.9287 9.14062C18.9852 9.12177 18.9852 9.12177 19.0429 9.10254C19.1088 9.02201 19.1088 9.02201 19.1715 8.92401C19.2743 8.77245 19.3758 8.62797 19.5 8.49316C19.5251 8.49316 19.5502 8.49316 19.5761 8.49316C19.5887 8.45546 19.6013 8.41775 19.6142 8.37891C19.938 8.07536 20.2871 7.80969 20.7187 7.69336C20.7187 7.66822 20.7187 7.64309 20.7187 7.61719C20.8368 7.58569 20.9551 7.55497 21.0734 7.52435C21.1062 7.51559 21.139 7.50683 21.1728 7.4978C21.2224 7.48509 21.2224 7.48509 21.2729 7.47213C21.3175 7.46047 21.3175 7.46047 21.3629 7.44856C21.7375 7.37904 22.1188 7.3811 22.4985 7.37662C22.5551 7.37584 22.6117 7.37504 22.6683 7.37422C22.8159 7.37214 22.9635 7.37025 23.111 7.3684C23.2622 7.36647 23.4134 7.36436 23.5645 7.36226C23.8601 7.35819 24.1556 7.35432 24.4511 7.35059ZM11.997 15.0439C11.8021 15.2517 11.763 15.383 11.7605 15.6633C11.7594 15.7278 11.7583 15.7923 11.7572 15.8568C11.7556 15.9584 11.7542 16.06 11.7532 16.1616C11.7522 16.2598 11.7504 16.3578 11.7486 16.456C11.7485 16.486 11.7483 16.516 11.7482 16.547C11.7432 16.7748 11.7076 16.971 11.54 17.1387C11.407 17.1871 11.2765 17.1799 11.1362 17.1778C11.0869 17.1773 11.0375 17.1769 10.9867 17.1764C10.909 17.1754 10.8313 17.1744 10.7536 17.1731C10.1561 17.1521 10.1561 17.1521 9.6357 17.4053C9.40356 17.689 9.38312 18.005 9.40719 18.3574C9.44122 18.6326 9.5201 18.7841 9.72616 18.9739C9.93423 19.1176 10.1357 19.1305 10.3799 19.1322C10.4258 19.1331 10.4258 19.1331 10.4726 19.1339C10.6027 19.1363 10.7327 19.1378 10.8628 19.1394C10.9581 19.1407 11.0534 19.1424 11.1487 19.1441C11.1927 19.1444 11.1927 19.1444 11.2376 19.1447C11.5131 19.1499 11.5131 19.1499 11.6162 19.2334C11.7293 19.4057 11.7453 19.5547 11.7389 19.7554C11.7386 19.783 11.7382 19.8107 11.7379 19.8391C11.7367 19.9268 11.7348 20.0145 11.7328 20.1022C11.6913 20.6938 11.6913 20.6938 11.8923 21.2281C12.1472 21.4715 12.4218 21.4748 12.7588 21.4805C12.9335 21.4744 13.0666 21.4657 13.2158 21.3662C13.2464 21.356 13.2771 21.3458 13.3086 21.3353C13.4346 21.2769 13.4835 21.2161 13.5586 21.0996C13.6305 20.8938 13.6464 20.7107 13.6478 20.4957C13.6484 20.4644 13.6489 20.433 13.6495 20.4006C13.6519 20.2674 13.6534 20.1342 13.655 20.0009C13.6563 19.9032 13.658 19.8055 13.6597 19.7078C13.6599 19.6778 13.6601 19.6478 13.6603 19.6168C13.6653 19.3421 13.6653 19.3421 13.749 19.2334C13.8885 19.1249 14.0619 19.1466 14.2304 19.1468C14.2962 19.146 14.362 19.1452 14.4278 19.1444C14.531 19.1436 14.6342 19.1429 14.7375 19.1427C14.8374 19.1424 14.9374 19.1411 15.0374 19.1397C15.0678 19.1399 15.0982 19.1401 15.1296 19.1403C15.3798 19.1359 15.5749 19.0632 15.7684 18.903C16.0192 18.5994 16.022 18.2827 15.9961 17.9004C15.9663 17.683 15.9066 17.5248 15.7509 17.3672C15.4273 17.1245 14.9793 17.1682 14.594 17.1768C13.9384 17.1911 13.9384 17.1911 13.7537 17.0435C13.6558 16.9129 13.6658 16.7884 13.6634 16.6315C13.6622 16.5743 13.6609 16.5171 13.6596 16.4599C13.6579 16.37 13.6562 16.2801 13.6547 16.1902C13.6614 15.6463 13.6614 15.6463 13.48 15.1463C13.1146 14.812 12.4005 14.7117 11.997 15.0439ZM25.8603 15.3486C25.5775 15.7411 25.5062 16.1758 25.5818 16.6459C25.6607 16.9991 25.8535 17.2613 26.1483 17.4672C26.498 17.6741 26.8752 17.7057 27.2695 17.6338C27.6062 17.5457 27.863 17.3596 28.0622 17.0744C28.2752 16.7023 28.3134 16.2689 28.2145 15.858C28.097 15.4731 27.8695 15.2035 27.5269 14.991C26.957 14.7185 26.2685 14.8853 25.8603 15.3486ZM23.2443 17.948C22.9476 18.3008 22.7937 18.6344 22.8158 19.1049C22.8649 19.529 23.0247 19.8255 23.3466 20.1094C23.7383 20.3735 24.1362 20.4438 24.6038 20.354C24.9453 20.2469 25.2181 20.0173 25.4033 19.7119C25.5871 19.3391 25.6111 18.9028 25.4795 18.5098C25.32 18.1378 25.094 17.8716 24.7231 17.7015C24.1929 17.5089 23.6779 17.585 23.2443 17.948Z" fill="#F9F4BC"/>
<path d="M16.3335 22.9982C16.3621 22.9981 16.3906 22.9979 16.42 22.9978C16.5147 22.9975 16.6095 22.9974 16.7042 22.9974C16.7725 22.9972 16.8408 22.997 16.9091 22.9968C17.094 22.9963 17.2789 22.9961 17.4638 22.9959C17.5796 22.9958 17.6953 22.9956 17.8111 22.9955C18.1737 22.9949 18.5364 22.9946 18.8991 22.9944C19.3167 22.9942 19.7343 22.9936 20.1519 22.9925C20.4754 22.9917 20.7989 22.9913 21.1225 22.9912C21.3154 22.9912 21.5082 22.991 21.7011 22.9903C21.8827 22.9896 22.0643 22.9896 22.2459 22.9899C22.3122 22.9899 22.3785 22.9898 22.4448 22.9894C22.9551 22.9866 23.4566 23.0266 23.918 23.2701C23.9305 23.2953 23.9431 23.3204 23.9561 23.3463C23.9357 23.3394 23.9154 23.3324 23.8945 23.3253C23.8341 23.3049 23.7736 23.2848 23.7131 23.2649C23.6492 23.2439 23.5854 23.2224 23.5218 23.2003C23.1093 23.0635 23.1093 23.0635 22.6992 23.1178C22.6777 23.1124 22.6563 23.107 22.6342 23.1014C22.5188 23.0727 22.4118 23.0748 22.2929 23.0746C22.2674 23.0745 22.2419 23.0744 22.2157 23.0743C22.1303 23.0741 22.0449 23.0741 21.9595 23.0742C21.8982 23.074 21.837 23.0739 21.7757 23.0738C21.6092 23.0734 21.4426 23.0733 21.2761 23.0733C21.1718 23.0733 21.0675 23.0732 20.9633 23.0731C20.5988 23.0728 20.2343 23.0726 19.8698 23.0726C19.5313 23.0727 19.1928 23.0723 18.8543 23.0717C18.563 23.0712 18.2716 23.0709 17.9802 23.071C17.8066 23.071 17.6329 23.0709 17.4593 23.0705C17.2954 23.0701 17.1316 23.0701 16.9678 23.0704C16.9081 23.0704 16.8485 23.0703 16.7889 23.0701C16.0025 23.0643 16.0025 23.0643 15.2558 23.2773C15.173 23.3153 15.0906 23.3507 15.0059 23.3844C14.9807 23.3718 14.9556 23.3592 14.9297 23.3463C15.3792 23.0996 15.8219 22.9975 16.3335 22.9982Z" fill="#F9F4BC"/>
<path d="M24.4512 7.35059C24.47 7.38829 24.47 7.38829 24.4893 7.42676C24.6024 7.42676 24.7155 7.42676 24.832 7.42676C24.832 7.43933 24.832 7.45189 24.832 7.46484C24.772 7.46493 24.772 7.46493 24.7109 7.46501C24.3311 7.46565 23.9513 7.46729 23.5715 7.46987C23.3763 7.47117 23.1811 7.47213 22.9859 7.47229C22.797 7.47246 22.6081 7.47355 22.4192 7.47526C22.3477 7.47575 22.2762 7.47592 22.2047 7.47574C21.7227 7.47484 21.2875 7.52447 20.833 7.69336C20.8079 7.7185 20.7827 7.74363 20.7568 7.76953C20.7317 7.75696 20.7066 7.74439 20.6807 7.73145C20.6681 7.75658 20.6555 7.78172 20.6426 7.80762C20.6174 7.78248 20.5923 7.75734 20.5664 7.73145C20.6167 7.71888 20.667 7.70631 20.7188 7.69336C20.7188 7.66822 20.7188 7.64309 20.7188 7.61719C20.8368 7.58569 20.9551 7.55497 21.0734 7.52435C21.1062 7.51559 21.1391 7.50683 21.1729 7.4978C21.2224 7.48509 21.2224 7.48509 21.2729 7.47213C21.3026 7.46436 21.3324 7.45658 21.363 7.44856C21.7376 7.37904 22.1188 7.3811 22.4985 7.37662C22.5551 7.37584 22.6117 7.37504 22.6684 7.37422C22.8159 7.37214 22.9635 7.37025 23.1111 7.3684C23.2622 7.36647 23.4134 7.36436 23.5646 7.36226C23.8601 7.35819 24.1556 7.35432 24.4512 7.35059Z" fill="#F9F4BC"/>
<path d="M10.0166 19.1571C10.2131 19.1552 10.4096 19.1538 10.6061 19.1529C10.6729 19.1525 10.7397 19.152 10.8065 19.1513C10.9027 19.1504 10.999 19.15 11.0952 19.1496C11.1249 19.1492 11.1545 19.1488 11.185 19.1484C11.3542 19.1484 11.4993 19.1571 11.6543 19.2332C11.6918 19.3379 11.697 19.4358 11.6967 19.5462C11.6967 19.5775 11.6967 19.6087 11.6967 19.6409C11.6965 19.6743 11.6963 19.7077 11.6961 19.742C11.696 19.7765 11.696 19.8109 11.6959 19.8464C11.6957 19.9562 11.6952 20.0661 11.6948 20.1759C11.6946 20.2504 11.6944 20.3249 11.6942 20.3995C11.6938 20.582 11.6932 20.7646 11.6924 20.9471C11.6798 20.9471 11.6672 20.9471 11.6543 20.9471C11.6537 20.9018 11.6532 20.8564 11.6526 20.8097C11.6504 20.6413 11.6475 20.473 11.6443 20.3046C11.643 20.2317 11.642 20.1589 11.6411 20.086C11.6398 19.9813 11.6378 19.8765 11.6357 19.7718C11.6355 19.7393 11.6352 19.7067 11.635 19.6732C11.6318 19.546 11.6251 19.4456 11.5771 19.327C11.4592 19.2396 11.3359 19.2499 11.1949 19.2508C11.1649 19.2503 11.1349 19.2499 11.104 19.2494C11.0081 19.2481 10.9123 19.2477 10.8164 19.2475C10.7205 19.2469 10.6247 19.2461 10.5288 19.2448C10.4692 19.244 10.4096 19.2437 10.3499 19.2438C10.2057 19.2424 10.1396 19.2391 10.0166 19.1571Z" fill="#F9F4BC"/>
<path d="M6.7793 28.0693C6.92837 28.117 7.06988 28.1718 7.21252 28.236C7.70637 28.4379 8.12715 28.5024 8.65979 28.5026C8.73313 28.5027 8.73313 28.5027 8.80795 28.5028C9.05309 28.4999 9.2812 28.486 9.51905 28.4246C9.60727 28.4106 9.66566 28.423 9.75 28.4502C9.59817 28.4906 9.44577 28.5279 9.29297 28.5645C9.25909 28.5734 9.22522 28.5824 9.19032 28.5917C8.44102 28.7588 7.51815 28.5291 6.86172 28.1611C6.83452 28.1434 6.80732 28.1257 6.7793 28.1074C6.7793 28.0949 6.7793 28.0823 6.7793 28.0693Z" fill="#F9F4BC"/>
<path d="M9.14062 12.7588C9.16576 12.7714 9.1909 12.7839 9.2168 12.7969C9.12985 12.8924 9.04245 12.9875 8.95496 13.0825C8.93016 13.1098 8.90537 13.137 8.87983 13.1651C8.84411 13.2038 8.84411 13.2038 8.80767 13.2432C8.78573 13.2671 8.76379 13.2911 8.74119 13.3157C8.68359 13.3682 8.68359 13.3682 8.60742 13.3682C8.60742 13.3933 8.60742 13.4184 8.60742 13.4443C8.57836 13.46 8.54929 13.4758 8.51935 13.4919C8.40955 13.5508 8.40955 13.5508 8.367 13.6633C8.29055 13.8106 8.19814 13.8875 8.07199 13.9923C7.99159 14.0591 7.91807 14.1307 7.8457 14.2061C7.89816 14.0498 7.96897 13.9521 8.08136 13.8323C8.11209 13.7992 8.14283 13.7661 8.17449 13.7319C8.21912 13.6838 8.21912 13.6838 8.26465 13.6348C8.31009 13.5826 8.35533 13.5302 8.40033 13.4777C8.628 13.2169 8.87724 12.983 9.14062 12.7588Z" fill="#F9F4BC"/>
<path d="M29.1738 28.4118C29.2333 28.4172 29.2929 28.4228 29.3524 28.4284C29.4021 28.4331 29.4021 28.4331 29.4528 28.4378C29.5547 28.4499 29.5547 28.4499 29.6397 28.4693C29.8392 28.5046 30.043 28.495 30.2451 28.495C30.3252 28.4951 30.4052 28.4958 30.4853 28.4965C30.7578 28.4976 31.0048 28.4827 31.2686 28.4118C31.3852 28.407 31.3852 28.407 31.459 28.4118C31.1829 28.5958 30.8096 28.5863 30.4878 28.6093C30.4197 28.6148 30.4197 28.6148 30.3503 28.6203C30.1024 28.6388 30.1024 28.6388 30.0117 28.6403C29.9992 28.6277 29.9866 28.6152 29.9736 28.6022C29.8386 28.5771 29.7035 28.5548 29.5679 28.5334C29.2979 28.4886 29.2979 28.4886 29.1738 28.4118Z" fill="#F9F4BC"/>
<path d="M9.75 28.4497C9.26549 28.5786 8.84292 28.662 8.34082 28.6021C8.45791 28.524 8.48654 28.5161 8.61947 28.5128C8.65156 28.5117 8.68364 28.5106 8.7167 28.5095C8.75055 28.5086 8.7844 28.5078 8.81927 28.5069C9.06121 28.4983 9.29118 28.4863 9.52625 28.4232C9.61071 28.4095 9.6691 28.4241 9.75 28.4497Z" fill="#F9F4BC"/>
<path d="M22.5469 23.0038C23.0217 22.9828 23.4918 23.0455 23.918 23.2704C23.9368 23.3081 23.9368 23.3081 23.9561 23.3466C23.9357 23.3397 23.9154 23.3327 23.8945 23.3256C23.8341 23.3052 23.7736 23.2851 23.7131 23.2652C23.6492 23.2441 23.5854 23.2227 23.5218 23.2006C23.1093 23.0638 23.1093 23.0638 22.6992 23.1181C22.6183 23.1014 22.6183 23.1014 22.5469 23.08C22.5469 23.0548 22.5469 23.0297 22.5469 23.0038Z" fill="#F9F4BC"/>
<path d="M9.14062 12.7588C9.16576 12.7714 9.1909 12.7839 9.2168 12.7969C9.12985 12.8924 9.04245 12.9875 8.95496 13.0825C8.93016 13.1098 8.90537 13.137 8.87983 13.1651C8.85601 13.1909 8.8322 13.2166 8.80767 13.2432C8.78573 13.2671 8.76379 13.2911 8.74119 13.3157C8.68359 13.3682 8.68359 13.3682 8.60742 13.3682C8.60742 13.3933 8.60742 13.4184 8.60742 13.4443C8.58229 13.4318 8.55715 13.4192 8.53125 13.4062C8.62406 13.2257 8.751 13.1084 8.90021 12.9754C8.92331 12.9545 8.94641 12.9335 8.97021 12.912C9.02682 12.8607 9.0837 12.8097 9.14062 12.7588Z" fill="#F9F4BC"/>
<path d="M9.40706 17.748C9.41963 17.748 9.4322 17.748 9.44515 17.748C9.44426 17.7872 9.44338 17.8263 9.44247 17.8666C9.43764 18.179 9.44873 18.4704 9.52132 18.7764C9.48362 18.7638 9.44591 18.7512 9.40706 18.7383C9.37328 18.5358 9.36315 18.3411 9.36422 18.136C9.36407 18.107 9.36392 18.078 9.36377 18.048C9.36415 17.8339 9.36415 17.8339 9.40706 17.748Z" fill="#F9F4BC"/>
<path d="M22.5469 23.0039C22.7103 23.0039 22.8737 23.0039 23.042 23.0039C23.0294 23.029 23.0169 23.0542 23.0039 23.0801C22.9678 23.0793 22.9316 23.0785 22.8944 23.0777C22.7789 23.0715 22.7789 23.0715 22.6992 23.1182C22.6183 23.1015 22.6183 23.1015 22.5469 23.0801C22.5469 23.0549 22.5469 23.0298 22.5469 23.0039Z" fill="#F9F4BC"/>
<path d="M6.47461 27.8789C6.65558 27.8954 6.73816 27.9295 6.85547 28.0693C6.67449 28.0529 6.59191 28.0188 6.47461 27.8789Z" fill="#F9F4BC"/>
<path d="M30.7354 13.7109C30.8482 13.8179 30.9427 13.9083 31.002 14.0537C30.7816 13.9271 30.7816 13.9271 30.7401 13.7966C30.7385 13.7684 30.737 13.7401 30.7354 13.7109Z" fill="#F9F4BC"/>
<path d="M19.043 9.10254C19.0811 9.17871 19.0811 9.17871 19.0525 9.29535C19.0368 9.33227 19.0211 9.36919 19.0049 9.40723C18.9672 9.41979 18.9295 9.43236 18.8906 9.44531C18.9032 9.34477 18.9158 9.24422 18.9287 9.14062C18.9664 9.12806 19.0041 9.11549 19.043 9.10254Z" fill="#F9F4BC"/>
<path d="M27.9932 15.3105C28.0183 15.3105 28.0434 15.3105 28.0693 15.3105C28.0896 15.3588 28.1093 15.4072 28.1288 15.4557C28.1399 15.4827 28.1509 15.5097 28.1623 15.5374C28.1836 15.6152 28.1836 15.6152 28.1455 15.7295C28.1198 15.6812 28.0945 15.6328 28.0693 15.5843C28.0552 15.5573 28.0411 15.5304 28.0265 15.5026C27.9932 15.4248 27.9932 15.4248 27.9932 15.3105Z" fill="#F9F4BC"/>
<path d="M20.6807 9.82617C20.6932 9.85131 20.7058 9.87645 20.7188 9.90234C20.6891 9.9681 20.6891 9.9681 20.645 10.0404C20.619 10.0828 20.5931 10.1252 20.5664 10.1689C20.5538 10.1689 20.5413 10.1689 20.5283 10.1689C20.5402 10.0404 20.5402 10.0404 20.5664 9.90234C20.6041 9.87721 20.6418 9.85207 20.6807 9.82617Z" fill="#F9F4BC"/>
<path d="M9.40714 18.3574C9.4197 18.3574 9.43227 18.3574 9.44522 18.3574C9.47036 18.4957 9.49549 18.6339 9.52139 18.7764C9.48369 18.7638 9.44598 18.7512 9.40714 18.7383C9.36429 18.486 9.36429 18.486 9.40714 18.3574Z" fill="#F9F4BC"/>
<path d="M30.7734 28.6025C30.8488 28.6025 30.9243 28.6025 31.002 28.6025C31.002 28.6151 31.002 28.6277 31.002 28.6406C30.9265 28.6406 30.8511 28.6406 30.7734 28.6406C30.7734 28.6281 30.7734 28.6155 30.7734 28.6025Z" fill="#F9F4BC"/>
<path d="M9.02637 28.6025C9.08921 28.6025 9.15205 28.6025 9.2168 28.6025C9.2168 28.6151 9.2168 28.6277 9.2168 28.6406C9.15396 28.6406 9.09111 28.6406 9.02637 28.6406C9.02637 28.6281 9.02637 28.6155 9.02637 28.6025Z" fill="#F9F4BC"/>
<path d="M7.99805 28.6025C8.06089 28.6025 8.12373 28.6025 8.18848 28.6025C8.18848 28.6151 8.18848 28.6277 8.18848 28.6406C8.12563 28.6406 8.06279 28.6406 7.99805 28.6406C7.99805 28.6281 7.99805 28.6155 7.99805 28.6025Z" fill="#F9F4BC"/>
<path d="M13.5586 20.5664C13.5967 20.7188 13.5967 20.7188 13.5967 20.7188L13.5586 20.5664Z" fill="#F9F4BC"/>
<path d="M15.3105 17.2529C15.4629 17.291 15.4629 17.291 15.4629 17.291L15.3105 17.2529Z" fill="#F9F4BC"/>
<path d="M28.6406 28.2598C28.6658 28.2849 28.6909 28.31 28.7168 28.3359C28.6917 28.3359 28.6665 28.3359 28.6406 28.3359C28.6406 28.3108 28.6406 28.2857 28.6406 28.2598Z" fill="#F9F4BC"/>
<path d="M12.873 21.3662C12.9873 21.4043 12.9873 21.4043 12.9873 21.4043L12.873 21.3662Z" fill="#F9F4BC"/>
<path d="M28.1455 16.0723C28.1706 16.0974 28.1958 16.1225 28.2217 16.1484C28.1965 16.1484 28.1714 16.1484 28.1455 16.1484C28.1455 16.1233 28.1455 16.0982 28.1455 16.0723Z" fill="#F9F4BC"/>
<path d="M26.0889 15.1582C26.114 15.1582 26.1391 15.1582 26.165 15.1582C26.1525 15.1833 26.1399 15.2085 26.127 15.2344C26.1144 15.2092 26.1018 15.1841 26.0889 15.1582Z" fill="#F9F4BC"/>
<path d="M23.1943 12.1875C23.3086 12.2256 23.3086 12.2256 23.3086 12.2256L23.1943 12.1875Z" fill="#F9F4BC"/>
<path d="M29.2881 28.5264C29.3643 28.5645 29.3643 28.5645 29.3643 28.5645L29.2881 28.5264Z" fill="#F9F4BC"/>
<path d="M7.69336 28.5264C7.76953 28.5645 7.76953 28.5645 7.76953 28.5645L7.69336 28.5264Z" fill="#F9F4BC"/>
<path d="M28.374 28.1455C28.4502 28.1836 28.4502 28.1836 28.4502 28.1836L28.374 28.1455Z" fill="#F9F4BC"/>
<path d="M27.7266 27.6885C27.8027 27.7266 27.8027 27.7266 27.8027 27.7266L27.7266 27.6885Z" fill="#F9F4BC"/>
<path d="M33.4014 27.0791C33.4775 27.1172 33.4775 27.1172 33.4775 27.1172L33.4014 27.0791Z" fill="#F9F4BC"/>
<path d="M25.0225 24.4893C25.0986 24.5273 25.0986 24.5273 25.0986 24.5273L25.0225 24.4893Z" fill="#F9F4BC"/>
<path d="M23.0039 23.1182C23.0801 23.1562 23.0801 23.1562 23.0801 23.1562L23.0039 23.1182Z" fill="#F9F4BC"/>
<path d="M15.9961 23.1182C16.0723 23.1562 16.0723 23.1562 16.0723 23.1562L15.9961 23.1182Z" fill="#F9F4BC"/>
<path d="M15.8438 23.1182C15.9199 23.1562 15.9199 23.1562 15.9199 23.1562L15.8438 23.1182Z" fill="#F9F4BC"/>
<path d="M21.4424 23.0801C21.5186 23.1182 21.5186 23.1182 21.5186 23.1182L21.4424 23.0801Z" fill="#F9F4BC"/>
<path d="M19.9189 23.0801C19.9951 23.1182 19.9951 23.1182 19.9951 23.1182L19.9189 23.0801Z" fill="#F9F4BC"/>
<path d="M18.3955 23.0801C18.4717 23.1182 18.4717 23.1182 18.4717 23.1182L18.3955 23.0801Z" fill="#F9F4BC"/>
<path d="M16.5674 23.0801C16.6436 23.1182 16.6436 23.1182 16.6436 23.1182L16.5674 23.0801Z" fill="#F9F4BC"/>
<path d="M14.168 19.043C14.2441 19.0811 14.2441 19.0811 14.2441 19.0811L14.168 19.043Z" fill="#F9F4BC"/>
<path d="M26.0889 17.3672C26.165 17.4053 26.165 17.4053 26.165 17.4053L26.0889 17.3672Z" fill="#F9F4BC"/>
<path d="M28.4883 11.9209C28.5645 11.959 28.5645 11.959 28.5645 11.959L28.4883 11.9209Z" fill="#F9F4BC"/>
<path d="M23.7656 11.9209C23.8418 11.959 23.8418 11.959 23.8418 11.959L23.7656 11.9209Z" fill="#F9F4BC"/>
<path d="M10.4355 11.8828C10.5117 11.9209 10.5117 11.9209 10.5117 11.9209L10.4355 11.8828Z" fill="#F9F4BC"/>
<path d="M27.6504 11.6162C27.7266 11.6543 27.7266 11.6543 27.7266 11.6543L27.6504 11.6162Z" fill="#F9F4BC"/>
<path d="M21.7852 7.35059C21.8613 7.38867 21.8613 7.38867 21.8613 7.38867L21.7852 7.35059Z" fill="#F9F4BC"/>
<path d="M21.5947 7.35059C21.6709 7.38867 21.6709 7.38867 21.6709 7.38867L21.5947 7.35059Z" fill="#F9F4BC"/>
<path d="M21.9375 7.3125C22.0137 7.35059 22.0137 7.35059 22.0137 7.35059L21.9375 7.3125Z" fill="#F9F4BC"/>
</svg>
