<svg width="29" height="47" viewBox="0 0 29 47" fill="none" xmlns="http://www.w3.org/2000/svg">
<path d="M17.2188 14.1978C17.3025 14.197 17.3863 14.1964 17.4701 14.1959C17.4939 14.1956 17.5178 14.1954 17.5423 14.1951C17.5651 14.195 17.588 14.1949 17.6115 14.1948C17.6431 14.1946 17.6431 14.1946 17.6753 14.1943C17.7285 14.1978 17.7285 14.1978 17.7852 14.2284C17.8225 14.2284 17.8599 14.2284 17.8984 14.2284C17.8984 14.2486 17.8984 14.2688 17.8984 14.2896C17.9163 14.2915 17.9341 14.2933 17.9524 14.2952C18.0028 14.3006 18.0533 14.306 18.1036 14.3116C18.1524 14.317 18.2011 14.3221 18.2499 14.3269C18.3029 14.3327 18.3556 14.3415 18.4082 14.3508C18.4175 14.371 18.4269 14.3912 18.4365 14.412C18.5046 14.445 18.5726 14.4757 18.6418 14.5057C19.1348 14.7297 19.6074 15.1344 19.8809 15.636C19.8996 15.6562 19.9182 15.6764 19.9375 15.6972C19.9755 15.7732 20.0119 15.8492 20.0472 15.9267C20.0574 15.9487 20.0675 15.9707 20.0779 15.9934C20.2849 16.4488 20.51 17.0966 20.357 17.6058C20.2973 17.7531 20.2077 17.84 20.0826 17.9251C19.9816 17.9666 19.9031 17.9684 19.7959 17.9615C19.7959 17.9817 19.7959 18.0019 19.7959 18.0227C19.7772 18.0126 19.7585 18.0025 19.7393 17.9921C19.6962 17.9895 19.653 17.9888 19.6098 17.9891C19.5718 17.9892 19.5718 17.9892 19.5329 17.9894C19.5064 17.9896 19.4799 17.9899 19.4525 17.9902C19.4124 17.9904 19.4124 17.9904 19.3714 17.9906C19.3052 17.9909 19.239 17.9915 19.1729 17.9921C19.1822 18.0224 19.1915 18.0527 19.2012 18.0839C19.1918 18.1142 19.1825 18.1445 19.1729 18.1757C19.1702 18.2218 19.1692 18.268 19.1691 18.3142C19.1691 18.341 19.169 18.3677 19.169 18.3953C19.1691 18.4232 19.1692 18.451 19.1693 18.4798C19.1692 18.5075 19.1691 18.5352 19.169 18.5638C19.169 18.5906 19.1691 18.6174 19.1691 18.6451C19.1691 18.6695 19.1692 18.6939 19.1692 18.719C19.1701 18.7863 19.1701 18.7863 19.189 18.8425C19.2042 18.9271 19.1903 19.0011 19.1798 19.0858C19.1682 19.2005 19.169 19.3148 19.1693 19.4301C19.1692 19.4568 19.1692 19.4835 19.1691 19.511C19.169 19.6 19.1691 19.689 19.1692 19.7779C19.1691 19.842 19.1691 19.9061 19.169 19.9702C19.1689 20.1445 19.169 20.3188 19.169 20.493C19.1691 20.6775 19.1691 20.8619 19.169 21.0464C19.169 21.358 19.169 21.6695 19.1692 21.9811C19.1693 22.297 19.1693 22.6129 19.1692 22.9288C19.169 23.3869 19.1689 23.845 19.1691 24.3031C19.1691 24.3402 19.1691 24.3773 19.1691 24.4156C19.1696 25.4099 19.1734 26.404 19.1938 27.3981C19.1945 27.434 19.1952 27.4699 19.1959 27.5068C19.1971 27.5713 19.1986 27.6358 19.2002 27.7002C19.2034 27.8648 19.1937 28.0186 19.1729 28.1815C19.1713 28.2387 19.1711 28.296 19.1722 28.3532C19.1728 28.3856 19.1734 28.418 19.174 28.4514C19.1747 28.4868 19.1755 28.5221 19.1763 28.5585C19.1773 28.6182 19.1784 28.6779 19.1794 28.7376C19.1805 28.8032 19.1817 28.8687 19.1828 28.9342C19.202 30.0152 19.2046 31.0963 19.2047 32.1775C19.2047 32.3215 19.2048 32.4654 19.2049 32.6093C19.2056 33.4611 19.2035 34.3128 19.1935 35.1645C19.1926 35.2446 19.1918 35.3247 19.1912 35.4048C19.1831 36.3768 19.0746 37.2507 18.4113 37.9728C17.8131 38.5972 17.1336 38.7992 16.3205 38.8091C16.2758 38.8097 16.2311 38.8103 16.1864 38.811C16.0922 38.8123 15.9979 38.8136 15.9036 38.8148C15.7874 38.8162 15.6711 38.8179 15.5549 38.8196C14.271 38.8385 12.9873 38.8294 11.7033 38.8158C11.5227 38.8139 11.3421 38.8121 11.1614 38.8102C10.8111 38.8067 10.4607 38.8031 10.1104 38.7994C10.101 38.8196 10.0917 38.8398 10.082 38.8606C10.082 38.8404 10.082 38.8202 10.082 38.7994C10.0542 38.8007 10.0542 38.8007 10.0257 38.8021C9.4224 38.8302 8.81973 38.8357 8.21594 38.8356C8.08337 38.8356 7.95081 38.8361 7.81824 38.8366C7.71491 38.8369 7.61158 38.837 7.50825 38.837C7.45931 38.837 7.41036 38.8371 7.36141 38.8374C7.29358 38.8377 7.22575 38.8376 7.15791 38.8374C7.1381 38.8376 7.11828 38.8377 7.09787 38.8379C6.9777 38.8371 6.88036 38.8161 6.76855 38.7688C6.75921 38.789 6.74986 38.8092 6.74023 38.83C6.73089 38.8098 6.72154 38.7896 6.71191 38.7688C6.64284 38.7478 6.57483 38.7298 6.50482 38.7133C6.29913 38.6616 6.1117 38.5871 5.91895 38.4934C5.87183 38.4727 5.82466 38.4523 5.77734 38.4322C5.77734 38.412 5.77734 38.3918 5.77734 38.371C5.75774 38.3646 5.73814 38.3581 5.71794 38.3515C5.6105 38.297 5.53813 38.2204 5.45343 38.1319C5.42224 38.0998 5.391 38.0677 5.35973 38.0357C5.34451 38.02 5.32929 38.0043 5.31361 37.9882C5.2687 37.9437 5.22226 37.9028 5.17454 37.8619C5.10279 37.7944 5.07627 37.759 5.04102 37.6672C4.99713 37.5952 4.95177 37.5245 4.90627 37.4537C4.87109 37.3918 4.87109 37.3918 4.87109 37.3306C4.8524 37.3205 4.83371 37.3104 4.81445 37.3C4.78367 37.2334 4.75592 37.1678 4.72949 37.0992C4.72191 37.0798 4.71433 37.0603 4.70652 37.0403C4.63765 36.8601 4.58789 36.7009 4.58789 36.5044C4.5692 36.5044 4.55051 36.5044 4.53125 36.5044C4.53125 35.7673 4.53125 35.0302 4.53125 34.2707C4.51256 34.2606 4.49387 34.2505 4.47461 34.2401C4.4933 34.2401 4.51199 34.2401 4.53125 34.2401C4.52665 34.2197 4.52205 34.1992 4.51731 34.1782C4.50017 34.0697 4.49903 33.9639 4.49937 33.8542C4.49932 33.8309 4.49928 33.8076 4.49924 33.7835C4.49914 33.7051 4.49924 33.6267 4.49933 33.5482C4.4993 33.4915 4.49926 33.4348 4.4992 33.3781C4.49908 33.2219 4.49914 33.0658 4.49923 32.9097C4.49929 32.7413 4.49919 32.5729 4.49911 32.4045C4.49899 32.0741 4.49902 31.7437 4.4991 31.4133C4.49916 31.144 4.49917 30.8746 4.49914 30.6052C4.49914 30.5668 4.49913 30.5284 4.49913 30.4889C4.49912 30.4109 4.49911 30.3329 4.4991 30.2549C4.49902 29.5431 4.4991 28.8313 4.49925 28.1195C4.49938 27.4734 4.49937 26.8273 4.49924 26.1812C4.49908 25.4535 4.49903 24.7258 4.49911 23.9981C4.49912 23.9199 4.49913 23.8418 4.49914 23.7636C4.49914 23.7251 4.49915 23.6867 4.49915 23.6471C4.49918 23.3796 4.49914 23.1122 4.49907 22.8447C4.49846 20.0905 4.49846 20.0905 4.51065 19.1506C4.51153 19.0807 4.51231 19.0109 4.51295 18.941C4.5224 17.9811 4.76743 17.2238 5.39911 16.5333C5.70583 16.2227 6.18105 15.9244 6.61102 15.9075C6.63497 15.9088 6.65892 15.9101 6.68359 15.9114C6.69761 15.8811 6.69761 15.8811 6.71191 15.8502C7.12668 15.8442 7.54146 15.8393 7.95624 15.8349C7.98994 15.8345 8.02365 15.8341 8.05838 15.8338C9.86369 15.8146 11.6691 15.817 13.4745 15.8176C13.532 15.8176 13.5895 15.8177 13.647 15.8177C14.6393 15.818 15.6317 15.8187 16.624 15.8196C16.624 15.8095 16.624 15.7994 16.624 15.789C16.6894 15.789 16.7549 15.789 16.8223 15.789C16.8129 15.7486 16.8036 15.7082 16.7939 15.6666C16.8126 15.6666 16.8313 15.6666 16.8506 15.6666C16.8511 15.6371 16.8517 15.6076 16.8523 15.5773C16.8545 15.4671 16.857 15.357 16.8596 15.2469C16.8607 15.1994 16.8616 15.1519 16.8625 15.1044C16.8638 15.0358 16.8655 14.9672 16.8672 14.8986C16.8675 14.8776 16.8678 14.8566 16.8682 14.835C16.8721 14.6958 16.8919 14.5738 16.9355 14.4426C17.003 14.3837 17.003 14.3837 17.0807 14.3412C17.1274 14.3152 17.1736 14.2881 17.2188 14.259C17.2188 14.2388 17.2188 14.2186 17.2188 14.1978ZM16.8506 15.7278C16.8789 15.789 16.8789 15.789 16.8789 15.789L16.8506 15.7278ZM7.02344 17.7779C6.99014 17.7798 6.95685 17.7817 6.92255 17.7836C6.73884 17.8064 6.61876 17.9284 6.50482 18.0781C6.35284 18.3883 6.36004 18.681 6.36128 19.0225C6.36118 19.0812 6.36105 19.14 6.36088 19.1987C6.36053 19.3598 6.3607 19.5208 6.36096 19.6819C6.36116 19.8557 6.36086 20.0296 6.36063 20.2034C6.36025 20.5438 6.36033 20.8842 6.36058 21.2247C6.36077 21.5013 6.36079 21.778 6.3607 22.0546C6.36069 22.094 6.36068 22.1334 6.36066 22.174C6.36063 22.2539 6.36061 22.3339 6.36058 22.4139C6.36034 23.1426 6.36059 23.8712 6.36103 24.5999C6.36144 25.2649 6.3614 25.9299 6.36099 26.5949C6.36054 27.3422 6.36036 28.0896 6.36062 28.8369C6.36065 28.9166 6.36067 28.9963 6.3607 29.076C6.36071 29.1152 6.36073 29.1544 6.36074 29.1948C6.36081 29.4712 6.36069 29.7475 6.36049 30.0238C6.36025 30.3606 6.36032 30.6973 6.36077 31.0341C6.36099 31.2059 6.36108 31.3777 6.3608 31.5495C6.36055 31.7068 6.36069 31.8641 6.36114 32.0214C6.36123 32.0783 6.36118 32.1352 6.36098 32.1921C6.35709 32.6339 6.35709 32.6339 6.50482 33.041C6.66824 33.2081 6.85781 33.2647 7.07818 33.265C7.11278 33.2651 7.14738 33.2652 7.18302 33.2653C7.22147 33.2653 7.25992 33.2653 7.29837 33.2653C7.33917 33.2653 7.37997 33.2654 7.42077 33.2655C7.53304 33.2658 7.6453 33.2658 7.75757 33.2659C7.87859 33.2659 7.99962 33.2661 8.12065 33.2664C8.38536 33.2668 8.65008 33.267 8.91479 33.2671C9.08007 33.2672 9.24535 33.2673 9.41063 33.2674C9.86822 33.2678 10.3258 33.2681 10.7834 33.2682C10.8127 33.2682 10.842 33.2682 10.8721 33.2682C10.9015 33.2683 10.9309 33.2683 10.9611 33.2683C11.0206 33.2683 11.0801 33.2683 11.1396 33.2683C11.1839 33.2683 11.1839 33.2683 11.229 33.2683C11.7072 33.2685 12.1854 33.269 12.6635 33.2697C13.1544 33.2704 13.6453 33.2708 14.1362 33.2708C14.4118 33.2709 14.6875 33.271 14.9631 33.2716C15.1978 33.2721 15.4325 33.2722 15.6672 33.272C15.787 33.2719 15.9067 33.2719 16.0265 33.2723C16.1361 33.2727 16.2458 33.2727 16.3555 33.2723C16.3951 33.2722 16.4347 33.2723 16.4743 33.2726C16.7354 33.2742 16.9496 33.2601 17.171 33.1022C17.3826 32.8629 17.3931 32.585 17.3923 32.269C17.3924 32.2445 17.3924 32.22 17.3925 32.1948C17.3926 32.1149 17.3925 32.0349 17.3924 31.9549C17.3925 31.8991 17.3925 31.8432 17.3925 31.7874C17.3926 31.6709 17.3925 31.5543 17.3924 31.4378C17.3922 31.2881 17.3923 31.1384 17.3925 30.9887C17.3926 30.8737 17.3925 30.7586 17.3925 30.6436C17.3924 30.5884 17.3925 30.5331 17.3925 30.4779C17.3926 30.4011 17.3925 30.3242 17.3923 30.2474C17.3924 30.2129 17.3924 30.2129 17.3925 30.1778C17.4007 30.0735 17.4007 30.0735 17.3604 29.9869C17.3644 29.9515 17.3684 29.9161 17.3725 29.8796C17.3983 29.6518 17.3924 29.4225 17.3919 29.1934C17.3919 29.1411 17.3919 29.0888 17.3919 29.0365C17.3919 28.8952 17.3917 28.7538 17.3915 28.6125C17.3914 28.4644 17.3913 28.3163 17.3913 28.1682C17.3912 27.8879 17.391 27.6076 17.3907 27.3273C17.3904 27.0085 17.3902 26.6898 17.3901 26.3711C17.3899 25.8265 17.3895 25.2819 17.389 24.7373C17.389 24.7029 17.389 24.7029 17.3889 24.6679C17.3889 24.6068 17.3888 24.5458 17.3888 24.4847C17.3886 24.3371 17.3888 24.1894 17.3891 24.0418C17.3902 23.3946 17.3911 22.7475 17.3916 22.1003C17.3919 21.7679 17.3923 21.4355 17.3929 21.1031C17.3935 20.8128 17.3939 20.5226 17.394 20.2323C17.3941 20.0789 17.3942 19.9254 17.3947 19.772C17.395 19.6274 17.3952 19.4827 17.3951 19.3381C17.3951 19.2853 17.3952 19.2326 17.3954 19.1798C17.4203 18.5583 17.4203 18.5583 17.1904 18.0227C17.1563 17.981 17.1563 17.981 17.1214 17.9385C16.9603 17.7857 16.7968 17.743 16.5872 17.7443C16.5595 17.7444 16.5319 17.7445 16.5034 17.7446C16.4606 17.745 16.4606 17.745 16.4169 17.7454C16.3879 17.7455 16.3588 17.7457 16.3288 17.7458C16.2573 17.7462 16.1858 17.7467 16.1143 17.7473C16.1143 17.7675 16.1143 17.7877 16.1143 17.8085C16.0956 17.8085 16.0769 17.8085 16.0576 17.8085C16.0576 17.7883 16.0576 17.7681 16.0576 17.7473C15.9129 17.7465 15.7683 17.746 15.6236 17.7456C15.5743 17.7455 15.5251 17.7452 15.4758 17.745C15.4052 17.7446 15.3345 17.7444 15.2639 17.7443C15.2417 17.7441 15.2196 17.744 15.1967 17.7438C15.1438 17.7438 15.091 17.7454 15.0381 17.7473C15.0287 17.7574 15.0194 17.7675 15.0098 17.7779C15.0098 17.7678 15.0098 17.7577 15.0098 17.7473C14.9898 17.7473 14.9698 17.7473 14.9492 17.7473C7.92969 17.7473 7.92969 17.7473 7.8399 17.7468C7.74318 17.7463 7.64646 17.7459 7.54974 17.7456C7.50793 17.7455 7.46613 17.7452 7.42432 17.745C7.36407 17.7446 7.30383 17.7444 7.24358 17.7443C7.20749 17.7441 7.1714 17.744 7.13422 17.7438C7.05481 17.7371 7.05481 17.7371 7.02344 17.7779ZM11.1299 35.0663C11.112 35.0831 11.0941 35.0999 11.0757 35.1172C10.8602 35.3341 10.7823 35.5763 10.7617 35.8925C10.7699 35.9437 10.7793 35.9948 10.79 36.0455C10.7921 36.0926 10.7938 36.1398 10.7953 36.187C10.8223 36.4791 10.9724 36.6995 11.1778 36.8822C11.4688 37.1077 11.7731 37.1166 12.1211 37.0858C12.2199 37.0613 12.2926 37.0248 12.376 36.9634C12.4048 36.944 12.4048 36.944 12.4343 36.9241C12.6961 36.7322 12.8503 36.471 12.9141 36.1373C12.9465 35.8 12.8961 35.5019 12.7116 35.2244C12.5088 34.9678 12.2653 34.8096 11.9529 34.7805C11.6207 34.7671 11.383 34.8286 11.1299 35.0663Z" fill="#AEDAD7"/>
<path d="M17.5727 8.77459C17.6007 8.77492 17.6286 8.77526 17.6574 8.7756C17.9265 8.77982 18.1953 8.7922 18.4641 8.80614C18.5683 8.81145 18.672 8.81436 18.7764 8.81284C18.7904 8.84313 18.7904 8.84313 18.8047 8.87404C18.8693 8.8966 18.8693 8.8966 18.9482 8.9124C18.9777 8.91897 19.0073 8.92554 19.0377 8.9323C19.0689 8.93895 19.1 8.9456 19.1321 8.95244C19.1625 8.95921 19.1929 8.96597 19.2242 8.97294C19.3547 9.00151 19.4837 9.02839 19.6161 9.04317C19.7109 9.05763 19.7109 9.05763 19.7676 9.11883C19.8254 9.14118 19.8839 9.16128 19.9428 9.18002C19.9758 9.19064 20.0089 9.20125 20.0429 9.21218C20.1399 9.24252 20.2368 9.27276 20.334 9.30242C20.4145 9.33143 20.4873 9.3667 20.5641 9.40569C20.7024 9.47432 20.8401 9.52894 20.9853 9.57781C20.9853 9.59801 20.9853 9.6182 20.9853 9.63901C21.0209 9.65037 21.0209 9.65037 21.0571 9.66196C21.1666 9.70464 21.2652 9.76044 21.3659 9.8226C21.3856 9.83469 21.4053 9.84679 21.4256 9.85925C22.0117 10.2241 22.5277 10.684 23.0247 11.1768C23.0835 11.2348 23.0835 11.2348 23.166 11.2914C23.1919 11.3338 23.2176 11.3763 23.2429 11.4191C23.303 11.5112 23.3746 11.592 23.4446 11.6754C23.5286 11.7781 23.6069 11.8853 23.6853 11.9931C23.7319 12.058 23.7319 12.058 23.7891 12.1175C23.8163 12.1688 23.8435 12.2201 23.8703 12.2717C23.9238 12.3719 23.984 12.4672 24.0439 12.5631C24.056 12.5825 24.068 12.6019 24.0804 12.6219C24.1365 12.712 24.1927 12.8021 24.2488 12.8922C24.2896 12.9592 24.3244 13.024 24.3555 13.0967C24.3648 13.0967 24.3742 13.0967 24.3838 13.0967C24.3908 13.1219 24.3978 13.1472 24.405 13.1732C24.4399 13.2787 24.4824 13.3733 24.5309 13.472C24.5537 13.5251 24.5537 13.5251 24.5537 13.5863C24.5911 13.5964 24.6285 13.6065 24.667 13.6169C24.6613 13.634 24.6556 13.6511 24.6497 13.6687C24.6355 13.7596 24.6551 13.8045 24.6887 13.8888C24.7055 13.9319 24.7055 13.9319 24.7226 13.9759C24.7346 14.0057 24.7466 14.0356 24.759 14.0663C24.8853 14.3854 24.9846 14.6999 25.0652 15.0359C25.0725 15.0654 25.0797 15.0949 25.0872 15.1253C25.1303 15.304 25.1647 15.4814 25.1901 15.6641C25.1975 15.6958 25.1975 15.6958 25.2051 15.7282C25.2238 15.7383 25.2425 15.7484 25.2617 15.7588C25.243 15.7588 25.2243 15.7588 25.2051 15.7588C25.2133 15.8039 25.2133 15.8039 25.2217 15.85C25.2719 16.1363 25.3061 16.4209 25.3283 16.7113C25.3304 16.7374 25.3324 16.7635 25.3345 16.7903C25.3362 16.8134 25.3379 16.8366 25.3396 16.8604C25.3455 16.9278 25.3455 16.9278 25.375 17.0134C25.4088 17.5989 25.4088 17.5989 25.2505 17.7972C25.1747 17.8706 25.1062 17.9114 25.0068 17.9313C24.9975 17.9515 24.9881 17.9717 24.9785 17.9925C24.8657 17.9941 24.7529 17.9952 24.6401 17.9959C24.5831 17.9963 24.5261 17.9971 24.4691 17.9979C23.9747 18.0006 23.9747 18.0006 23.7741 17.7982C23.6335 17.6281 23.6116 17.4467 23.6191 17.2276C23.6285 17.2074 23.6378 17.1872 23.6475 17.1664C23.6714 16.5675 23.5679 15.9573 23.4134 15.3844C23.3926 15.2998 23.3926 15.2998 23.3926 15.208C23.3739 15.1979 23.3552 15.1878 23.3359 15.1774C23.3198 15.1279 23.3198 15.1279 23.3041 15.0588C23.123 14.377 22.7753 13.5918 22.3066 13.0862C22.2598 13.0355 22.2598 13.0355 22.2598 12.9743C22.2411 12.9743 22.2224 12.9743 22.2031 12.9743C22.1715 12.9342 22.1418 12.8924 22.1128 12.85C21.8473 12.4836 21.5321 12.1749 21.1836 11.9033C21.1628 11.886 21.142 11.8686 21.1206 11.8507C21.0271 11.7735 20.9941 11.7503 20.8721 11.7503C20.8659 11.7322 20.8597 11.714 20.8534 11.6954C20.8028 11.6055 20.747 11.5771 20.6614 11.5285C20.634 11.5126 20.6066 11.4966 20.5783 11.4802C20.5045 11.4381 20.5045 11.4381 20.4189 11.4443C20.4096 11.4141 20.4002 11.3838 20.3906 11.3526C20.3128 11.2944 20.2249 11.2544 20.1393 11.211C20.1133 11.1978 20.0873 11.1845 20.0605 11.1709C19.8412 11.0625 19.6172 10.973 19.3888 10.8897C19.3563 10.8778 19.3239 10.8659 19.2905 10.8536C19.1331 10.7982 18.9988 10.7552 18.833 10.7712C18.8237 10.751 18.8143 10.7308 18.8047 10.71C18.6772 10.6639 18.5426 10.6394 18.4082 10.6488C18.4082 10.6286 18.4082 10.6084 18.4082 10.5876C18.24 10.5876 18.0717 10.5876 17.8984 10.5876C17.8984 10.5674 17.8984 10.5472 17.8984 10.5264C17.8632 10.5267 17.828 10.5271 17.7917 10.5275C17.5425 10.5292 17.2965 10.5295 17.0488 10.4958C17.0488 10.4655 17.0488 10.4352 17.0488 10.404C17.0266 10.38 17.0044 10.356 16.9816 10.3313C16.8444 10.1831 16.8237 10.0064 16.8213 9.80342C16.8228 9.71219 16.8258 9.62116 16.8293 9.53C16.8301 9.49894 16.8309 9.46788 16.8317 9.43587C16.8393 9.23277 16.866 9.09381 16.9833 8.9295C17.1636 8.77686 17.3534 8.7692 17.5727 8.77459ZM18.6064 8.84344C18.6064 8.85353 18.6064 8.86363 18.6064 8.87404C18.6532 8.87404 18.6999 8.87404 18.748 8.87404C18.748 8.86394 18.748 8.85384 18.748 8.84344C18.7013 8.84344 18.6546 8.84344 18.6064 8.84344Z" fill="#AEDAD7"/>
<path d="M17.4878 11.4688C17.5121 11.4688 17.5365 11.4688 17.5616 11.4688C17.8359 11.4713 18.1059 11.5045 18.3758 11.5568C18.4052 11.56 18.4346 11.5631 18.4648 11.5663C18.4835 11.5461 18.5022 11.5259 18.5215 11.5051C18.5333 11.5194 18.5452 11.5337 18.5574 11.5485C18.6376 11.6276 18.7413 11.6473 18.8436 11.6791C19.0564 11.7482 19.2646 11.8262 19.472 11.9124C19.4978 11.9231 19.5235 11.9338 19.5501 11.9449C19.7292 12.0198 19.7292 12.0198 19.7959 12.0559C19.8146 12.0357 19.8333 12.0155 19.8525 11.9947C19.8525 12.0351 19.8525 12.0755 19.8525 12.1171C19.8768 12.125 19.901 12.1328 19.926 12.141C20.5037 12.3643 21.0979 12.9058 21.4951 13.4022C21.4951 13.4224 21.4951 13.4426 21.4951 13.4634C21.5138 13.4634 21.5325 13.4634 21.5518 13.4634C21.5964 13.5177 21.6371 13.5719 21.6774 13.6298C21.6899 13.6476 21.7024 13.6655 21.7152 13.6838C22.1744 14.35 22.6041 15.1442 22.7267 15.9748C22.7315 15.9943 22.7363 16.0137 22.7412 16.0337C22.7599 16.0438 22.7786 16.0539 22.7979 16.0643C22.8076 16.1313 22.8076 16.1313 22.812 16.2173C22.8192 16.3254 22.8293 16.4261 22.8545 16.531C22.8984 16.7295 22.9031 16.9321 22.9111 17.1353C22.9139 17.1928 22.9139 17.1928 22.9168 17.2515C22.9229 17.4638 22.9214 17.6356 22.7979 17.8085C22.6723 17.9479 22.5191 18.0166 22.3411 18.0287C22.2388 18.0281 22.1371 18.0242 22.035 18.0188C22.0003 18.0177 21.9656 18.0166 21.9299 18.0155C21.4909 17.9961 21.4909 17.9961 21.3208 17.8466C21.3082 17.8283 21.2957 17.8101 21.2827 17.7913C21.2696 17.7729 21.2564 17.7546 21.2429 17.7357C21.186 17.6447 21.1791 17.5838 21.1756 17.4749C21.174 17.4302 21.174 17.4302 21.1724 17.3847C21.1714 17.3535 21.1704 17.3223 21.1694 17.2902C21.1675 17.2287 21.1654 17.1672 21.1632 17.1058C21.1624 17.0784 21.1615 17.0511 21.1606 17.0229C21.1575 16.9469 21.1575 16.9469 21.127 16.8599C21.1281 16.8214 21.1293 16.7829 21.1305 16.7432C21.1331 16.5727 21.0966 16.4144 21.0606 16.2491C21.042 16.1561 21.042 16.1561 21.042 16.0643C21.014 16.0643 20.9859 16.0643 20.957 16.0643C20.9664 16.034 20.9757 16.0037 20.9854 15.9725C20.976 15.9523 20.9667 15.9321 20.957 15.9113C20.9383 15.9113 20.9196 15.9113 20.9004 15.9113C20.8956 15.8768 20.8956 15.8768 20.8908 15.8415C20.7607 15.085 20.2114 14.4803 19.6543 14.0448C19.6075 14.0136 19.5603 13.9829 19.5127 13.953C19.4707 13.922 19.4288 13.8907 19.387 13.8593C19.2899 13.7886 19.2019 13.7413 19.0879 13.7082C19.0525 13.6891 19.0172 13.6697 18.9821 13.65C18.8688 13.5871 18.7586 13.5291 18.6348 13.494C18.6067 13.5092 18.6067 13.5092 18.5781 13.5246C18.5688 13.5044 18.5594 13.4842 18.5498 13.4634C18.1866 13.3291 17.8095 13.2734 17.427 13.265C17.2654 13.259 17.1274 13.2302 17.0005 13.1126C16.9044 12.9743 16.843 12.8806 16.8451 12.7056C16.8452 12.6784 16.8454 12.6512 16.8456 12.6231C16.8461 12.595 16.8466 12.5668 16.847 12.5378C16.8473 12.5092 16.8476 12.4805 16.8478 12.451C16.8485 12.3805 16.8494 12.31 16.8506 12.2395C16.8225 12.2395 16.7945 12.2395 16.7656 12.2395C16.775 12.1991 16.7843 12.1587 16.7939 12.1171C16.8126 12.1171 16.8313 12.1171 16.8506 12.1171C16.8409 12.0877 16.8409 12.0877 16.8311 12.0578C16.8157 11.8946 16.8725 11.7457 16.955 11.6103C16.9673 11.5958 16.9795 11.5812 16.9922 11.5663C16.9828 11.5461 16.9735 11.5259 16.9639 11.5051C17.1394 11.4814 17.3109 11.4686 17.4878 11.4688ZM16.7939 12.1477C16.8126 12.1679 16.8313 12.1881 16.8506 12.2089C16.8506 12.1887 16.8506 12.1685 16.8506 12.1477C16.8319 12.1477 16.8132 12.1477 16.7939 12.1477ZM20.9287 15.8195C20.957 15.8807 20.957 15.8807 20.957 15.8807L20.9287 15.8195Z" fill="#AEDAD7"/>
<path d="M13.4764 18.9072C13.514 18.9074 13.514 18.9074 13.5524 18.9075C13.5912 18.9079 13.5912 18.9079 13.6307 18.9083C13.6571 18.9085 13.6835 18.9086 13.7106 18.9087C13.7754 18.9091 13.8402 18.9096 13.9051 18.9102C13.9051 18.9304 13.9051 18.9506 13.9051 18.9714C13.9255 18.974 13.9459 18.9765 13.967 18.9791C14.1019 19.018 14.1681 19.0883 14.2396 19.2162C14.3052 19.4041 14.3057 19.6411 14.2378 19.8282C14.1904 19.916 14.1481 19.9787 14.075 20.0424C14.0563 20.0424 14.0376 20.0424 14.0183 20.0424C14.009 20.0626 13.9996 20.0828 13.99 20.1036C13.9036 20.1347 13.8463 20.1377 13.7559 20.1372C13.7255 20.1371 13.6951 20.137 13.6637 20.1369C13.6309 20.1366 13.598 20.1364 13.5642 20.1361C13.5305 20.136 13.4968 20.1359 13.4621 20.1358C13.3543 20.1354 13.2465 20.1348 13.1386 20.1342C12.9967 20.1334 12.8548 20.1328 12.7128 20.1323C12.6799 20.132 12.647 20.1318 12.6132 20.1315C12.5828 20.1314 12.5525 20.1313 12.5212 20.1312C12.481 20.131 12.481 20.131 12.4401 20.1307C12.3748 20.1296 12.3748 20.1296 12.3191 20.1648C12.3191 20.1446 12.3191 20.1244 12.3191 20.1036C12.2714 20.1043 12.2714 20.1043 12.2228 20.105C11.9228 20.1094 11.6228 20.1126 11.3228 20.1147C11.1686 20.1158 11.0144 20.1173 10.8601 20.1197C10.7112 20.1221 10.5623 20.1234 10.4134 20.1239C10.3566 20.1243 10.2999 20.1251 10.2432 20.1262C9.74267 20.1361 9.74267 20.1361 9.59468 20C9.45304 19.8256 9.44613 19.6634 9.44991 19.4376C9.46208 19.3015 9.4926 19.2007 9.57205 19.0938C9.711 18.9718 9.81944 18.9369 9.99479 18.9374C10.0229 18.9374 10.0509 18.9374 10.0798 18.9374C10.1105 18.9375 10.1411 18.9377 10.1726 18.9378C10.2212 18.9379 10.2212 18.9379 10.2708 18.938C10.3411 18.9381 10.4114 18.9383 10.4818 18.9385C10.5931 18.9389 10.7043 18.9391 10.8156 18.9393C11.072 18.9396 11.3283 18.9403 11.5846 18.941C11.8382 18.9417 12.0917 18.9422 12.3453 18.9425C12.455 18.9427 12.5647 18.9431 12.6744 18.9435C12.7416 18.9436 12.8088 18.9437 12.876 18.9438C12.9066 18.944 12.9371 18.9441 12.9686 18.9443C13.0108 18.9443 13.0108 18.9443 13.0539 18.9443C13.0783 18.9444 13.1026 18.9444 13.1277 18.9445C13.2463 18.9382 13.3568 18.9064 13.4764 18.9072Z" fill="#AEDAD7"/>
<path d="M19.1162 20.5625C19.1256 20.5625 19.1349 20.5625 19.1445 20.5625C19.1712 21.2571 19.1753 21.9515 19.1746 22.6466C19.1746 22.6689 19.1746 22.6912 19.1746 22.7141C19.1742 23.0888 19.1735 23.4635 19.1727 23.8381C19.172 24.1631 19.1715 24.4881 19.1711 24.8131C19.1711 24.8591 19.1711 24.9051 19.171 24.9511C19.1704 25.4823 19.1722 26.0134 19.1802 26.5445C19.1805 26.5674 19.1808 26.5902 19.1812 26.6138C19.1845 26.8326 19.1882 27.0515 19.1924 27.2703C19.1936 27.3302 19.1946 27.3901 19.1957 27.4499C19.197 27.5223 19.1985 27.5946 19.2001 27.667C19.2032 27.8428 19.1957 28.0077 19.1729 28.1816C19.1713 28.2388 19.1711 28.2961 19.1722 28.3533C19.1731 28.4019 19.1731 28.4019 19.174 28.4515C19.1747 28.4869 19.1755 28.5222 19.1763 28.5586C19.1773 28.6183 19.1784 28.678 19.1794 28.7377C19.1805 28.8033 19.1816 28.8688 19.1828 28.9343C19.202 30.0153 19.2046 31.0964 19.2047 32.1776C19.2047 32.3216 19.2048 32.4655 19.2049 32.6094C19.2059 33.7858 19.1942 34.9613 19.1729 36.1374C19.1542 36.1475 19.1355 36.1576 19.1162 36.168C19.1162 31.0182 19.1162 25.8684 19.1162 20.5625Z" fill="#AEDAD7"/>
<path d="M10.1756 33.2266C10.3133 33.2268 10.451 33.2269 10.5887 33.2269C12.6949 33.2275 14.8011 33.2442 16.9072 33.2612C16.9072 33.2814 16.9072 33.3016 16.9072 33.3224C13.6082 33.3224 10.3092 33.3224 6.91016 33.3224C6.90081 33.3022 6.89146 33.282 6.88184 33.2612C7.97984 33.2381 9.07735 33.2255 10.1756 33.2266Z" fill="#88C4C8"/>
<path d="M16.8789 14.6572C16.8883 14.6572 16.8976 14.6572 16.9072 14.6572C16.9072 15.0611 16.9072 15.465 16.9072 15.8812C13.6175 15.8812 10.3279 15.8812 6.93848 15.8812C6.93848 15.8711 6.93848 15.861 6.93848 15.8506C9.02127 15.825 11.1037 15.8158 13.1866 15.8178C13.4492 15.818 13.7118 15.8182 13.9744 15.8183C14.0027 15.8183 14.0027 15.8183 14.0316 15.8183C14.1266 15.8184 14.2215 15.8184 14.3165 15.8184C15.0857 15.8188 15.8548 15.8193 16.624 15.82C16.624 15.8099 16.624 15.7998 16.624 15.7894C16.6894 15.7894 16.7549 15.7894 16.8223 15.7894C16.8129 15.749 16.8036 15.7086 16.7939 15.667C16.8126 15.667 16.8313 15.667 16.8506 15.667C16.8599 15.3338 16.8693 15.0005 16.8789 14.6572ZM16.8506 15.7282C16.8789 15.7894 16.8789 15.7894 16.8789 15.7894L16.8506 15.7282Z" fill="#9CD2D5"/>
<path d="M9.54395 19.8584C9.56264 19.8584 9.58133 19.8584 9.60059 19.8584C9.60059 19.8786 9.60059 19.8988 9.60059 19.9196C9.73726 19.9795 9.84355 20.0153 9.99174 20.0161C10.0261 20.0164 10.0604 20.0166 10.0958 20.0169C10.1339 20.017 10.172 20.0172 10.2102 20.0173C10.2503 20.0175 10.2904 20.0178 10.3305 20.0181C10.4622 20.0189 10.594 20.0193 10.7258 20.0198C10.7712 20.0199 10.8166 20.0201 10.862 20.0203C11.0508 20.0209 11.2397 20.0215 11.4286 20.0218C11.6991 20.0223 11.9696 20.0233 12.2401 20.0251C12.4304 20.0263 12.6207 20.0269 12.811 20.027C12.9246 20.0271 13.0381 20.0275 13.1517 20.0285C13.2587 20.0294 13.3656 20.0296 13.4726 20.0293C13.5117 20.0293 13.5509 20.0295 13.59 20.03C13.8251 20.0331 13.9732 20.0182 14.1602 19.8584C14.1495 19.9174 14.1495 19.9174 14.1318 19.9808C14.0752 20.0152 14.0752 20.0152 14.0186 20.042C14.0092 20.0622 13.9999 20.0824 13.9902 20.1032C13.9038 20.1343 13.8465 20.1373 13.7561 20.1368C13.7257 20.1367 13.6953 20.1366 13.6639 20.1365C13.6311 20.1362 13.5983 20.136 13.5644 20.1357C13.5307 20.1356 13.4971 20.1355 13.4623 20.1354C13.3545 20.135 13.2467 20.1344 13.1389 20.1338C12.9969 20.133 12.855 20.1324 12.7131 20.1319C12.6802 20.1316 12.6473 20.1314 12.6134 20.1311C12.583 20.131 12.5527 20.1309 12.5214 20.1308C12.4947 20.1306 12.4679 20.1305 12.4403 20.1303C12.375 20.1292 12.375 20.1292 12.3193 20.1644C12.3193 20.1442 12.3193 20.124 12.3193 20.1032C12.2716 20.1038 12.2716 20.1038 12.2228 20.1044C11.9224 20.1082 11.622 20.1109 11.3216 20.1127C11.1671 20.1137 11.0127 20.115 10.8582 20.117C10.7091 20.119 10.56 20.1201 10.4109 20.1206C10.3541 20.1209 10.2972 20.1216 10.2404 20.1226C10.1607 20.1239 10.081 20.1241 10.0013 20.124C9.97788 20.1247 9.9545 20.1254 9.9304 20.126C9.77334 20.1242 9.69307 20.0804 9.5782 19.965C9.54395 19.9196 9.54395 19.9196 9.54395 19.8584Z" fill="#99CCCD"/>
<path d="M24.1289 12.8213C24.2253 12.856 24.2617 12.8918 24.3271 12.9743C24.3484 13.0431 24.3484 13.0431 24.3555 13.0967C24.3648 13.0967 24.3742 13.0967 24.3838 13.0967C24.3908 13.1219 24.3978 13.1472 24.405 13.1732C24.4399 13.2787 24.4824 13.3733 24.5309 13.472C24.5537 13.5251 24.5537 13.5251 24.5537 13.5863C24.5911 13.5964 24.6285 13.6065 24.667 13.6169C24.6613 13.634 24.6556 13.6511 24.6497 13.6687C24.6355 13.7596 24.6551 13.8045 24.6887 13.8888C24.6999 13.9175 24.7111 13.9463 24.7226 13.9759C24.7346 14.0057 24.7467 14.0355 24.759 14.0663C24.8402 14.2713 24.9175 14.4747 24.9785 14.6878C24.9883 14.7218 24.9883 14.7218 24.9983 14.7564C25.0177 14.8252 25.0363 14.8941 25.0546 14.9632C25.061 14.9859 25.0674 15.0087 25.0739 15.0321C25.1176 15.1974 25.126 15.3421 25.1201 15.514C25.08 15.433 25.0531 15.3591 25.0349 15.2694C25.0299 15.2457 25.0249 15.2219 25.0197 15.1974C25.0116 15.1591 25.0116 15.1591 25.0033 15.12C24.8434 14.3961 24.5763 13.6593 24.2095 13.0277C24.1289 12.8883 24.1289 12.8883 24.1289 12.8213Z" fill="#AEDAD7"/>
<path d="M9.54395 19.8584C9.56264 19.8584 9.58133 19.8584 9.60059 19.8584C9.60059 19.8786 9.60059 19.8988 9.60059 19.9196C9.73784 19.9797 9.84444 20.0153 9.99326 20.0162C10.0453 20.0167 10.0453 20.0167 10.0983 20.0171C10.1368 20.0173 10.1753 20.0175 10.2138 20.0177C10.2542 20.018 10.2947 20.0183 10.3352 20.0186C10.4451 20.0194 10.555 20.0201 10.665 20.0207C10.7798 20.0213 10.8947 20.0222 11.0096 20.023C11.2271 20.0245 11.4447 20.0259 11.6622 20.0272C11.9099 20.0287 12.1575 20.0304 12.4052 20.0321C12.9146 20.0356 13.4241 20.0389 13.9336 20.042C13.9336 20.0521 13.9336 20.0622 13.9336 20.0726C13.3932 20.074 12.8529 20.0751 12.3125 20.0758C12.0616 20.0761 11.8107 20.0765 11.5599 20.0772C11.3412 20.0778 11.1225 20.0782 10.9038 20.0783C10.788 20.0784 10.6723 20.0786 10.5565 20.0791C10.4475 20.0795 10.3385 20.0796 10.2295 20.0795C10.1895 20.0795 10.1495 20.0797 10.1095 20.0799C10.0549 20.0802 10.0002 20.0801 9.94558 20.08C9.89973 20.08 9.89973 20.08 9.85295 20.0801C9.74372 20.0701 9.66224 20.0412 9.57758 19.9655C9.54395 19.9196 9.54395 19.9196 9.54395 19.8584Z" fill="#7CBFC4"/>
<path d="M22.8262 17.1357C22.9087 17.2249 22.8923 17.2946 22.8934 17.4188C22.8942 17.4587 22.895 17.4986 22.8959 17.5397C22.8809 17.6729 22.8471 17.7362 22.7695 17.8395C22.6014 17.9817 22.4519 18.0329 22.2396 18.0224C22.2044 18.0208 22.1692 18.0192 22.1329 18.0176C22.0965 18.0156 22.0601 18.0137 22.0226 18.0116C21.967 18.009 21.967 18.009 21.9103 18.0064C21.8191 18.0021 21.7279 17.9974 21.6367 17.9925C21.6274 17.9723 21.618 17.9521 21.6084 17.9313C21.6329 17.9309 21.6575 17.9304 21.6828 17.93C21.7749 17.9281 21.8669 17.9258 21.9589 17.9233C21.9986 17.9223 22.0383 17.9214 22.0779 17.9207C22.4275 17.9267 22.4275 17.9267 22.7307 17.7641C22.8348 17.6382 22.8325 17.5025 22.8297 17.3404C22.8292 17.302 22.8287 17.2636 22.8282 17.2241C22.8275 17.1949 22.8268 17.1658 22.8262 17.1357Z" fill="#8CC7CB"/>
<path d="M22.9678 11.1992C23.082 11.2248 23.1477 11.261 23.2138 11.3694C23.2234 11.3857 23.233 11.402 23.2429 11.4188C23.303 11.5109 23.3746 11.5917 23.4446 11.6751C23.5286 11.7778 23.6069 11.885 23.6853 11.9928C23.7319 12.0577 23.7319 12.0577 23.7891 12.1172C23.8561 12.2372 23.9145 12.3523 23.959 12.4844C23.9403 12.4844 23.9216 12.4844 23.9023 12.4844C23.8581 12.4229 23.8172 12.3612 23.7767 12.297C23.5869 12.0033 23.3937 11.707 23.152 11.4603C23.0799 11.381 23.0251 11.2912 22.9678 11.1992Z" fill="#AEDAD7"/>
<path d="M21.6934 10.0977C21.8376 10.1119 21.9254 10.1894 22.0367 10.2812C22.0648 10.304 22.0648 10.304 22.0935 10.3272C22.2306 10.4388 22.3647 10.5541 22.4964 10.6731C22.5495 10.7207 22.6033 10.7673 22.6577 10.8131C22.6858 10.837 22.714 10.861 22.743 10.8856C22.7684 10.9069 22.7939 10.9282 22.8201 10.9501C22.887 11.0199 22.9122 11.0735 22.9395 11.1686C22.8116 11.0946 22.7171 10.9991 22.6138 10.8913C22.3559 10.6279 22.0846 10.399 21.7796 10.2009C21.7217 10.1589 21.7217 10.1589 21.6934 10.0977Z" fill="#8BC8CB"/>
<path d="M17.3886 18.4512C17.3979 18.4512 17.4073 18.4512 17.4169 18.4512C17.4389 18.6356 17.4475 18.817 17.447 19.0029C17.4469 19.0267 17.4469 19.0504 17.4469 19.0749C17.4458 19.3732 17.4383 19.6714 17.431 19.9696C17.4297 20.0276 17.4283 20.0855 17.427 20.1434C17.4237 20.2831 17.4203 20.4228 17.4169 20.5625C17.4075 20.5625 17.3982 20.5625 17.3886 20.5625C17.3672 20.1532 17.3572 19.7446 17.3567 19.3347C17.3566 19.3135 17.3566 19.2923 17.3565 19.2705C17.3557 18.9961 17.3648 18.7245 17.3886 18.4512Z" fill="#AEDAD7"/>
<path d="M19.0029 8.96504C19.1772 8.95418 19.3213 8.98543 19.4891 9.03676C19.5682 9.06016 19.5682 9.06016 19.6469 9.05588C19.7109 9.05684 19.7109 9.05684 19.7676 9.11804C19.8278 9.14098 19.8887 9.16175 19.9499 9.18115C19.9826 9.1916 20.0152 9.20205 20.0489 9.21282C20.0776 9.22193 20.1062 9.23105 20.1357 9.24043C20.1638 9.25053 20.1918 9.26063 20.2207 9.27103C20.2207 9.29123 20.2207 9.31142 20.2207 9.33223C20.0799 9.31477 19.9573 9.28099 19.8242 9.22896C19.6406 9.15936 19.4589 9.11413 19.2674 9.07752C19.1758 9.05749 19.0908 9.02961 19.0029 8.99564C19.0029 8.98554 19.0029 8.97545 19.0029 8.96504Z" fill="#AEDAD7"/>
<path d="M22.0049 14.2588C22.1159 14.3039 22.1479 14.3617 22.1996 14.4748C22.2213 14.5219 22.2213 14.5219 22.2434 14.57C22.2581 14.603 22.2729 14.636 22.2881 14.67C22.3028 14.7019 22.3176 14.7338 22.3328 14.7667C22.5812 15.3128 22.5812 15.3128 22.5713 15.5439C22.4994 15.4663 22.486 15.3998 22.4545 15.2953C22.3802 15.0592 22.2794 14.8413 22.1731 14.6204C22.1351 14.5411 22.0983 14.4612 22.0615 14.3812C22.0504 14.3572 22.0393 14.3332 22.0279 14.3085C22.0203 14.2921 22.0127 14.2757 22.0049 14.2588Z" fill="#8AC8CB"/>
<path d="M17.3884 30.9355C17.3978 30.9355 17.4071 30.9355 17.4167 30.9355C17.4551 31.5279 17.4579 32.1181 17.4167 32.7103C17.4074 32.7103 17.3981 32.7103 17.3884 32.7103C17.3529 32.117 17.3669 31.5289 17.3884 30.9355Z" fill="#AEDAD7"/>
<path d="M5.26758 37.8818C5.29562 37.8919 5.32365 37.902 5.35254 37.9124C5.35254 37.9326 5.35254 37.9528 5.35254 37.9736C5.38058 37.9837 5.40861 37.9938 5.4375 38.0042C5.45459 38.0228 5.47167 38.0413 5.48927 38.0604C5.58037 38.1585 5.68834 38.2212 5.79814 38.2923C5.81932 38.3083 5.84049 38.3243 5.8623 38.3408C5.8623 38.361 5.8623 38.3812 5.8623 38.402C5.881 38.4045 5.89969 38.4071 5.91895 38.4097C6.03195 38.4402 6.1281 38.496 6.23047 38.555C6.15238 38.5881 6.11998 38.5866 6.03897 38.5573C6.01163 38.5433 5.98429 38.5293 5.95612 38.5149C5.92855 38.5011 5.90099 38.4873 5.87259 38.4731C5.80566 38.4326 5.80566 38.4326 5.77734 38.3714C5.74739 38.3601 5.74739 38.3601 5.71683 38.3485C5.60558 38.296 5.53034 38.216 5.44281 38.1266C5.41743 38.1015 5.41743 38.1015 5.39153 38.0759C5.34896 38.0331 5.30811 37.9882 5.26758 37.943C5.26758 37.9228 5.26758 37.9026 5.26758 37.8818Z" fill="#AEDAD7"/>
<path d="M4.67288 36.7803C4.76814 36.8832 4.78616 36.9727 4.78616 37.1169C4.80486 37.1169 4.82355 37.1169 4.8428 37.1169C4.85874 37.1534 4.85874 37.1534 4.875 37.1907C4.99507 37.4876 4.99507 37.4876 5.21097 37.6982C5.22867 37.7767 5.22867 37.7767 5.23929 37.8512C5.10548 37.8056 5.10548 37.8056 5.07025 37.7353C5.06061 37.713 5.05098 37.6906 5.04105 37.6676C4.99717 37.5957 4.9518 37.525 4.9063 37.4542C4.87113 37.3923 4.87113 37.3923 4.87113 37.3311C4.85243 37.321 4.83374 37.3109 4.81448 37.3005C4.77798 37.2225 4.77798 37.2225 4.74014 37.1245C4.72751 37.0925 4.71488 37.0605 4.70187 37.0275C4.67425 36.9377 4.66679 36.8738 4.67288 36.7803Z" fill="#AEDAD7"/>
<path d="M23.6756 16.5234C23.685 16.5234 23.6943 16.5234 23.7039 16.5234C23.7316 16.6481 23.7355 16.7642 23.735 16.8922C23.735 16.9123 23.7349 16.9325 23.7349 16.9533C23.7347 17.0172 23.7344 17.0811 23.734 17.145C23.7339 17.1885 23.7338 17.232 23.7336 17.2756C23.7333 17.3818 23.7328 17.4881 23.7323 17.5944C23.7136 17.5742 23.6949 17.554 23.6756 17.5332C23.6476 17.5483 23.6476 17.5483 23.619 17.5638C23.6182 17.509 23.6177 17.4542 23.6172 17.3993C23.6169 17.3688 23.6165 17.3383 23.6162 17.3068C23.619 17.2272 23.619 17.2272 23.6473 17.166C23.6516 17.1173 23.6543 17.0684 23.6563 17.0195C23.6574 16.9907 23.6586 16.9619 23.6599 16.9322C23.661 16.9021 23.6621 16.872 23.6632 16.8409C23.6645 16.8105 23.6657 16.7802 23.6669 16.7489C23.6699 16.6737 23.6728 16.5986 23.6756 16.5234Z" fill="#89C6C9"/>
<path d="M17.3887 22.4287C17.4453 22.4899 17.4453 22.4899 17.451 22.5646C17.4504 22.596 17.4498 22.6274 17.4491 22.6598C17.4486 22.6953 17.448 22.7308 17.4474 22.7674C17.4465 22.8059 17.4456 22.8444 17.4446 22.8841C17.4439 22.9234 17.4432 22.9627 17.4425 23.0032C17.4406 23.1078 17.4384 23.2123 17.4361 23.3168C17.4338 23.4235 17.4318 23.5301 17.4298 23.6368C17.4259 23.8461 17.4215 24.0554 17.417 24.2646C17.4076 24.2646 17.3983 24.2646 17.3887 24.2646C17.3887 24.1738 17.3887 24.0829 17.3887 23.9893C17.37 23.9792 17.3513 23.9691 17.332 23.9587C17.3507 23.9587 17.3694 23.9587 17.3887 23.9587C17.3877 23.9243 17.3867 23.8899 17.3856 23.8545C17.3819 23.7254 17.3784 23.5963 17.375 23.4673C17.3735 23.4117 17.372 23.3561 17.3703 23.3005C17.353 22.7082 17.353 22.7082 17.3887 22.4287Z" fill="#78B9BC"/>
<path d="M17.2185 8.84277C17.2185 8.86297 17.2185 8.88316 17.2185 8.90397C17.1697 8.9209 17.1208 8.93784 17.0719 8.95477C16.9899 9.01988 16.9619 9.1074 16.9353 9.20996C16.9224 9.3062 16.9184 9.4016 16.9158 9.49874C16.9149 9.52404 16.9139 9.54935 16.9129 9.57542C16.9106 9.63718 16.9087 9.69896 16.907 9.76074C16.8883 9.77084 16.8696 9.78094 16.8504 9.79134C16.8479 9.69317 16.8464 9.59502 16.845 9.49683C16.8443 9.46918 16.8436 9.44153 16.8429 9.41304C16.8408 9.21192 16.8661 9.07965 16.9937 8.92501C17.079 8.84476 17.0995 8.84277 17.2185 8.84277Z" fill="#87C4C7"/>
<path d="M5.5791 16.4316C5.53895 16.5401 5.50331 16.5644 5.40918 16.6152C5.40042 16.6342 5.39166 16.6531 5.38263 16.6726C5.35254 16.7376 5.35254 16.7376 5.28528 16.7931C5.21708 16.8545 5.19376 16.8858 5.1543 16.9671C5.10431 17.07 5.04517 17.1298 4.95605 17.1966C4.9668 17.0349 5.04832 16.9472 5.14368 16.8313C5.1581 16.8131 5.17252 16.7949 5.18737 16.7762C5.46548 16.4316 5.46548 16.4316 5.5791 16.4316Z" fill="#8CC8CC"/>
<path d="M21.1838 16.6455C21.2118 16.6607 21.2118 16.6607 21.2404 16.6761C21.241 16.7031 21.2415 16.7301 21.2421 16.7579C21.2443 16.8586 21.2468 16.9593 21.2494 17.0599C21.2505 17.1034 21.2515 17.1469 21.2524 17.1903C21.2537 17.253 21.2553 17.3157 21.257 17.3783C21.2579 17.416 21.2588 17.4536 21.2597 17.4924C21.2684 17.5907 21.2838 17.6597 21.3254 17.7471C21.3858 17.7976 21.3858 17.7976 21.4564 17.8331C21.4795 17.8459 21.5027 17.8588 21.5265 17.872C21.5442 17.8812 21.562 17.8905 21.5803 17.9001C21.5803 17.9102 21.5803 17.9203 21.5803 17.9307C21.4624 17.9281 21.3774 17.9129 21.2918 17.8245C21.154 17.6415 21.1869 17.3762 21.1873 17.1523C21.1868 17.1032 21.1862 17.054 21.1855 17.0049C21.1841 16.8851 21.1837 16.7653 21.1838 16.6455Z" fill="#81C1C4"/>
<path d="M17.3889 20.5928C17.3982 20.5928 17.4076 20.5928 17.4172 20.5928C17.4648 20.9914 17.4462 21.387 17.4172 21.7861C17.3569 21.6797 17.3536 21.5955 17.354 21.4719C17.3541 21.4346 17.3541 21.3973 17.3542 21.3589C17.3545 21.32 17.3549 21.2811 17.3553 21.2411C17.3553 21.2026 17.3553 21.1641 17.3553 21.1244C17.3561 20.9437 17.3626 20.7716 17.3889 20.5928Z" fill="#AEDAD7"/>
<path d="M17.3886 27.9365C17.4528 28.0472 17.4526 28.1406 17.4528 28.2695C17.4529 28.2896 17.4529 28.3096 17.453 28.3303C17.453 28.3725 17.4529 28.4148 17.4527 28.457C17.4524 28.5217 17.4527 28.5864 17.453 28.6512C17.453 28.6923 17.4529 28.7333 17.4528 28.7744C17.4527 28.8118 17.4527 28.8491 17.4526 28.8876C17.4453 28.9769 17.4453 28.9769 17.3886 29.0381C17.3592 28.9335 17.3567 28.8374 17.3566 28.7284C17.3565 28.6922 17.3565 28.656 17.3564 28.6187C17.3566 28.581 17.3567 28.5433 17.3568 28.5045C17.3567 28.4669 17.3566 28.4294 17.3564 28.3907C17.3565 28.3544 17.3565 28.3182 17.3566 28.2809C17.3566 28.2478 17.3566 28.2148 17.3567 28.1808C17.3601 28.0959 17.3708 28.0191 17.3886 27.9365Z" fill="#AEDAD7"/>
<path d="M16.9072 11.75C16.9355 11.8112 16.9355 11.8112 16.9232 11.8755C16.8986 12.0123 16.9061 12.1494 16.9083 12.2881C16.9097 12.4286 16.9006 12.56 16.8789 12.6986C16.8696 12.6986 16.8602 12.6986 16.8506 12.6986C16.8506 12.5471 16.8506 12.3956 16.8506 12.2396C16.8225 12.2396 16.7945 12.2396 16.7656 12.2396C16.775 12.1992 16.7843 12.1588 16.7939 12.1172C16.8126 12.1172 16.8313 12.1172 16.8506 12.1172C16.8418 12.085 16.8418 12.085 16.8329 12.0522C16.82 11.9451 16.8414 11.8796 16.8789 11.7806C16.8883 11.7705 16.8976 11.7604 16.9072 11.75ZM16.7939 12.1478C16.8126 12.168 16.8313 12.1882 16.8506 12.209C16.8506 12.1888 16.8506 12.1686 16.8506 12.1478C16.8319 12.1478 16.8132 12.1478 16.7939 12.1478Z" fill="#AEDAD7"/>
<path d="M6.82505 17.8088C6.80764 17.8221 6.79023 17.8354 6.77229 17.8492C6.63781 17.9562 6.54944 18.0351 6.48521 18.2065C6.45717 18.2217 6.45717 18.2217 6.42857 18.2371C6.4239 18.2573 6.41922 18.2775 6.41441 18.2983C6.40974 18.3185 6.40506 18.3387 6.40025 18.3595C6.38156 18.3696 6.36287 18.3797 6.34361 18.3901C6.33114 18.2329 6.35963 18.1582 6.44627 18.0325C6.46533 18.004 6.48438 17.9755 6.50402 17.9461C6.60028 17.8353 6.68501 17.7583 6.82505 17.8088Z" fill="#AEDAD7"/>
<path d="M22.4014 13.1572C22.5341 13.2035 22.5871 13.3216 22.658 13.4422C22.6703 13.4625 22.6826 13.4828 22.6952 13.5038C22.7191 13.5434 22.7427 13.5832 22.766 13.6231C22.7936 13.6702 22.8221 13.7166 22.8508 13.7629C22.8667 13.7963 22.8667 13.7963 22.8828 13.8304C22.8735 13.8607 22.8641 13.891 22.8545 13.9222C22.836 13.8923 22.8175 13.8623 22.7985 13.8315C22.7866 13.8122 22.7747 13.7928 22.7624 13.7729C22.7364 13.7308 22.7105 13.6888 22.6845 13.6467C22.6281 13.5551 22.5716 13.4637 22.5146 13.3725C22.4919 13.336 22.4919 13.336 22.4686 13.2987C22.4554 13.2777 22.4422 13.2566 22.4286 13.2349C22.4014 13.1878 22.4014 13.1878 22.4014 13.1572Z" fill="#AEDAD7"/>
<path d="M20.1074 12.3008C20.2681 12.3142 20.3654 12.3834 20.4933 12.4806C20.5118 12.4942 20.5304 12.5079 20.5495 12.522C20.6007 12.56 20.6515 12.5986 20.7021 12.6374C20.7366 12.663 20.7366 12.663 20.7718 12.6892C20.7862 12.7024 20.8006 12.7156 20.8154 12.7292C20.8154 12.7494 20.8154 12.7696 20.8154 12.7904C20.702 12.7475 20.6171 12.6889 20.5216 12.6106C20.4057 12.5173 20.2903 12.4374 20.1641 12.362C20.1454 12.3418 20.1267 12.3216 20.1074 12.3008Z" fill="#AEDAD7"/>
<path d="M6.34375 32.7715C6.42669 32.8579 6.5019 32.9466 6.57031 33.0469C6.57031 33.0671 6.57031 33.0873 6.57031 33.1081C6.68145 33.159 6.79379 33.196 6.91016 33.2305C6.91016 33.2608 6.91016 33.2911 6.91016 33.3223C6.73932 33.305 6.60466 33.1954 6.4765 33.0794C6.40855 32.9897 6.34375 32.8904 6.34375 32.7715Z" fill="#AEDAD7"/>
<path d="M19.8525 14.1367C19.9358 14.1781 20.0024 14.2254 20.072 14.2897C20.0894 14.3055 20.1068 14.3213 20.1247 14.3375C20.1641 14.3815 20.1641 14.3815 20.1641 14.4427C20.1857 14.4497 20.2073 14.4566 20.2296 14.4637C20.3385 14.5212 20.3666 14.6051 20.4189 14.7181C20.334 14.7181 20.334 14.7181 20.2923 14.6742C20.2774 14.654 20.2626 14.6338 20.2473 14.6129C20.1445 14.4793 20.0295 14.3683 19.9075 14.2555C19.8894 14.2365 19.8712 14.2175 19.8525 14.1979C19.8525 14.1777 19.8525 14.1575 19.8525 14.1367Z" fill="#AEDAD7"/>
<path d="M17.3884 26.7744C17.3978 26.7744 17.4071 26.7744 17.4167 26.7744C17.4518 27.1563 17.4487 27.5245 17.4167 27.9066C17.4074 27.9066 17.3981 27.9066 17.3884 27.9066C17.3828 27.7867 17.3776 27.6669 17.3725 27.547C17.3709 27.5136 17.3693 27.4802 17.3677 27.4458C17.3584 27.2192 17.3658 26.9999 17.3884 26.7744Z" fill="#7CBBBF"/>
<path d="M17.3885 18.4512C17.3978 18.4512 17.4072 18.4512 17.4168 18.4512C17.4509 18.737 17.4477 19.0204 17.4451 19.3079C17.4358 19.2776 17.4264 19.2474 17.4168 19.2161C17.3981 19.206 17.3794 19.196 17.3602 19.1855C17.3561 18.9391 17.3683 18.6966 17.3885 18.4512Z" fill="#86C5C7"/>
<path d="M25.0918 17.8086C25.1105 17.8086 25.1292 17.8086 25.1484 17.8086C25.1391 17.8389 25.1297 17.8692 25.1201 17.9004C25.0826 17.9118 25.0449 17.922 25.0068 17.931C24.9975 17.9512 24.9881 17.9714 24.9785 17.9922C24.7449 17.9821 24.5112 17.972 24.2705 17.9616C24.2705 17.9515 24.2705 17.9414 24.2705 17.931C24.2862 17.9302 24.3019 17.9295 24.3181 17.9287C24.3896 17.9251 24.461 17.9214 24.5325 17.9176C24.5572 17.9164 24.5819 17.9152 24.6074 17.914C24.6313 17.9127 24.6552 17.9114 24.6798 17.9101C24.7018 17.909 24.7237 17.9078 24.7463 17.9067C24.8076 17.9005 24.8626 17.8872 24.9219 17.8698C24.947 17.8647 24.9721 17.8597 24.998 17.8545C25.0621 17.8462 25.0621 17.8462 25.0918 17.8086Z" fill="#86C1C4"/>
<path d="M18.3799 37.8818C18.3986 37.8818 18.4173 37.8818 18.4365 37.8818C18.3926 38.0031 18.3216 38.0662 18.2294 38.1477C18.2027 38.1718 18.1759 38.1959 18.1483 38.2207C18.07 38.2784 18.0199 38.2994 17.9268 38.3102C18.0315 38.1898 18.1451 38.0903 18.2669 37.9905C18.3254 37.9433 18.3254 37.9433 18.3799 37.8818Z" fill="#8AC6C9"/>
<path d="M16.8788 9.97559C16.9068 9.99073 16.9068 9.99073 16.9355 10.0062C16.9436 10.039 16.9518 10.0718 16.9602 10.1056C16.9997 10.2478 17.0491 10.3379 17.1691 10.4135C17.1854 10.4205 17.2018 10.4274 17.2187 10.4346C17.1906 10.4548 17.1626 10.475 17.1337 10.4958C17.1057 10.4857 17.0776 10.4756 17.0487 10.4652C17.0487 10.445 17.0487 10.4248 17.0487 10.404C17.0021 10.3523 16.9549 10.3013 16.9071 10.251C16.8653 10.1605 16.8771 10.0753 16.8788 9.97559Z" fill="#88C5C9"/>
<path d="M19.0029 11.7803C19.1966 11.7961 19.3609 11.8563 19.541 11.9333C19.541 11.9636 19.541 11.9939 19.541 12.0251C19.5223 12.0251 19.5036 12.0251 19.4844 12.0251C19.4844 12.0049 19.4844 11.9847 19.4844 11.9639C19.4567 11.9583 19.4567 11.9583 19.4284 11.9526C19.1536 11.8957 19.1536 11.8957 19.0312 11.8415C19.0219 11.8213 19.0126 11.8011 19.0029 11.7803Z" fill="#AEDAD7"/>
<path d="M17.332 38.6464C17.304 38.6464 17.276 38.6464 17.2471 38.6464C17.2471 38.6666 17.2471 38.6868 17.2471 38.7076C16.9208 38.7779 16.9208 38.7779 16.7656 38.7688C16.7656 38.7486 16.7656 38.7284 16.7656 38.7076C16.8387 38.6913 16.9119 38.6755 16.9851 38.6598C17.0058 38.6552 17.0264 38.6505 17.0477 38.6458C17.1526 38.6236 17.2299 38.6128 17.332 38.6464Z" fill="#AEDAD7"/>
<path d="M4.75781 17.4717C4.7765 17.4717 4.7952 17.4717 4.81445 17.4717C4.79223 17.6116 4.75342 17.7441 4.71356 17.879C4.70694 17.9017 4.70031 17.9243 4.69348 17.9477C4.67723 18.0032 4.66089 18.0588 4.64453 18.1143C4.63519 18.1143 4.62584 18.1143 4.61621 18.1143C4.60831 17.9484 4.63243 17.8273 4.68701 17.6725C4.69377 17.653 4.70052 17.6336 4.70748 17.6135C4.72397 17.5661 4.74085 17.5189 4.75781 17.4717Z" fill="#8AC6CA"/>
<path d="M21.1836 9.76074C21.3053 9.77829 21.3871 9.82505 21.4898 9.89653C21.5174 9.91542 21.5451 9.93431 21.5736 9.95378C21.5944 9.97086 21.6152 9.98794 21.6367 10.0055C21.6367 10.0257 21.6367 10.0459 21.6367 10.0667C21.5225 10.0294 21.4231 9.98841 21.3252 9.91374C21.3252 9.89354 21.3252 9.87335 21.3252 9.85254C21.2785 9.84244 21.2317 9.83234 21.1836 9.82194C21.1836 9.80174 21.1836 9.78155 21.1836 9.76074Z" fill="#8CC8CA"/>
<path d="M20.334 17.3799C20.3433 17.3799 20.3527 17.3799 20.3623 17.3799C20.3764 17.5671 20.3488 17.6597 20.249 17.8083C20.1711 17.8523 20.1711 17.8523 20.1074 17.8695C20.1357 17.7777 20.1357 17.7777 20.1888 17.7279C20.274 17.6251 20.2998 17.5109 20.334 17.3799Z" fill="#AEDAD7"/>
<path d="M19.9092 15.7891C19.9941 15.8197 19.9941 15.8197 20.0406 15.8987C20.0556 15.9313 20.0707 15.9639 20.0862 15.9975C20.1015 16.0299 20.1168 16.0623 20.1326 16.0956C20.1643 16.1876 20.1699 16.2206 20.1357 16.3092C20.1032 16.2398 20.0708 16.1703 20.0384 16.1008C20.0292 16.0811 20.02 16.0615 20.0105 16.0412C19.9717 15.9579 19.9365 15.8777 19.9092 15.7891Z" fill="#AEDAD7"/>
<path d="M16.8789 12.7598C17.0205 12.9893 17.0205 12.9893 17.0205 13.0658C17.0547 13.079 17.0547 13.079 17.0895 13.0925C17.1621 13.127 17.1621 13.127 17.1904 13.1882C17.0839 13.1816 17.0496 13.1584 16.9709 13.0772C16.8996 12.9777 16.8859 12.8854 16.8789 12.7598Z" fill="#AEDAD7"/>
<path d="M17.332 32.8936C17.332 33.0174 17.2971 33.0493 17.2188 33.1383C17.1538 33.1892 17.094 33.2232 17.0205 33.2607C16.9925 33.2506 16.9644 33.2405 16.9355 33.2301C16.9523 33.2187 16.9691 33.2072 16.9863 33.1954C17.1157 33.1049 17.2281 33.0167 17.332 32.8936Z" fill="#AEDAD7"/>
<path d="M21.2119 17.5947C21.2306 17.5947 21.2493 17.5947 21.2686 17.5947C21.2726 17.6168 21.2767 17.6389 21.2809 17.6617C21.3482 17.7926 21.4582 17.837 21.5801 17.9007C21.5801 17.9108 21.5801 17.9209 21.5801 17.9313C21.4816 17.9292 21.408 17.9246 21.3308 17.8542C21.2119 17.7086 21.2119 17.7086 21.2119 17.5947Z" fill="#8BC6C8"/>
<path d="M25.1201 15.5439C25.1388 15.5439 25.1575 15.5439 25.1768 15.5439C25.1803 15.5736 25.1838 15.6033 25.1874 15.6338C25.1961 15.6802 25.1961 15.6802 25.2051 15.7275C25.2238 15.7376 25.2425 15.7477 25.2617 15.7581C25.243 15.7581 25.2243 15.7581 25.2051 15.7581C25.2051 15.8389 25.2051 15.9197 25.2051 16.0029C25.1864 15.9928 25.1677 15.9827 25.1484 15.9723C25.1367 15.8756 25.1367 15.8756 25.1307 15.7562C25.1286 15.7167 25.1265 15.6773 25.1243 15.6366C25.1229 15.606 25.1215 15.5754 25.1201 15.5439Z" fill="#8BC7C9"/>
<path d="M19.0879 36.168C19.1066 36.168 19.1253 36.168 19.1445 36.168C19.15 36.3371 19.1374 36.4665 19.0879 36.627C19.0578 36.5696 19.0578 36.5696 19.0312 36.5046C19.0406 36.4844 19.0499 36.4642 19.0596 36.4434C19.0608 36.4019 19.0607 36.3605 19.0596 36.3191C19.0596 36.1986 19.0596 36.1986 19.0879 36.168Z" fill="#89C7C9"/>
<path d="M17.3887 22.4287C17.4453 22.4899 17.4453 22.4899 17.4518 22.5741C17.4514 22.6069 17.451 22.6397 17.4506 22.6735C17.4504 22.7063 17.4503 22.7391 17.4501 22.7729C17.4453 22.8571 17.4453 22.8571 17.417 22.9183C17.3983 22.9082 17.3796 22.8981 17.3604 22.8877C17.3697 22.7362 17.379 22.5848 17.3887 22.4287Z" fill="#83C3C5"/>
<path d="M20.957 15.7275C21.0505 15.8285 21.0956 15.9508 21.1039 16.0928C21.1022 16.1136 21.1004 16.1345 21.0986 16.1559C21.0799 16.1559 21.0613 16.1559 21.042 16.1559C21.042 16.1256 21.042 16.0953 21.042 16.0641C21.014 16.0641 20.9859 16.0641 20.957 16.0641C20.9664 16.0338 20.9757 16.0035 20.9854 15.9723C20.9827 15.9091 20.9827 15.9091 20.973 15.8442C20.9677 15.8057 20.9624 15.7672 20.957 15.7275Z" fill="#AEDAD7"/>
<path d="M17.417 24.2344C17.4263 24.2344 17.4357 24.2344 17.4453 24.2344C17.4453 24.406 17.4453 24.5777 17.4453 24.7546C17.436 24.7546 17.4266 24.7546 17.417 24.7546C17.4076 24.6334 17.3983 24.5122 17.3887 24.3874C17.3606 24.3773 17.3326 24.3672 17.3037 24.3568C17.3415 24.316 17.3792 24.2752 17.417 24.2344Z" fill="#8AC8CA"/>
<path d="M19.2295 10.7705C19.379 10.787 19.4916 10.8248 19.626 10.8929C19.626 10.903 19.626 10.9131 19.626 10.9235C19.4727 10.9092 19.3653 10.8855 19.2295 10.8011C19.2295 10.791 19.2295 10.7809 19.2295 10.7705Z" fill="#88C5CA"/>
<path d="M6.57031 38.6768C6.6311 38.6802 6.69187 38.6841 6.75262 38.6882C6.80339 38.6914 6.80339 38.6914 6.85518 38.6947C6.88266 38.6989 6.91015 38.703 6.93848 38.7074C6.94782 38.7276 6.95717 38.7477 6.9668 38.7686C6.90138 38.7686 6.83596 38.7686 6.76855 38.7686C6.75921 38.7888 6.74986 38.8089 6.74023 38.8298C6.73089 38.8096 6.72154 38.7894 6.71191 38.7686C6.66537 38.7465 6.61816 38.7259 6.57031 38.7074C6.57031 38.6973 6.57031 38.6872 6.57031 38.6768Z" fill="#89C4C7"/>
<path d="M19.6543 15.4219C19.7039 15.4257 19.7039 15.4257 19.7676 15.4525C19.8278 15.5424 19.8278 15.5424 19.8809 15.6361C19.8996 15.6563 19.9182 15.6765 19.9375 15.6973C19.9188 15.7175 19.9001 15.7377 19.8809 15.7585C19.8483 15.7139 19.8159 15.6693 19.7835 15.6246C19.7564 15.5873 19.7564 15.5873 19.7287 15.5493C19.6826 15.4831 19.6826 15.4831 19.6543 15.4219Z" fill="#AEDAD7"/>
<path d="M20.8154 9.57715C20.8715 9.57715 20.9276 9.57715 20.9854 9.57715C20.9854 9.59734 20.9854 9.61754 20.9854 9.63835C21.0414 9.65854 21.0975 9.67874 21.1553 9.69954C21.1553 9.71974 21.1553 9.73993 21.1553 9.76074C21.1145 9.74771 21.0738 9.73424 21.0331 9.72058C21.0105 9.71313 20.9878 9.70567 20.9644 9.69799C20.8976 9.66767 20.8625 9.63588 20.8154 9.57715Z" fill="#AEDAD7"/>
<path d="M14.0469 19.0017C14.0656 19.032 14.0843 19.0623 14.1035 19.0935C13.9353 19.0733 13.7671 19.0531 13.5938 19.0323C13.5938 19.0222 13.5938 19.0121 13.5938 19.0017C13.6427 18.9957 13.6917 18.99 13.7407 18.9845C13.7679 18.9813 13.7952 18.9781 13.8233 18.9748C13.9054 18.9711 13.9686 18.975 14.0469 19.0017Z" fill="#AEDAD7"/>
<path d="M22.7979 16.585C22.8259 16.5951 22.8539 16.6052 22.8828 16.6156C22.8735 16.767 22.8641 16.9185 22.8545 17.0745C22.8451 17.0745 22.8358 17.0745 22.8262 17.0745C22.8168 16.913 22.8075 16.7514 22.7979 16.585Z" fill="#AEDAD7"/>
<path d="M22.5713 15.5752C22.59 15.5752 22.6087 15.5752 22.6279 15.5752C22.679 15.6924 22.6901 15.7827 22.6846 15.9118C22.627 15.8685 22.6023 15.8338 22.5877 15.7594C22.5808 15.6981 22.576 15.6367 22.5713 15.5752Z" fill="#89C8CD"/>
<path d="M21.5801 13.5859C21.6991 13.6319 21.7469 13.7136 21.8066 13.8307C21.7973 13.861 21.7879 13.8913 21.7783 13.9225C21.7451 13.878 21.7121 13.8334 21.6792 13.7887C21.6516 13.7514 21.6516 13.7514 21.6234 13.7134C21.5801 13.6471 21.5801 13.6471 21.5801 13.5859Z" fill="#89C8CB"/>
<path d="M17.3888 21.8174C17.3982 21.8174 17.4075 21.8174 17.4172 21.8174C17.4234 21.8971 17.4293 21.9767 17.4349 22.0564C17.4367 22.079 17.4385 22.1016 17.4404 22.1249C17.4519 22.2966 17.4519 22.2966 17.3888 22.3988C17.3384 22.2075 17.3521 22.0106 17.3888 21.8174Z" fill="#7EBEC1"/>
<path d="M18.6914 37.4834C18.7008 37.5137 18.7101 37.544 18.7197 37.5752C18.6873 37.6377 18.6873 37.6377 18.6401 37.7033C18.617 37.7362 18.617 37.7362 18.5935 37.7697C18.5791 37.7863 18.5647 37.8029 18.5498 37.82C18.5311 37.82 18.5124 37.82 18.4932 37.82C18.5352 37.6794 18.6022 37.5925 18.6914 37.4834Z" fill="#85C2C5"/>
<path d="M14.1318 19.8584C14.1412 19.8887 14.1505 19.919 14.1602 19.9502C14.1212 19.9961 14.1212 19.9961 14.0752 20.042C14.0565 20.042 14.0378 20.042 14.0186 20.042C14.0092 20.0622 13.9999 20.0824 13.9902 20.1032C13.9715 20.0931 13.9529 20.083 13.9336 20.0726C13.9336 20.0524 13.9336 20.0322 13.9336 20.0114C13.977 19.9719 13.977 19.9719 14.0327 19.9311C14.0511 19.9174 14.0695 19.9038 14.0885 19.8897C14.1028 19.8794 14.1171 19.869 14.1318 19.8584Z" fill="#AEDAD7"/>
<path d="M6.28711 16.064C6.2365 16.0904 6.18573 16.1165 6.13489 16.1424C6.10663 16.157 6.07838 16.1715 6.04926 16.1865C6.02495 16.1966 6.00064 16.2066 5.97559 16.217C5.95689 16.2069 5.9382 16.1968 5.91895 16.1864C6.14666 16.0169 6.14666 16.0169 6.28711 16.064Z" fill="#AEDAD7"/>
<path d="M17.7108 38.4422C17.726 38.4492 17.7412 38.4561 17.7568 38.4633C17.6531 38.5391 17.5696 38.57 17.4453 38.5857C17.4955 38.4772 17.6011 38.4266 17.7108 38.4422Z" fill="#8AC5C9"/>
<path d="M23.7324 17.6553C23.7581 17.6786 23.7838 17.702 23.8103 17.726C23.8773 17.7864 23.9452 17.8445 24.0156 17.9001C23.9537 17.9096 23.9537 17.9096 23.874 17.9001C23.7944 17.8293 23.7944 17.8293 23.7324 17.7471C23.7324 17.7168 23.7324 17.6865 23.7324 17.6553Z" fill="#89C5C7"/>
<path d="M25.29 17.5029C25.2994 17.5029 25.3087 17.5029 25.3184 17.5029C25.3249 17.606 25.328 17.6686 25.2794 17.7592C25.2642 17.7756 25.249 17.792 25.2334 17.8089C25.2147 17.8089 25.196 17.8089 25.1768 17.8089C25.2145 17.7069 25.2523 17.6049 25.29 17.5029Z" fill="#8BC6CA"/>
<path d="M20.7021 15.1768C20.773 15.2433 20.7995 15.2909 20.8154 15.391C20.8341 15.391 20.8528 15.391 20.8721 15.391C20.8721 15.4212 20.8721 15.4515 20.8721 15.4827C20.7871 15.4521 20.7871 15.4521 20.7393 15.3642C20.7021 15.2686 20.7021 15.2686 20.7021 15.1768Z" fill="#AEDAD7"/>
<path d="M21.3535 11.9639C21.4303 12.0132 21.5057 12.0633 21.5801 12.1169C21.5801 12.1371 21.5801 12.1573 21.5801 12.1781C21.4855 12.1598 21.4242 12.1266 21.3535 12.0557C21.3535 12.0254 21.3535 11.9951 21.3535 11.9639Z" fill="#AEDAD7"/>
<path d="M17.3887 27.9365C17.4495 28.0418 17.4481 28.1131 17.4347 28.2349C17.4315 28.265 17.4284 28.2951 17.4252 28.3262C17.4225 28.3491 17.4198 28.3719 17.417 28.3955C17.4076 28.3955 17.3983 28.3955 17.3887 28.3955C17.3509 28.0724 17.3509 28.0724 17.3887 27.9365Z" fill="#7EBDC0"/>
<path d="M19.0879 13.6162C19.2156 13.6547 19.3 13.7051 19.3994 13.7998C19.2874 13.7825 19.2092 13.7472 19.1162 13.6774C19.1069 13.6572 19.0975 13.637 19.0879 13.6162Z" fill="#AEDAD7"/>
<path d="M19.8242 11.9951C19.8336 11.9951 19.8429 11.9951 19.8525 11.9951C19.8525 12.0456 19.8525 12.0961 19.8525 12.1481C19.7684 12.1178 19.6843 12.0875 19.5977 12.0563C19.5977 12.0462 19.5977 12.0361 19.5977 12.0257C19.6631 12.0358 19.7285 12.0459 19.7959 12.0563C19.8052 12.0361 19.8146 12.0159 19.8242 11.9951Z" fill="#8DC8CD"/>
<path d="M20.4189 9.33229C20.4376 9.36259 20.4563 9.39288 20.4756 9.42409C20.2844 9.40114 20.2844 9.40114 20.2207 9.33229C20.306 9.30371 20.3302 9.30033 20.4189 9.33229Z" fill="#AEDAD7"/>
<path d="M21.3535 13.3105C21.4066 13.3297 21.4066 13.3297 21.4668 13.3717C21.5022 13.4674 21.5022 13.4674 21.5234 13.5553C21.3854 13.4138 21.3854 13.4138 21.3535 13.3105Z" fill="#8AC8CC"/>
<path d="M18.3516 13.3408C18.571 13.3638 18.571 13.3638 18.6348 13.4326C18.5928 13.4291 18.551 13.4252 18.5091 13.4211C18.4858 13.419 18.4624 13.4169 18.4384 13.4147C18.4191 13.4105 18.3998 13.4063 18.3799 13.402C18.3705 13.3818 18.3612 13.3616 18.3516 13.3408Z" fill="#AEDAD7"/>
<path d="M19.0029 8.96502C19.0391 8.96313 19.0754 8.96123 19.1127 8.95928C19.1432 8.95768 19.1432 8.95768 19.1744 8.95605C19.1926 8.95901 19.2108 8.96197 19.2295 8.96502C19.2482 8.99531 19.2669 9.02561 19.2861 9.05682C19.1808 9.0413 19.0954 9.02267 19.0029 8.96502Z" fill="#87C6C9"/>
<path d="M18.833 13.6162C18.9171 13.6314 18.9171 13.6314 19.0029 13.6468C18.9498 13.6659 18.9498 13.6659 18.8896 13.6774C18.871 13.6572 18.8523 13.637 18.833 13.6162Z" fill="#99D1D6"/>
<path d="M12.0078 34.8525C12.0358 34.8525 12.0639 34.8525 12.0928 34.8525C12.0928 34.8828 12.0928 34.9131 12.0928 34.9443C12.0361 34.9137 12.0361 34.9137 12.0078 34.8525Z" fill="#AEDAD7"/>
<path d="M7.95801 15.7891C8.01408 15.7891 8.07016 15.7891 8.12793 15.7891C8.12793 15.7991 8.12793 15.8092 8.12793 15.8196C8.07186 15.8196 8.01578 15.8196 7.95801 15.8196C7.95801 15.8095 7.95801 15.7995 7.95801 15.7891Z" fill="#98CCCE"/>
<path d="M20.1924 14.5654C20.2204 14.5957 20.2485 14.626 20.2773 14.6572C20.2493 14.6724 20.2493 14.6724 20.2207 14.6878C20.2114 14.6474 20.202 14.607 20.1924 14.5654Z" fill="#9CD3D6"/>
<path d="M11.8096 38.8301C11.847 38.8301 11.8843 38.8301 11.9229 38.8301C11.9135 38.8503 11.9042 38.8705 11.8945 38.8913C11.8665 38.8711 11.8385 38.8509 11.8096 38.8301Z" fill="#9BD0D1"/>
<path d="M17.332 21.4189C17.3414 21.4593 17.3507 21.4997 17.3604 21.5413C17.3417 21.511 17.323 21.4808 17.3037 21.4495C17.3131 21.4394 17.3224 21.4293 17.332 21.4189Z" fill="#98CFD1"/>
<path d="M21.0986 16.9824C21.1173 16.9824 21.136 16.9824 21.1553 16.9824C21.1459 17.0228 21.1366 17.0632 21.127 17.1048C21.1176 17.0644 21.1083 17.024 21.0986 16.9824Z" fill="#9AD2D4"/>
<path d="M11.1582 15.7891C11.2049 15.7891 11.2517 15.7891 11.2998 15.7891C11.2998 15.7991 11.2998 15.8092 11.2998 15.8196C11.2531 15.8196 11.2063 15.8196 11.1582 15.8196C11.1582 15.8095 11.1582 15.7995 11.1582 15.7891Z" fill="#99CECF"/>
<path d="M23.251 14.9629C23.2697 14.9932 23.2884 15.0235 23.3076 15.0547C23.2796 15.0446 23.2515 15.0345 23.2227 15.0241C23.232 15.0039 23.2413 14.9837 23.251 14.9629Z" fill="#9DD1D3"/>
<path d="M18.3232 14.1982C18.3419 14.2184 18.3606 14.2386 18.3799 14.2594C18.3425 14.2493 18.3051 14.2392 18.2666 14.2288C18.2853 14.2187 18.304 14.2086 18.3232 14.1982Z" fill="#9BD1D3"/>
<path d="M17.3037 11.4131C17.3504 11.4131 17.3972 11.4131 17.4453 11.4131C17.4453 11.4232 17.4453 11.4333 17.4453 11.4436C17.3986 11.4436 17.3519 11.4436 17.3037 11.4436C17.3037 11.4336 17.3037 11.4235 17.3037 11.4131Z" fill="#9CCFD2"/>
<path d="M16.7939 9.91406C16.8033 9.95445 16.8126 9.99484 16.8223 10.0365C16.8036 10.0163 16.7849 9.99607 16.7656 9.97526C16.775 9.95507 16.7843 9.93487 16.7939 9.91406Z" fill="#96CCCB"/>
<path d="M21.4668 9.79199C21.4855 9.80209 21.5042 9.81219 21.5234 9.82259C21.5141 9.84279 21.5047 9.86298 21.4951 9.88379C21.4764 9.86359 21.4577 9.8434 21.4385 9.82259C21.4478 9.81249 21.4572 9.8024 21.4668 9.79199Z" fill="#99CECE"/>
<path d="M10.167 38.8301C10.2803 38.8606 10.2803 38.8606 10.2803 38.8606L10.167 38.8301Z" fill="#99CFD1"/>
<path d="M9.3457 38.8301C9.45898 38.8606 9.45898 38.8606 9.45898 38.8606L9.3457 38.8301Z" fill="#9BCFD1"/>
<path d="M8.04297 38.8301C8.06166 38.8301 8.08035 38.8301 8.09961 38.8301C8.09961 38.8503 8.09961 38.8705 8.09961 38.8913C8.08092 38.8913 8.06223 38.8913 8.04297 38.8913C8.04297 38.8711 8.04297 38.8509 8.04297 38.8301Z" fill="#9CCED1"/>
<path d="M15.8311 17.7783C15.9443 17.8089 15.9443 17.8089 15.9443 17.8089L15.8311 17.7783Z" fill="#AEDAD7"/>
<path d="M14.7266 17.7783C14.8398 17.8089 14.8398 17.8089 14.8398 17.8089L14.7266 17.7783Z" fill="#AEDAD7"/>
<path d="M13.792 17.7783C13.9053 17.8089 13.9053 17.8089 13.9053 17.8089L13.792 17.7783Z" fill="#99D3D4"/>
<path d="M11.7812 17.7783C11.8945 17.8089 11.8945 17.8089 11.8945 17.8089L11.7812 17.7783Z" fill="#99D3D5"/>
<path d="M21.127 17.2275C21.1543 17.3499 21.1543 17.3499 21.1543 17.3499L21.127 17.2275Z" fill="#99CFD2"/>
<path d="M20.9287 16.0645C20.9708 16.0947 20.9708 16.0947 21.0137 16.1257C20.9856 16.1257 20.9576 16.1257 20.9287 16.1257C20.9287 16.1055 20.9287 16.0853 20.9287 16.0645Z" fill="#9AD1D6"/>
<path d="M15.2363 15.7891C15.3496 15.8196 15.3496 15.8196 15.3496 15.8196L15.2363 15.7891Z" fill="#AEDAD7"/>
<path d="M14.5566 15.7588C14.5987 15.7891 14.5987 15.7891 14.6416 15.82C14.6136 15.82 14.5855 15.82 14.5566 15.82C14.5566 15.7998 14.5566 15.7796 14.5566 15.7588Z" fill="#99CFD0"/>
<path d="M13.084 15.7588C13.0933 15.779 13.1027 15.7992 13.1123 15.82C13.0843 15.8099 13.0562 15.7998 13.0273 15.7894C13.046 15.7793 13.0647 15.7692 13.084 15.7588Z" fill="#9ACDCF"/>
<path d="M10.7051 15.7891C10.8184 15.8196 10.8184 15.8196 10.8184 15.8196L10.7051 15.7891Z" fill="#98CDCF"/>
<path d="M19.9658 14.4121C20.0791 14.4427 20.0791 14.4427 20.0791 14.4427L19.9658 14.4121Z" fill="#9CD4D7"/>
<path d="M21.2969 12.0254C21.3242 12.1478 21.3242 12.1478 21.3242 12.1478L21.2969 12.0254Z" fill="#9BD0D4"/>
<path d="M21.0703 11.9336C21.0797 11.9538 21.089 11.974 21.0986 11.9948C21.0706 11.9847 21.0426 11.9746 21.0137 11.9642C21.0324 11.9541 21.0511 11.944 21.0703 11.9336Z" fill="#AEDAD7"/>
<path d="M18.5781 10.6787C18.6062 10.6787 18.6342 10.6787 18.6631 10.6787C18.6537 10.6989 18.6444 10.7191 18.6348 10.7399C18.6161 10.7197 18.5974 10.6995 18.5781 10.6787Z" fill="#9BD3D7"/>
<path d="M18.2383 10.6182C18.3516 10.6487 18.3516 10.6487 18.3516 10.6487L18.2383 10.6182Z" fill="#9DD3D4"/>
<path d="M25.7998 44.3076C25.8848 44.3382 25.8848 44.3382 25.8848 44.3382L25.7998 44.3076Z" fill="#9B9E9D"/>
<path d="M10.3369 44.3076C10.365 44.3228 10.365 44.3228 10.3936 44.3382C10.3655 44.3534 10.3655 44.3534 10.3369 44.3688C10.3369 44.3486 10.3369 44.3284 10.3369 44.3076Z" fill="#AEDAD7"/>
<path d="M8.80762 44.3076C8.89258 44.3382 8.89258 44.3382 8.89258 44.3382L8.80762 44.3076Z" fill="#8A9D9A"/>
<path d="M20.0791 42.8389C20.0978 42.8591 20.1165 42.8793 20.1357 42.9001C20.1171 42.9001 20.0984 42.9001 20.0791 42.9001C20.0791 42.8799 20.0791 42.8597 20.0791 42.8389Z" fill="#899A95"/>
<path d="M13.5938 38.8301C13.6787 38.8606 13.6787 38.8606 13.6787 38.8606L13.5938 38.8301Z" fill="#AEDAD7"/>
<path d="M11.5264 38.8301C11.6113 38.8606 11.6113 38.8606 11.6113 38.8606L11.5264 38.8301Z" fill="#AEDAD7"/>
<path d="M9.94043 38.8301C10.0254 38.8606 10.0254 38.8606 10.0254 38.8606L9.94043 38.8301Z" fill="#99CED1"/>
<path d="M5.91895 38.5244C5.93764 38.5244 5.95633 38.5244 5.97559 38.5244C5.96624 38.5446 5.95689 38.5648 5.94727 38.5856C5.93792 38.5654 5.92857 38.5452 5.91895 38.5244Z" fill="#9ACED0"/>
<path d="M12.5459 35.1279C12.5646 35.1279 12.5833 35.1279 12.6025 35.1279C12.5932 35.1481 12.5838 35.1683 12.5742 35.1891C12.5649 35.1689 12.5555 35.1487 12.5459 35.1279Z" fill="#9AD2D5"/>
<path d="M11.4697 34.9746C11.5547 35.0052 11.5547 35.0052 11.5547 35.0052L11.4697 34.9746Z" fill="#9AD1D2"/>
<path d="M11.4131 34.8828C11.498 34.9134 11.498 34.9134 11.498 34.9134L11.4131 34.8828Z" fill="#AEDAD7"/>
<path d="M27.1309 34.2402C27.2158 34.2708 27.2158 34.2708 27.2158 34.2708L27.1309 34.2402Z" fill="#999F9D"/>
<path d="M15.6045 33.2002C15.6895 33.2308 15.6895 33.2308 15.6895 33.2308L15.6045 33.2002Z" fill="#AEDAD7"/>
<path d="M15.4062 33.2002C15.4912 33.2308 15.4912 33.2308 15.4912 33.2308L15.4062 33.2002Z" fill="#9BD2D2"/>
<path d="M14.2451 33.2002C14.3301 33.2308 14.3301 33.2308 14.3301 33.2308L14.2451 33.2002Z" fill="#9BD0D3"/>
<path d="M17.2754 32.5576C17.2941 32.5778 17.3128 32.598 17.332 32.6188C17.3133 32.6188 17.2946 32.6188 17.2754 32.6188C17.2754 32.5986 17.2754 32.5784 17.2754 32.5576Z" fill="#97CDD0"/>
<path d="M17.332 20.4404C17.3414 20.4606 17.3507 20.4808 17.3604 20.5016C17.3417 20.4915 17.323 20.4814 17.3037 20.471C17.3131 20.4609 17.3224 20.4508 17.332 20.4404Z" fill="#AEDAD7"/>
<path d="M13.1123 17.7783C13.1973 17.8089 13.1973 17.8089 13.1973 17.8089L13.1123 17.7783Z" fill="#AEDAD7"/>
<path d="M9.60059 17.7783C9.61928 17.7783 9.63797 17.7783 9.65723 17.7783C9.64788 17.7985 9.63854 17.8187 9.62891 17.8395C9.61956 17.8193 9.61021 17.7991 9.60059 17.7783Z" fill="#9AD3D4"/>
<path d="M23.5625 16.5234C23.5812 16.5234 23.5999 16.5234 23.6191 16.5234C23.6098 16.5436 23.6004 16.5638 23.5908 16.5846C23.5815 16.5644 23.5721 16.5442 23.5625 16.5234Z" fill="#9AD2D3"/>
<path d="M6.34375 15.9111C6.42871 15.9417 6.42871 15.9417 6.42871 15.9417L6.34375 15.9111Z" fill="#9CCFD1"/>
<path d="M11.8379 15.7891C11.9229 15.8196 11.9229 15.8196 11.9229 15.8196L11.8379 15.7891Z" fill="#99CECF"/>
<path d="M9.82715 15.7891C9.91211 15.8196 9.91211 15.8196 9.91211 15.8196L9.82715 15.7891Z" fill="#9ACDD1"/>
<path d="M7.75977 15.7891C7.84473 15.8196 7.84473 15.8196 7.84473 15.8196L7.75977 15.7891Z" fill="#9ACCCF"/>
<path d="M7.5332 15.7891C7.61816 15.8196 7.61816 15.8196 7.61816 15.8196L7.5332 15.7891Z" fill="#9ACDCF"/>
<path d="M23.1094 14.626C23.1281 14.6462 23.1468 14.6664 23.166 14.6872C23.1473 14.6872 23.1286 14.6872 23.1094 14.6872C23.1094 14.667 23.1094 14.6468 23.1094 14.626Z" fill="#9DD3D5"/>
<path d="M22.9961 14.3506C23.0241 14.3657 23.0241 14.3657 23.0527 14.3812C23.0247 14.3963 23.0247 14.3963 22.9961 14.4118C22.9961 14.3916 22.9961 14.3714 22.9961 14.3506Z" fill="#99D1D4"/>
<path d="M18.0684 14.2285C18.1533 14.2591 18.1533 14.2591 18.1533 14.2591L18.0684 14.2285Z" fill="#9CD4D5"/>
<path d="M20.5605 12.4844C20.5792 12.4844 20.5979 12.4844 20.6172 12.4844C20.6078 12.5046 20.5985 12.5248 20.5889 12.5456C20.5795 12.5254 20.5702 12.5052 20.5605 12.4844Z" fill="#AEDAD7"/>
<path d="M21.3535 12.1172C21.4385 12.1477 21.4385 12.1477 21.4385 12.1477L21.3535 12.1172Z" fill="#AEDAD7"/>
<path d="M8.66602 46.6025C8.72266 46.6331 8.72266 46.6331 8.72266 46.6331L8.66602 46.6025Z" fill="#8C9E99"/>
<path d="M11.3281 46.5107C11.3848 46.5413 11.3848 46.5413 11.3848 46.5413L11.3281 46.5107Z" fill="#8B9D97"/>
<path d="M25.5449 44.3076C25.6016 44.3382 25.6016 44.3382 25.6016 44.3382L25.5449 44.3076Z" fill="#999E9C"/>
<path d="M25.1201 44.3076C25.1768 44.3382 25.1768 44.3382 25.1768 44.3382L25.1201 44.3076Z" fill="#989C9B"/>
<path d="M19.8525 44.3076C19.9092 44.3382 19.9092 44.3382 19.9092 44.3382L19.8525 44.3076Z" fill="#8A9A95"/>
<path d="M18.7764 44.3076C18.833 44.3382 18.833 44.3382 18.833 44.3382L18.7764 44.3076Z" fill="#899C98"/>
<path d="M16.5391 44.3076C16.5957 44.3382 16.5957 44.3382 16.5957 44.3382L16.5391 44.3076Z" fill="#AEDAD7"/>
<path d="M11.7812 44.3076C11.8379 44.3382 11.8379 44.3382 11.8379 44.3382L11.7812 44.3076Z" fill="#AEDAD7"/>
<path d="M9.74219 44.3076C9.79883 44.3382 9.79883 44.3382 9.79883 44.3382L9.74219 44.3076Z" fill="#899D9A"/>
<path d="M8.60938 44.3076C8.66602 44.3382 8.66602 44.3382 8.66602 44.3382L8.60938 44.3076Z" fill="#AEDAD7"/>
<path d="M5.21094 44.3076C5.26758 44.3382 5.26758 44.3382 5.26758 44.3382L5.21094 44.3076Z" fill="#8FA19C"/>
<path d="M3.17188 44.3076C3.22852 44.3382 3.22852 44.3382 3.22852 44.3382L3.17188 44.3076Z" fill="#97A39F"/>
<path d="M0.453125 44.3076C0.509766 44.3382 0.509766 44.3382 0.509766 44.3382L0.453125 44.3076Z" fill="#A6AAAA"/>
<path d="M23.251 43.6035C23.3076 43.6341 23.3076 43.6341 23.3076 43.6341L23.251 43.6035Z" fill="#8E9793"/>
<path d="M26.6494 42.8691C26.7061 42.8997 26.7061 42.8997 26.7061 42.8997L26.6494 42.8691Z" fill="#9B9D9B"/>
<path d="M25.7432 42.8691C25.7998 42.8997 25.7998 42.8997 25.7998 42.8997L25.7432 42.8691Z" fill="#969A98"/>
<path d="M25.5166 42.8691C25.5732 42.8997 25.5732 42.8997 25.5732 42.8997L25.5166 42.8691Z" fill="#959996"/>
<path d="M24.8369 42.8691C24.8936 42.8997 24.8936 42.8997 24.8936 42.8997L24.8369 42.8691Z" fill="#929896"/>
<path d="M24.3838 42.8691C24.4404 42.8997 24.4404 42.8997 24.4404 42.8997L24.3838 42.8691Z" fill="#909794"/>
<path d="M19.3994 42.8691C19.4561 42.8997 19.4561 42.8997 19.4561 42.8997L19.3994 42.8691Z" fill="#AEDAD7"/>
<path d="M17.5869 42.8691C17.6436 42.8997 17.6436 42.8997 17.6436 42.8997L17.5869 42.8691Z" fill="#8AA09C"/>
<path d="M16.4541 42.8691C16.5107 42.8997 16.5107 42.8997 16.5107 42.8997L16.4541 42.8691Z" fill="#8BA09E"/>
<path d="M13.2822 42.8691C13.3389 42.8997 13.3389 42.8997 13.3389 42.8997L13.2822 42.8691Z" fill="#8CA3A0"/>
<path d="M12.6025 42.8691C12.6592 42.8997 12.6592 42.8997 12.6592 42.8997L12.6025 42.8691Z" fill="#8DA5A1"/>
<path d="M3.08691 42.8691C3.14355 42.8997 3.14355 42.8997 3.14355 42.8997L3.08691 42.8691Z" fill="#97A39D"/>
<path d="M16.0859 38.8301C16.1426 38.8606 16.1426 38.8606 16.1426 38.8606L16.0859 38.8301Z" fill="#9BD1D2"/>
<path d="M15.8594 38.8301C15.916 38.8606 15.916 38.8606 15.916 38.8606L15.8594 38.8301Z" fill="#AEDAD7"/>
<path d="M15.1514 38.8301C15.208 38.8606 15.208 38.8606 15.208 38.8606L15.1514 38.8301Z" fill="#9ACFD3"/>
<path d="M14.9531 38.8301C15.0098 38.8606 15.0098 38.8606 15.0098 38.8606L14.9531 38.8301Z" fill="#9BD0D1"/>
<path d="M14.7266 38.8301C14.7832 38.8606 14.7832 38.8606 14.7832 38.8606L14.7266 38.8301Z" fill="#AEDAD7"/>
<path d="M14.1318 38.8301C14.1885 38.8606 14.1885 38.8606 14.1885 38.8606L14.1318 38.8301Z" fill="#AEDAD7"/>
<path d="M13.8203 38.8301C13.877 38.8606 13.877 38.8606 13.877 38.8606L13.8203 38.8301Z" fill="#9AD0D2"/>
<path d="M13.3955 38.8301C13.4521 38.8606 13.4521 38.8606 13.4521 38.8606L13.3955 38.8301Z" fill="#AEDAD7"/>
<path d="M12.2061 38.8301C12.2627 38.8606 12.2627 38.8606 12.2627 38.8606L12.2061 38.8301Z" fill="#9AD1D1"/>
<path d="M10.96 38.8301C11.0166 38.8606 11.0166 38.8606 11.0166 38.8606L10.96 38.8301Z" fill="#9BD1D1"/>
<path d="M10.3936 38.8301C10.4502 38.8606 10.4502 38.8606 10.4502 38.8606L10.3936 38.8301Z" fill="#AEDAD7"/>
<path d="M9.74219 38.8301C9.79883 38.8606 9.79883 38.8606 9.79883 38.8606L9.74219 38.8301Z" fill="#AEDAD7"/>
<path d="M9.60059 38.8301C9.65723 38.8606 9.65723 38.8606 9.65723 38.8606L9.60059 38.8301Z" fill="#9BD1D2"/>
<path d="M9.0625 38.8301C9.11914 38.8606 9.11914 38.8606 9.11914 38.8606L9.0625 38.8301Z" fill="#99D1D2"/>
<path d="M8.83594 38.8301C8.89258 38.8606 8.89258 38.8606 8.89258 38.8606L8.83594 38.8301Z" fill="#99D1D1"/>
<path d="M8.35449 38.8301C8.41113 38.8606 8.41113 38.8606 8.41113 38.8606L8.35449 38.8301Z" fill="#9BCED1"/>
<path d="M8.26953 38.8301C8.32617 38.8606 8.32617 38.8606 8.32617 38.8606L8.26953 38.8301Z" fill="#9BCFD1"/>
<path d="M7.90137 38.8301C7.95801 38.8606 7.95801 38.8606 7.95801 38.8606L7.90137 38.8301Z" fill="#9CCED2"/>
<path d="M16.8223 38.7998C16.8789 38.8304 16.8789 38.8304 16.8789 38.8304L16.8223 38.7998Z" fill="#9ACED0"/>
<path d="M6.85352 38.7998C6.91016 38.8304 6.91016 38.8304 6.91016 38.8304L6.85352 38.7998Z" fill="#9BCED0"/>
<path d="M16.9355 38.7686C16.9922 38.7991 16.9922 38.7991 16.9922 38.7991L16.9355 38.7686Z" fill="#9CD1CF"/>
<path d="M28.0371 34.2402C28.0938 34.2708 28.0938 34.2708 28.0938 34.2708L28.0371 34.2402Z" fill="#A0A5A3"/>
<path d="M26.9043 34.2402C26.9609 34.2708 26.9609 34.2708 26.9609 34.2708L26.9043 34.2402Z" fill="#979E9C"/>
<path d="M23.9873 34.2402C24.0439 34.2708 24.0439 34.2708 24.0439 34.2708L23.9873 34.2402Z" fill="#8C9B96"/>
<path d="M22.8262 34.2402C22.8828 34.2708 22.8828 34.2708 22.8828 34.2708L22.8262 34.2402Z" fill="#8DA09B"/>
<path d="M2.43555 34.2402C2.49219 34.2708 2.49219 34.2708 2.49219 34.2708L2.43555 34.2402Z" fill="#A0BCB9"/>
<path d="M1.98242 34.2402C2.03906 34.2708 2.03906 34.2708 2.03906 34.2708L1.98242 34.2402Z" fill="#A2BAB8"/>
<path d="M26.8477 33.3525C26.9043 33.3831 26.9043 33.3831 26.9043 33.3831L26.8477 33.3525Z" fill="#989F9C"/>
<path d="M22.7695 33.3525C22.8262 33.3831 22.8262 33.3831 22.8262 33.3831L22.7695 33.3525Z" fill="#8D9F9C"/>
<path d="M4.44629 33.3525C4.50293 33.3831 4.50293 33.3831 4.50293 33.3831L4.44629 33.3525Z" fill="#9ECFD0"/>
<path d="M0.792969 33.3525C0.849609 33.3831 0.849609 33.3831 0.849609 33.3831L0.792969 33.3525Z" fill="#AABAB6"/>
<path d="M16.3125 33.2002C16.3691 33.2308 16.3691 33.2308 16.3691 33.2308L16.3125 33.2002Z" fill="#99CFD0"/>
<path d="M9.51562 33.2002C9.57227 33.2308 9.57227 33.2308 9.57227 33.2308L9.51562 33.2002Z" fill="#AEDAD7"/>
<path d="M12.2627 31.9756C12.3193 32.0061 12.3193 32.0061 12.3193 32.0061L12.2627 31.9756Z" fill="#94BDBD"/>
<path d="M23.8174 20.165C23.874 20.1956 23.874 20.1956 23.874 20.1956L23.8174 20.165Z" fill="#94B5AF"/>
<path d="M12.6309 20.1338C12.6875 20.1643 12.6875 20.1643 12.6875 20.1643L12.6309 20.1338Z" fill="#9DD1D0"/>
<path d="M14.2168 19.1553C14.2734 19.1858 14.2734 19.1858 14.2734 19.1858L14.2168 19.1553Z" fill="#AEDAD7"/>
<path d="M13.9336 18.9102C13.9902 18.9407 13.9902 18.9407 13.9902 18.9407L13.9336 18.9102Z" fill="#9BD2D4"/>
<path d="M22.0332 18.0225C22.0898 18.053 22.0898 18.053 22.0898 18.053L22.0332 18.0225Z" fill="#AEDAD7"/>
<path d="M24.9219 17.9922C24.9785 18.0227 24.9785 18.0227 24.9785 18.0227L24.9219 17.9922Z" fill="#9CCDCD"/>
<path d="M24.0156 17.9922C24.0723 18.0227 24.0723 18.0227 24.0723 18.0227L24.0156 17.9922Z" fill="#9BCFD0"/>
<path d="M21.5234 17.9922C21.5801 18.0227 21.5801 18.0227 21.5801 18.0227L21.5234 17.9922Z" fill="#9DD1D3"/>
<path d="M19.8809 17.9922C19.9375 18.0227 19.9375 18.0227 19.9375 18.0227L19.8809 17.9922Z" fill="#9BD2D3"/>
<path d="M19.2861 17.9922C19.3428 18.0227 19.3428 18.0227 19.3428 18.0227L19.2861 17.9922Z" fill="#9CD2D2"/>
<path d="M16.3691 17.7783C16.4258 17.8089 16.4258 17.8089 16.4258 17.8089L16.3691 17.7783Z" fill="#9AD1D4"/>
<path d="M11.9795 17.7783C12.0361 17.8089 12.0361 17.8089 12.0361 17.8089L11.9795 17.7783Z" fill="#AEDAD7"/>
<path d="M10.6201 17.7783C10.6768 17.8089 10.6768 17.8089 10.6768 17.8089L10.6201 17.7783Z" fill="#9AD0D5"/>
<path d="M8.80762 17.7783C8.86426 17.8089 8.86426 17.8089 8.86426 17.8089L8.80762 17.7783Z" fill="#9BD2D3"/>
<path d="M8.35449 17.7783C8.41113 17.8089 8.41113 17.8089 8.41113 17.8089L8.35449 17.7783Z" fill="#AEDAD7"/>
<path d="M7.50488 17.7783C7.56152 17.8089 7.56152 17.8089 7.56152 17.8089L7.50488 17.7783Z" fill="#9CD4D6"/>
<path d="M7.22168 17.7783C7.27832 17.8089 7.27832 17.8089 7.27832 17.8089L7.22168 17.7783Z" fill="#9CD2D5"/>
<path d="M5.40918 16.4316C5.46582 16.4622 5.46582 16.4622 5.46582 16.4622L5.40918 16.4316Z" fill="#9ACCCD"/>
<path d="M5.46582 16.4014C5.52246 16.4319 5.52246 16.4319 5.52246 16.4319L5.46582 16.4014Z" fill="#9CD0D0"/>
<path d="M25.2617 15.8506C25.3184 15.8811 25.3184 15.8811 25.3184 15.8811L25.2617 15.8506Z" fill="#9BCDCE"/>
<path d="M20.0508 15.8506C20.1074 15.8811 20.1074 15.8811 20.1074 15.8811L20.0508 15.8506Z" fill="#9CD1D4"/>
<path d="M0.566406 15.8506C0.623047 15.8811 0.623047 15.8811 0.623047 15.8811L0.566406 15.8506Z" fill="#ADB3B0"/>
<path d="M6.79688 15.8193C6.85352 15.8499 6.85352 15.8499 6.85352 15.8499L6.79688 15.8193Z" fill="#9ACCCD"/>
<path d="M13.9053 15.7891C13.9619 15.8196 13.9619 15.8196 13.9619 15.8196L13.9053 15.7891Z" fill="#AEDAD7"/>
<path d="M13.2539 15.7891C13.3105 15.8196 13.3105 15.8196 13.3105 15.8196L13.2539 15.7891Z" fill="#9ACED1"/>
<path d="M12.9424 15.7891C12.999 15.8196 12.999 15.8196 12.999 15.8196L12.9424 15.7891Z" fill="#99CFCF"/>
<path d="M11.6963 15.7588C11.7529 15.7893 11.7529 15.7893 11.7529 15.7893L11.6963 15.7588Z" fill="#98CECE"/>
<path d="M16.7939 15.085C16.8506 15.1155 16.8506 15.1155 16.8506 15.1155L16.7939 15.085Z" fill="#AEDAD7"/>
<path d="M22.9111 14.29C22.9678 14.3206 22.9678 14.3206 22.9678 14.3206L22.9111 14.29Z" fill="#9BD1D3"/>
<path d="M22.3447 14.2285C22.4014 14.2591 22.4014 14.2591 22.4014 14.2591L22.3447 14.2285Z" fill="#9AD0D1"/>
<path d="M17.1621 14.2285C17.2188 14.2591 17.2188 14.2591 17.2188 14.2591L17.1621 14.2285Z" fill="#9AD3D3"/>
<path d="M9.88379 14.2285C9.94043 14.2591 9.94043 14.2591 9.94043 14.2591L9.88379 14.2285Z" fill="#8FB4B1"/>
<path d="M22.6846 13.8613C22.7412 13.8919 22.7412 13.8919 22.7412 13.8919L22.6846 13.8613Z" fill="#9AD2D5"/>
<path d="M21.7783 13.7393C21.835 13.7698 21.835 13.7698 21.835 13.7698L21.7783 13.7393Z" fill="#AEDAD7"/>
<path d="M18.6631 13.6162C18.7197 13.6468 18.7197 13.6468 18.7197 13.6468L18.6631 13.6162Z" fill="#9AD0D3"/>
<path d="M20.7021 12.1787C20.7588 12.2093 20.7588 12.2093 20.7588 12.2093L20.7021 12.1787Z" fill="#AEDAD7"/>
<path d="M18.2949 11.5049C18.3516 11.5354 18.3516 11.5354 18.3516 11.5354L18.2949 11.5049Z" fill="#9ED1D3"/>
<path d="M19.8525 11.1074C19.9092 11.138 19.9092 11.138 19.9092 11.138L19.8525 11.1074Z" fill="#9BD2D5"/>
<path d="M26.6777 9.94434C26.7344 9.9749 26.7344 9.9749 26.7344 9.9749L26.6777 9.94434Z" fill="#93A49E"/>
<path d="M26.3945 9.79199C26.4512 9.82255 26.4512 9.82255 26.4512 9.82255L26.3945 9.79199Z" fill="#92A4A0"/>
<path d="M20.7021 9.4248C20.7588 9.45536 20.7588 9.45536 20.7588 9.45536L20.7021 9.4248Z" fill="#98CECD"/>
<path d="M13.1973 8.41504C13.2539 8.4456 13.2539 8.4456 13.2539 8.4456L13.1973 8.41504Z" fill="#70837E"/>
<path d="M28.2637 6.12012C28.3203 6.15068 28.3203 6.15068 28.3203 6.15068L28.2637 6.12012Z" fill="#9DA19F"/>
<path d="M10.8184 6.12012C10.875 6.15068 10.875 6.15068 10.875 6.15068L10.8184 6.12012Z" fill="#656F69"/>
<path d="M9.23242 6.12012C9.28906 6.15068 9.28906 6.15068 9.28906 6.15068L9.23242 6.12012Z" fill="#68706C"/>
<path d="M5.46582 5.53809C5.52246 5.56865 5.52246 5.56865 5.52246 5.56865L5.46582 5.53809Z" fill="#80817F"/>
<path d="M1.47266 5.50781C1.5293 5.53837 1.5293 5.53837 1.5293 5.53837L1.47266 5.50781Z" fill="#9FA09D"/>
<path d="M5.04102 5.47754C5.09766 5.5081 5.09766 5.5081 5.09766 5.5081L5.04102 5.47754Z" fill="#818682"/>
<path d="M0.736328 5.47754C0.792969 5.5081 0.792969 5.5081 0.792969 5.5081L0.736328 5.47754Z" fill="#A5A8A5"/>
<path d="M8.7793 5.38574C8.83594 5.4163 8.83594 5.4163 8.83594 5.4163L8.7793 5.38574Z" fill="#6A6F6B"/>
<path d="M11.583 1.56055C11.6396 1.59111 11.6396 1.59111 11.6396 1.59111L11.583 1.56055Z" fill="#656666"/>
<path d="M9.88379 1.49902C9.94043 1.52958 9.94043 1.52958 9.94043 1.52958L9.88379 1.49902Z" fill="#686B67"/>
</svg>
