<svg width="42" height="42" viewBox="0 0 42 42" fill="none" xmlns="http://www.w3.org/2000/svg">
<path d="M33.3005 19.1001C33.3289 19.1178 33.3573 19.1356 33.3865 19.1539C33.3865 19.181 33.3865 19.208 33.3865 19.2359C33.4271 19.2495 33.4677 19.263 33.5096 19.277C33.574 19.3649 33.574 19.3649 33.6377 19.4743C33.659 19.5101 33.6802 19.5459 33.7021 19.5828C33.8371 19.8458 33.8412 20.1588 33.7725 20.4437C33.5757 20.9099 33.1083 21.281 32.7538 21.6306C32.6856 21.7007 32.6219 21.7735 32.5585 21.8481C32.3233 22.1212 32.0603 22.3689 31.8039 22.6218C31.706 22.7211 31.6128 22.8231 31.5203 22.9273C31.3941 23.0685 31.2645 23.2036 31.1307 23.3375C31.0723 23.4022 31.0143 23.4672 30.9563 23.5323C30.8029 23.7041 30.643 23.8671 30.4791 24.0288C30.3751 24.1343 30.2795 24.2454 30.1833 24.3579C30.0548 24.5012 29.9164 24.6345 29.7787 24.7689C29.6934 24.8481 29.6934 24.8481 29.6541 24.9371C29.627 24.9371 29.6 24.9371 29.5721 24.9371C29.5721 24.9642 29.5721 24.9913 29.5721 25.0191C29.5053 25.0901 29.4375 25.1571 29.367 25.2242C29.3217 25.2688 29.2765 25.3135 29.2314 25.3583C29.2077 25.3819 29.1839 25.4055 29.1594 25.4297C28.9569 25.6309 28.7578 25.8317 28.5734 26.0498C28.4617 26.1763 28.3402 26.2929 28.2192 26.4105C28.1348 26.4934 28.1348 26.4934 28.0692 26.5886C28.0416 26.6238 28.0416 26.6238 28.0135 26.6598C27.9864 26.6598 27.9593 26.6598 27.9314 26.6598C27.9227 26.682 27.914 26.7042 27.905 26.7271C27.8293 26.8588 27.7247 26.9553 27.6161 27.0597C27.4497 27.2226 27.2911 27.3877 27.1401 27.5652C27.0294 27.6901 26.9092 27.8054 26.7904 27.9226C26.7107 28.0034 26.6361 28.0859 26.5625 28.1722C26.1117 28.6921 25.5981 29.1755 24.9373 29.4078C24.8918 29.4238 24.8464 29.4399 24.7995 29.4564C24.4579 29.5588 24.1324 29.5875 23.776 29.5898C23.7362 29.5902 23.6965 29.5906 23.6555 29.5911C22.7917 29.5811 21.9359 29.3351 21.0981 29.1448C20.9909 29.1204 20.8837 29.0962 20.7765 29.0721C19.9575 28.8874 19.1396 28.6988 18.3232 28.5029C18.2879 28.4944 18.2526 28.486 18.2163 28.4773C18.0403 28.435 17.8643 28.3927 17.6883 28.3504C16.6887 28.1102 15.69 27.8743 14.6808 27.6775C14.6375 27.669 14.5943 27.6605 14.5497 27.6517C14.4306 27.6285 14.3115 27.6058 14.1923 27.5834C14.1585 27.5769 14.1246 27.5704 14.0898 27.5637C13.944 27.5371 13.8147 27.5212 13.6656 27.5223C13.5319 27.5211 13.4842 27.5021 13.3709 27.4391C13.2883 27.4191 13.2051 27.4017 13.1216 27.3862C13.074 27.3772 13.0264 27.3682 12.9774 27.359C12.9279 27.3499 12.8784 27.3408 12.8274 27.3314C12.7773 27.322 12.7272 27.3126 12.6755 27.3029C12.5519 27.2797 12.4282 27.2567 12.3045 27.234C12.3069 27.2819 12.3092 27.3299 12.3117 27.3793C12.3136 27.4428 12.3155 27.5063 12.3173 27.5698C12.319 27.6013 12.3207 27.6329 12.3225 27.6654C12.3232 27.6962 12.3238 27.727 12.3245 27.7587C12.3256 27.7868 12.3267 27.815 12.3278 27.844C12.2897 27.9867 12.2135 28.0449 12.0994 28.1363C11.9734 28.1566 11.8701 28.1644 11.7443 28.1629C11.709 28.1632 11.6737 28.1636 11.6373 28.164C11.5209 28.1649 11.4045 28.1643 11.2881 28.1636C11.207 28.1637 11.1259 28.1639 11.0449 28.1642C10.8751 28.1645 10.7054 28.164 10.5356 28.1631C10.3181 28.1619 10.1006 28.1626 9.88309 28.1638C9.71574 28.1645 9.5484 28.1643 9.38105 28.1638C9.30086 28.1636 9.22066 28.1638 9.14047 28.1643C9.02833 28.1648 8.91627 28.164 8.80414 28.1629C8.77106 28.1633 8.73799 28.1637 8.70391 28.1641C8.54763 28.1612 8.46281 28.147 8.33797 28.0504C8.22097 27.9022 8.21826 27.8274 8.21817 27.6401C8.21788 27.6113 8.21759 27.5825 8.21729 27.5528C8.21657 27.4564 8.21731 27.36 8.21805 27.2636C8.21784 27.1944 8.21754 27.1252 8.21716 27.056C8.2164 26.8682 8.21694 26.6805 8.21774 26.4927C8.21841 26.2961 8.21805 26.0996 8.21784 25.9031C8.21766 25.573 8.21831 25.243 8.21945 24.913C8.22077 24.5314 8.22077 24.1498 8.22006 23.7683C8.21941 23.4012 8.21969 23.0342 8.22039 22.6671C8.22067 22.5109 8.22063 22.3547 8.22032 22.1985C8.22001 22.0145 8.22051 21.8306 8.22163 21.6466C8.22191 21.5791 8.22192 21.5116 8.22162 21.4441C8.22126 21.3519 8.22192 21.2598 8.22283 21.1677C8.22294 21.1161 8.22306 21.0645 8.22318 21.0114C8.24766 20.8524 8.29514 20.7841 8.408 20.6715C8.49818 20.6428 8.49818 20.6428 8.60022 20.6387C8.6402 20.6368 8.68019 20.6349 8.72138 20.6329C8.78959 20.6317 8.78959 20.6317 8.85917 20.6305C8.9105 20.6292 8.96183 20.628 9.01471 20.6268C9.1955 20.6233 9.37626 20.6226 9.55708 20.6221C9.58979 20.622 9.62251 20.6219 9.65621 20.6218C9.82887 20.6212 10.0015 20.6208 10.1742 20.6206C10.3518 20.6204 10.5293 20.6194 10.7069 20.6182C10.8444 20.6175 10.9818 20.6173 11.1192 20.6172C11.1847 20.6171 11.2502 20.6167 11.3157 20.6162C11.4072 20.6155 11.4987 20.6156 11.5903 20.6158C11.6682 20.6156 11.6682 20.6156 11.7476 20.6154C11.9502 20.6362 12.12 20.6854 12.2604 20.8412C12.3214 21.0036 12.3178 21.1482 12.3122 21.32C12.3113 21.3685 12.3113 21.3685 12.3105 21.418C12.3091 21.4973 12.3068 21.5766 12.3045 21.6559C12.3253 21.6461 12.3461 21.6363 12.3675 21.6262C12.9618 21.3474 13.5624 21.0842 14.1656 20.8253C14.2019 20.8097 14.2382 20.794 14.2756 20.7779C14.7632 20.5681 15.2535 20.3677 15.7498 20.1793C15.7789 20.1681 15.8079 20.1569 15.8379 20.1454C16.0962 20.0468 16.3542 19.9903 16.6239 19.9332C16.658 19.9259 16.692 19.9186 16.727 19.9111C16.7773 19.9005 16.7773 19.9005 16.8285 19.8896C16.8586 19.8832 16.8887 19.8768 16.9198 19.8702C17.1566 19.8258 17.3884 19.8031 17.6291 19.8004C17.6742 19.7998 17.6742 19.7998 17.7201 19.7991C18.7927 19.7876 19.6803 19.9713 20.7017 20.3004C20.8782 20.357 21.0553 20.4112 21.2331 20.4638C21.2823 20.4786 21.3315 20.4933 21.3822 20.5085C21.7243 20.5991 22.0427 20.6425 22.3967 20.6416C22.4401 20.6418 22.4834 20.642 22.5281 20.6422C22.6215 20.6427 22.7149 20.6429 22.8083 20.643C22.9564 20.6431 23.1046 20.6438 23.2527 20.6446C23.6737 20.6469 24.0948 20.6482 24.5158 20.6492C24.7739 20.6498 25.0321 20.6511 25.2903 20.6527C25.3882 20.6531 25.4862 20.6534 25.5842 20.6534C25.7214 20.6534 25.8587 20.6541 25.996 20.6551C26.0559 20.6548 26.0559 20.6548 26.117 20.6545C26.5732 20.6592 26.9447 20.7592 27.2752 21.0816C27.5259 21.3642 27.5799 21.6445 27.5722 22.0175C27.5466 22.3547 27.3971 22.5756 27.1521 22.8043C26.7901 23.0863 26.3347 23.0621 25.9 23.0602C25.8405 23.0603 25.7809 23.0603 25.7214 23.0605C25.5939 23.0607 25.4664 23.0606 25.3389 23.0604C25.1373 23.0601 24.9356 23.0605 24.7339 23.0611C24.1607 23.0626 23.5875 23.0634 23.0143 23.0629C22.6972 23.0627 22.3801 23.0631 22.063 23.0644C21.8625 23.0652 21.6621 23.065 21.4617 23.0642C21.3371 23.064 21.2125 23.0645 21.0879 23.0653C21.0302 23.0656 20.9725 23.0654 20.9147 23.0649C20.5777 23.0463 20.5777 23.0463 20.2882 23.1864C20.1999 23.3299 20.1994 23.4178 20.2205 23.5836C20.255 23.6901 20.2783 23.7321 20.3724 23.7923C20.4909 23.8393 20.5856 23.8403 20.7132 23.8407C20.7637 23.841 20.8143 23.8414 20.8663 23.8417C20.9222 23.8417 20.9781 23.8417 21.034 23.8416C21.093 23.8418 21.1519 23.8421 21.2109 23.8424C21.3711 23.8432 21.5313 23.8434 21.6914 23.8434C21.7917 23.8435 21.892 23.8436 21.9922 23.8439C22.3425 23.8446 22.6929 23.845 23.0432 23.8449C23.3688 23.8448 23.6943 23.8457 24.0199 23.847C24.3 23.8481 24.5802 23.8485 24.8603 23.8485C25.0273 23.8484 25.1943 23.8487 25.3613 23.8495C25.5188 23.8503 25.6762 23.8503 25.8337 23.8497C25.8911 23.8497 25.9485 23.8498 26.0059 23.8503C26.6921 23.8559 27.2218 23.6677 27.7242 23.1953C27.7939 23.1261 27.8631 23.0565 27.932 22.9864C27.9703 22.9482 28.0085 22.9099 28.048 22.8705C28.1517 22.7668 28.2549 22.6626 28.3581 22.5584C28.4665 22.4489 28.5755 22.3398 28.6844 22.2308C28.8901 22.0245 29.0954 21.8179 29.3005 21.6111C29.5338 21.376 29.7676 21.1413 30.0014 20.9067C30.4625 20.4439 30.9232 19.9806 31.3834 19.5168C31.4083 19.4918 31.4332 19.4668 31.4588 19.441C31.4807 19.4174 31.5027 19.3937 31.5253 19.3693C31.5818 19.318 31.5818 19.318 31.6639 19.318C31.6639 19.2909 31.6639 19.2638 31.6639 19.2359C31.736 19.177 31.736 19.177 31.833 19.1129C31.8645 19.0917 31.8959 19.0706 31.9282 19.0488C32.3773 18.7961 32.866 18.8528 33.3005 19.1001Z" fill="#83A061"/>
<path d="M24.7324 11.2382C24.7324 11.2653 24.7324 11.2923 24.7324 11.3202C24.7567 11.3307 24.781 11.3412 24.8061 11.352C24.9051 11.4071 24.9585 11.4635 25.0297 11.5509C25.0618 11.5898 25.0618 11.5898 25.0945 11.6295C25.1183 11.6591 25.1183 11.6591 25.1425 11.6894C25.1872 11.6529 25.2316 11.6161 25.2758 11.5791C25.3006 11.5587 25.3253 11.5382 25.3508 11.5171C25.4343 11.4428 25.4343 11.4428 25.5086 11.3412C25.8034 10.9842 26.3367 10.7823 26.7832 10.705C27.5773 10.6516 28.3267 10.7389 28.9527 11.2756C29.3283 11.6169 29.5683 11.9904 29.7363 12.4687C29.7464 12.4975 29.7566 12.5263 29.767 12.556C29.9772 13.3019 29.7699 14.1205 29.4104 14.7804C29.3824 14.8302 29.3543 14.88 29.3261 14.9296C29.3042 14.9691 29.2823 15.0086 29.2598 15.0493C28.933 15.5997 28.4435 16.1242 27.9495 16.5292C27.8474 16.6017 27.8474 16.6017 27.8085 16.6933C27.7402 16.7343 27.6718 16.7753 27.6035 16.8163C27.5091 16.8881 27.4181 16.964 27.3266 17.0394C25.7958 18.2803 25.7958 18.2803 25.2137 18.3499C25.0164 18.3293 24.8861 18.2588 24.717 18.1596C24.6853 18.1415 24.6535 18.1234 24.6208 18.1048C24.2981 17.917 23.9961 17.7016 23.6953 17.4809C23.6181 17.4252 23.6181 17.4252 23.5027 17.3609C23.4754 17.3436 23.448 17.3263 23.4199 17.3085C23.4199 17.2814 23.4199 17.2544 23.4199 17.2265C23.3918 17.2178 23.3637 17.209 23.3348 17.2C23.1777 17.1273 23.064 17.0255 22.9354 16.9112C22.8974 16.8781 22.8974 16.8781 22.8587 16.8443C22.7858 16.7806 22.7131 16.7165 22.6406 16.6523C22.5765 16.5958 22.5124 16.5394 22.4483 16.4831C22.4245 16.4618 22.4006 16.4406 22.3761 16.4187C22.3051 16.357 22.3051 16.357 22.1894 16.2831C22.1894 16.2561 22.1894 16.229 22.1894 16.2011C22.1653 16.1903 22.1413 16.1795 22.1165 16.1684C21.4393 15.8018 20.8852 14.7689 20.6718 14.0683C20.4761 13.3254 20.5099 12.5855 20.8769 11.8945C20.9627 11.7612 21.0584 11.6433 21.164 11.5253C21.19 11.4945 21.216 11.4638 21.2428 11.4321C22.1232 10.4623 23.7291 10.4579 24.7324 11.2382Z" fill="#83A061"/>
<path d="M8.36719 20.7129C8.42133 20.7264 8.47547 20.74 8.53125 20.7539C8.50462 20.7684 8.47799 20.7829 8.45055 20.7978C8.35498 20.8726 8.35498 20.8726 8.34636 21.0023C8.34621 21.0542 8.34606 21.1061 8.34591 21.1596C8.3456 21.1885 8.34529 21.2174 8.34497 21.2472C8.34414 21.3443 8.34447 21.4414 8.3448 21.5385C8.34444 21.608 8.34401 21.6776 8.34352 21.7471C8.34237 21.9361 8.34223 22.125 8.34227 22.314C8.34215 22.5114 8.3411 22.7088 8.34014 22.9062C8.33848 23.2801 8.33764 23.6539 8.33711 24.0278C8.33646 24.4535 8.33488 24.8791 8.33323 25.3047C8.32985 26.1804 8.32763 27.056 8.32618 27.9316C8.29911 27.9316 8.27204 27.9316 8.24414 27.9316C8.24127 27.0147 8.2391 26.0977 8.23777 25.1807C8.23713 24.7549 8.23627 24.3292 8.23486 23.9034C8.23364 23.5324 8.23284 23.1614 8.23257 22.7903C8.23241 22.5938 8.23203 22.3973 8.23113 22.2008C8.2303 22.0159 8.23004 21.831 8.23023 21.6461C8.23019 21.5782 8.22995 21.5103 8.22948 21.4424C8.22887 21.3497 8.22901 21.2571 8.22935 21.1645C8.22923 21.1126 8.22912 21.0608 8.229 21.0073C8.24507 20.869 8.27277 20.8127 8.36719 20.7129Z" fill="#83A061"/>
<path d="M21.041 14.7656C21.2138 14.9185 21.3262 15.1074 21.4512 15.2988C21.4858 15.3504 21.5208 15.4017 21.5563 15.4526C21.5707 15.4736 21.5851 15.4945 21.6 15.5161C21.6799 15.6153 21.7705 15.7017 21.8613 15.791C21.9017 15.8322 21.9419 15.8734 21.9821 15.9147C22.2253 16.1628 22.4712 16.3961 22.744 16.6121C22.8355 16.6852 22.9228 16.761 23.0098 16.8395C23.2038 17.0109 23.4137 17.1593 23.625 17.3086C23.6617 17.3346 23.6985 17.3606 23.7364 17.3874C23.9163 17.5141 24.0974 17.6388 24.2812 17.7598C24.2203 17.7801 24.2203 17.7801 24.1582 17.8008C24.066 17.7458 23.9826 17.6901 23.8967 17.6265C23.7057 17.4878 23.7057 17.4878 23.5055 17.3631C23.4772 17.3451 23.449 17.3271 23.4199 17.3086C23.4199 17.2815 23.4199 17.2545 23.4199 17.2266C23.3918 17.2178 23.3638 17.2091 23.3348 17.2001C23.1778 17.1274 23.0641 17.0256 22.9354 16.9113C22.9101 16.8892 22.8848 16.8671 22.8588 16.8444C22.7858 16.7806 22.7132 16.7166 22.6406 16.6523C22.5766 16.5959 22.5125 16.5395 22.4484 16.4832C22.4245 16.4619 22.4007 16.4406 22.3761 16.4187C22.3052 16.3571 22.3052 16.3571 22.1895 16.2832C22.1895 16.2561 22.1895 16.2291 22.1895 16.2012C22.1534 16.185 22.1534 16.185 22.1166 16.1685C21.6778 15.931 21.2767 15.3194 21.041 14.8887C21.041 14.8481 21.041 14.8075 21.041 14.7656Z" fill="#83A061"/>
<path d="M9.24171 20.6254C9.30558 20.6252 9.30558 20.6252 9.37074 20.625C9.41633 20.6251 9.46192 20.6252 9.5089 20.6253C9.55618 20.6252 9.60345 20.6252 9.65217 20.6251C9.75208 20.6251 9.85199 20.6252 9.9519 20.6254C10.1044 20.6256 10.2568 20.6254 10.4093 20.6251C10.5065 20.6251 10.6037 20.6252 10.7009 20.6253C10.769 20.6251 10.769 20.6251 10.8386 20.625C11.0585 20.6257 11.2678 20.6335 11.4844 20.6717C11.545 20.6796 11.6057 20.6873 11.6664 20.6948C11.7146 20.7007 11.7628 20.7066 11.8125 20.7127C11.8125 20.7263 11.8125 20.7398 11.8125 20.7537C10.8244 20.7537 9.83637 20.7537 8.81836 20.7537C8.81836 20.7267 8.81836 20.6996 8.81836 20.6717C8.96199 20.6391 9.09455 20.6255 9.24171 20.6254Z" fill="#83A061"/>
<path d="M28.0137 10.8281C28.5679 10.9017 28.9813 11.2569 29.3316 11.6694C29.5628 11.9801 29.7815 12.3581 29.7363 12.7559C29.6516 12.5954 29.5947 12.4286 29.5353 12.2576C29.4127 11.9391 29.2329 11.7274 28.998 11.4844C28.9736 11.4584 28.9492 11.4325 28.924 11.4057C28.6666 11.1557 28.335 11.0193 28.0137 10.8691C28.0137 10.8556 28.0137 10.8421 28.0137 10.8281Z" fill="#83A061"/>
<path d="M33.0445 18.9636C33.1619 19.023 33.2752 19.0849 33.3867 19.1547C33.3867 19.1818 33.3867 19.2089 33.3867 19.2367C33.4273 19.2503 33.4679 19.2638 33.5098 19.2778C33.5681 19.3478 33.5681 19.3478 33.6226 19.4341C33.641 19.4623 33.6594 19.4905 33.6783 19.5195C33.7218 19.6223 33.7117 19.6671 33.6738 19.7699C33.6628 19.7466 33.6518 19.7233 33.6405 19.6993C33.4976 19.4178 33.3228 19.19 33.0251 19.0653C32.8808 19.0281 32.7563 19.0222 32.6074 19.024C32.5351 19.0244 32.5351 19.0244 32.4613 19.0248C32.329 19.0312 32.2042 19.0479 32.0742 19.0727C32.2596 18.7946 32.7584 18.8587 33.0445 18.9636Z" fill="#83A061"/>
<path d="M28.1777 26.332C28.1777 26.4933 28.1206 26.5438 28.0137 26.6602C27.9866 26.6602 27.9595 26.6602 27.9316 26.6602C27.9229 26.6824 27.9142 26.7046 27.9052 26.7274C27.8295 26.8592 27.725 26.9557 27.6163 27.0601C27.4451 27.2271 27.2826 27.3959 27.1318 27.582C27.0627 27.6522 26.9961 27.6875 26.9062 27.7266C26.9612 27.6032 27.021 27.5216 27.119 27.4292C27.2539 27.2991 27.3747 27.1616 27.4938 27.017C27.5625 26.9473 27.5625 26.9473 27.6479 26.9071C27.7487 26.8535 27.7599 26.803 27.8086 26.7012C27.8699 26.6344 27.9333 26.5695 27.9983 26.5063C28.0318 26.4736 28.0653 26.4408 28.0999 26.407C28.1384 26.3699 28.1384 26.3699 28.1777 26.332Z" fill="#83A061"/>
<path d="M29.0801 15.1348C29.0936 15.1754 29.1071 15.216 29.1211 15.2578C28.8271 15.7361 28.3557 16.165 27.9316 16.5293C27.9046 16.5158 27.8775 16.5022 27.8496 16.4883C27.965 16.3725 28.0809 16.2574 28.1978 16.143C28.5204 15.8258 28.8281 15.5128 29.0801 15.1348Z" fill="#83A061"/>
<path d="M20.6308 12.6328C20.6443 12.6328 20.6578 12.6328 20.6718 12.6328C20.6726 12.6617 20.6734 12.6906 20.6742 12.7204C20.6782 12.8536 20.6827 12.9867 20.6871 13.1199C20.6891 13.1881 20.6891 13.1881 20.691 13.2577C20.6998 13.5068 20.721 13.7394 20.7818 13.9815C20.7962 14.0774 20.7834 14.1409 20.7538 14.2324C20.5348 13.7147 20.4839 13.1757 20.6308 12.6328Z" fill="#83A061"/>
<path d="M12.2224 27.1113C12.6691 27.1925 12.6691 27.1925 13.1248 27.2754C13.1248 27.2889 13.1248 27.3025 13.1248 27.3164C12.8379 27.3274 12.5844 27.2984 12.3045 27.2344C12.3045 27.4645 12.3045 27.6946 12.3045 27.9316C12.2639 27.9452 12.2233 27.9587 12.1814 27.9727C12.1802 27.8445 12.1795 27.7163 12.1789 27.5881C12.1785 27.5517 12.1782 27.5152 12.1778 27.4776C12.1777 27.4427 12.1775 27.4078 12.1774 27.3718C12.1772 27.3396 12.177 27.3074 12.1768 27.2742C12.1814 27.1934 12.1814 27.1934 12.2224 27.1113Z" fill="#83A061"/>
<path d="M26.6602 10.787C26.553 10.8942 26.429 10.9361 26.291 10.9921C26.1509 11.0501 26.0187 11.1063 25.8885 11.1844C25.7988 11.2382 25.7988 11.2382 25.7168 11.2382C25.7068 11.2621 25.6967 11.286 25.6864 11.3106C25.6264 11.4172 25.559 11.4777 25.4656 11.5561C25.421 11.5938 25.421 11.5938 25.3755 11.6323C25.3528 11.6512 25.3301 11.67 25.3066 11.6894C25.3066 11.5143 25.3866 11.4513 25.5015 11.3254C25.7997 11.0437 26.2379 10.7684 26.6602 10.787Z" fill="#83A061"/>
<path d="M33.7148 19.8105C33.7419 19.8241 33.769 19.8376 33.7969 19.8516C33.8289 20.2655 33.7638 20.5333 33.508 20.8614C33.4295 20.9531 33.3528 21.0416 33.2637 21.123C33.2366 21.123 33.2095 21.123 33.1816 21.123C33.1816 21.096 33.1816 21.0689 33.1816 21.041C33.2087 21.041 33.2358 21.041 33.2637 21.041C33.273 21.019 33.2823 20.997 33.2919 20.9744C33.3457 20.877 33.3457 20.877 33.4457 20.7616C33.6896 20.4709 33.6988 20.1791 33.7148 19.8105Z" fill="#83A061"/>
<path d="M27.0703 17.1035C27.0703 17.1441 27.0703 17.1847 27.0703 17.2266C26.995 17.2959 26.9217 17.3558 26.8396 17.4163C26.8159 17.434 26.7923 17.4517 26.7679 17.47C26.5902 17.6015 26.4088 17.7276 26.2244 17.8495C26.2001 17.8658 26.1759 17.8822 26.1509 17.899C26.0818 17.9435 26.0818 17.9435 25.9629 18.0059C25.9223 17.9923 25.8817 17.9788 25.8398 17.9648C26.1061 17.7756 26.376 17.5925 26.6492 17.4133C26.7957 17.3166 26.9349 17.2157 27.0703 17.1035Z" fill="#83A061"/>
<path d="M20.5488 20.3027C20.7701 20.3287 20.9743 20.3788 21.1871 20.4437C21.232 20.4571 21.232 20.4571 21.2777 20.4707C21.446 20.5211 21.613 20.5744 21.7793 20.6309C21.7793 20.6444 21.7793 20.6579 21.7793 20.6719C21.5095 20.655 21.2567 20.6364 21 20.5488C21 20.5218 21 20.4947 21 20.4668C20.956 20.4617 20.912 20.4566 20.8667 20.4514C20.7384 20.43 20.6581 20.4093 20.5488 20.3438C20.5488 20.3302 20.5488 20.3167 20.5488 20.3027Z" fill="#83A061"/>
<path d="M23.625 10.7871C24.0383 10.8009 24.4079 10.9859 24.7324 11.2383C24.7324 11.2654 24.7324 11.2924 24.7324 11.3203C24.7595 11.3338 24.7866 11.3474 24.8145 11.3613C24.6623 11.3613 24.6282 11.3221 24.5094 11.2306C24.3155 11.0899 24.1212 10.9981 23.8983 10.9119C23.8038 10.8749 23.7148 10.8341 23.625 10.7871Z" fill="#83A061"/>
<path d="M13.166 27.3162C13.4085 27.3056 13.6246 27.3451 13.8607 27.3982C13.8966 27.406 13.9325 27.4138 13.9694 27.4219C14.0572 27.4411 14.1448 27.4605 14.2324 27.4802C14.2324 27.4938 14.2324 27.5073 14.2324 27.5212C14.1196 27.5235 14.0069 27.5251 13.894 27.5264C13.8622 27.5271 13.8303 27.5277 13.7974 27.5285C13.6328 27.5299 13.5141 27.53 13.3711 27.4392C13.3031 27.4238 13.2348 27.4097 13.166 27.3982C13.166 27.3711 13.166 27.3441 13.166 27.3162Z" fill="#83A061"/>
<path d="M26.168 28.5059C26.1043 28.676 25.9799 28.7699 25.8424 28.8801C25.8203 28.8983 25.7983 28.9164 25.7755 28.9351C25.6765 29.0159 25.5772 29.0911 25.4707 29.1621C25.381 29.1467 25.381 29.1467 25.3066 29.1211C25.3446 29.0957 25.3446 29.0957 25.3834 29.0698C25.6084 28.9164 25.8132 28.7543 26.0116 28.5675C26.0859 28.5059 26.0859 28.5059 26.168 28.5059Z" fill="#83A061"/>
<path d="M25.7168 18.0469C25.7439 18.0604 25.7709 18.0739 25.7988 18.0879C25.7468 18.1214 25.6947 18.1547 25.6425 18.1879C25.5989 18.2157 25.5989 18.2157 25.5545 18.2441C25.3883 18.341 25.25 18.3468 25.0605 18.334C24.9196 18.2725 24.9196 18.2725 24.8145 18.2109C24.8145 18.1839 24.8145 18.1568 24.8145 18.1289C24.8618 18.1433 24.9092 18.1577 24.958 18.1725C25.245 18.2435 25.4559 18.1835 25.7168 18.0469Z" fill="#83A061"/>
<path d="M21.4102 11.2793C21.4372 11.2928 21.4643 11.3064 21.4922 11.3203C21.4492 11.3649 21.4492 11.3649 21.4053 11.4104C21.3676 11.4504 21.3299 11.4904 21.2922 11.5305C21.2551 11.5695 21.218 11.6086 21.1798 11.6488C21.0811 11.7726 21.0443 11.8677 21 12.0176C20.9128 12.0945 20.9128 12.0945 20.8359 12.1406C20.8452 11.7804 21.1647 11.5128 21.4102 11.2793Z" fill="#83A061"/>
<path d="M26.9062 20.877C27.0809 20.8971 27.2008 20.998 27.3164 21.123C27.4555 21.3203 27.5533 21.4901 27.5215 21.7383C27.4535 21.6363 27.4203 21.569 27.3831 21.4563C27.2864 21.1938 27.1403 21.0669 26.9062 20.918C26.9062 20.9044 26.9062 20.8909 26.9062 20.877Z" fill="#83A061"/>
<path d="M17.3086 28.1777C17.59 28.2048 17.8559 28.2695 18.1289 28.3418C18.1289 28.3553 18.1289 28.3689 18.1289 28.3828C17.8441 28.4027 17.5834 28.3292 17.3086 28.2598C17.3086 28.2327 17.3086 28.2056 17.3086 28.1777Z" fill="#83A061"/>
<path d="M31.2949 23.0918C31.237 23.276 31.148 23.3713 31.0078 23.502C30.9642 23.5472 30.9206 23.5925 30.8771 23.6378C30.7617 23.748 30.7617 23.748 30.6797 23.748C30.6797 23.721 30.6797 23.6939 30.6797 23.666C30.7068 23.666 30.7338 23.666 30.7617 23.666C30.7753 23.6254 30.7888 23.5848 30.8027 23.543C30.8298 23.543 30.8569 23.543 30.8848 23.543C30.8958 23.5191 30.9068 23.4952 30.9181 23.4706C30.9674 23.3778 31.0217 23.3048 31.0898 23.2251C31.111 23.1999 31.1321 23.1748 31.1539 23.1488C31.2129 23.0918 31.2129 23.0918 31.2949 23.0918Z" fill="#83A061"/>
<path d="M11.9355 20.6719C12.0491 20.6842 12.1212 20.696 12.2086 20.7719C12.2944 20.9355 12.2766 21.0952 12.2714 21.2769C12.2708 21.3133 12.2703 21.3497 12.2697 21.3872C12.2682 21.4769 12.2662 21.5666 12.2637 21.6562C12.2501 21.6562 12.2366 21.6562 12.2227 21.6562C12.2211 21.6113 12.2196 21.5663 12.218 21.5199C12.2153 21.4602 12.2126 21.4006 12.2098 21.3409C12.2089 21.3114 12.208 21.2818 12.207 21.2513C12.1979 21.069 12.1771 20.9422 12.0586 20.7949C12.018 20.7814 11.9774 20.7679 11.9355 20.7539C11.9355 20.7268 11.9355 20.6998 11.9355 20.6719Z" fill="#83A061"/>
<path d="M29.9414 24.4863C29.9414 24.6397 29.9031 24.669 29.803 24.7811C29.7644 24.8251 29.7644 24.8251 29.7251 24.87C29.6543 24.9375 29.6543 24.9375 29.5723 24.9375C29.5723 24.9646 29.5723 24.9916 29.5723 25.0195C29.4954 25.1067 29.4954 25.1067 29.4082 25.1836C29.3811 25.1836 29.3541 25.1836 29.3262 25.1836C29.3804 25.0633 29.4388 24.9791 29.5329 24.8869C29.5566 24.8633 29.5804 24.8398 29.6049 24.8156C29.6297 24.7915 29.6544 24.7675 29.6799 24.7427C29.705 24.718 29.7301 24.6933 29.7559 24.6679C29.8175 24.6072 29.8794 24.5467 29.9414 24.4863Z" fill="#83A061"/>
<path d="M27.5625 23.3379C27.5896 23.3514 27.6166 23.365 27.6445 23.3789C27.2936 23.704 27.2936 23.704 27.0703 23.7891C27.0432 23.7755 27.0162 23.762 26.9883 23.748C27.0609 23.695 27.1335 23.6421 27.2062 23.5891C27.2466 23.5596 27.2871 23.5301 27.3287 23.4997C27.4056 23.4443 27.4836 23.3905 27.5625 23.3379Z" fill="#83A061"/>
<path d="M29.8594 21.041C29.8864 21.0546 29.9135 21.0681 29.9414 21.082C29.8889 21.1521 29.834 21.2204 29.7773 21.2871C29.7503 21.2871 29.7232 21.2871 29.6953 21.2871C29.6826 21.3226 29.6826 21.3226 29.6697 21.3589C29.5929 21.4846 29.4915 21.5396 29.3672 21.6152C29.4323 21.4552 29.5367 21.3554 29.6594 21.2358C29.6968 21.1993 29.7341 21.1627 29.7725 21.125C29.8012 21.0973 29.8299 21.0696 29.8594 21.041Z" fill="#83A061"/>
<path d="M30.5977 23.7891C30.5977 23.9583 30.5074 24.0283 30.3977 24.1454C30.3788 24.1663 30.36 24.1873 30.3405 24.2089C30.2914 24.2622 30.2396 24.313 30.1875 24.3633C30.1604 24.3633 30.1334 24.3633 30.1055 24.3633C30.1705 24.2032 30.275 24.1034 30.3977 23.9839C30.435 23.9473 30.4724 23.9107 30.5108 23.873C30.5395 23.8453 30.5681 23.8176 30.5977 23.7891Z" fill="#83A061"/>
<path d="M27.2344 22.5586C27.2479 22.5992 27.2614 22.6398 27.2754 22.6816C27.2255 22.7233 27.1749 22.7641 27.1241 22.8047C27.082 22.8389 27.082 22.8389 27.0391 22.8739C26.9314 22.9371 26.865 22.9381 26.7422 22.9277C26.8133 22.8454 26.8624 22.8058 26.9652 22.7662C27.0847 22.7167 27.1485 22.654 27.2344 22.5586Z" fill="#83A061"/>
<path d="M26.9062 23.7895C26.9062 23.8166 26.9062 23.8436 26.9062 23.8715C26.5605 23.9653 26.5605 23.9653 26.373 23.9536C26.373 23.9265 26.373 23.8994 26.373 23.8715C26.7188 23.7778 26.7188 23.7778 26.9062 23.7895Z" fill="#83A061"/>
<path d="M29.2441 21.6562C29.2712 21.6698 29.2983 21.6833 29.3262 21.6973C29.2856 21.7582 29.2856 21.7582 29.2441 21.8203C29.2171 21.8203 29.19 21.8203 29.1621 21.8203C29.152 21.8457 29.1418 21.8711 29.1313 21.8972C29.0716 21.9988 29.0236 22.0234 28.916 22.0664C28.9837 21.8904 29.1103 21.7842 29.2441 21.6562Z" fill="#83A061"/>
<path d="M24.9785 29.3672C24.7747 29.467 24.6362 29.5044 24.4043 29.4902C24.5792 29.3736 24.772 29.2846 24.9785 29.3672Z" fill="#83A061"/>
<path d="M31.7461 22.5586C31.7461 22.704 31.7211 22.7269 31.6282 22.8329C31.6063 22.8584 31.5844 22.884 31.5618 22.9103C31.5 22.9688 31.5 22.9688 31.418 22.9688C31.4857 22.7927 31.6123 22.6866 31.7461 22.5586Z" fill="#83A061"/>
<path d="M20.4258 28.916C20.4848 28.9207 20.5437 28.9259 20.6027 28.9314C20.6519 28.9357 20.6519 28.9357 20.7022 28.94C20.7949 28.957 20.7949 28.957 20.918 29.0391C20.7314 29.0464 20.5948 29.039 20.4258 28.957C20.4258 28.9435 20.4258 28.93 20.4258 28.916Z" fill="#83A061"/>
<path d="M16.6113 28.0136C16.7844 28.0055 16.9054 28.0217 17.0625 28.0956C17.0625 28.1092 17.0625 28.1227 17.0625 28.1366C16.7578 28.1425 16.7578 28.1425 16.6113 28.0956C16.6113 28.0686 16.6113 28.0415 16.6113 28.0136Z" fill="#83A061"/>
<path d="M28.4648 22.4355C28.5054 22.4491 28.5461 22.4626 28.5879 22.4766C28.5608 22.4766 28.5337 22.4766 28.5059 22.4766C28.4923 22.5172 28.4788 22.5578 28.4648 22.5996C28.4378 22.5996 28.4107 22.5996 28.3828 22.5996C28.3693 22.6402 28.3557 22.6808 28.3418 22.7227C28.3147 22.7227 28.2877 22.7227 28.2598 22.7227C28.3128 22.6044 28.3688 22.5228 28.4648 22.4355Z" fill="#83A061"/>
<path d="M24.4043 17.8828C24.5658 17.9366 24.6597 18.0025 24.7734 18.1289C24.6339 18.0855 24.5268 18.0465 24.4043 17.9648C24.4043 17.9378 24.4043 17.9107 24.4043 17.8828Z" fill="#83A061"/>
<path d="M21.9023 10.9512C21.9294 10.9647 21.9565 10.9782 21.9844 10.9922C21.9384 11.0266 21.8922 11.0607 21.8459 11.0947C21.8074 11.1233 21.8074 11.1233 21.7681 11.1524C21.6973 11.1973 21.6973 11.1973 21.6152 11.1973C21.6562 11.0742 21.6562 11.0742 21.7767 11.0024C21.8182 10.9855 21.8596 10.9686 21.9023 10.9512Z" fill="#83A061"/>
<path d="M28.2188 22.7637C28.1616 22.9018 28.0966 22.9682 27.9727 23.0508C27.9984 22.9013 28.0487 22.7637 28.2188 22.7637Z" fill="#83A061"/>
<path d="M23.543 29.6133C23.625 29.6543 23.625 29.6543 23.625 29.6543L23.543 29.6133Z" fill="#83A061"/>
<path d="M14.4785 27.6855C14.5605 27.7266 14.5605 27.7266 14.5605 27.7266L14.4785 27.6855Z" fill="#83A061"/>
<path d="M12.5508 21.4512C12.6328 21.4922 12.6328 21.4922 12.6328 21.4922L12.5508 21.4512Z" fill="#83A061"/>
<path d="M20.7949 14.6016C20.877 14.6426 20.877 14.6426 20.877 14.6426L20.7949 14.6016Z" fill="#83A061"/>
<path d="M25.1016 11.5254C25.1836 11.5664 25.1836 11.5664 25.1836 11.5664L25.1016 11.5254Z" fill="#83A061"/>
</svg>
