<svg width="14" height="14" viewBox="0 0 14 14" fill="none" xmlns="http://www.w3.org/2000/svg">
<path d="M6.33331 8.99992H7.66665V10.3333H6.33331V8.99992ZM6.33331 3.66659H7.66665V7.66658H6.33331V3.66659ZM6.99331 0.333252C3.31331 0.333252 0.333313 3.31992 0.333313 6.99992C0.333313 10.6799 3.31331 13.6666 6.99331 13.6666C10.68 13.6666 13.6666 10.6799 13.6666 6.99992C13.6666 3.31992 10.68 0.333252 6.99331 0.333252ZM6.99998 12.3333C4.05331 12.3333 1.66665 9.94658 1.66665 6.99992C1.66665 4.05325 4.05331 1.66659 6.99998 1.66659C9.94665 1.66659 12.3333 4.05325 12.3333 6.99992C12.3333 9.94658 9.94665 12.3333 6.99998 12.3333Z" fill="#C30000"/>
</svg>
